/* XPM */
static char *result[] = {
/* columns rows colors chars-per-pixel */
"52 52 231 2 ",
"   c #3E142D",
".  c #241F3D",
"X  c #2A1C39",
"o  c #2B1735",
"O  c #381C38",
"+  c #1F203F",
"@  c #36253D",
"#  c #4A192C",
"$  c #581A27",
"%  c #461D37",
"&  c #581D3A",
"*  c #5B2129",
"=  c #4A2A3B",
"-  c #442436",
";  c #582839",
":  c #6A282A",
">  c #762A2A",
",  c #7B2A26",
"<  c #68273B",
"1  c #772935",
"2  c #7F353C",
"3  c #643939",
"4  c #725331",
"5  c #2A1E42",
"6  c #3E1B42",
"7  c #351B41",
"8  c #1D2241",
"9  c #212241",
"0  c #272C49",
"q  c #33314D",
"w  c #353A55",
"e  c #580B4E",
"r  c #451A42",
"t  c #5E134E",
"y  c #5A1B44",
"u  c #5B0D51",
"i  c #570E52",
"p  c #66174D",
"a  c #73134F",
"s  c #78144C",
"d  c #741A4E",
"f  c #620D55",
"g  c #6C0D55",
"h  c #690D59",
"j  c #660959",
"k  c #790B58",
"l  c #641252",
"z  c #6C1354",
"x  c #6C1A50",
"c  c #741255",
"v  c #7B1253",
"b  c #761C53",
"n  c #462540",
"m  c #582041",
"M  c #5A3947",
"N  c #6A2644",
"B  c #712342",
"V  c #782748",
"C  c #703A47",
"Z  c #3F435D",
"A  c #66697E",
"S  c #7E5555",
"D  c #8C312C",
"F  c #963625",
"G  c #882D38",
"H  c #833236",
"J  c #85353B",
"K  c #8A3036",
"L  c #A43D26",
"P  c #874438",
"I  c #964733",
"U  c #B35F2F",
"Y  c #A64A3D",
"T  c #B1493A",
"R  c #AB593C",
"E  c #B8573B",
"W  c #9D7A20",
"Q  c #AB6936",
"!  c #BC6837",
"~  c #AF7331",
"^  c #C95A35",
"/  c #C7772D",
"(  c #CA6D3A",
")  c #C56835",
"_  c #C97537",
"`  c #DB7A34",
"'  c #D37936",
"]  c #D0792C",
"[  c #E0733B",
"{  c #83144F",
"}  c #82184F",
"|  c #880E57",
" . c #831353",
".. c #891355",
"X. c #861B51",
"o. c #8C1755",
"O. c #931555",
"+. c #921B55",
"@. c #961B58",
"#. c #9A1E59",
"$. c #9B1357",
"%. c #A41953",
"&. c #852548",
"*. c #962B4D",
"=. c #8A3647",
"-. c #953641",
";. c #9D314A",
":. c #963C45",
">. c #892251",
",. c #942352",
"<. c #9A2355",
"1. c #9D2259",
"2. c #982754",
"3. c #9B3150",
"4. c #A22549",
"5. c #A53B47",
"6. c #B9364C",
"7. c #A32D56",
"8. c #A12459",
"9. c #A62959",
"0. c #AB2D5A",
"q. c #AF2652",
"w. c #B52C57",
"e. c #A43153",
"r. c #AE3B54",
"t. c #AE325A",
"y. c #AA3555",
"u. c #B13D55",
"i. c #B3335B",
"p. c #B4395A",
"a. c #BC3D5B",
"s. c #B8375C",
"d. c #CB3A54",
"f. c #C53D60",
"g. c #984646",
"h. c #915E51",
"j. c #945951",
"k. c #A24742",
"l. c #B44845",
"z. c #A85549",
"x. c #BA5146",
"c. c #A84858",
"v. c #B54254",
"b. c #BB4A53",
"n. c #B64158",
"m. c #BA425A",
"M. c #B94654",
"N. c #A8585F",
"B. c #BA585B",
"V. c #975860",
"C. c #855962",
"Z. c #BE4861",
"A. c #8B6E65",
"S. c #BC6D6C",
"D. c #C2554B",
"F. c #C45845",
"G. c #C24D55",
"H. c #C2425B",
"J. c #C34C59",
"K. c #CB4C5C",
"L. c #C94859",
"P. c #D24B5C",
"I. c #C65156",
"U. c #CB5456",
"Y. c #CD5458",
"T. c #C95656",
"R. c #D3545B",
"E. c #DA555E",
"W. c #D45A59",
"Q. c #DD5B5D",
"!. c #D25854",
"~. c #CD5245",
"^. c #E35C5F",
"/. c #E45C4F",
"(. c #CB6746",
"). c #D46747",
"_. c #DB605E",
"`. c #D76152",
"'. c #D87646",
"]. c #E97B4B",
"[. c #E5635E",
"{. c #E86B5F",
"}. c #E9755B",
"|. c #CE5D6D",
" X c #CE4960",
".X c #E15B60",
"XX c #E45962",
"oX c #CC757A",
"OX c #D06B6F",
"+X c #E66463",
"@X c #E86864",
"#X c #EA7663",
"$X c #E46C78",
"%X c #E4767E",
"&X c #AAA320",
"*X c #E29A1D",
"=X c #D4AF15",
"-X c #EAA31D",
";X c #F4AC1B",
":X c #F6B119",
">X c #D78632",
",X c #D18C2A",
"<X c #E58A2B",
"1X c #E79827",
"2X c #E78938",
"3X c #E79336",
"4X c #EAA323",
"5X c #F0A322",
"6X c #EBB52B",
"7X c #E8C71B",
"8X c #F3CE12",
"9X c #F8E40E",
"0X c #D7C52C",
"qX c #B68A74",
"wX c #D08652",
"eX c #DA894E",
"rX c #EB9449",
"tX c #EA8E58",
"yX c #DBA057",
"uX c #C89079",
"iX c #DCA270",
"pX c #E67A82",
"aX c #7F8294",
"sX c #9D9FAC",
"dX c #A8AAB6",
"fX c #8B8D9D",
"gX c #DF8181",
"hX c #CBA681",
"jX c #E59D8A",
"kX c #CDCED5",
"lX c #FCFDFD",
/* pixels */
"8 8 8 8 8 8 8 8 8 8 8 8 8 8 8 8 8 8 8 8 8 8 8 8 8 8 8 8 8 8 8 8 8 8 8 8 8 8 8 8 8 8 8 8 8 8 8 8 8 8 8 8 ",
"8 8 8 8 8 8 8 8 8 8 8 8 8 8 8 8 8 8 8 8 8 8 8 8 8 8 8 8 8 8 8 8 8 8 8 8 8 8 8 8 8 8 8 8 8 8 8 8 8 8 8 8 ",
"8 8 8 8 8 8 8 8 8 8 8 8 8 8 8 8 8 8 8 8 8 8 8 8 8 8 8 8 8 8 8 8 8 8 8 8 8 8 8 8 8 8 8 8 8 8 8 8 8 8 8 8 ",
"8 8 8 8 8 8 8 8 8 8 8 8 8 8 8 8 8 8 8 8 8 8 8 8 8 8 8 8 8 8 8 8 8 8 8 8 8 8 8 8 8 8 8 8 8 8 8 8 8 8 8 8 ",
"8 8 8 8 8 8 8 8 8 8 8 8 + + + + 8 8 8 8 8 8 + 8 8 8 8 + 8 8 8 8 8 8 8 8 8 8 8 8 8 8 8 8 8 8 8 8 8 8 8 8 ",
"8 8 8 8 8 8 8 8 8 8 8 8 + + + + 8 8 8 8 8 8 + + 8 8 8 + 8 8 8 8 8 8 8 8 8 8 8 8 8 8 8 8 8 8 8 8 8 8 8 8 ",
"8 8 8 8 8 8 8 8 8 8 8 8 + + + + 8 8 8 0 8 0 8 + 8 + + + + + 8 8 8 8 8 8 8 8 8 8 8 8 8 8 8 8 8 8 8 8 8 8 ",
"8 8 8 8 8 8 8 8 8 8 8 + + + + o 8 + + 0 8 S Z X # - # - + @ + 8 8 8 8 8 8 8 0 fX8 8 8 8 8 8 8 8 8 8 8 8 ",
"8 8 8 8 8 8 8 8 8 0 aX8 + + o     # , * z.C.I G : , D > : & $ % . 8 8 8 8 8 dXlXsX8 8 8 8 8 8 8 8 8 8 8 ",
"8 8 8 8 8 8 8 8 8 A lXkXo # $ $ , F , &.V 2X~ Q t p d x &.G > K > % 8 8 8 8 q kXZ 8 8 8 8 8 8 8 8 8 8 8 ",
"8 8 8 8 8 8 8 8 8 q dXZ $ F , F D D d h b f V Q N P i i f l b G 1 H ; 8 8 8 8 8 8 8 8 8 8 8 8 8 8 8 8 8 ",
"8 8 8 8 8 8 8 8 8 8 8 # L F ^ 4.} k z l l u t i p =.N =.V t N h V K K : O + 8 8 8 8 8 8 8 8 8 8 8 8 8 8 ",
"8 8 8 8 8 8 8 8 8 8 O > ` 1Xd.4.{ l t t t t p t t u u i x ) N N h x =.1 1 % 8 8 8 8 8 8 8 8 8 8 8 8 8 8 ",
"8 8 8 8 8 8 8 8 8 8 * T ` /.[ 4.s f t t t t t t t l z z h =.,XN z c h &.1 J % 8 8 8 8 8 8 8 8 8 8 8 8 8 ",
"8 8 8 8 8 8 8 8 8 # > D w.d.d.^ g l t t t t t t l z x u =.=.h ! p u e h b J 2 % 8 8 8 8 8 8 8 8 8 8 8 8 ",
"8 8 8 8 8 8 8 . X > > c *.d.^ d.U f l t t l t z z z i k.Y t g.) ;XQ e h t d J % % 8 8 8 8 8 8 8 8 8 8 8 ",
"8 8 8 8 8 + + X : B p x &.>.| =.Q Q f l v $.g c c c g.Y ~ d Q / ~ ~ R g.f g.,XH @ 7 8 8 8 8 8 8 8 8 8 8 ",
"8 8 8 8 8 + + # H B B t l l h g =.R R d | $.s -.&.Y ..>.k k.k.k c h b b =.~ ~ 8X1 X 9 8 8 8 8 8 8 8 8 8 ",
"8 8 8 8 8 8 O I I V t l t l g g k X.T Y Y =.:.-.,.O.| | O.o.;. .| ..v h c h j.,Xk.< 8 8 8 8 8 8 8 8 8 8 ",
"8 8 8 8 8 8 $ :.:.e z l z z O.$. .O.| l.l.#.e.@.@.#.1.@.| ( -.| $.O.| v c c c ..k.OX= 8 8 8 8 8 8 8 8 8 ",
"8 8 8 8 8   : > f z z c a a a { @.@.8.1.1.8.8.9.8.8.9.8.#.7X7X..#.O.@. .v v v | i.z.z.@ + 8 8 8 8 8 8 8 ",
"8 8 8 8 8 $ : z z c z a a v s  .o.8.8.2.0.9.0.0.0.0.t.0.i.n.,X@.#.8.+.{  .s v %.d.( =.9 9 8 8 8 8 8 8 8 ",
"8 8 8 8 X X 1 f z c g a v s  .} X.X.8.7.t.t.s.i.i.s.i.s.i.t.x.] +.<.,.{ O.{ { q.2XrXT n 8 8 8 8 8 8 8 8 ",
"8 8 8 8 X $ 1 >.h  .L &.-.s Y T &.V ^ >.,.0.e.a.a.s.s.f.i.i.i.` ) <.+.,.X.{ { 7.~.).J J 8 8 8 8 8 8 8 8 ",
"8 8 8 8 8 * x.>.~.*.L 5. .3.*.e.e.r.F.! 2X` y.a.m.H.H.a.H.f.i.:X8X_ +.,.,.>.X.4.E w.l.n 8 8 8 8 8 8 8 8 ",
"8 8 8 8 O : ^ l.....k .. .-.) &.,.) <.a.].].<X).H.L.P.H.H. Xa.3X9X9X! ,.,.,.+.l.<.<.5.y 9 8 8 8 8 8 8 8 ",
"8 8 8 8 9 : < | | o.d X.-.` ` 4X1X) <X` U.[.rX;X2XL.P.E.^.K.f.f.>X8X! ! 9.1.*.] O.#.V ; 5 8 8 8 8 8 8 8 ",
"8 8 8 8 . #  .O...s Y -.F.F.y.v.5.u.b.` `.}.3X8X6X6X!.E.E.^.P.f.L.a.3Xx.:.t.' 2.*.#.=.m 6 8 8 8 8 8 8 8 ",
"8 8 8 8 . # T X.k._ _ x.3.7.e.r.y.v.m.J.^.{.#X#XrXrX-X!..XE.R.P. X Xp._ :.>.>X,Xq.9.3.p 8 8 8 8 8 8 8 8 ",
"8 8 8 8 9 ! U <X! _ ;.-.X.&.*.*.3.v.m.M.W.{.}.}.{.tX1X-XP.E.P.E.R.H.y.D./ ,.>X) i.9.G ; 6 8 8 8 8 8 8 8 ",
"8 8 8 8 + ; 1X5X5X_ E :.' 1X/ Y ,X;.v.G.G.^.{.}.{.@X}.<X` E..XE.E.b.r.D.5X,.( 0.s.t.V 6 7 8 8 8 8 8 8 8 ",
"8 8 + + o o ~ p._ 1.y.y.r.p.b.<X,X1XY r.L.^.^.^.{.[.+XtX` (.XXE.E.J.M.b./ / F.y.s.m.< y 8 8 8 8 8 8 8 8 ",
"8 8 8 8 + # :.;.t.e.e.y.u.p.p.n.D.3X) ) H.[.R.I.W.[.@X@X].U.^.^.Q.G.p.b.-X3.( ( a.=.1 r 8 8 8 8 8 8 8 8 ",
"8 8 8 8 + + * r.a.p.y.r.r.v.M.n.K.XX2X>X>XL.[.T.R.[.+X@XW.( U.^.E.R.M.5X4X5.M.v.b.c.m 8 8 8 8 8 8 8 8 8 ",
"8 8 8 8 + + o J Z.p.Z.r.n.K.b.R.^.^.E.`.,X>Xb.!.Y.U.Y.W.I.T._ P.E.E.m.I.*XM. X(.=.=.r + 8 8 8 8 8 8 8 8 ",
"8 8 8 8 + + O - :.Z.H. XP.E.E..X^.Q.I.K.!.' v.b.Y.U.T.T.T.`.( ( ^.Y.m.D.*XM._.eXB.y dX+ 8 8 8 8 8 8 8 8 ",
"8 8 8 8 8 8 8 @ - c.m.P._.E.E..X+X^.I.I.T.W.` J.K.T.!.T.T.K.'.(.I.^.K.;X;XL.gXeXV 6 9 8 8 8 8 8 8 8 8 8 ",
"8 8 8 8 8 8 8 8 = = c.J._._.R.E.E.Y.W.U.U.T.`.( K.Y.Y.R.Y.T.K.1XY.^.XX8X1X%XN.g.n r 9 8 8 8 8 8 8 8 8 8 ",
"8 8 8 8 8 8 8 8 8 = N.V.J.E.R.J.J.Y.U.U.T.Y.).).D.R.Y.Y.Y.Y.`.2X<X.X].}.rXS.N.m 9 9 8 8 8 8 8 8 8 8 8 8 ",
"8 8 8 8 8 8 8 8 8 8 n N.V.J.E.Y.Y.R.E.U.Y.Y.Y.'.' J.Y.Y.Y.Y.K.>X-X^.XX8XwXoX; X 9 8 8 8 8 8 8 8 8 8 8 8 ",
"8 8 8 8 8 8 8 8 8 8 8 6 V.h.|.$X$XXXXXE.Y.Y.!.W.(.U.Y.W.Y.T.T.T.;X[.OX-XwXN r 6 9 9 8 8 8 8 8 8 8 8 8 8 ",
"8 8 8 8 8 8 8 8 8 8 8 8 @ A.oXoX$X$X@X@XQ.Y.W._.2XW.!.T.U.J.B.|.6XyXyXH J r 8 8 8 8 8 8 8 8 8 8 8 8 8 8 ",
"8 8 8 8 8 8 8 8 8 8 8 8 8 + S pXqXpX$X[.+X+X[._.6X<XE.I.B.J.|.uXuX~ p P 6 8 8 8 8 8 8 8 8 8 8 8 8 8 8 8 ",
"8 8 8 8 8 8 8 8 8 8 8 8 8 8 8 @ qXjXiX%X$X%X%XtX8X3X`.uXB.uXA.qX4 = % 7 8 8 8 8 8 8 8 8 8 8 8 8 8 8 8 8 ",
"8 8 8 8 8 8 8 8 8 8 8 8 8 8 8 8 @ 3 h.h.qXiXjX0X=X=XuXC A.M A.@ 9 r 8 8 8 8 8 8 8 8 8 8 8 8 8 8 8 8 8 8 ",
"8 8 8 8 8 8 8 8 8 8 8 8 8 8 8 8 8 8 O @ + 3 h.&X&XW 3 M . 8 8 8 8 8 8 8 8 8 8 8 8 8 8 8 8 8 8 8 8 8 8 8 ",
"8 8 8 8 8 8 8 8 8 8 8 8 8 8 8 8 8 8 8 8 8 + 8 3 4 = = 8 8 8 8 8 8 8 8 8 8 8 8 8 8 8 8 8 8 8 8 8 8 8 8 8 ",
"8 8 8 8 8 8 8 8 8 8 8 8 8 8 8 8 8 8 8 8 8 + 8 8 8 8 8 8 8 8 8 8 8 8 8 8 8 8 8 8 8 8 8 8 8 8 8 8 8 8 8 8 ",
"8 8 8 8 8 8 8 8 8 8 8 8 8 8 8 8 8 8 8 8 8 8 8 8 8 8 8 8 8 8 8 8 8 8 8 8 8 8 8 8 8 8 8 8 8 8 8 8 8 8 8 8 ",
"8 8 8 8 8 8 8 8 8 8 8 8 8 8 8 8 8 8 8 8 8 8 8 8 8 8 8 8 8 8 8 8 8 8 8 8 8 8 8 8 8 8 8 8 8 8 8 8 8 8 8 8 ",
"8 8 8 8 8 8 8 8 8 8 8 8 8 8 8 8 8 8 8 8 8 8 8 8 8 8 8 8 8 8 8 8 8 8 8 8 8 8 8 8 8 8 8 8 8 8 8 8 8 8 8 8 ",
"8 8 8 8 8 8 8 8 8 8 8 8 8 8 8 8 8 8 8 8 8 8 8 8 8 8 8 8 8 8 8 8 8 8 8 8 8 8 8 8 8 8 8 8 8 8 8 8 8 8 8 8 "
};
