/* XPM */
static char *result[] = {
/* columns rows colors chars-per-pixel */
"52 52 227 2 ",
"   c #211F4B",
".  c #281F4E",
"X  c #271D57",
"o  c #1D2241",
"O  c #212345",
"+  c #22224B",
"@  c #282B49",
"#  c #292653",
"$  c #322D59",
"%  c #3A3859",
"&  c #2F3350",
"*  c #2D1A64",
"=  c #331B63",
"-  c #331A6A",
";  c #3B196C",
":  c #391D61",
">  c #3B1771",
",  c #3C1872",
"<  c #352868",
"1  c #3B346B",
"2  c #3D3871",
"3  c #45395C",
"4  c #411D67",
"5  c #4A1B74",
"6  c #451679",
"7  c #4B157D",
"8  c #421875",
"9  c #52177F",
"0  c #46246B",
"q  c #463868",
"w  c #492B73",
"e  c #4A2272",
"r  c #55257C",
"t  c #463B7A",
"y  c #533B6C",
"u  c #45416A",
"i  c #474566",
"p  c #524E6B",
"a  c #4B4577",
"s  c #574577",
"d  c #595779",
"f  c #664A7B",
"g  c #665B7B",
"h  c #5F6278",
"j  c #6B677F",
"k  c #38348D",
"l  c #3F3D91",
"z  c #561C83",
"x  c #4E1780",
"c  c #5A2A89",
"v  c #48388B",
"b  c #54368E",
"n  c #58368A",
"m  c #433D91",
"M  c #4D3E91",
"N  c #573E92",
"B  c #673589",
"V  c #6D3E91",
"C  c #602C85",
"Z  c #4C428A",
"A  c #594A89",
"S  c #5B5584",
"D  c #4C4393",
"F  c #4D4D96",
"G  c #4C4C99",
"H  c #474896",
"J  c #534494",
"K  c #5B4594",
"L  c #534B95",
"P  c #5A4A97",
"I  c #5B4E99",
"U  c #564B98",
"Y  c #4C549D",
"T  c #5E519B",
"R  c #53519A",
"E  c #654D87",
"W  c #675B88",
"Q  c #715D87",
"!  c #624695",
"~  c #644996",
"^  c #6B4C97",
"/  c #634D99",
"(  c #6D4E99",
")  c #6D4594",
"_  c #754895",
"`  c #65529B",
"'  c #6C549C",
"]  c #6B599E",
"[  c #655697",
"{  c #73549B",
"}  c #7B569C",
"|  c #75599E",
" . c #7D599D",
".. c #735793",
"X. c #784B89",
"o. c #6D629F",
"O. c #7C6D98",
"+. c #766186",
"@. c #4B5CA1",
"#. c #515BA2",
"$. c #6D5EA2",
"%. c #625BA2",
"&. c #735DA1",
"*. c #7C5BA2",
"=. c #5662A5",
"-. c #6C65A6",
";. c #7363A5",
":. c #7D65A6",
">. c #766CAA",
",. c #7B6CAB",
"<. c #7769A6",
"1. c #7C71AD",
"2. c #7E76B1",
"3. c #835C9F",
"4. c #845995",
"5. c #96559B",
"6. c #804992",
"7. c #97659E",
"8. c #98719E",
"9. c #877097",
"0. c #A26F9D",
"q. c #845DA1",
"w. c #955FA1",
"e. c #8464A5",
"r. c #846CAA",
"t. c #8A6EAC",
"y. c #8668A5",
"u. c #9B64A4",
"i. c #9C6AA6",
"p. c #9768A6",
"a. c #8273AE",
"s. c #887AAC",
"d. c #9473AD",
"f. c #8476B1",
"g. c #8279B3",
"h. c #8B7CB4",
"j. c #8D76B0",
"k. c #927DB5",
"l. c #9B7DB3",
"z. c #9976B1",
"x. c #A364A4",
"c. c #A46CA9",
"v. c #A86BA8",
"b. c #A474AD",
"n. c #AC74AE",
"m. c #A479AF",
"M. c #B473AC",
"N. c #B879AF",
"B. c #A47DB4",
"V. c #AA7BB1",
"C. c #B47CB2",
"Z. c #C47AAF",
"A. c #C375AC",
"S. c #C37DB1",
"D. c #7F8294",
"F. c #90899D",
"G. c #9986A6",
"H. c #9D99A8",
"J. c #8E84B9",
"K. c #9383B4",
"L. c #9D82B5",
"P. c #9285BA",
"I. c #9B84B9",
"U. c #9B8BBD",
"Y. c #9788BA",
"T. c #9789B4",
"R. c #A481B6",
"E. c #AB83B7",
"W. c #AB8CBC",
"Q. c #A78BBC",
"!. c #B383B6",
"~. c #B986B8",
"^. c #B58CBB",
"/. c #BD8CBB",
"(. c #B685B8",
"). c #AD95BD",
"_. c #B491BF",
"`. c #BD93BD",
"'. c #A88BAC",
"]. c #A5A7B3",
"[. c #C787B7",
"{. c #D48DBB",
"}. c #C591BE",
"|. c #C996BD",
" X c #D892BD",
".X c #9D8FC0",
"XX c #9E90C0",
"oX c #A493C2",
"OX c #AB95C3",
"+X c #AE99C5",
"@X c #B39AC5",
"#X c #BB9DC7",
"$X c #BE9EC8",
"%X c #B995C2",
"&X c #B68EC0",
"*X c #BBAFCD",
"=X c #C39BC4",
"-X c #CC9CC4",
";X c #C797C2",
":X c #D89BC3",
">X c #E09CC6",
",X c #C4A1C9",
"<X c #CBA2CA",
"1X c #CDA4CA",
"2X c #D5A5CA",
"3X c #DBA6CB",
"4X c #D5A9CE",
"5X c #DDA9CD",
"6X c #D7A7C6",
"7X c #DBADD0",
"8X c #DFB3D3",
"9X c #E3A6CA",
"0X c #E3ABCE",
"qX c #EBADCE",
"wX c #E5A0C6",
"eX c #F0AECF",
"rX c #E6AED0",
"tX c #ECAFD0",
"yX c #F1AFD0",
"uX c #E3B2D2",
"iX c #EDB2D1",
"pX c #EABAD6",
"aX c #F1B1D1",
"sX c #F9BAD6",
"dX c #E7B5CF",
"fX c #FAFAFB",
"gX c #D2D3D9",
/* pixels */
"o o o o o o o o o o o o o o o o o o o o o o o o o o o o o o o o o o o o o o o o o o o o o o o o o o o o ",
"o o o o o o o o o o o o o o o o o o o o o o o o o o o o o o o o o o o o o o o o o o o o o o o o o o o o ",
"o o o o o o o o o o o o o o o o o o o o o o o o o o o o o o o o o o o o o o o o o o o o o o o o o o o o ",
"o o o o o o o o o o o o o o o o o o o o o o + o +     O   o o o o o o o o o o o o o o o o o o o o o o o ",
"o o o o o o o o o o o o o o o o o i u a a A P E A n t , * * * X   o o o o o o o o o o o o o o o o o o o ",
"o o o o o o o o o o o o o o o o o $ A -.2.1.,.:.e.} _ B 8 > > - - * X o o o o o o o o o o o o o o o o o ",
"o o o o o o o o o o o o o o o o o t o.2.g.,.,.:.| | { V c x x > , , - * + o o o o o o o o o o o o o o o ",
"o o o o o o o o o o o o o o o < v o.g.J.g.f.,.,.<.&.$.` V b c x x x 6 , - * @ F.o o o o o o o o o o o o ",
"o o o o o o o o o @ D.o o # t [ a.I.Q.U.P.h.h.f.,.,.;.$.%.I N b c z x 7 > > - *XH.o o o o o o o o o o o ",
"o o o o o o o o o j fXgX< ~ K.h.j.l.W.OXU.P.J.h.h.f.,.<.-.] T P N b c z x 6 > - $ o o o o o o o o o o o ",
"o o o o o o o o o & ].1 :.I..Xf.r.d.Q.oX.XU..XP.P.h.g.f.,.-.%.` U J N c z z 6 , <   o o o o o o o o o o ",
"o o o o o o o o o o a 9.OX*X+X.XQ.Q.OXOXoXoX.X.XY.P.k.j.r.:.&.] %.U J N c z x 7 , = o o o o o o o o o o ",
"o o o o o o o o o a y.^.E.&X<X=X$X,X#X#X@XOXoXoX.XXXB.d.e.&.` I I %.I G N n z z 6 ; X o o o o o o o o o ",
"o o o o o o o o E ( q.z.c.c.-X4X2X<X<X,X$X#X+XOX@X^.V.y.I m l l D U I I U K C z 7 , = o o o o o o o o o ",
"o o o o o o o A ~ / | j.n.5.N.3X5X2X3X2X1X<X$X#X-X;Xd./ l k k m M D P I G G P C 9 8 = o o o o o o o o o ",
"o o o o o o u | J ..| l.n.5.v.0XuX0XrX5X3X2X<X<X2X^.e.M k m M J M N K / I G R ! 9 5 = o o o o o o o o o ",
"o o o o o o Q ' / | e.R.M.5.M.wXaXtXrX0X0X5X4X4X5X=Xe.M v M K K K K K ~ I G G R c 5 w O o o o o o o o o ",
"o o o o o o Q o./ | j.B.n.x.Z.eXaXaXyXtXtX0X5X5X8X-Xr.M v J K K K ! ~ ^ ^ U H #.~ r y.& o o o o o o o o ",
"o o o o o o 9.j.,.t.B.!.v.M.:XeXaXaXaXyXaXqX0X0XuX4Xl.K b K ! ! ^ ^ ^ ( ' P D @.%.q.3.o o o o o o o o o ",
"o o o o O % G.1X_._./.C.S.{.9XsXaXaXtXaXyXiXiX0XuX8X_.` b ! ( ( ^ ( ( { { / D G =. .l.W o o o o o o o o ",
"o o o o o p 6XdX2X-X}.{.:XyXyXaXyXaXaXqXyXaXaXqXuXuX<Xe.K ! ^ ( ( { { _ } / M H =.A 0 q o o o o o o o o ",
"o o o o o j 6XaX9X9X9XqXaXaXaXyXaXaXaXaXaXaXyXqXrXuX7XW.^ N ( { { } { 3.} ' J H Y J 0 o o o o o o o o o ",
"o o o o o 9.tXsXaXaXtXaXaXaXiXaXaXaXaXqXaXqXaXqXtXrXuX<Xt.~ _ } } } } } *.^ D D @.L w o o o o o o o o o ",
"o o o o o F.iXaXyXaXaXaXaXaXaXaXaXaXtXaXaXaXaXaXtXrX5X2X;Xe.! { } } 3.} | P D D Y R w o o o o o o o o o ",
"o o o o O F.sXyXaXyXiXaXaXaXiXaXaXaXaXaXyXaXtXyXtXrXrX2X<XE.e.{ { } | ' I J J D Y L w O o o o o o o o o ",
"o o o o o H.pXsXqX6X9XiXaXaXaXiXaXaXaXaXaXyXaXyXyXtX5X2X<X;XV.e.*.^ ~ ~ K I U L Y L w O o o o o o o o o ",
"o o o o O +.|.wX0X3X9XyXaXaXaXiXaXaXqX9X9X0XtXyXaXrXrX2X<X=X^.B.t.3.} } ' ` / U Y L w o o o o o o o o o ",
"o o o o O f c.N.{. XqXyXaXaXaXsXaX0X%X^.[.-X3XrXtXtXrX2X,X#XOXQ.B.d.t.,.;.$.' I F Z 0 o o o o o o o o o ",
"o o o o y X.7.i.M.[.{.wXaXaXaXsX5XW.l.B.E.}.-X3XrXpXrX1X-X#XoXXXU.P.h.a.;.` ` I F n 0 o o o o o o o o o ",
"o o p j 7.5.5.i.b.N.A.[. XeXsXrX%Xf.h.R.C.}.;X2XuXpXuX4X,X@XoXXXU.P.f.,.] I P L Z v $ o o o o o o o o o ",
"o o 3 8.v.5.5.p.b.V.N.A.[. XtXiXg.1.h.B.E.~.;X-X5XpXpX4X=X+XoXXXU.P.g.,.-.T P L Z e :   o o o o o o o o ",
"o o 3 4.c.M.i.p.i.V.N.Z.A.Z.wX2X2.-.k.L.R.(.~.;X2XrXpX4X$X+XXXXXP.K.a.<.] ` L J n 5 . o o o o o o o o o ",
"o o O E y.~.C.u.i.b.C.~.Z.Z. X9XI.>.2.P.L.E.~.}.:X5X8X1X@XOX.X.XP.h.a.<.] ` ~ A r 4 o o o o o o o o o o ",
"o o O y &.B.[.u.u.b.V.~.[.A. XeX2Xl.>.h.L.B.(.~.-X2X4X$XOXoX.XU.P.f.,.&.{ ^ ) c 5 : o o o o o o o o o o ",
"o o O 3 [ d.[.v.w.i.B.~.{.[. XsXeX-XQ.h.h.l.E.~.|.1X,X#XoXoX.XP.f.,.&.&.( _ B 9 ; O o o o o o o o o o o ",
"o O O O f 9.[.v.w.i.b.!.{. XwXeXsXaX3X-X&XW.W./.=X,X#X+XoX.XP.g.>.&.&.( _ V C 5 E fX].O o o o o o o o o ",
"o o o o @ f 0.x.4.7.8.'.{.>X9XyXaXaXaXqX3X2X<X<X<X$X+XoXXXJ.2.>.&.&.( ) V B r : fXo o o o o o o o o o o ",
"o o o o o o 3 y q y f 8./.6X9XqX0XrX0X5X3X3X1X,X#X@XoXXXJ.2.>.;.$.^ _ _ V B 5   H.o o o o o o o o o o o ",
"o o o o o o o o o o o p 9.'.|.-X6X3X2X=X`.-X4X#XOXOXXX.XJ.>.;.$.} w.u.c.x.6.e o o o o o o o o o o o o o ",
"o o o o o o o o o o o o % h 9.'.`.|.=XQ.l.;X6X#XoXXXP.2.>.-.$.q.u.M.n.t.t...q o o o o o o o o o o o o o ",
"o o o o o o o o o o o o o o 3 g 9.G.).U.L.W.`.).U.P.g.1.;.$.q.c.v.y.] R F S o o o o o o o o o o o o o o ",
"o o o o o o o o o o o o o o o   i W O.F.s.T.K.K.J.2.>.;.] q.w.w.q.P H F <.i o o o o o o o o o o o o o o ",
"o o o o o o o o o o o o o o o o o & p u p d d S d S [ S ..4.4.E Z Z a u 1 o o o o o o o o o o o o o o o ",
"o o o o o o o o o o o o o o o o o i fXh o o o o o o # q s E s t 2 1 O o o o o o o o o o o o o o o o o o ",
"o o o o o o o o o o o o o o o o o o h o o o o o o o o o o & O O o o o o o o o o o o o o o o o o o o o o ",
"o o o o o o o o o o o o o o o o o o o o o o o o o o o o o o o o o o o o o o o o o o o o o o o o o o o o ",
"o o o o o o o o o o o o o o o o o o o o o o o o o o o o o o o o o o o o o o o o o o o o o o o o o o o o ",
"o o o o o o o o o o o o o o o o o o o o o o o o o o o o o o o o o o o o o o o o o o o o o o o o o o o o ",
"o o o o o o o o o o o o o o o o o o o o o o o o o o o o o o o o o o o o o o o o o o o o o o o o o o o o ",
"o o o o o o o o o o o o o o o o o o o o o o o o o o o o o o o o o o o o o o o o o o o o o o o o o o o o ",
"o o o o o o o o o o o o o o o o o o o o o o o o o o o o o o o o o o o o o o o o o o o o o o o o o o o o ",
"o o o o o o o o o o o o o o o o o o o o o o o o o o o o o o o o o o o o o o o o o o o o o o o o o o o o "
};
