/* XPM */
static char *result[] = {
/* columns rows colors chars-per-pixel */
"52 52 246 2 ",
"   c #053929",
".  c #0C2839",
"X  c #15253C",
"o  c #1A243E",
"O  c #132B39",
"+  c #053836",
"@  c #032A2D",
"#  c #11441F",
"$  c #08452D",
"%  c #044332",
"&  c #024939",
"*  c #044935",
"=  c #104831",
"-  c #045938",
";  c #03532F",
":  c #01623A",
">  c #1C7435",
",  c #0A7137",
"<  c #33612D",
"1  c #206137",
"2  c #387731",
"3  c #2A5D24",
"4  c #0C2D44",
"5  c #1D2241",
"6  c #152842",
"7  c #0C3144",
"8  c #083748",
"9  c #133242",
"0  c #053A50",
"q  c #262A48",
"w  c #353A55",
"e  c #024C4B",
"r  c #044548",
"t  c #02534A",
"y  c #025B46",
"u  c #004854",
"i  c #025553",
"p  c #025C53",
"a  c #02565A",
"s  c #1B5B56",
"d  c #2A4E50",
"f  c #056847",
"g  c #04774A",
"h  c #016553",
"j  c #006A5C",
"k  c #0C6E53",
"l  c #037859",
"z  c #17674A",
"x  c #316C49",
"c  c #29625A",
"v  c #2F724D",
"b  c #00446E",
"n  c #004C6B",
"m  c #024765",
"M  c #005B67",
"N  c #00526A",
"B  c #05576A",
"V  c #004573",
"C  c #004A72",
"Z  c #005372",
"A  c #006465",
"S  c #006A63",
"D  c #006D6B",
"F  c #046368",
"G  c #007463",
"H  c #007B64",
"J  c #00756A",
"K  c #0F736C",
"L  c #077A75",
"P  c #1F7668",
"I  c #236862",
"U  c #477B4B",
"Y  c #66697E",
"T  c #0B9D2E",
"R  c #019C35",
"E  c #019938",
"W  c #0B9D33",
"Q  c #109F37",
"!  c #0D8D36",
"~  c #269D38",
"^  c #33943C",
"/  c #09A235",
"(  c #18A233",
")  c #29A427",
"_  c #34A52A",
"`  c #25A535",
"'  c #38A430",
"]  c #60801F",
"[  c #6CB319",
"{  c #77B41B",
"}  c #569339",
"|  c #70982D",
" . c #4AA928",
".. c #57AB27",
"X. c #44A43C",
"o. c #64AC26",
"O. c #6FB223",
"+. c #78B426",
"@. c #6EB135",
"#. c #068D49",
"$. c #00954C",
"%. c #00835E",
"&. c #008D5D",
"*. c #008953",
"=. c #00945C",
"-. c #00995D",
";. c #029B52",
":. c #19955A",
">. c #2B914F",
",. c #328F52",
"<. c #008364",
"1. c #008B63",
"2. c #038768",
"3. c #009462",
"4. c #009A63",
"5. c #009B6B",
"6. c #0A9667",
"7. c #019B71",
"8. c #0D9278",
"9. c #10907E",
"0. c #2D936E",
"q. c #00A16D",
"w. c #05A164",
"e. c #00A273",
"r. c #00A47A",
"t. c #0CA776",
"y. c #10A47F",
"u. c #22A160",
"i. c #35A977",
"p. c #24A94D",
"a. c #4B984A",
"s. c #5A865A",
"d. c #42955C",
"f. c #4A864E",
"g. c #6B9B5A",
"h. c #709843",
"j. c #49B24C",
"k. c #5FB25D",
"l. c #51B149",
"z. c #63B659",
"x. c #6EAB51",
"c. c #569668",
"v. c #6F9973",
"b. c #5FAE68",
"n. c #49AE77",
"m. c #51AE76",
"M. c #5DB773",
"N. c #67B66E",
"B. c #77C252",
"V. c #7DC166",
"C. c #98BE0E",
"Z. c #92BA14",
"A. c #88B91A",
"S. c #A3BF14",
"D. c #809C31",
"F. c #83B63B",
"G. c #98BB35",
"H. c #96B422",
"J. c #ACBD29",
"K. c #9EC10E",
"L. c #ABC709",
"P. c #BBCD00",
"I. c #B4C808",
"U. c #B4CA14",
"Y. c #97C237",
"T. c #90C626",
"R. c #B0C72A",
"E. c #CBD304",
"W. c #D4DA00",
"Q. c #D0D612",
"!. c #E1DE03",
"~. c #E0DE11",
"^. c #E6E200",
"/. c #F6EB03",
"(. c #FFF601",
"). c #F3E91A",
"_. c #C6D328",
"`. c #D7D82B",
"'. c #E5DF20",
"]. c #FDED24",
"[. c #EEE833",
"{. c #95B646",
"}. c #8CAF65",
"|. c #AAB960",
" X c #90C149",
".X c #A6C552",
"XX c #B4CD4B",
"oX c #95C865",
"OX c #A4C666",
"+X c #BACF67",
"@X c #A7CC79",
"#X c #B5D46E",
"$X c #D4D747",
"%X c #DCE25A",
"&X c #E7E65C",
"*X c #FEF259",
"=X c #D9DE72",
"-X c #D0D56A",
";X c #DBE06D",
":X c #E8E86A",
">X c #FEF47F",
",X c #089C8B",
"<X c #00A683",
"1X c #02A78B",
"2X c #1CAA89",
"3X c #17A995",
"4X c #09A495",
"5X c #32AD91",
"6X c #17ABA1",
"7X c #27ACA2",
"8X c #37B2B5",
"9X c #36B0A9",
"0X c #7F8294",
"qX c #5BB587",
"wX c #45B095",
"eX c #57B394",
"rX c #49AF84",
"tX c #68B988",
"yX c #72B78F",
"uX c #41B2AC",
"iX c #55B7B5",
"pX c #4DB5B3",
"aX c #61B8A6",
"sX c #40B5C4",
"dX c #9D9FAC",
"fX c #ACADB9",
"gX c #8B8D9D",
"hX c #A7D18F",
"jX c #8ACF9D",
"kX c #C4D685",
"lX c #D5DC8C",
"zX c #D9E383",
"xX c #D7E495",
"cX c #E7E887",
"vX c #FDF78B",
"bX c #FBF59C",
"nX c #EFED91",
"mX c #D0E3AB",
"MX c #F8F4A6",
"NX c #F7F7B8",
"BX c #E8EBAA",
"VX c #C9D5A5",
"CX c #CDCED5",
"ZX c #FFFDD5",
"AX c #FDFCC7",
"SX c #FCFDFD",
/* pixels */
"5 5 5 5 5 5 5 5 5 5 5 5 5 5 5 5 5 5 5 5 5 5 5 5 5 5 5 5 5 5 5 5 5 5 5 5 5 5 5 5 5 5 5 5 5 5 5 5 5 5 5 5 ",
"5 5 5 5 5 5 5 5 5 5 5 5 5 5 5 5 5 5 5 5 5 5 5 5 5 5 5 5 5 5 5 5 5 5 5 5 5 5 5 5 5 5 5 5 5 5 5 5 5 5 5 5 ",
"5 5 5 5 5 5 5 5 5 5 5 5 5 5 5 5 5 5 5 5 5 5 5 5 5 5 5 5 5 5 5 5 5 5 5 5 5 5 5 5 5 5 5 5 5 5 5 5 5 5 5 5 ",
"5 5 5 5 5 5 5 5 5 5 5 5 5 5 5 5 5 5 5 5 5 5 5 5 5 5 5 5 5 5 5 5 5 5 5 5 5 5 5 5 5 5 5 5 5 5 5 5 5 5 5 5 ",
"5 5 5 5 5 5 5 5 5 5 5 5 5 5 5 5 5 5 5 5 5 5 5 5 5 5 5 5 5 5 5 5 5 5 5 5 5 5 5 5 5 5 5 5 5 5 5 5 5 5 5 5 ",
"5 5 5 5 5 5 5 5 5 5 5 5 5 5 5 5 5 5 5 5 5 5 5 5 5 5 5 5 5 5 5 5 5 5 5 5 5 5 5 5 5 5 5 5 5 5 5 5 5 5 5 5 ",
"5 5 5 5 5 5 5 5 5 5 5 5 5 5 5 5 5 5 5 5 5 5 5 5 5 5 5 5 5 5 5 5 5 5 5 5 5 5 5 5 5 5 5 5 5 5 5 5 5 5 5 5 ",
"5 5 5 5 5 5 5 5 5 5 5 5 5 5 5 5 5 5 5 5 5 5 5 4 5 6 5 5 5 5 5 5 5 5 5 5 5 5 q gXq 5 5 5 5 5 5 5 5 5 5 5 ",
"5 5 5 5 5 5 5 5 5 q gXo 5 5 5 5 5 o q e r e 8 4 r 7 e q 6 5 6 o 6 5 5 5 5 5 fXSXdX5 5 5 5 5 5 5 5 5 5 5 ",
"5 5 5 5 5 5 5 5 5 Y SXCX5 5 5 5 5 0 g *.#.h j p j a h i h t r 8 X . 5 X 5 5 q CXw 5 5 5 5 5 5 5 5 5 5 5 ",
"5 5 5 5 5 5 5 5 5 q fXw 5 5 5 e 4 0 } O._ j.j.l M D l M h A p h t t 8 + X 5 5 5 q 5 5 5 5 5 5 5 5 5 5 5 ",
"5 5 5 5 5 5 5 5 5 5 o q 5 0 4 u M | W.K.` / ( h.V V C c U E.+.A.v e y + + 6 o 5 5 5 5 5 5 5 5 5 5 5 5 5 ",
"5 5 5 5 5 5 5 5 5 5 5 5 5 0 p j F a.).{ R R T.T.s V D.(.^.Q.P.T.@.x.B.h f . + 5 5 5 5 5 5 5 5 5 5 5 5 5 ",
"5 5 5 5 5 5 5 5 5 5 5 6 e j j j C $X`.XX_  .[ | V V s (.W.I.A.....) / j.y - + X 5 5 5 5 5 5 5 5 5 5 5 5 ",
"5 5 5 5 5 5 5 5 5 5 4 a a j D C c c vXMXcXs.z | b V m /.W.P.Z.o.( R E E W E & + 5 5 5 5 5 5 5 5 5 5 5 5 ",
"5 5 5 5 5 5 5 5 5 5 7 a j Z C C C V U a h s.p N V V b U H.L.O. ./ R E E E R g + O 5 5 5 5 5 5 5 5 5 5 5 ",
"5 5 5 5 5 5 5 5 5 9 p S S V C V C C V a n N b n V C V N I.U.A.o./ R R E E R / - r d d 5 5 5 5 5 5 5 5 5 ",
"5 5 5 5 5 5 5 5 7 p p D C V Z V Z V V b b b b b n N D D z 2 R.Y.( / R E E / ) ~ > v 5 5 5 5 5 5 5 5 5 5 ",
"5 5 5 5 5 5 5 5 7 p A V V V I l a.Z b b b n n N N N F <.%.} | .X{.( ` T ` R ) @.f & 5 5 5 5 5 5 5 5 5 5 ",
"5 5 5 5 5 5 5 4 t j F V U R.W.'.'.l b n n M N M M A J 5.5.g f {..XOXOXl.` oX#XzX} -   5 5 5 5 5 5 5 5 5 ",
"5 5 5 5 5 5 6 e e j V h././.W.O.G.l n N N F A A A F J 1.3.-.;.f .X+X#XhXhX-XkXxX}.- % X 5 5 5 5 5 5 5 5 ",
"5 5 5 5 5 5 5 r h C B s./.C._ / >.>.J F A A S A D J H 1.3.4.;.;.z x zXzXxXBXBXMXtXf - o 5 5 5 5 5 5 5 5 ",
"5 5 5 5 5 5 . f h F B `.E.[ ' E >.1.<.A A D G H <.<.H <.3.3.-.-.$.#.x cXbXNXNXNXBXh : o 5 5 5 5 5 5 5 5 ",
"5 5 5 5 5 . 8 g =.a.d.d.].R.) ! l &.3.J H <.<.<.<.1.1.1.3.3.=.;.-.*.#.U U bXnXZXg.I : = 5 5 5 5 5 5 5 5 ",
"5 5 5 5 5 5 g T.L.L.#.:XvX+XG.~ l 5.H H <.<.<.1.3.3.3.3.=.=.1.&.=.=.5.%.&.v -X;Xg.D : % 5 5 5 5 5 5 5 5 ",
"5 5 5 5 5 & : +.E.( $.+X-XNXlXk <.l H H 1.1.3.3.3.3.4.3.3.4.-.&.3.3.=.3.&.1.k <.G H l - 5 5 5 5 5 5 5 5 ",
"5 5 5 5 5 ; ! ].$X) ) H i v.h p 1.G l <.&.1.3.4.3.=.4.=.4.-.-.=.=.-.=.-.3.3.1.3.<.H g   5 5 5 5 5 5 5 5 ",
"5 5 5 5 5 - , x.#X%XF.K u u a H G l <.l 3.3.4.4.4.-.4.-.-.-.4.-.4.-.-.=.-.-.1.2.d.<.: ;   5 5 5 5 5 5 5 ",
"5 5 5 5 5 . & #.hX2XD.f.U.R.&.=.&.l <.3.4.4.4.-.4.4.4.4.4.4.-.-.-.-.-.-.=.6.U.W.E.,.u.= o q o 5 5 5 5 5 ",
"5 5 5 5 5 . - - l Z h.!.I.L.{.;.;.<.3.3.4.4.5.4.w.4.w.4.4.4.-.4.-.-.-.-.1.=.S.Z. . X: - O 5 5 5 5 5 5 5 ",
"5 5 5 5 5 5 + 8 M f.!.!.K. XOXl =.-.4.5.4.5.5.5.5.w.q.q.w.4.5.-.-.-.=.4.=.Z.[ ( T T x.3 X 5 5 5 5 5 5 5 ",
"5 5 5 5 5 5 @ & f f.^.K.../ T N.:.;.4.5.4.5.q.5.e.e.q.q.q.5.5.4.5.-.4.-.A.C.{ ( R / _ > O 5 5 5 5 5 5 5 ",
"5 5 5 5 5 5 6 & t ~.W.L.O.R l.V.J H 5.5.q.5.7.q.e.e.e.e.r.q.e.q.w.-.-.-.@.E. .( E E ! > O 5 5 5 5 5 5 5 ",
"5 5 5 5 5 5 5 + 1 H./.Z.' R E E ,.J 6.Y.,.5.7.e.<X<X<X<Xr.r.e.q.5.5.4.;.Q.!.+.` Q Q o.- - q 5 5 5 5 5 5 ",
"5 5 5 5 5 5 5 5 1 ~.E.C.{ ..R / Q u.u.Y.{ i.2X<X1X1X<X1X<X2Xe.t.7.5.4.@.o.W.E.{ C.Z.Z.> 5 5 5 5 5 5 5 5 ",
"5 5 5 5 5 5 5 X < < ).[.H.Y...T ..L @.{ T ` b.,X1X4X3X3X2X5Xi.5X7.5.5.$.F.).[.E.'._.2 5 5 5 5 5 5 5 5 5 ",
"5 5 5 5 5 5 5 5 .   ].%X:XT.R.{ P.L k.Q.T R yX3X6X6X7X8X7X5XrXi.i.7.5.=.g.*X[.vX&X3 2 5 5 5 5 5 5 5 5 5 ",
"5 5 5 5 5 5 5 X O ] ] *X>XcXMX:X%XR.k.#XoXmXz.@X6X8XpXuXuXwXrX5Xn.7.5.w.k.=XAX|.-X# o 5 5 5 5 5 5 5 5 5 ",
"5 5 5 5 5 5 5 5 o @ @ J.Y.bXMXZX*Xc.7.7.xXmXMX7X9X8XsXsXiXeXeXqXn.i.6.-.,.>.:X2 # X 5 5 5 5 5 5 5 5 5 5 ",
"5 5 5 5 5 5 5 5 o X   @ .Xh.MXN.g.g.L e.e.jX2XtX7X8XpXiXaXeXeXqXm.n.u.u.@.}.* O . 5 5 5 5 5 5 5 5 5 5 5 ",
"5 5 5 5 5 5 5 5 5 5 X X   $ ^ #.1.9.5.e.e.r.y.3X4X9XiXiXaXaXtXqXM.m.b.XXh.    o 5 5 5 5 5 5 5 5 5 5 5 5 ",
"5 5 5 5 5 5 5 5 5 5 5 5 o $ % >.>.5.w.5.8.0.b.,X4X,X7X9XyXyXyXM.M.oX}.-Xd o 5 5 5 5 5 5 5 5 5 5 5 5 5 5 ",
"5 5 5 5 5 5 5 5 5 5 5 5 5 o X ; * a.a.k.XXXXM.j.qXb.tXtXyXyX@XhX}.-Xx O X X 5 5 5 5 5 5 5 5 5 5 5 5 5 5 ",
"5 5 5 5 5 5 5 5 5 5 5 5 5 5 5 5 ; % a.f.].'. ._ Q ~ .XN.cXcXnXkXs 7 5 5 5 o 5 5 5 5 5 5 5 5 5 5 5 5 5 5 ",
"5 5 5 5 5 5 5 5 5 5 5 5 5 5 5 5 o o   % J.J._._ @..X}.;Xc.v.r 4 q 5 5 5 5 5 5 5 5 5 5 5 5 5 5 5 5 5 5 5 ",
"5 5 5 5 5 5 5 5 5 5 5 5 5 5 5 5 5 5 o + + `.`.;XVXzXc.e 9 6 6 5 5 5 5 5 5 5 5 5 5 5 5 5 5 5 5 5 5 5 5 5 ",
"5 5 5 5 5 5 5 5 5 5 5 5 5 5 5 5 5 5 5 o X = = OX,.z 9 q 6 5 5 5 5 5 5 5 5 5 5 5 5 5 5 5 5 5 5 5 5 5 5 5 ",
"5 5 5 5 5 5 5 5 5 5 5 5 5 5 5 5 5 5 5 5 5 X $ o X X 5 5 5 5 5 5 5 5 5 5 5 5 5 5 5 5 5 5 5 5 5 5 5 5 5 5 ",
"5 5 5 5 5 5 5 5 5 5 5 5 5 5 5 5 5 5 5 5 5 5 5 5 5 5 5 5 5 5 5 5 5 5 5 5 5 5 5 5 5 5 5 5 5 5 5 5 5 5 5 5 ",
"5 5 5 5 5 5 5 5 5 5 5 5 5 5 5 5 5 5 5 5 5 5 5 5 5 5 5 5 5 5 5 5 5 5 5 5 5 5 5 5 5 5 5 5 5 5 5 5 5 5 5 5 ",
"5 5 5 5 5 5 5 5 5 5 5 5 5 5 5 5 5 5 5 5 5 5 5 5 5 5 o q 5 5 5 5 5 5 5 5 5 5 5 5 5 5 5 5 5 5 5 5 5 5 5 5 ",
"5 5 5 5 5 5 5 5 5 5 5 5 5 5 5 5 5 5 5 5 5 5 5 5 5 5 5 5 5 5 5 5 5 5 5 5 5 5 5 5 5 5 5 5 5 5 5 5 5 5 5 5 "
};
