/* XPM */
static char *result[] = {
/* columns rows colors chars-per-pixel */
"52 52 240 2 ",
"   c #1F1F3E",
".  c #3C142E",
"X  c #2B1836",
"o  c #231D3C",
"O  c #2B1C3C",
"+  c #2A1635",
"@  c #331934",
"#  c #3B1A32",
"$  c #321B3B",
"%  c #3C1D3D",
"&  c #341531",
"*  c #330F2D",
"=  c #1E203F",
"-  c #22203E",
";  c #2D243F",
":  c #37253D",
">  c #4D1C2D",
",  c #47152A",
"<  c #571C29",
"1  c #471C37",
"2  c #581D39",
"3  c #641E24",
"4  c #5B2129",
"5  c #46273A",
"6  c #582537",
"7  c #672529",
"8  c #742A2A",
"9  c #7B2925",
"0  c #69263A",
"q  c #782935",
"w  c #7A333A",
"e  c #6C3B38",
"r  c #725331",
"t  c #251F41",
"y  c #2B1D41",
"u  c #3C1A41",
"i  c #351B42",
"p  c #1D2241",
"a  c #222041",
"s  c #282846",
"d  c #373652",
"f  c #302140",
"g  c #451942",
"h  c #5E134E",
"j  c #591C43",
"k  c #5A0D52",
"l  c #580B4E",
"z  c #62144E",
"x  c #681A4C",
"c  c #74134F",
"v  c #79144D",
"b  c #741A4E",
"n  c #7A1D46",
"m  c #620C55",
"M  c #6B0E55",
"N  c #690D59",
"B  c #660959",
"V  c #790C58",
"C  c #641252",
"Z  c #6B1354",
"A  c #6C1A50",
"S  c #741255",
"D  c #7B1253",
"F  c #751B53",
"G  c #740E4E",
"H  c #462540",
"J  c #552341",
"K  c #5A3947",
"L  c #692544",
"P  c #762647",
"I  c #663943",
"U  c #7C3344",
"Y  c #3F435D",
"T  c #7D4E57",
"R  c #7F5E6E",
"E  c #66697E",
"W  c #8A332C",
"Q  c #943527",
"!  c #882D39",
"~  c #83353A",
"^  c #8A3036",
"/  c #A43D26",
"(  c #924836",
")  c #A54A3D",
"_  c #B1493A",
"`  c #AA583C",
"'  c #B7583B",
"]  c #B25129",
"[  c #9D7A20",
"{  c #AA6A36",
"}  c #BC6637",
"|  c #AE7430",
" . c #C95A35",
".. c #C9762D",
"X. c #CA6D3A",
"o. c #C56736",
"O. c #CA7437",
"+. c #D77A35",
"@. c #D0792C",
"#. c #E0733B",
"$. c #83144F",
"%. c #82184F",
"&. c #880D57",
"*. c #831353",
"=. c #881354",
"-. c #861B51",
";. c #8C1B52",
":. c #8C1159",
">. c #921555",
",. c #921B55",
"<. c #961B58",
"1. c #9A1D59",
"2. c #9A1557",
"3. c #89164C",
"4. c #A41953",
"5. c #862547",
"6. c #972B4C",
"7. c #8A3547",
"8. c #983845",
"9. c #8B2251",
"0. c #942352",
"q. c #9B2456",
"w. c #9D2259",
"e. c #982852",
"r. c #9B3150",
"t. c #A63B49",
"y. c #A12459",
"u. c #A62959",
"i. c #AA2D5A",
"p. c #A62B56",
"a. c #B52C57",
"s. c #A43253",
"d. c #AA3455",
"f. c #AD325A",
"g. c #AD3B54",
"h. c #B23D56",
"j. c #B3345B",
"k. c #B43A5A",
"l. c #BC3D5B",
"z. c #B8375C",
"x. c #AD2E4A",
"c. c #C93B53",
"v. c #C43D60",
"b. c #984646",
"n. c #935A51",
"m. c #A44742",
"M. c #B54846",
"N. c #BB5245",
"B. c #A64857",
"V. c #B54354",
"C. c #BC4A53",
"Z. c #BB435B",
"A. c #B94556",
"S. c #A6575F",
"D. c #B15852",
"F. c #995861",
"G. c #BE4861",
"H. c #93716C",
"J. c #B06E6E",
"K. c #906155",
"L. c #C45648",
"P. c #C24D55",
"I. c #C2435B",
"U. c #C34C59",
"Y. c #CB4C5C",
"T. c #C94959",
"R. c #D24C5C",
"E. c #C65156",
"W. c #CB5456",
"Q. c #CD5459",
"!. c #CA5656",
"~. c #D3545B",
"^. c #DA555E",
"/. c #D45A59",
"(. c #DD5B5D",
"). c #D35854",
"_. c #CD5146",
"`. c #E35D5F",
"'. c #E45C4F",
"]. c #CB6746",
"[. c #D36746",
"{. c #DA7441",
"}. c #DA6059",
"|. c #D87A52",
" X c #E87949",
".X c #E5635E",
"XX c #E76B5C",
"oX c #EA7758",
"OX c #CE5D6D",
"+X c #D95661",
"@X c #CC4461",
"#X c #E25B60",
"$X c #E45962",
"%X c #CA777A",
"&X c #D36B70",
"*X c #E56564",
"=X c #E86763",
"-X c #EA7563",
";X c #E56C78",
":X c #E3767E",
">X c #AAA320",
",X c #AB8133",
"<X c #E29A1D",
"1X c #D4AF15",
"2X c #EAA31D",
"3X c #F4AA1D",
"4X c #F3B119",
"5X c #D7862A",
"6X c #D88532",
"7X c #D0902A",
"8X c #E58A2B",
"9X c #E79727",
"0X c #E68937",
"qX c #E79336",
"wX c #EAA323",
"eX c #F0A322",
"rX c #EBB228",
"tX c #EFBD32",
"yX c #DCDA1A",
"uX c #F1CD14",
"iX c #D7C52C",
"pX c #F0D817",
"aX c #B68F77",
"sX c #D8884C",
"dX c #EA904E",
"fX c #DBA057",
"gX c #C88C78",
"hX c #DCA270",
"jX c #826E80",
"kX c #E67A82",
"lX c #7F8294",
"zX c #9D9FAC",
"xX c #ABABB7",
"cX c #8B8D9D",
"vX c #DF8181",
"bX c #CBA681",
"nX c #EBAD90",
"mX c #E19087",
"MX c #FCFDFD",
"NX c #CCCCD3",
/* pixels */
"p p p p p p p p p p p p p p p p p p p p p p p p p p p p p p p p p p p p p p p p p p p p p p p p p p p p ",
"p p p p p p p p p p p p p p p p p p p p p p p p p p p p p p p p p p p p p p p p p p p p p p p p p p p p ",
"p p p p p p p p p p p p p p p p p p p p p p p p p p p p p p p p p p p p p p p p p p p p p p p p p p p p ",
"p p p p p p p p p p p p p p p p p p p p p p p p p p p p p p p p p p p p p p p p p p p p p p p p p p p p ",
"p p p p p p p p p p p p p p p p p p p p p p p p = = = = p p p p p p p p p p p p p p p p p p p p p p p p ",
"p p p p p p p p p p p p p p p p p p p = p p p p p = = = p p p p p p p p p p p p p p p p p p p p p p p p ",
"p p p p p p p p p p p p p p p p p p p o = - = - = = - - - o - -   = p p p p p p p p p p p p p p p p p p ",
"p p p p p p p p p p p p p p = = - O - ; : : : 5 5 5 5 5 > : @ @ +     p p p s cXp p p p p p p p p p p p ",
"p p p p p p p p p s lXp p p O $ 1 1 I T F.F.F.S.S.S.B.B.b.7.7 4 , * o o o p xXMXzXp p p p p p p p p p p ",
"p p p p p p p p p E MXNXt X 1 6 K.aXgX%XOXE.Z.E.E.C.Z.Z.z.G.h.r.[ { 6 X o = d NXY p p p p p p p p p p p ",
"p p p p p p p p p d xXd @ 2 K.hXmX;X;X;XOX/.^./.(.Q.@XI.k.k.i.k.uX9X' > @ o p p p p p p p p p p p p p p ",
"p p p p p p p p p a f 6 e aXnXkXkX;X;X;XQ.E.^.^.+X+XZ.g.d.s.w.O.eX8X_ 0 4 & o o p p p p p p p p p p p p ",
"p p p p p p p p p : e ( hXnX;X*X$X*X*X/.P.P.~.(.^.Y.h.h.g.r.g.O.} 6X-.*.q 7 # + = = = p p p p p p p p p ",
"p p p p p p p a ; r >XiXnXgX*X(.^.^.(.(.Q.~.`.`.^.C.V.h.d.d.o.5...) =.&.0.o.7 . o - p p p p p p p p p p ",
"p p p p p p p a 5 ,X1XyXdX*X/.Q.E.Q.!.!.(.`.^.(.~.A.A.k.h.O.8.6.o.v ;.&.h.M.q < . o = p p p p p p p p p ",
"p p p p p p p a 6 ,X1XyXtX$X/.).~.Q.!.E.E.~.(.`.~.Z.k.N.9X} ;.N._ v $.&.L.9.x 8 > X = = p p p p p p p p ",
"p p p p p p - $ T gX|.qX4X0X^.Q.Q.Q.E.Q.E.E.#X$XR.L.6X4X..9.s.N.8.-.*.6.t.G C n 7 , o   p p p p p p p p ",
"p p p p p a - : aXgXE.+X/.[.O.{.[.}.).).!.). X X9X9X5Xm.e.s.d.L.^ $.-.m.v V Z Z q < & o = p p p p p p p ",
"p p p p p a ; K aXS.E.).).Q.E.N.X.6X+.6X6X7X6Xo.N.8.6.r.g.s.s.+.8.*.t.5.G F S m ~ W . o = p p p p p p p ",
"p p p p p a ; R aXM.E.Q.Q.!./.Q.Y.C.C.V.V.T.C.g.g.V.V.V.g.V.9X@.$.s.^ G S Z Z k 8.( > + = p p p p p p p ",
"p p p p a ; J bXOXC.!.Q.Q.Q.~.Q.!.!.!.Q.+X=X`.P.P.C.A.h.V.9X@.5.e.) v D c Z x l U ! 4 @ - = p p p p p p ",
"p p p p a u ( aXOXE.!.Q.Q.Q.Q.Q.Q.E.Q.).P./..X`.~.E.I.L.8Xo.0.s._ n $.G Z S z h L P 7 # o = p p p p p p ",
"p p p p y j | rXsX!.Q.Q.!.Q.Q.Q.Q.Q.*X^./..XXX=XXX.X).+.N.w.t.' 5.$.$.G c Z h h x x 8 , o = = p p p p p ",
"p p p p u J J.fX2XeX6X).Y.Y.Q.Q./.*X.X.X.X=XoX-X-XoX X~.Z.N. .5.-.=.$.>.>.Z h z A Z 8 > X - = p p p p p ",
"p p p p u ( fX&X`. X5X9X8X{.[.E.^.=X-X=X=X=XoX-XdX0XXX X0X' 0.y.y.1.<.2.2.Z M 3.6.:.W 7 +   p p p p p p ",
"p p p p g ~ <XdX#X#XQ.E.].X.O.X.{. XdXoXoXdXdXtXpXeX9X+.m.q.s.y.w.<.;.&.M M &.M.c.a._ 8 &   = p p p p p ",
"p p p p g 0 sXuX X$X`.`.#X~.Q.Q.W.[.+.8X2X2XrXrX0XX.C.s.p.j.i.q.1.:.=.-.7.7.M.[.c.'.+.Q > o   p p p p p ",
"p p p p g 0 %XdXuXXXR.T.^.^.#X#X`.+XR.~.~.).~.R.R.I.l.z.k.j.u.w.<.M._ ` { { } L.#.eX9XQ 4 +   p p p p p ",
"p p p p u L J.;X9X4XL.Z.P.~.(.(.^.^.^.^.$X`.~.R.Y.I.l.z.j.i.y.<.M.) c m B l M 3.4.c. ./ < +   = p p p p ",
"p p p p i 2 S.:XT.<X3XP.A.A.U.^.`.^.R.^.$X+XT.I.v.l.z.j.i.u.1.s.7.&.>.M z z m G 3.4./ W . +     p p p p ",
"p p p p y j b.vXR.V.<X2XC.k.V.Z.^.R.R.R.~.Y.I.c.l.j.j.i.u.y.<.t.v 2.G h z z l z &.W Q 3 * + p p p p p p ",
"p p p p t 1 7.sX}.v.t.9X2XC.k.h.I.Y.@Xv.v.l.l.l.k.v.j.u.y.1.e.~ V S z z z l l G $.Q 3 , *   p p p p p p ",
"p p p p a g L D.].{.C.e...wXL.g.g.v.E.qX9X!.a.j.a.j.y.y.q.:.t.5.S Z z z h h h C A W 3 . +   p p p p p p ",
"p p p p p i j 7.G.V.X.N.0.) ..X.X.qXpXpXuX4X+.L.A.i.1.1.,.&.b.F S C h h h h C Z 5.9 > X +   p p p p p p ",
"p p p p p t 1 P B.Z.d.o.X.e.9.b._ } } o.o...@...7XuXX.:.&.;.b.N Z C h h C k B n ) 7 . o   p p p p p p p ",
"p p p p p a i x 7.A.z.u.o.6Xf.f.p.0.;.;.q.1.,.>.:.b.5X,.V ` ) k Z C h h k 7.| qXD.H.R s   p p p p p p p ",
"p p p p p p y g P 8.j.j.w.7X].q.0.0.0.0.0.w.y.1.<.&.8.m.A | m.C Z h k h b.{ { ( J.X   p p p p p p p p p ",
"p p p p p p a i 2 w r.u.u.e.@.6.;.;.;.;.$.>.<.>.2.V S 5X{ x 7.M Z k L ( L C 9 7 R o   p p p p p p p p p ",
"p p p p p p p t u j 7.6.w.,.8.M.$.3.$.>.$.*.*.&.&.V N O.8.M 7.M Z 7.w l A ^ 8 1 +   p p p p p p p p p p ",
"p p p p p p p p y g 2 7.6.1.,. .x.;.v c S *.S D S N | 3X} { 5Xo.` P k A W 9 > @   p p p p p p p p p p p ",
"p p p p p p p p = y u j U t.a._._.a.>.D V D S N F ` { P A x L L h m %.Q 8 > X   p p p p p p p p p p p p ",
"p p p p p p p p p = y i j w _ [.0XT.4.&.M B B U b.P l m Z C C m F ^ W 7 > @ o = p p p p p p p p p p p p ",
"p p p p p p p p p p p t y J ~ N.O.].a.*.P n...( h N Z Z Z F n ! W 8 2 . X o   p p p p p p p p p p p p p ",
"p p p p p p p p p p p p a a : I ( ) &Xm.7XuX7Xh b b n P 7.! ! q 6 1 @ o t a p p p p p p p p p p p p p p ",
"p p p p p p p p p p p p p a a ; 5 J T L 0 ~ ! ~ ~ w w q 0 7 5 1 $ o o o p p p p p p p p p p p p p p p p ",
"p p p p p p p p p p p p p p p a a t t y : % g 1 5 1 1 # $ O O o o t p p p p p p p p p p p p p p p p p p ",
"p p p p p p p p p p p p p p p p p p a a a a t O y y t t p a p p p p p p p p p p p p p p p p p p p p p p ",
"p p p p p p p p p p p p p p p p p p p p p a p = p = p = p p p p p p p p p p p p p p p p p p p p p p p p ",
"p p p p p p p p p p p p p p p p p p p p p p p p p p p p p p p p p p p p p p p p p p p p p p p p p p p p ",
"p p p p p p p p p p p p p p p p p p p p p p p p p p p p p p p p p p p p p p p p p p p p p p p p p p p p ",
"p p p p p p p p p p p p p p p p p p p p p p p p p p p p p p p p p p p p p p p p p p p p p p p p p p p p ",
"p p p p p p p p p p p p p p p p p p p p p p p p p p p p p p p p p p p p p p p p p p p p p p p p p p p p "
};
