/* XPM */
static char *result[] = {
/* columns rows colors chars-per-pixel */
"52 52 214 2 ",
"   c #1D0D4D",
".  c #1C1445",
"X  c #1D1C42",
"o  c #1F1549",
"O  c #1E0F56",
"+  c #1C1255",
"@  c #171152",
"#  c #210E4C",
"$  c #22164B",
"%  c #24194C",
"&  c #26184A",
"*  c #241351",
"=  c #251A53",
"-  c #2A1D55",
";  c #2A155B",
":  c #2B1C5B",
">  c #241959",
",  c #321D5C",
"<  c #1D2241",
"1  c #242947",
"2  c #26284A",
"3  c #29225E",
"4  c #2B2057",
"5  c #353A55",
"6  c #342A59",
"7  c #1F1964",
"8  c #211B6A",
"9  c #281963",
"0  c #351C63",
"q  c #391A66",
"w  c #351E6A",
"e  c #3B1D6C",
"r  c #211E72",
"t  c #3E1E73",
"y  c #2D2A64",
"u  c #2A2768",
"i  c #342463",
"p  c #322C64",
"a  c #3C226F",
"s  c #3A2A6D",
"d  c #362C68",
"f  c #39306E",
"g  c #242774",
"h  c #3D2373",
"j  c #3C2C72",
"k  c #3D2C7B",
"l  c #3F267D",
"z  c #3B3474",
"x  c #3E337B",
"c  c #3C397C",
"v  c #401F79",
"b  c #401D76",
"n  c #402374",
"m  c #402A75",
"M  c #42237B",
"N  c #432B7C",
"B  c #42347C",
"V  c #413676",
"C  c #3F435D",
"Z  c #3E417F",
"A  c #434761",
"S  c #5F6278",
"D  c #66697E",
"F  c #2C3680",
"G  c #3D3A86",
"H  c #2A3692",
"J  c #272A85",
"K  c #462582",
"L  c #492787",
"P  c #452C82",
"I  c #492E85",
"U  c #472F88",
"Y  c #4A2C8C",
"T  c #4A268B",
"R  c #463284",
"E  c #493486",
"W  c #463983",
"Q  c #45348A",
"!  c #4A358B",
"~  c #4A3C8C",
"^  c #4B2D90",
"/  c #4D3493",
"(  c #4C3B93",
")  c #4E3F98",
"_  c #513593",
"`  c #533B94",
"'  c #513698",
"]  c #523B9B",
"[  c #5E3FA0",
"{  c #3E4484",
"}  c #354086",
"|  c #324297",
" . c #3D59BF",
".. c #3A4FA7",
"X. c #3C60BE",
"o. c #444885",
"O. c #4A438D",
"+. c #4A4C8C",
"@. c #444187",
"#. c #4D4493",
"$. c #424C94",
"%. c #4E4A95",
"&. c #44479B",
"*. c #4F4299",
"=. c #4F4C9B",
"-. c #434194",
";. c #514594",
":. c #514A97",
">. c #53439D",
",. c #514C9B",
"<. c #594492",
"1. c #4B5596",
"2. c #4F549B",
"3. c #52529C",
"4. c #52599C",
"5. c #505396",
"6. c #50609F",
"7. c #464EA1",
"8. c #5545A2",
"9. c #5D44A1",
"0. c #554BA3",
"q. c #5D4CA4",
"w. c #5E4FAA",
"e. c #495FAD",
"r. c #5455A2",
"t. c #5A52A5",
"y. c #555CA4",
"u. c #5654AA",
"i. c #5A53AA",
"p. c #555EAA",
"a. c #5A5CAD",
"s. c #4B5EB5",
"d. c #4159B7",
"f. c #5D5CB2",
"g. c #654AA6",
"h. c #6555AC",
"j. c #6A5AAF",
"k. c #6558AB",
"l. c #675BB4",
"z. c #5461A5",
"x. c #5961A7",
"c. c #5663AA",
"v. c #5964AD",
"b. c #5469AC",
"n. c #5969AE",
"m. c #5A70AF",
"M. c #4D67B9",
"N. c #5C63B2",
"B. c #5B6BB3",
"V. c #5E6CB9",
"C. c #5A67B5",
"Z. c #5D73B5",
"A. c #5B7CB2",
"S. c #5D75BA",
"D. c #5E79BB",
"F. c #5774B2",
"G. c #4A60A9",
"H. c #6063B3",
"J. c #626BB6",
"K. c #626CBC",
"L. c #6A66B8",
"P. c #736BBD",
"I. c #6373BD",
"U. c #617CBE",
"Y. c #6472BA",
"T. c #5F7CC1",
"R. c #5573CE",
"E. c #5479D4",
"W. c #5A7DDB",
"Q. c #636FC0",
"!. c #706EC0",
"~. c #6374C2",
"^. c #637CC3",
"/. c #667CC9",
"(. c #687CCA",
"). c #6C79C4",
"_. c #7477C6",
"`. c #7F8294",
"'. c #5C83BB",
"]. c #5F85BB",
"[. c #6183BF",
"{. c #5F80C2",
"}. c #5A82DD",
"|. c #6384C3",
" X c #648AC5",
".X c #6685CA",
"XX c #6A82CC",
"oX c #658CCA",
"OX c #698ACE",
"+X c #6987C7",
"@X c #7583CD",
"#X c #748ACE",
"$X c #6693CB",
"%X c #6C94CD",
"&X c #6392C6",
"*X c #6B8CD1",
"=X c #6A86D1",
"-X c #798ED4",
";X c #7887D0",
":X c #6C94D3",
">X c #6A98D4",
",X c #729CDC",
"<X c #749AD4",
"1X c #6FA1D6",
"2X c #72A1DD",
"3X c #7DA3DF",
"4X c #6290F0",
"5X c #78A9E8",
"6X c #8B8D9D",
"7X c #9D9FAC",
"8X c #ACADB9",
"9X c #D3D2DA",
"0X c #C7C8D0",
"qX c #FCFDFD",
/* pixels */
"< < < < < < < < < < < < < < < < < < < < < < < < < < < < < < < < < < < < < < < < < < < < < < < < < < < < ",
"< < < < < < < < < < < < < < < < < < < < < < < < < < < < < < < < < < < < < < < < < < < < < < < < < < < < ",
"< < < < < < < < < < < < < < < < < < < < < < < < < < < < < < < < < < < < < < < < < < < < < < < < < < < < ",
"< < < < < < < < < < < < < < < < < < < < < < < < < < < < < < < < < < < < < < < < < < < < < < < < < < < < ",
"< < < < < < < < < < < < < < < < < < < < < < < < < < < < < < < < < < < < < < < < < < < < < < < < < < < < ",
"< < < < < < < < < < < < < < < < < < < < < < < < < < < < < < < < < < < < < < < < < < < < < < < < < < < < ",
"< < < < < < < < < < < < < < < < < < < < < < < < < < < < < < < < < < < < < < < < < < < < < < < < < < < < ",
"< < < < < < < < < < < < < < < < < < < < < < < < < < < < < < < < < < < < < < 1 6X1 < < < < < < < < < < < ",
"< < < < < < < < < 2 6X< < < < < < < < < < < < < X = - 4 = $ X < < < < < < < 8XqX7X< < < < < < < < < < < ",
"< < < < < < < < < D qX9X< < < < < < < < $ p +.4.+.1.y.H.4.3.4.@.3 o < < < < 5 0XC < < < < < < < < < < < ",
"< < < < < < < < < 2 8X5 < < < < < < 3 Z 4.x.v.C.4.1.c.K.p.y.y.i.=.:.B > < < < < < < < < < < < < < < < < ",
"< < < < < < < < < < < < < < < < < z y.v.Y.N.C.S.B.1.B.~.N.y.p.H.3.8.r.#.i X < < < < < < < < < < < < < < ",
"< < < < < < < < < < < < < < < y z.S.C.n.).Z.Z.T.S.6.b.I.I.b.c.N.p.=.r.u.>.~ & X < < < < < < < < < < < < ",
"< < < < < < < < < < < < < < 1 c.D./.B.B.^.|.S./.U.6.n.n.I.Y.p.v.C.r.r.8.;.~ V , < < < < < < < < < < < < ",
"< < < < < < < < < < < < < 2 4.V./.XXD.D.D.*X.X*X+Xb.m.Y.S.).V.p.N.N.a.r.q.8.g.<.& < < < < < < < < < < < ",
"< < < < < < < < < < < < < 1.z.B.(.=X|.D.U.|.:X:X:XF.F.U.S.XX;XI.v.p.r.t.t.q.>.` N X < < < < < < < < < < ",
"< < < < < < < < < < < < +.x.x.B./.*X.X{.+X[.[.,X,X[.D.^.D.U.-X#X^.v.r.3.=.#.` ! E m & < < < < < < < < < ",
"< < < < < < < < < < < 6 1.z.n.m.T.*X:X X:X[.A.|.2X,X|.|.U.D.#X;X;X~.f.t.t.q.>.` ] _ , < < < < < < < < < ",
"< < < < < < < < < < < o.4.x.n.Z.S.*X,XoX X%X%X+X$X5X:X|.[.D.U.#X;X_._.!.P.L.j.h.g.[ E X < < < < < < < < ",
"< < < < < < < < < < p 4.y.v.n.Y.S.T.,X:X'.%X3X<X$X>X2X$X|.U.D.).;X_._._._.P.j.h.g.[ _ , < < < < < < < < ",
"< < < < < < < < < X O.r.x.z.v.F.D.{.>X,X'.$X1X%X[.].[.<X XD.D.Z.I.).).Y.L.L.k.9.` I m , X < < < < < < < ",
"< < < < < < < < < = :.r.y.z.z.Y.D.{.{.>X].&X1X&X[.].].|.:X^.S.B.B.C.J.k.r.t.;.~ E m b , & < < < < < < < ",
"< < < < < < < < X y 5.r.y.4.4.Y.S.'.{.oX X&X>X$X].].A.F.|.|.S.n.B.p.y.4.,.;.O.~ N n e q & < < < < < < < ",
"< < < < < < < < < z 3.r.z.1.z.Z.S.{..X X X X$X$X&X[.[.U.F.A.Y.n.v.x.t.3.,.;.~ ! P M a q & < < < < < < < ",
"< < < < < < < < < V 3.3.5.2.C./.T.T. X.X XoXoXoX&X X X%XD.b.B.n.v.y.u.,.%.#.~ E R L t e , < < < < < < < ",
"< < < < < < < < X x ,.1.%.y.~.(.XX^.*X.X*X|. X|.|.[.U.|.XXS.b.n.c.y.4.=.;.#.~ E I _ M a i < < < < < < < ",
"< < < < < < < < . V %.+.+.N.Q./..X/..X*XOX+X|.|.[.U.D.D..X/.S.N.p.r.2.%.#.~ E R P K n e i < < < < < < < ",
"< < < < < < < < X x -.W 5.J.K.~./.T.T.=X^.*X*X^.U.Y.F.S./.(.~.Q.N.a.2.%.O.~ R N N M t a , < < < < < < < ",
"< < < < < < < < X j W #.l.Q.V.Q.Q.V.C.T.XXT.~.|.^.B.F.B././.Q.V.N.f.3.#.~ ~ E P m q q 0 4 < < < < < < < ",
"< < < < < < < < < y ~ =.L.l.N.K.C.f.C.V.^.~.v.c.B.Z.I.K.~.V.K.N.a.a.0.#.~ E I N n q q i 4 < < < < < < < ",
"< < < < < < < < < : ~ t.l.f.f.f.s.f.v.c.C.I.c.c.n.c.B.V.C.v.i.r.=.,.,.] ~ E N M n q 0 i = < < < < < < < ",
"< < < < < < < < < > #.h.l.i.f.f.p.v.f.p.x.v.v.x.x.y.y.4.3.3.,.=.#.#.( ;.( Y N M b e i s o < < < < < < < ",
"< < < < < < < < < o ;.h.w.0.i.i.u.f.f.p.r.r.y.r.r.r.4.3.O.O.O.#.O.~ ~ E ! ^ M M M m c V < < < < < < < < ",
"< < < < < < < < < < j g.8.8.0.0.u.i.u.u.u.3.3.3.3.3.,.i.t.;.W W W E R R P N K M m m B y < < < < < < < < ",
"< < < < < < < < < < $ ( ) 8.8.8.0.u.u.u.i.,.,.:.%.%.:.h.l.q.B B m m N P M M t h s s z o < < < < < < < < ",
"< < < < < < < < < < X w ' ' ) ' 8.8.8.0.0.0.,.#.#.( #.#.( ~ E N z n n b b b h j z @.p < < < < < < < < < ",
"< < < < < < < < < < < # L ^ ^ ) ) [ ) ) 8.*.8.*.~ ~ ~ ~ E Q E B m n e e e h x c { o.> X < < < < < < < < ",
"< < < < < < < < < < < < ; l Y / ' ' / Q [ ) ( *.( E ! Q R P N N m n t h h k G $.G.g + X < < < < < < < < ",
"< < < < < < < < < < < < & ; G T ^ L P U / ) U / ] ! U P N M M M M b M W | 7.s.M.| u + X < < < < < < < < ",
"< < < < < < < < < < < < < & ; J K l l K Y ^ K Y / ^ Y K M M M b h l Q &.s.R.}.d.J 7   < < < < < < < < < ",
"< < < < < < < < < < < < < < < ; t t v K L L K K T T T M t t t h m G $.d.W.4XX.H r + X < < < < < < < < < ",
"< < < < < < < < < < < < < < < < $ q t K L t v M K L K M n a h k W -.e.R.E. .H r O . < < < < < < < < < < ",
"< < < < < < < < < < < < < < < < < 2 ; s h h l N N P m h s s f c $.e.R...H J 7 O . < < < < < < < < < < < ",
"< < < < < < < < < < < < < < < < < A 9X6 * 0 s z V B V z z c { { F c g r 8 + . X < < < < < < < < < < < < ",
"< < < < < < < < < < < < < < < < < < S 1 < X # > : i y y y y > + @ @ + +   X < < < < < < < < < < < < < < ",
"< < < < < < < < < < < < < < < < < < < < < < < < 1 X < < < < < < < X X < < < < < < < < < < < < < < < < < ",
"< < < < < < < < < < < < < < < < < < < < < < < < < < < < < < < < < < < < < < < < < < < < < < < < < < < < ",
"< < < < < < < < < < < < < < < < < < < < < < < < < < < < < < < < < < < < < < < < < < < < < < < < < < < < ",
"< < < < < < < < < < < < < < < < < < < < < < < < < < < < < < < < < < < < < < < < < < < < < < < < < < < < ",
"< < < < < < < < < < < < < < < < < < < < < < < < < < < < < < < < < < < < < < < < < < < < < < < < < < < < ",
"< < < < < < < < < < < < < < < < < < < < < < < < < < < < < < < < < < < < < < < < < < < < < < < < < < < < ",
"< < < < < < < < < < < < < < < < < < < < < < < < < < < < < < < < < < < < < < < < < < < < < < < < < < < < "
};
