/* XPM */
static char *result[] = {
/* columns rows colors chars-per-pixel */
"52 52 252 2 ",
"   c #0B2D2E",
".  c #05282E",
"X  c #0A322D",
"o  c #053A29",
"O  c #0B2334",
"+  c #052B32",
"@  c #0C2C32",
"#  c #0C243B",
"$  c #062738",
"%  c #122536",
"&  c #112B35",
"*  c #15233B",
"=  c #1A223E",
"-  c #152B3C",
";  c #0C3232",
":  c #04343B",
">  c #063836",
",  c #12353C",
"<  c #08442D",
"1  c #044432",
"2  c #054936",
"3  c #035938",
"4  c #0A4E30",
"5  c #01623A",
"6  c #1C7436",
"7  c #0A7137",
"8  c #337031",
"9  c #1E5122",
"0  c #0B2943",
"q  c #132342",
"w  c #1D2241",
"e  c #152B40",
"r  c #023B4A",
"t  c #073745",
"y  c #09394A",
"u  c #272C49",
"i  c #313853",
"p  c #003F76",
"a  c #034C4B",
"s  c #064547",
"d  c #025848",
"f  c #004A54",
"g  c #025453",
"h  c #015C54",
"j  c #03575A",
"k  c #1B5B56",
"l  c #2B5051",
"z  c #046747",
"x  c #166649",
"c  c #037649",
"v  c #016553",
"b  c #006B5B",
"n  c #0E6D56",
"m  c #037759",
"M  c #1B7E51",
"N  c #316C49",
"B  c #2F6F50",
"V  c #00446D",
"C  c #004C6B",
"Z  c #024765",
"A  c #005B67",
"S  c #00526A",
"D  c #005C6C",
"F  c #065569",
"G  c #004574",
"H  c #004B72",
"J  c #004179",
"K  c #005372",
"L  c #006465",
"P  c #006B63",
"I  c #006D6A",
"U  c #036269",
"Y  c #007563",
"T  c #007B64",
"R  c #03756A",
"E  c #077A75",
"W  c #106E6E",
"Q  c #236862",
"!  c #467C43",
"~  c #457C53",
"^  c #66697E",
"/  c #099D2E",
"(  c #04893A",
")  c #019B35",
"_  c #019938",
"`  c #089A33",
"'  c #109F37",
"]  c #1D972F",
"[  c #269D38",
"{  c #33943C",
"}  c #09A235",
"|  c #17A334",
" . c #29A428",
".. c #34A52B",
"X. c #25A535",
"o. c #3AA631",
"O. c #60801F",
"+. c #77B41B",
"@. c #6CB319",
"#. c #539337",
"$. c #739A30",
"%. c #49A929",
"&. c #57AC26",
"*. c #4AAA3A",
"=. c #64AC26",
"-. c #6FB223",
";. c #77B527",
":. c #71B033",
">. c #068D49",
",. c #00954C",
"<. c #00835E",
"1. c #008C5D",
"2. c #008953",
"3. c #00955D",
"4. c #00995D",
"5. c #039A52",
"6. c #179155",
"7. c #2C924F",
"8. c #379758",
"9. c #338E51",
"0. c #33AC4B",
"q. c #008364",
"w. c #008B63",
"e. c #038768",
"r. c #009462",
"t. c #009B63",
"y. c #009C6A",
"u. c #099469",
"i. c #029C71",
"p. c #079979",
"a. c #10907E",
"s. c #2D936E",
"d. c #00A16D",
"f. c #05A164",
"g. c #00A273",
"h. c #00A47A",
"j. c #0CA474",
"k. c #14A378",
"l. c #12A063",
"z. c #36A876",
"x. c #26A367",
"c. c #0CA046",
"v. c #4A984A",
"b. c #4D8C52",
"n. c #6D994C",
"m. c #48B24C",
"M. c #58B253",
"N. c #63B659",
"B. c #72AE4F",
"V. c #519167",
"C. c #709770",
"Z. c #51AE76",
"A. c #56B272",
"S. c #67B66E",
"D. c #77C252",
"F. c #7DC166",
"G. c #97BE0E",
"H. c #92BB14",
"J. c #89B11C",
"K. c #A3BF14",
"L. c #809C31",
"P. c #98BA38",
"I. c #8CB72E",
"U. c #A3BF27",
"Y. c #ADBB2D",
"T. c #9EC10E",
"R. c #9BC01F",
"E. c #A9C609",
"W. c #BBCD00",
"Q. c #B4C808",
"!. c #B8C91A",
"~. c #A8C510",
"^. c #98C425",
"/. c #96C238",
"(. c #89C626",
"). c #B0C72A",
"_. c #CAD303",
"`. c #D4DB00",
"'. c #D5D817",
"]. c #C2D00C",
"[. c #E3DE07",
"{. c #E0DE11",
"}. c #E6E201",
"|. c #F7EA05",
" X c #F3E91A",
".X c #FFF601",
"XX c #C6D328",
"oX c #D7D82B",
"OX c #E5DF20",
"+X c #FDED24",
"@X c #EEE831",
"#X c #91B247",
"$X c #8CAF65",
"%X c #AAB960",
"&X c #90C350",
"*X c #A7C652",
"=X c #B5CE4B",
"-X c #96C56A",
";X c #9CD061",
":X c #A5C666",
">X c #A7CC79",
",X c #B7D26D",
"<X c #D1D648",
"1X c #DCE25A",
"2X c #E9E65B",
"3X c #FEF259",
"4X c #D0D86E",
"5X c #EFEC71",
"6X c #DBE06D",
"7X c #007583",
"8X c #089C8B",
"9X c #01A683",
"0X c #02A88C",
"qX c #1DA889",
"wX c #0FA795",
"eX c #2AAC98",
"rX c #34AC8E",
"tX c #17ABA1",
"yX c #27ACA2",
"uX c #36B1AF",
"iX c #7F8294",
"pX c #49AF80",
"aX c #52B38E",
"sX c #68B988",
"dX c #71B68F",
"fX c #44B2A8",
"gX c #56B7B5",
"hX c #4DB5B3",
"jX c #65B9A4",
"kX c #46B6C5",
"lX c #9D9FAC",
"zX c #ACADB9",
"xX c #8B8D9D",
"cX c #A7D18F",
"vX c #8ACF9D",
"bX c #C4D785",
"nX c #D5DC8C",
"mX c #D4E294",
"MX c #DAE483",
"NX c #E7E888",
"BX c #FDF78B",
"VX c #FBF59C",
"CX c #EFED91",
"ZX c #D0E3AB",
"AX c #F9F5A6",
"SX c #FBFAB9",
"DX c #E8EBAA",
"FX c #C9D5A5",
"GX c #CDCED5",
"HX c #FFFDD5",
"JX c #FCFACB",
"KX c #FCFDFD",
/* pixels */
"w w w w w w w w w w w w w w w w w w w w w w w w w w w w w w w w w w w w w w w w w w w w w w w w w w w w ",
"w w w w w w w w w w w w w w w w w w w w w w w w w w w w w w w w w w w w w w w w w w w w w w w w w w w w ",
"w w w w w w w w w w w w w w w w w w w w w w w w w w w w w w w w w w w w w w w w w w w w w w w w w w w w ",
"w w w w w w w w w w w w w w w w w w w w w w w w w w w w w w w w w w w w w w w w w w w w w w w w w w w w ",
"w w w w w w w w w w w w w w w w w w w w w w w w w w w w w w w w w w w w w w w w w w w w w w w w w w w w ",
"w w w w w w w w w w w w w w w w w w w = = = = = = w = = w = w w w = w w w w w w w w w w w w w w w w w w ",
"w w w w w w w w w w w w w w w w w % % O % % % * * * * * % % % % * = w w w w = w w w w w w w w w w w w w ",
"w w w w w w w w w w w w w w w = % O .           X X @     .   . . . O = w w u xXw w w w w w w w w w w w ",
"w w w w w w w w w u iXw w w w & ; < 4 < > o 1 1 2 4 4 4 < o o o O . O O % = zXKXlXw w w w w w w w w w w ",
"w w w w w w w w w ^ KXGXw w - , B ,X<XoXY.#.b.v.v.9.6.>.{ B.#XY.J.O.o   O O u GXi w w w w w w w w w w w ",
"w w u = w w w w w u zXi w w , x FX6X!.!.OX+XN.l.f.t.e.F.AXSXVX5X3X+X'.8 + + O q u w w w w w w w w w w w ",
"w w w w w w w w w w w u w , y V.nX;...%.^.=Xa.y.f.a.n.JXHXAXNX5X2XoX X{.6 : + $ # w w w w w w w w w w w ",
"w w w w w w w w w w w w - s f $X=X| c.0.A.s.j.g.y.a.V.3X2X<X/./.U.~.].|.J.d 2 : $ # w w w w w w w w w w ",
"w w w w w w w w w w w w e a V.6X*XS.sXqXqXk.h.g.j.i.7XU.W.+.&.%.%.-.G._.'.n d 2 + $ q w w w w w w w w w ",
"w w w w w w w w w = = , s C.mXsXaXrX8XwXwXqXvXZXmX,XM.e.-.&./ / / ..-.E.|.b.A z d 2 $ q w w w w w w w w ",
"w w w w w w w w w u q t V.NX,XdXrXyXuXuXyXsXAXZX-XI.'.B.R 7.| ) _ ` &.G.`.n.K m ( 7 2 # w w w w w w w w ",
"w w w w w w w w w w e k bXcXdXjXjXgXgXhXuXyXcXN.) / J.'.l.R 7.F.M.} %.T.}.#.s.cXcXB.( 2 q w w w w w w w ",
"w w w w w w w = w - y $X>XS.sXdXjXgXkXkXuXtXwXsXS.X.@.P.l.4.T e.S.;X/.E.|.v.I.1XoX+X;.5 # w w w w w w w ",
"w w w w w w = = w , N 4XS.sXsXjXjXgXkXkXuXtX0X9XqXz.7.u.y.t.5.3.<.7.#X!.!.W 6. . ._.^.c : = w w w w w w ",
"w w w w w w u = - > $X:XZ.Z.aXaXaXfXuXuXyXwX0X9Xi.i.i.y.t.t.t.4.5.t.r.n f j T ,.} E.*.c t * w w w w w w ",
"w w w w w w w = , 8 4XM.Z.Z.aXpXaXrXeXeXtX0X0X9Xh.g.y.y.t.t.r.q.<.w.q.j C.CX,X8.5.*.3.z t # w w w w w w ",
"w w w w w w = % ; b.*Xx.x.z.Z.Z.pXrXrXqX0X9Xh.h.g.y.d.y.t.t.r.q.T m Y h nXJXBX2XV.U I v a 0 q w w w w w ",
"w w w w w = = & > B.I.r.y.u.k.z.rXz.qX9X9Xh.h.g.g.y.y.t.t.t.r.m T Y 1.n P.,XXX XoXH H b a $ q w w w w w ",
"w w w w u = - ; 4 8.9.w.y.r.i.i.p.j.h.h.h.g.g.d.f.y.t.t.t.t.r.q.m Y r.m ] ..-.W.|.b.H b g t q w w w w w ",
"w w w w w = % X 8 2X6XN.1.r.y.i.y.d.g.d.d.d.d.d.y.t.t.t.t.3.w.q.T T r.m ( _ ..T.|.L.p b g t q w w w w w ",
"w w w w w =   o %XJXAX3XI.,.t.t.y.y.y.y.d.f.t.t.t.t.t.r.t.r.w.w.q.T r.w.7.} ..E.|.B J P h r q w w w w w ",
"w w w w = %   9 6XBX@X X X:.5.r.t.t.t.t.t.t.t.t.t.t.4.4.r.r.w.q.T R T r.7.&X-.`.).J H L h r q w w w w w ",
"w w w w = %   9 2XoX_._.[.'.*.t.4.t.t.t.4.t.t.r.4.4.t.t.r.1.q.q.Y L U R <.P.OX!.Q J H b h r q w w w w w ",
"w w w w = %   8 XXH.+.+.G._.:.3.4.4.4.4.4.4.t.4.4.4.4.r.w.w.q.Y P L A F U m v.m K H H P g r q w w w w w ",
"w w w w w =   8 H.%.] | &.K.;.3.4.4.4.4.4.4.4.4.r.r.r.w.w.q.T P L D S C G H D K G G H m g r q u w w w w ",
"w w w w w *   8 =./ _ ) | @.H.r.4.4.4.4.4.4.4.r.r.r.w.w.e.T P L A A S Z V H V G H H D b f 0 w w w w w w ",
"w w w w w = & 4 #.` _ ) ' +.K.w.4.4.4.4.r.4.1.1.r.r.w.e.T T L L A S C V V H V G H H U b f q w w w w w w ",
"w w w w w = * X 6 %.} / %.G.Q.u.4.4.r.r.r.3.3.3.4.r.r.w.T R U A S C V V C j ~ #XQ G Y h r q w w w w w w ",
"w w w w w w = & o 6 :.&XU._.U.e.t.r.r.r.r.4.4.5.4.t.t.t.e.R D S C C V C h C.SXBX<XA b f r w w w w w w w ",
"w w w w w w = &   o 4 x.v.8.e.w.w.w.<.<.2.2.2.>.5.5.5.f.r.e.U F H H H h b.5X=XoX Xv.j f 0 w w w w w w w ",
"w w w w w w = *   X < 7 e.Y e.q.c M ! ! ! ! N x x z z m w.e.I H H H S x /.%...@.`.L.j y w w w w w w w w ",
"w w w w w w w w *   o 4 m Y Y B 4XBXAXCXCX6X4X,X*X#X$.$.N x F G H H C $.@.) _ ] ~.#.r q w w w w w w w w ",
"w w w w w w w w = *   < 3 m R n.HXJXSXDXmXcX,X-X&X#X/.^.!.Q.J.! Z G Z L.(.| ' ..-.m r w w w w w w w w w ",
"w w w w w w w w w = & @ 1 3 m Q SXSXDXnXbX>Xm.X.| | %.=.H.E.`.|.!.k J k n.B.m.0.>.g q w w w w w w w w w ",
"w w w w w w w w w w = & X 4 5 b C.AXmXcX-XX.} ) } ) | %.-.H.W.}..XL.p G F m m v a q w w w w w w w w w w ",
"w w w w w w = u w w w * & X < 3 z $XMX>Xo.} ) _ _ ) } X.=.J.W.[.[.Q H Y b j f r 0 w w w w w w w w w w w ",
"w w w w w w w w w w w w = & X 1 3 5 #.:. .} _ _ _ ) ) | &.+.W._.~ D m v g s t q w w w w w w w w w w w w ",
"w w w w w w w w w w w w = * & ; o 2 z 6 X.} } _ _ ) ) o.:.^.+.M n v h s r 0 q = w w w w w w w w w w w w ",
"w w w w w w w w w w w w w w * % * , B s 3 7 ( _ ' 0.N.B.v.7.v h a s t 0 0 q w w w w w w w w w w w w w w ",
"w w w w w w w w w w w w w w w = * # l @ > > s 3 d x z d a a s r y 0 q q w w w w w w w w w w w w w w w w ",
"w w w w w w w w w w w w w w w w w = % % # @ + $ > > : : : $ : # = w u = w w w w w w w w w w w w w w w w ",
"w w w w w w w w w w w w w w w w w w w w = * # O O $ $ $ # q = w w w = w w w w w w w w w w w w w w w w w ",
"w w w w w w w w w w w w w w w w w w w w w w w = q q = w w w w w w w w w w w w w w w w w w w w w w w w w ",
"w w w w w w w w w w w w w w w w w w w w w w w w w w w w w w w w w w w w w w w w w w w w w w w w w w w w ",
"= w w w w w w w w w w w w w w w w w w w w w w w w w w w w w w w w w w w w w w w w w w w w w w w w w w w ",
"w w w w w w w w w w w w w w w w w w w w w w w w w w w w w w w w w w w w w w w w w w w w w w w w w w w w ",
"w w w w w w w w w w w w w w w w w w w w w w w w w w w w w w w w w w w w w w w w w w w w w w w w w w w w "
};
