/* XPM */
static char *result[] = {
/* columns rows colors chars-per-pixel */
"52 52 230 2 ",
"   c #161A3D",
".  c #191D3E",
"X  c #1B1E43",
"o  c #1E1D4A",
"O  c #1B154D",
"+  c #1D1552",
"@  c #241F4C",
"#  c #231D52",
"$  c #2C1E55",
"%  c #261B5C",
"&  c #2B1B5D",
"*  c #201657",
"=  c #331C5B",
"-  c #1D2241",
";  c #212345",
":  c #232249",
">  c #2A274C",
",  c #362C4D",
"<  c #2A2654",
"1  c #342D54",
"2  c #3A395C",
"3  c #353358",
"4  c #313051",
"5  c #2D1B64",
"6  c #331A65",
"7  c #331B6A",
"8  c #391A67",
"9  c #3D1774",
"0  c #3A1872",
"q  c #3A2B6D",
"w  c #3D3B60",
"e  c #373161",
"r  c #3E3976",
"t  c #473459",
"y  c #431B6A",
"u  c #451579",
"i  c #4B147E",
"p  c #471975",
"a  c #51187B",
"s  c #48226C",
"d  c #47376C",
"f  c #543B6B",
"g  c #4E2672",
"h  c #53287C",
"j  c #463B78",
"k  c #543579",
"l  c #444261",
"z  c #4B4564",
"x  c #4B4578",
"c  c #55477B",
"v  c #58527A",
"b  c #5B416D",
"n  c #634379",
"m  c #38358D",
"M  c #3F3C91",
"N  c #571982",
"B  c #5B2286",
"V  c #5B2E86",
"C  c #48378C",
"Z  c #55398A",
"A  c #463D91",
"S  c #4A3E91",
"D  c #553E92",
"F  c #593C91",
"G  c #612887",
"H  c #67348C",
"J  c #6C3C90",
"K  c #4A4287",
"L  c #554687",
"P  c #454595",
"I  c #4C4393",
"U  c #4D4A97",
"Y  c #4C4C99",
"T  c #474C98",
"R  c #544293",
"E  c #5B4594",
"W  c #534A96",
"Q  c #5B4B97",
"!  c #544C99",
"~  c #5C4D99",
"^  c #5D4698",
"/  c #4C549C",
"(  c #5E529B",
")  c #57599A",
"_  c #5E5A82",
"`  c #644C87",
"'  c #634694",
"]  c #644A96",
"[  c #6B4B97",
"{  c #634D99",
"}  c #6B4E99",
"|  c #6D4493",
" . c #704F98",
".. c #754695",
"X. c #64549D",
"o. c #6B539C",
"O. c #6C599F",
"+. c #675897",
"@. c #74539B",
"#. c #7B559C",
"$. c #74589E",
"%. c #7C589E",
"&. c #704F87",
"*. c #6D6382",
"=. c #75698B",
"-. c #7A6897",
";. c #746C98",
":. c #4A5CA1",
">. c #5458A1",
",. c #6B5DA2",
"<. c #745DA1",
"1. c #7D5DA2",
"2. c #7555A0",
"3. c #5563A5",
"4. c #6C68A8",
"5. c #7464A5",
"6. c #766BAA",
"7. c #7A6CAA",
"8. c #7866A6",
"9. c #7B71AE",
"0. c #7670AC",
"q. c #7C76B1",
"w. c #8A4A96",
"e. c #924C97",
"r. c #81589E",
"t. c #87589A",
"y. c #97569C",
"u. c #866398",
"i. c #936A9E",
"p. c #8B7395",
"a. c #A36D98",
"s. c #8A5DA3",
"d. c #945EA0",
"f. c #8868A7",
"g. c #9A64A3",
"h. c #9D6BA6",
"j. c #966BA8",
"k. c #8373AE",
"l. c #8878A5",
"z. c #947AAE",
"x. c #8476B1",
"c. c #857BB4",
"v. c #8B7DB5",
"b. c #8B7AB7",
"n. c #947BB4",
"m. c #9B7CB3",
"M. c #9F7CB9",
"N. c #A56EAA",
"B. c #A568A6",
"V. c #A474AD",
"C. c #AD73AD",
"Z. c #A57AAF",
"A. c #B473AC",
"S. c #B878AD",
"D. c #AB7CB2",
"F. c #A978B2",
"G. c #B87CB1",
"H. c #B06AA6",
"J. c #C275AC",
"K. c #C879AF",
"L. c #C47DB2",
"P. c #8F81B7",
"I. c #8A83B7",
"U. c #9684B5",
"Y. c #9C82B6",
"T. c #9284B9",
"R. c #9589BC",
"E. c #9B8CBE",
"W. c #9B88B8",
"Q. c #9887B0",
"!. c #A58BA8",
"~. c #A482B6",
"^. c #AC83B6",
"/. c #A38FBE",
"(. c #A98ABB",
"). c #B384B6",
"_. c #B48CBB",
"`. c #BD8BBA",
"'. c #B984B7",
"]. c #B192BD",
"[. c #AE98B3",
"{. c #C48DBB",
"}. c #C985B7",
"|. c #D38BB9",
" X c #D184B5",
".X c #C492BF",
"XX c #C698BD",
"oX c #D694BF",
"OX c #9E8FC0",
"+X c #9E90C0",
"@X c #A393C2",
"#X c #AB95C3",
"$X c #AD99C6",
"%X c #B49AC5",
"&X c #BB9CC6",
"*X c #B89AC5",
"=X c #B28DC1",
"-X c #BCA7CF",
";X c #C49AC4",
":X c #CD9DC5",
">X c #C79AC4",
",X c #D39CC4",
"<X c #DD98C2",
"1X c #C5A0C9",
"2X c #CCA3CA",
"3X c #CDABCB",
"4X c #D3A4CA",
"5X c #DAA6CB",
"6X c #DDAACD",
"7X c #D6A6C9",
"8X c #DBAED0",
"9X c #D4ADD1",
"0X c #D9B1D1",
"qX c #C8ACD0",
"wX c #E5A4CA",
"eX c #E4ACCE",
"rX c #EBADCE",
"tX c #E6A4C8",
"yX c #F1ADCF",
"uX c #E4AED0",
"iX c #EDAFD0",
"pX c #F0AED0",
"aX c #E3B3D3",
"sX c #EDB1D1",
"dX c #ECBBD7",
"fX c #F1B1D1",
"gX c #FEB9D5",
"hX c #FAB7D5",
"jX c #E4B5CE",
"kX c #E9C1D7",
/* pixels */
"- - - - - - - - - - - - - - - - - - - - - - - - - - - - - - - - - - - - - - - - - - - - - - - - - - - - ",
"- - - - - - - - - - - - - - - - - - - - - - - - - - - - - - - - - - - - - - - - - - - - - - - - - - - - ",
"- - - - - - - - - - - - - - - - - - - - - - - ; - - - - - - - - - - - - - - - - - - - - - - - - - - - - ",
"- - - - - - - - - - - - - - - - - - - - - - - . - - - - - - - - - - - - - - - - - - - - - - - - - - - - ",
"- - - - - - - - - - - - - - - - - - - - - - l =.f.%.$.L 3 @ O X o X - - - - - - - - - - - - - - - - - - ",
"- - - - - - - - - - - - - - - - - - - 2 z v z.5.R R E { u.-.x q + O O - - - - - - - - - - - - - - - - - ",
"- - - - - - - - - - - - - - - - - z v [.kX3Xl.` +.$.o.o.f.=X#XW.;.L 5 + + o - - - - - - - - - - - - - - ",
"- - - - - - - - - - - - - - - 2 v jXkXkXgXjXQ.$.$.$.<.f.V.C._.-X$XE.8.j 5 + O x ; - - - - - - - - - - - ",
"- - - - - - - - - , p.> : > z [.kXhXfXhXtX:X].Y.z.z.~.=XC.e._.qXE.b.T.x.+.K j x x X - - - - - - - - - - ",
"- - - - - - - ; t u.!.a.k n i.dXgXyXyXfXfX,X{._.^.).G.H.w.y.:X3X/.7.f.m.W.v.0.0.+.< X - - - - - - - - - ",
"- - - - - - ; t ` j.H.e.y.d.B.<XgXfXfXfXfXeX|.'.A.B.y.e.e.>X8X4X&XE.j.~.#XE.v.b.c.( # o - - - - - - - - ",
"- - - - - ; , ` ,.F.A.y.d.g.N.,XiX5XpXfXpXfXrXoX}.A.H.S.<XuX8X4X2X%X@X#X_.T.x.q.k.9.L + o - - - - - - - ",
"- - - - - - b ,.n.{.C.y.g.j.C.|.wX>XrXfXfXfXfXfXyXtXtXpXpXiXeX4X2X&X$X@XOXR.b.7.8.f.5.q O - - - - - - - ",
"- - - - - , &.f.>X'.g.d.N.Z.A.|.iXuXfXfXfXfXfXfXfXfXfXfXpXiXuX5X4X&X$X+XOXR.v.x.8.8.s.` % O - - - - - - ",
"- - - - - , p.{.}.g.d.h.V.D.G. XfXhXfXfXpXfXfXsXfXpXfXfXpXiXuX5X4X1X%X@XOXE.T.x.8.<.1.@.q * o X - - - - ",
"- - - - - ; a.L.d.d.B.V.D.G.J. XsXfXfXsXsXfXfXfXfXfXpXfXpXpXuX6X4X>X%X@XOXR.v.x.6.<. .#.C 5 o o - - - - ",
"- - - - - . f w.d.g.V.Z.).L.J. XfXfXfXfXfXfXfXfXfXpXpXpXfXsXeX6X9X>X%X@X+XOXv.c.7.,.@...N 5 * O - - - - ",
"- - - - - . ; &.h.V.Z.).}.K.J.|.fXfXfXfXfXfXfXsXfXpXpXrXfXfXeXeX4X>X%X$XOXOXn.x.7.,.o.H 9 5 % + - - - - ",
"- - - - - .   d i.Z.^.}.}.J.J.<XgXgXgXgXfXfXfXfXsXfXfXfXrXsXsX5X4X3X2X&X@XE.I.x.7.,.X.V 9 0 7 * - - - - ",
"- - - - - -   4 u.'.{.|.K.J.|.fXfX4X:X6XsXhXfXfXfXfXfXfXpXfXeX6X8X8X4X`.G.D.m.x.7.,.( F N m 7 % - - - - ",
"- - - - - - . 2 z.,XoX|. X<XpX4Xc.0.x.n.=X5XfXfXfXfXpXpXfXrXeX0XaX:X(.j.f.f.j.f.5.,.( D N 9 7 % o - - - ",
"- - - - - - . l !.wXtXtXrXhXrXn.:.9.c.n.m._.wXpXfXpXfXpXrXrXjXdX4Xm.O.R I I O.8.<.,.( D N N 0 5 # - - - ",
"- - - - - - - 4 !.7XrXfXfXgX4X4.4.n.Y.~.D.).,XyXfXfXpXpXrXaXaX8Xm.{ C m m m m ( <.,.W D N N 7 5 # - - - ",
"- - - - - - - 4 !.XXeXfXfXfX;X6.b.W.~.^.`.{.:XeXfXpXsXiXuXaXaX(.' C C C A m m M X.,.W D B N 0 5 # - - - ",
"- - - - - - - 4 p.`.7XeXfXfX;X0.n.Y.(.).`.:X4XuXfXfXfXeXjX8X1X<.C F E E D I A M U { W D B N 0 7 # - - - ",
"- - - - - - - 4 p.&X7XeXfXfX:Xk.U.~.^.'.>X,X5XiXfXfXuX6X6X8XM.Z F ] ] ' E R S A R ,.Y D B a 9 7 # - - - ",
"- - - - - - - > =.].1X4X6XeX4XY.m.^.'.{.,X,XaXsXuXeX6X5X9X;X2.Z [ } [ ' ^ ^ R R Q ( U D B N 9 7 # - - - ",
"- - - - - - - ; *.[.].].;XeX5X].m.).{.>X,XuXdXdXeX6X7X4X4XD.' ' @. .[ [ ' ' R E ~ ~ U C N N 0 7 o - - - ",
"- - - - - - - - v Q.U.z._.4X8X>X^.'.>X,X8XdXdXaX7X4X2X:X;Xj.' 2. .@. . .] ] ] ^ { ! Y F N i 0 5 - - - - ",
"- - - - - - - . 2 l.W.).,X7X2X2X>X.X:X5XaXdX8X4X2X>X&X&X).f.[ 2.#.#. . .} [ [ ( ! Y ! G N u 0 5 o - - - ",
"- - - - - - - . : _ Q._.6X9X%X1X2X2X:X4X9X9X1X;X&X%X$X#XD.1.@.1.#.#.#. .2. .o.^ Y Y ^ B a u 0 % - - - - ",
"- - - - - - - - - w ;./.#X#X$X%X%X&X&X&X*X*X%X$X$X$X@X/.F.1.} r.r.#.2.#.2. .{ S Y >.H N i 0 7 * : - - - ",
"- - - - - - - - - ; v I.U.E.@X#X$X#X$X#X$X@X@X@X@XOX+XOXZ.s.{ O.r.r.r.r.@.X.I P :.Q h a u 8 5 o - - - - ",
"- - - - - - - - - - 3 ;.I.I.R.R.+X+X+X@X@XOXOXOXOXE.R.R.n.f...Q o.$.@.o.Q S P / 3.G a p 8 & # - - - - - ",
"- - - - - - - - - - : x 0.0.q.c.c.I.I.R.OXOXOXOXT.T.T.v.b.k.1.' E W W R I P / 3.%.a s 6 $ # - - - - - - ",
"- - - - - - - - - - - e +.4.6.0.0.9.9.q.q.v.I.T.U.v.b.x.k.7.5.X.^ W I S P :.3.r.s.Z.-.< : : - - - - - - ",
"- - - - - - - - - - - < c +.+.O.,.5.5.8.8.6.9.x.k.x.7.6.5.,.,.X.( W I U :.3.Z g =X$ @ - - - - - - - - - ",
"- - - - - - - - - - - : c t.f.u.#.O.o.O.<.5.5.5.6.5.5.5.X.Q } O.Q I / :./ Z g = l.@ - - - - - - - - - - ",
"- - - - - - - - - - - : b &.t.B.B.B.f. .[ o.@.@.$.<.X.( ! W { X.Y / / W k y $ @ : - - - - - - - - - - - ",
"- - - - - - - - - - - - 4 d Z @.h.A.S.N...| | ..[  .} ~ W W W Y Y W L g q $ > ; - - - - - - - - - - - - ",
"- - - - - - - - - - - - - 3 r A U +.f.L.B...J ..| ..| E I P I L k h y = : > > ; - - - - - - - - - - - - ",
"- - - - - - - - - - - - - ; 3 j K P P 8.D.w.H H H G V V h V g s y = < : - ; - - - - - - - - - - - - - - ",
"- - - - - - - - - - - - - . - < r L ) T f.w.h p y p y p y y 8 = $ : ; - - - - - - - - - - - - - - - - - ",
"- - - - - - - - - - - - - - - . - 2 l.L ` d = & = = = & $ $ > ; ; - - - - - - - - - - - - - - - - - - - ",
"- - - - - - - - - - - - - - - - .   2 - o X o @ @ ; @ ; ; - ; - - - - - - - - - - - - - - - - - - - - - ",
"- - - - - - - - - - - - - - - - - - X .   X - - . X - - - - - - - - - - - - - - - - - - - - - - - - - - ",
"- - - - - - - - - - - - - - - - - - - . - - - X - - - - - - - - - - - - - - - - - - - - - - - - - - - - ",
"- - - - - - - - - - - - - - - - - - - - - - - - - - - - - - - - - - - - - - - - - - - - - - - - - - - - ",
"- - - - - - - - - - - - - - - - - - - - - - - - - - - - - - - - - - - - - - - - - - - - - - - - - - - - ",
"- - - - - - - - - - - - - - - - - - - - - - - - - - - - - - - - - - - - - - - - - - - - - - - - - - - - ",
"- - - - - - - - - - - - - - - - - - - - - - - - - - - - - - - - - - - - - - - - - - - - - - - - - - - - ",
"- - - - - - - - - - - - - - - - - - - - - - - - - - - - - - - - - - - - - - - - - - - - - - - - - - - - "
};
