/* XPM */
static char *result[] = {
/* columns rows colors chars-per-pixel */
"52 52 204 2 ",
"   c #1C0C4E",
".  c #1D1C42",
"X  c #1D1445",
"o  c #1C1154",
"O  c #1E1B5B",
"+  c #1D135B",
"@  c #220F4C",
"#  c #22144D",
"$  c #241D4C",
"%  c #241353",
"&  c #261C53",
"*  c #20125A",
"=  c #2B1459",
"-  c #271F5A",
";  c #2B1958",
":  c #311B5C",
">  c #1D2241",
",  c #242947",
"<  c #262949",
"1  c #2C2157",
"2  c #29225A",
"3  c #32235E",
"4  c #353A55",
"5  c #211C6A",
"6  c #2D1D60",
"7  c #351C65",
"8  c #371C69",
"9  c #3B1C6B",
"0  c #381A66",
"q  c #3E1E72",
"w  c #2A2663",
"e  c #2E2A64",
"r  c #222160",
"t  c #332262",
"y  c #342964",
"u  c #3C236D",
"i  c #3B2B6C",
"p  c #362A6A",
"a  c #39326E",
"s  c #232272",
"d  c #28287C",
"f  c #3E2372",
"g  c #3D2B73",
"h  c #3F247B",
"j  c #2D387F",
"k  c #3A3778",
"l  c #411E75",
"z  c #401F79",
"x  c #412375",
"c  c #412B75",
"v  c #42247B",
"b  c #432B7C",
"n  c #433077",
"m  c #43327C",
"M  c #42397D",
"N  c #403D75",
"B  c #3F435D",
"V  c #464663",
"C  c #42437F",
"Z  c #5F6278",
"A  c #66697E",
"S  c #2F3680",
"D  c #2C3A98",
"F  c #262F87",
"G  c #452584",
"H  c #462D83",
"J  c #4A2D8C",
"K  c #48288A",
"L  c #463383",
"P  c #493486",
"I  c #443A83",
"U  c #483885",
"Y  c #47338B",
"T  c #4A338B",
"R  c #46398A",
"E  c #4A3B8C",
"W  c #4E3393",
"Q  c #4B3D92",
"!  c #523B95",
"~  c #543B99",
"^  c #3D458A",
"/  c #3E4180",
"(  c #36499B",
")  c #3140A2",
"_  c #3C58B4",
"`  c #434384",
"'  c #44428C",
"]  c #4A4A8C",
"[  c #48438E",
"{  c #4E508F",
"}  c #4D4393",
"|  c #4C4B94",
" . c #4F4C9A",
".. c #454898",
"X. c #514596",
"o. c #53439B",
"O. c #524B9B",
"+. c #56479C",
"@. c #4E5194",
"#. c #4F549B",
"$. c #53539D",
"%. c #525B9D",
"&. c #53609F",
"*. c #554EA2",
"=. c #5D4EA4",
"-. c #5C48A5",
";. c #495EAC",
":. c #475AA6",
">. c #5455A3",
",. c #5C54A6",
"<. c #555CA4",
"1. c #595DA6",
"2. c #5756A9",
"3. c #5B55AB",
"4. c #565DA9",
"5. c #5A5CAC",
"6. c #5B5DB1",
"7. c #505FB6",
"8. c #6255AB",
"9. c #6559AE",
"0. c #665FB2",
"q. c #5462A4",
"w. c #5962A6",
"e. c #5762AB",
"r. c #5963AC",
"t. c #566BAB",
"y. c #5A6AAE",
"u. c #5368A4",
"i. c #5775AE",
"p. c #5872AD",
"a. c #5C64B2",
"s. c #5B6CB4",
"d. c #5F6CB8",
"f. c #5E66B9",
"g. c #5B72B5",
"h. c #5C7AB4",
"j. c #5C74BA",
"k. c #5D7ABC",
"l. c #6363B3",
"z. c #626BB4",
"x. c #636CBB",
"c. c #6D6BBC",
"v. c #6763B9",
"b. c #706FBF",
"n. c #6271BC",
"m. c #627CBD",
"M. c #6A73BC",
"N. c #4A6ACB",
"B. c #576BC1",
"V. c #5F78C0",
"C. c #5A7AD3",
"Z. c #6C6FC0",
"A. c #6475C1",
"S. c #6C73C1",
"D. c #647CC3",
"F. c #6C7BC5",
"G. c #667DC9",
"H. c #7176C5",
"J. c #747BC9",
"K. c #7F8294",
"L. c #5F81B9",
"P. c #5F80C2",
"I. c #5B83DF",
"U. c #6283C4",
"Y. c #6489C6",
"T. c #6584C9",
"R. c #6A83CB",
"E. c #658CCB",
"W. c #6B8DCE",
"Q. c #6E80C7",
"!. c #7683CE",
"~. c #6692CE",
"^. c #6993CD",
"/. c #6B8ED2",
"(. c #6986D0",
"). c #798BD3",
"_. c #6797D2",
"`. c #6B94D4",
"'. c #699BD3",
"]. c #6E95D9",
"[. c #6E9BDB",
"{. c #729ADC",
"}. c #789CDE",
"|. c #7395D9",
" X c #71A3DD",
".X c #6592EF",
"XX c #7DAEE9",
"oX c #77A6E3",
"OX c #8B8D9D",
"+X c #9D9FAC",
"@X c #ACADB9",
"#X c #8095DB",
"$X c #819BDF",
"%X c #819FE1",
"&X c #81A4E5",
"*X c #83ACEA",
"=X c #8AA1E5",
"-X c #84B3EE",
";X c #85BCF3",
":X c #89BCF5",
">X c #86B6F1",
",X c #8BC2F8",
"<X c #CDCED5",
"1X c #FDFDFE",
/* pixels */
"> > > > > > > > > > > > > > > > > > > > > > > > > > > > > > > > > > > > > > > > > > > > > > > > > > > > ",
"> > > > > > > > > > > > > > > > > > > > > > > > > > > > > > > > > > > > > > > > > > > > > > > > > > > > ",
"> > > > > > > > > > > > > > > > > > > > > > > > > > > > > > > > > > > > > > > > > > > > > > > > > > > > ",
"> > > > > > > > > > > > > > > > > > > > > > > > > > > > > > > > > > > > > > > > > > > > > > > > > > > > ",
"> > > > > > > > > > > > > > > > > > > > > > > > > > > > > > > > > > > > > > > > > > > > > > > > > > > > ",
"> > > > > > > > > > > > > > > > > > > > > > > > > > > > > > > > > > > > > > > > > > > > > > > > > > > > ",
"> > > > > > > > > > > > > > > > > > > > > > > > > > > > > > > > > > > > > > > > > > > > > > > > > > > > ",
"> > > > > > > > > > > > > > > > > > > > > > > > > > > > > > > > > > > > > > < OX, > > > > > > > > > > > ",
"> > > > > > > > > < K.> > > > > > > > > > > > . X 2 2 1 & $ . > > > > > > > @X1X+X> > > > > > > > > > > ",
"> > > > > > > > > A 1X<X> > > > > > > > > e / 1.z.s.r.>.$.>.$.[ a # > > > > < <XB > > > > > > > > > > > ",
"> > > > > > > > > < @XB > > > > > > & k @.w.4.n.x.a.e.e.a.x.l.6.2.X.k ; > > > > > > > > > > > > > > > > ",
"> > > > > > > > > > > > > > > > > N w.%.%.r.s.A.g.r.r.n.n.x.5.6.5.2.*.} g . > > > > > > > > > > > > > > ",
"> > > > > > > > > > > > > > > 1 ] s.n.%.%.p.j.T.g.s.s.G.j.r.S.H.c.2.2.8.=.m ; , > > > > > > > > > > > > ",
"> > > > > > > > > > > > > > 1 @.u.y.A.q.&.g.T.(.j.j.V.(.j.a.F.S.a.5.c.v.9.E m t > > > > > > > > > > > > ",
"> > > > > > > > > > > > > < <.a.r.g.U.t.u.V.].`.k.k.P.(.j.s.D.A.f.5.c.l.8.R U E # . > > > > > > > > > > ",
"> > > > > > > > > > > > 1 ] s.z.s.U.T.g.p.E.[.[.P.V./.].V.s.A.G.V.a.2.9.2.I E ~ n ; > > > > > > > > > > ",
"> > > > > > > > > > > > ` 1.z.n.g.T.U.g.h.L.'. XP.E.`.].U.j.V.G.D.x.f.5. .} o.-.K c . > > > > > > > > > ",
"> > > > > > > > > > > w <.e.d.D.j./.U.p.L.Y.~.oX'.~.^.[.E.j.k.D.B.e.4.2.*.3.=.o.L J 7 > > > > > > > > > ",
"> > > > > > > > > > . $.1.e.s.D.D.`.U.i.Y.^.'.XXoX_.I.[.].T.k.j.g.a.d.c.c.0.9.} T T b . > > > > > > > > ",
"> > > > > > > > > > y y.4.r.s.k./.`.L.h.~._.'.XX:X X~.Y./.]./.T.G.A.x.c.c.3.o.W W W G : > > > > > > > > ",
"> > > > > > > > > > [ r.w.y.w.t.U.].U.L.^.'.'.,X,X-X XE.U.V.P.D.D.n.x.5.2.X.X.-.-.W K l > > > > > > > > ",
"> > > > > > > > > . ,.a.<.s.<.q.s.]./.U.^._.'.;X,X:X*X`.T.D.j.g.s.a.4.>.O.*.=.=.-.J J x @ > > > > > > > ",
"> > > > > > > > > - 5.r.%.1.M.z.t./.].Y.E._._.XX;X;X-X}.|.W.R.Q.m.x.a.a.9.9.8.-.~ ~ v 0 ; > > > > > > > ",
"> > > > > > > > > p 2.6.#.w.z.S.y.U.|.Y.E.^._.[.>X-X-X&X%X%X#X).!.J.H.c.v.9.8.=.W H u 9 : > > > > > > > ",
"> > > > > > > > > k $.5.@.1.e.r.w.t.P.`.U.Y.E.~.oX*X*X&X$X%X#X#X!.J.H.b.c.0.$.U c x x 0 : > > > > > > > ",
"> > > > > > > > > M | $.| <.q.%.&.&.t.W.Y.U.Y.Y.W.}.}.}.}.#X#X!.!.H.b.c.0.+.I g x u 9 0 : > > > > > > > ",
"> > > > > > > > > M }  .$.<.1.<.%.&.q.m.Y.D.P.P.U.E.`./.R.Q.J.M.n.l.5.$.X.U n c c l 0 0 3 > > > > > > > ",
"> > > > > > > > . L | O.O.%.<.w.w.w.u.t.m.h.k.k.j.j.n.g.g.y.y.w.1.$.| ' M M n c u 0 7 7 3 > > > > > > > ",
"> > > > > > > > > L O.O. .#.>.1.w.s.n.q.y.g.g.z.z.g.g.s.y.r.q.<.%.| I M M m c g u 0 0 0 t > > > > > > > ",
"> > > > > > > > > g } O. . .$.<.1.r.x.t.;.t.y.y.y.t.t.e.w.<.<.%.@.` I M n c g f l u 0 p 3 > > > > > > > ",
"> > > > > > > > > 6 X.O.O.O. .#.$.1.d.x.a.e.r.r.r.t.e.w.<.>.>.#.$.+.I m n c f f u 9 x i 1 > > > > > > > ",
"> > > > > > > > > % Q E +.O. . .#.1.f.x.x.a.a.e.1.1.<.<.>.>. . .8.+.E M m b c v l x u i & > > > > > > > ",
"> > > > > > > > > . S T R Q O. . .6.6.0.f.B.x.5.>.<.>.$.@.| | X.} [ U P H b v x l f i a . > > > > > > > ",
"> > > > > > > > > > 8 E T E Q O.*.3.6.6.6.6.6.>.$.O.O.O.} } } E U U P P H x x z f u a e > > > > > > > > ",
"> > > > > > > > > > # L L Y E E }  .O.*.*.*.3.*.| | | X.X.[ I M n c c x f q 9 q u a ` - > > > > > > > > ",
"> > > > > > > > > > > ; b H L L L L E } Q }  .*.X.} ! [ E m c c c y l l 9 8 8 f k ' a > > > > > > > > > ",
"> > > > > > > > > > > X p H H ~ W b m E E E E X.+.Q ! U T m c x c l q 9 l x L E @.^ O . > > > > > > > > ",
"> > > > > > > > > > > > % f h W ~ b g g b P T T E ! T T P H G v v x G G Y ~ 3.6.:.S o X > > > > > > > > ",
"> > > > > > > > > > > > > * h h G b g u c c m H H J T T T J J J K G W ~ 3.0.B.B.( s o . > > > > > > > > ",
"> > > > > > > > > > > > > . = f q x x x u l x c b b b G v G G G G J Q 6.B.C.C.N.F 5   > > > > > > > > > ",
"> > > > > > > > > > > > > > . = f q q v q 9 9 q x x x l l q q h h R ..7.C..XN.) s + X > > > > > > > > > ",
"> > > > > > > > > > > > > > > > @ 8 q q 9 9 8 0 0 u l l q q g g k ^ ;.C.I._ D d + X > > > > > > > > > > ",
"> > > > > > > > > > > > > > > > > < % t u i i 0 0 3 u u i i a k ^ ;.B._ D F 5 + X > > > > > > > > > > > ",
"> > > > > > > > > > > > > > > > > V 1XV % : 7 y y y a a a k / ^ ^ S d s 5 *   . > > > > > > > > > > > > ",
"> > > > > > > > > > > > > > > > > > Z , > . X # ; 1 y e w w r O + o o o   . > > > > > > > > > > > > > > ",
"> > > > > > > > > > > > > > > > > > > > > > > > > > > > > > > > > . > > > > > > > > > > > > > > > > > > ",
"> > > > > > > > > > > > > > > > > > > > > > > > > > > > > > > > > > > > > > > > > > > > > > > > > > > > ",
"> > > > > > > > > > > > > > > > > > > > > > > > > > > > > > > > > > > > > > > > > > > > > > > > > > > > ",
"> > > > > > > > > > > > > > > > > > > > > > > > > > > > > > > > > > > > > > > > > > > > > > > > > > > > ",
"> > > > > > > > > > > > > > > > > > > > > > > > > > > > > > > > > > > > > > > > > > > > > > > > > > > > ",
"> > > > > > > > > > > > > > > > > > > > > > > > > > > > > > > > > > > > > > > > > > > > > > > > > > > > ",
"> > > > > > > > > > > > > > > > > > > > > > > > > > > > > > > > > > > > > > > > > > > > > > > > > > > > "
};
