/* XPM */
static char *result[] = {
/* columns rows colors chars-per-pixel */
"52 52 223 2 ",
"   c #251F4D",
".  c #291E4F",
"X  c #261F51",
"o  c #2A1E54",
"O  c #2D1C5A",
"+  c #341C5C",
"@  c #1D2241",
"#  c #1F274A",
"$  c #212245",
"%  c #23214A",
"&  c #2A254B",
"*  c #2B2B4B",
"=  c #252A4A",
"-  c #2A2852",
";  c #312552",
":  c #382B56",
">  c #353A55",
",  c #2C2D52",
"<  c #331B62",
"1  c #3A1B63",
"2  c #3C186D",
"3  c #3D1772",
"4  c #2F1B64",
"5  c #283765",
"6  c #363B6A",
"7  c #3D2964",
"8  c #46395D",
"9  c #441A6D",
"0  c #431675",
"q  c #4B1774",
"w  c #4B1C74",
"e  c #4C157D",
"r  c #47167A",
"t  c #51157D",
"y  c #56197F",
"u  c #482C68",
"i  c #4A3363",
"p  c #523868",
"a  c #4E2478",
"s  c #55277A",
"d  c #643875",
"f  c #3F435D",
"g  c #30447B",
"h  c #464175",
"j  c #5D4A75",
"k  c #50547C",
"l  c #794F7B",
"z  c #66697E",
"x  c #383893",
"c  c #531681",
"v  c #591781",
"b  c #551A81",
"n  c #5B1A82",
"m  c #611D84",
"M  c #4C2485",
"N  c #472C8B",
"B  c #542485",
"V  c #5C2486",
"C  c #542987",
"Z  c #552A88",
"A  c #5B2D89",
"S  c #582A87",
"D  c #5D328C",
"F  c #593287",
"G  c #4B3891",
"H  c #543D93",
"J  c #4E328D",
"K  c #622386",
"L  c #622C89",
"P  c #63338C",
"I  c #6A368D",
"U  c #6D398E",
"Y  c #663A8A",
"T  c #733B8F",
"R  c #77398D",
"E  c #6A3E92",
"W  c #663E92",
"Q  c #763D90",
"!  c #7B3E90",
"~  c #3A4988",
"^  c #334C91",
"/  c #3D58A5",
"(  c #1F60AC",
")  c #347ABA",
"_  c #5D4C9B",
"`  c #554699",
"'  c #4A5597",
"]  c #595599",
"[  c #494498",
"{  c #7D4189",
"}  c #775580",
"|  c #634395",
" . c #6C4595",
".. c #6C4B99",
"X. c #654C9A",
"o. c #734394",
"O. c #7C4292",
"+. c #774B98",
"@. c #67549D",
"#. c #7A539D",
"$. c #73539D",
"%. c #6D4F8B",
"&. c #626C97",
"*. c #7E6A9A",
"=. c #5C56A1",
"-. c #595AA4",
";. c #4958A4",
":. c #675BA3",
">. c #735CA3",
",. c #7D5CA2",
"<. c #7057A0",
"1. c #4A6AAF",
"2. c #4865AA",
"3. c #5C61A7",
"4. c #5C63A9",
"5. c #5366AB",
"6. c #4A73B4",
"7. c #5578B6",
"8. c #6B62A6",
"9. c #6B6BAC",
"0. c #6466AA",
"q. c #7366A9",
"w. c #7769A9",
"e. c #7A77AB",
"r. c #6579B6",
"t. c #7C77B2",
"y. c #637AA4",
"u. c #844292",
"i. c #8A4694",
"p. c #8D4A96",
"a. c #864E99",
"s. c #894C97",
"d. c #934B96",
"f. c #964E98",
"g. c #83539C",
"h. c #8A519A",
"j. c #895B9B",
"k. c #95539A",
"l. c #9B549A",
"z. c #965999",
"x. c #A35A9D",
"c. c #A95D9F",
"v. c #A05899",
"b. c #8D679E",
"n. c #94699B",
"m. c #92618D",
"M. c #835CA2",
"N. c #8C5DA1",
"B. c #9B5FA1",
"V. c #A55FA0",
"C. c #8668A8",
"Z. c #9968A7",
"A. c #8673AF",
"S. c #9874AE",
"D. c #8979B2",
"F. c #997AB2",
"G. c #A563A4",
"H. c #AC64A2",
"J. c #A66EAA",
"K. c #B164A3",
"L. c #B36CA8",
"P. c #B96AA6",
"I. c #A973AB",
"U. c #BB73AC",
"Y. c #B976AE",
"T. c #A77CB3",
"R. c #BB7DB1",
"E. c #C578AE",
"W. c #C37DB1",
"Q. c #7F8294",
"!. c #6A84B9",
"~. c #7A82BA",
"^. c #328AC4",
"/. c #769ECB",
"(. c #8B8D9D",
"). c #8A83B9",
"_. c #8888BD",
"`. c #9C82B6",
"'. c #968ABC",
"]. c #9690AB",
"[. c #A28CBE",
"{. c #A785B7",
"}. c #B888B9",
"|. c #BD91BF",
" X c #ACADB9",
".X c #CC83B4",
"XX c #CB8BBA",
"oX c #C485B7",
"OX c #D187B7",
"+X c #CC92BE",
"@X c #D694BF",
"#X c #8A98C7",
"$X c #9595C4",
"%X c #9C93C2",
"&X c #999AC5",
"*X c #9C8FC0",
"=X c #A899C5",
"-X c #B495C2",
";X c #BA97C2",
":X c #9FA2CB",
">X c #93B1D5",
",X c #A0A4CC",
"<X c #B6A8CD",
"1X c #AAAED3",
"2X c #B7AED1",
"3X c #BBB6D5",
"4X c #ACB0D2",
"5X c #C799C3",
"6X c #D69BC3",
"7X c #DCA6CA",
"8X c #CDAED1",
"9X c #CAADCF",
"0X c #E3A7CA",
"qX c #EAB9D5",
"wX c #BEC5DD",
"eX c #C5C7D6",
"rX c #D2D3D9",
"tX c #EBC9DD",
"yX c #DBD4E3",
"uX c #CDDAE8",
"iX c #EED3E2",
"pX c #FBF8F8",
"aX c #F0E5ED",
/* pixels */
"@ @ @ @ @ @ @ @ @ @ @ @ @ @ @ @ @ @ @ @ @ @ @ @ @ @ @ @ @ @ @ @ @ @ @ @ @ @ @ @ @ @ @ @ @ @ @ @ @ @ @ @ ",
"@ @ @ @ @ @ @ @ @ @ @ @ @ @ @ @ @ @ @ @ @ @ @ @ @ @ @ @ @ @ @ @ @ @ @ @ @ @ @ @ @ @ @ @ @ @ @ @ @ @ @ @ ",
"@ @ @ @ @ @ @ @ @ @ @ @ @ @ @ @ @ @ @ @ @ @ @ @ @ @ @ @ @ @ @ @ @ @ @ @ @ @ @ @ @ @ @ @ @ @ @ @ @ @ @ @ ",
"@ @ @ @ @ @ @ @ @ @ @ @ @ @ @ @ @ @ @ @ @ @ @ @ @ @ @ @ @ @ @ @ @ @ @ @ @ @ @ @ @ @ @ @ @ @ @ @ @ @ @ @ ",
"@ @ @ @ @ @ @ @ @ @ @ @ @ @ @ @ @ @ @ @ @ @ @ @ @ @ @ @ @ @ @ @ @ @ @ @ @ @ @ @ @ @ @ @ @ @ @ @ @ @ @ @ ",
"@ @ @ @ @ @ @ @ @ @ @ @ @ @ @ @ @ @ @ @ @ @ @ @ @   @ @ @ @ @ @ @ @ @ @ @ @ @ @ @ @ @ @ @ @ @ @ @ @ @ @ ",
"@ @ @ @ @ @ @ @ @ @ @ @ @ @ @ @ @ @ @ % X O O 4 o o o .     @ @ @ @ @ @ @ @ @ @ @ @ @ @ @ @ @ @ @ @ @ @ ",
"@ @ @ @ @ @ @ @ @ @ @ @ @ @ @ @ @   4 4 3 3 3 3 r r 0 2 2 < 4 X $ @ @ @ @ @ = (.@ @ @ @ @ @ @ @ @ @ @ @ ",
"@ @ @ @ @ @ @ @ @ = Q.@ @ @ @ X 4 3 3 c c b c c v v v v c c e 9 + . & $ @ @  XpX].@ @ @ @ @ @ @ @ @ @ @ ",
"@ @ @ @ @ @ @ @ @ z pXrX@ % 4 2 M c c n n m m K m m K K V n n v y 9 : ; $ @ > eXf @ @ @ @ @ @ @ @ @ @ @ ",
"@ @ @ @ @ @ @ @ @ *  Xf X 4 3 c c c n K V V V V B B A A A A L L m y w 9 ; $ @ @ @ @ @ @ @ @ @ @ @ @ @ @ ",
"@ @ @ @ @ @ @ @ @ @ @ # 4 3 c c n b K V V A A A A S A A L P P L I I y y 0 + % @ @ @ @ @ @ @ @ @ @ @ @ @ ",
"@ @ @ @ @ @ @ @ @ @ $ < 0 e n K K V A A A Q ! u.p.h.s.+.o. .U U U U I L y w +   @ @ @ @ @ @ @ @ @ @ @ @ ",
"@ @ @ @ @ @ @ @ @ @ O 3 c n m K B V A P E .. .+.a.j.C.w.q.8.>.>.<.$.+.+.u.I s + = @ @ @ @ @ @ @ @ @ @ @ ",
"@ @ @ @ @ @ @ @ @ X 2 c n m L L L A ` [ G G J D H ` _ =.5.-.=._ =.7.r.r.w.>. .a + $ @ @ @ @ @ @ @ @ @ @ ",
"@ @ @ @ @ @ @ @   + r v n L L Q X./ / x N J D P I U U W | W W E ` ` ;.' -.3.] V 9 $ @ @ @ @ @ @ @ @ @ @ ",
"@ @ @ @ @ @ @ @ X r v n K D _ / ( x N M A P I I I I U U R R Q T T T R R I | ` D b 1 $ @ @ @ @ @ @ @ @ @ ",
"@ @ @ @ @ @ @   < c n m D [ / ^ M M A D P P I E U Q U T Q T Q Q Q Q T Q Q T Q U L s o $ @ @ @ @ @ @ @ @ ",
"@ @ @ @ @ @ @ o 0 c m L H [ G M Z A D P I I U U E T T Q Q Q Q Q ! ! ! ! ! ! ! ! R R u & @ @ @ @ @ @ @ @ ",
"@ @ @ @ @ @ @ + e n V D G J J C A D P P I U U E T T Q Q Q Q Q Q ! ! ! ! ! ! ! ! ! u.d : @ @ @ @ @ @ @ @ ",
"@ @ @ @ @ @ @ 1 c n A D Z Z Z S D P P I I E Q ! ! O.O.a.u.s.u.s.u.u.u.u.u.i.u.! ! u.! p   @ @ @ @ @ @ @ ",
"@ @ @ @ @ @   2 v n Z Z Z C S D P I I Q O.u.s.p.h.l.N.M.N.N.N.Z.B.B.k.h.s.s.s.i.i.u.u.d ; @ @ @ @ @ @ @ ",
"@ @ @ @ @ @ O 0 v c M M C Z A D P I E O.s.k.N.,.q.7.6.:.>.q.w.w.A.A.D.D.t.9.C.Z.J.V.f.{ i   @ @ @ @ @ @ ",
"@ @ @ @ @ $ o q v M M C Z S D P I E O.a.,.9.4.:.-.]  .+.+.#.g.g.M.9.4.4.0.:.q.A.).*XT.l.d & @ @ @ @ @ @ ",
"@ @ @ @ @ @ O q m n B C Z D P I U ! M.q.6.1.:. .O.i.i.i.i.d.f.f.k.k.l.l.f.h.a.<.>.r.=XH.{ ; @ @ @ @ @ @ ",
"@ @ @ @ @ @ o t m K B B S D P I ! N.:.1.1.X.Q ! u.u.i.d.d.l.l.v.v.c.V.K.H.G.V.f.u.:.'.L.f.* @ @ @ @ @ @ ",
"@ @ @ @ @ @   t m L C Z A P I U s.0.;.X.! O.u.u.i.i.d.d.l.v.x.V.V.H.K.P.U.U.U.L.x.g.).L.z.: @ @ @ @ @ @ ",
"@ @ @ @ @ @ . t n V C A D I I  .:.-. .! O.! ! u.i.d.d.l.v.V.V.V.K.L.P.U.R.W.oXoXR.S.).T.z.8 $ @ @ @ @ @ ",
"@ @ @ @ @ @ o q n V Z A P P Q -.5...O.! ! u.u.i.d.f.d.V.K.L.U.E.W.W.R.U.W.oXXXXX6X|.'.'.n.i $ @ @ @ @ @ ",
"@ @ @ @ @ @ . 9 n B Z A P I ..1.-.+.! ! ! ! i.i.d.l.V.U.W.oX-X-X*X*X*X#X'.}.XX@X0X8X,X&Xb.8 $ @ @ @ @ @ ",
"@ @ @ @ @ @   + b B A D P T X.5.:.! Q ! ! i.i.p.V.U.W.5X-X*X*XD.{.T.I.I.F.{.XX6XqXaXeX/.e.> @ @ @ @ @ @ ",
"@ @ @ @ @ @   + e b A D P Q ..:.Q Q Q ! ! u.d.l.L.Y.{.*XD.D.F.T.W.E.W.W.}.-X+X6XtXpXyX&Xy., @ @ @ @ @ @ ",
"@ @ @ @ @ @ @ . 9 y A P I T ..X.Q Q Q ! u.i.k.G.F.D.r.C.Z.L.E.E.W.W.OX6X5X=X5X0XiXpXyX=X&.* @ @ @ @ @ @ ",
"@ @ @ @ @ @ @ $ + y A P I  .X.| Q Q Q ! u.f.V.A.w.>.l.K.E.W.W.XX6X5X5X6X8X=X6X0XaXpXwX&Xk @ @ @ @ @ @ @ ",
"@ @ @ @ @ @ @ @ o a A P I ..] | R ! ! ! i.V.A.q.#.v.P.P.oX5X;X;X5X5X-X7X9X&X6XqXaXuX>XD.f @ @ @ @ @ @ @ ",
"@ @ @ @ @ @ @ @ $ 1 S P I $./ U Q ! ! ! f.I.r.<.V.P.K.E.9X1X:X:X;X5X=XtXeX[.7XqXyX>X<X} * @ @ @ @ @ @ @ ",
"@ @ @ @ @ @ @ @ @   a P I ..2.| Q Q ! u.l.t.0.k.c.K.L.oX:X#X$X=X3X2X3XaX4X;X7X8X>X'.I.8 @ @ @ @ @ @ @ @ ",
"@ @ @ @ @ @ @ @ @ % : S I X.5.| Q Q ! u.M.9.,.x.c.V.Y.-X*X{.$X=X3X3X3X<X;X6X9X:X'.{.} : @ @ @ @ @ @ @ @ ",
"@ @ @ @ @ @ @ @ @ @ % 7 s  .-.X.Q R ! +.>.:.s.l.x.K.L.*XF.R.-X<X<X=X;X5X6X2X:X'.{.m.8 $ @ @ @ @ @ @ @ @ ",
"@ @ @ @ @ @ @ @ @ @ @ = u Y :.-. .R u.#.0.<.d.l.x.c.J.D.{.}.-X-X-X5X6X7X1X#X*XZ.l 8 * @ @ @ @ @ @ @ @ @ ",
"@ @ @ @ @ @ @ @ @ @ @ @ % u %.5.) ' o.+.8.$.d.f.l.c.G.S.F.{.[.}.-X<X4X/./.].b.p * = @ @ @ @ @ @ @ @ @ @ ",
"@ @ @ @ @ @ @ @ @ @ @ @ @ ; p @.!.^.2.@.3.3.>.,.N.V.K.I.{.[.[.$X#X&X$X`.F.&.f @ @ @ @ @ @ @ @ @ @ @ @ @ ",
"@ @ @ @ @ @ @ @ @ @ @ @ @ @ ; d v.).7.-.-.5.4.0.9.r.!.~.~._._._.`.`.].!.^ > @ @ @ @ @ @ @ @ @ @ @ @ @ @ ",
"@ @ @ @ @ @ @ @ @ @ @ @ @ @ @ & : j ] 2.] <.8.8.>.q.j.C.A.C.S.I.F.w.' 5 # @ @ @ @ @ @ @ @ @ @ @ @ @ @ @ ",
"@ @ @ @ @ @ @ @ @ @ @ @ @ @ @ @ @   j 6 ~ ~ ' ] -.8.A.C.b.j.m.%.k f # # @ @ @ @ @ @ @ @ @ @ @ @ @ @ @ @ ",
"@ @ @ @ @ @ @ @ @ @ @ @ @ @ @ @ @ @ @ @ @ - 5 6 g g ~ 6 p h 6 * # # @ @ @ @ @ @ @ @ @ @ @ @ @ @ @ @ @ @ ",
"@ @ @ @ @ @ @ @ @ @ @ @ @ @ @ @ @ @ @ @ @ @ # % # # % # @ @ @ @ @ @ @ @ @ @ @ @ @ @ @ @ @ @ @ @ @ @ @ @ ",
"@ @ @ @ @ @ @ @ @ @ @ @ @ @ @ @ @ @ @ @ @ @ @ @ @ @ @ @ @ @ @ @ @ @ @ @ @ @ @ @ @ @ @ @ @ @ @ @ @ @ @ @ ",
"@ @ @ @ @ @ @ @ @ @ @ @ @ @ @ @ @ @ @ @ @ @ @ @ @ @ @ @ @ @ @ @ @ @ @ @ @ @ @ @ @ @ @ @ @ @ @ @ @ @ @ @ ",
"@ @ @ @ @ @ @ @ @ @ @ @ @ @ @ @ @ @ @ @ @ @ @ @ @ @ @ @ @ @ @ @ @ @ @ @ @ @ @ @ @ @ @ @ @ @ @ @ @ @ @ @ ",
"@ @ @ @ @ @ @ @ @ @ @ @ @ @ @ @ @ @ @ @ @ @ @ @ @ @ @ @ @ @ @ @ @ @ @ @ @ @ @ @ @ @ @ @ @ @ @ @ @ @ @ @ ",
"@ @ @ @ @ @ @ @ @ @ @ @ @ @ @ @ @ @ @ @ @ @ @ @ @ @ @ @ @ @ @ @ @ @ @ @ @ @ @ @ @ @ @ @ @ @ @ @ @ @ @ @ "
};
