/* XPM */
static char *result[] = {
/* columns rows colors chars-per-pixel */
"52 52 248 2 ",
"   c #053A29",
".  c #0A2A38",
"X  c #15243C",
"o  c #1A243E",
"O  c #132A3A",
"+  c #063836",
"@  c #092C32",
"#  c #11441F",
"$  c #08452D",
"%  c #044332",
"&  c #054936",
"*  c #035938",
"=  c #0A4E30",
"-  c #2A5D24",
";  c #01623A",
":  c #1C7336",
">  c #0A7137",
",  c #346D32",
"<  c #0E2C44",
"1  c #1D2241",
"2  c #152842",
"3  c #0D3145",
"4  c #073747",
"5  c #133142",
"6  c #053A50",
"7  c #272C49",
"8  c #353A55",
"9  c #003F76",
"0  c #034C4B",
"q  c #054648",
"w  c #02534B",
"e  c #045C46",
"r  c #004A54",
"t  c #025453",
"y  c #015C54",
"u  c #03575A",
"i  c #1B5B56",
"p  c #2B5051",
"a  c #046747",
"s  c #166649",
"d  c #037548",
"f  c #016553",
"g  c #006B5B",
"h  c #0E6D56",
"j  c #037759",
"k  c #1B7E51",
"l  c #2F6F4F",
"z  c #00446D",
"x  c #004C6B",
"c  c #024765",
"v  c #005B67",
"b  c #00526A",
"n  c #005C6C",
"m  c #005762",
"M  c #004574",
"N  c #004A72",
"B  c #004179",
"V  c #005372",
"C  c #006465",
"Z  c #006B63",
"A  c #006D6A",
"S  c #036269",
"D  c #007563",
"F  c #007B64",
"G  c #00756A",
"H  c #0F736C",
"J  c #006673",
"K  c #077A75",
"L  c #1F7668",
"P  c #236862",
"I  c #467C43",
"U  c #457C53",
"Y  c #5B6174",
"T  c #099D2E",
"R  c #04893A",
"E  c #019B35",
"W  c #019A38",
"Q  c #089A33",
"!  c #109F37",
"~  c #1D972F",
"^  c #269D38",
"/  c #33943C",
"(  c #09A235",
")  c #17A334",
"_  c #29A428",
"`  c #34A52B",
"'  c #25A535",
"]  c #3AA631",
"[  c #60801F",
"{  c #6CB319",
"}  c #77B41B",
"|  c #539337",
" . c #739A30",
".. c #49A929",
"X. c #57AC26",
"o. c #4AAA3A",
"O. c #64AC26",
"+. c #6FB223",
"@. c #75B628",
"#. c #6FB233",
"$. c #068D49",
"%. c #00954C",
"&. c #00835E",
"*. c #008C5D",
"=. c #008953",
"-. c #00955D",
";. c #00995D",
":. c #039A52",
">. c #179155",
",. c #2C924F",
"<. c #379758",
"1. c #338E51",
"2. c #33AC4B",
"3. c #008364",
"4. c #008B63",
"5. c #048767",
"6. c #009462",
"7. c #009B63",
"8. c #009C6A",
"9. c #099469",
"0. c #029C71",
"q. c #079979",
"w. c #10907E",
"e. c #2D936E",
"r. c #00A16D",
"t. c #05A164",
"y. c #00A273",
"u. c #00A47A",
"i. c #0CA474",
"p. c #14A378",
"a. c #12A063",
"s. c #36A876",
"d. c #26A367",
"f. c #0CA046",
"g. c #4B9849",
"h. c #4D8C52",
"j. c #6D994C",
"k. c #52B250",
"l. c #63B859",
"z. c #72AE4F",
"x. c #519167",
"c. c #709770",
"v. c #51AE76",
"b. c #56B272",
"n. c #67B66E",
"m. c #77C252",
"M. c #7DC166",
"N. c #97BE0E",
"B. c #92BB14",
"V. c #89B11C",
"C. c #A3BF14",
"Z. c #809C31",
"A. c #83B83A",
"S. c #98BA38",
"D. c #93B626",
"F. c #A3BF27",
"G. c #B2BD27",
"H. c #9EC10E",
"J. c #9BC01F",
"K. c #A9C609",
"L. c #BBCD00",
"P. c #B4C808",
"I. c #B8C91A",
"U. c #A8C510",
"Y. c #9AC425",
"T. c #96C238",
"R. c #89C626",
"E. c #B0C72A",
"W. c #CAD303",
"Q. c #D4DB00",
"!. c #D5D817",
"~. c #C2D00C",
"^. c #E3DE07",
"/. c #E0DE11",
"(. c #E6E201",
"). c #F7EA05",
"_. c #F1E718",
"`. c #FFF601",
"'. c #C6D328",
"]. c #D8D92B",
"[. c #E5DF20",
"{. c #FDED24",
"}. c #ECE733",
"|. c #93B246",
" X c #8CAD64",
".X c #AAB960",
"XX c #90C350",
"oX c #A7C652",
"OX c #B8D04C",
"+X c #96C56A",
"@X c #9CD061",
"#X c #A7C666",
"$X c #A7CC79",
"%X c #B7D26D",
"&X c #CFD648",
"*X c #DCE25A",
"=X c #E9E65B",
"-X c #FEF259",
";X c #D9DE72",
":X c #CDD66C",
">X c #DBE06D",
",X c #E8E86A",
"<X c #FEF47F",
"1X c #007583",
"2X c #089C8B",
"3X c #01A683",
"4X c #02A88C",
"5X c #1DA889",
"6X c #06A695",
"7X c #17A895",
"8X c #2AAC98",
"9X c #34AC8E",
"0X c #17ABA1",
"qX c #27ACA2",
"wX c #36B1AF",
"eX c #7F8294",
"rX c #49AF80",
"tX c #45B095",
"yX c #57B48C",
"uX c #68B988",
"iX c #71B68F",
"pX c #44B2A8",
"aX c #56B7B5",
"sX c #4DB5B3",
"dX c #65B9A4",
"fX c #46B6C5",
"gX c #9D9FAC",
"hX c #ACADB9",
"jX c #8B8D9D",
"kX c #A7D18F",
"lX c #8ACF9D",
"zX c #C4D785",
"xX c #D5DC8C",
"cX c #D4E294",
"vX c #DAE483",
"bX c #E7E888",
"nX c #FFFA8E",
"mX c #FBF59C",
"MX c #EFED91",
"NX c #D0E3AB",
"BX c #F9F5A6",
"VX c #FBFAB9",
"CX c #E8EBAA",
"ZX c #C9D5A5",
"AX c #CDCED5",
"SX c #FFFDD5",
"DX c #FCFACB",
"FX c #FCFDFD",
/* pixels */
"1 1 1 1 1 1 1 1 1 1 1 1 1 1 1 1 1 1 1 1 1 1 1 1 1 1 1 1 1 1 1 1 1 1 1 1 1 1 1 1 1 1 1 1 1 1 1 1 1 1 1 1 ",
"1 1 1 1 1 1 1 1 1 1 1 1 1 1 1 1 1 1 1 1 1 1 1 1 1 1 1 1 1 1 1 1 1 1 1 1 1 1 1 1 1 1 1 1 1 1 1 1 1 1 1 1 ",
"1 1 1 1 1 1 1 1 1 1 1 1 1 1 1 1 1 1 1 1 1 1 1 1 1 1 1 1 1 1 1 1 1 1 1 1 1 1 1 1 1 1 1 1 1 1 1 1 1 1 1 1 ",
"1 1 1 1 1 1 1 1 1 1 1 1 1 1 1 1 1 1 1 1 1 1 1 1 1 1 1 1 1 1 1 1 1 1 1 1 1 1 1 1 1 1 1 1 1 1 1 1 1 1 1 1 ",
"1 1 1 1 1 1 1 1 1 1 1 1 1 1 1 1 1 1 1 1 1 1 1 1 1 1 1 1 1 1 1 1 1 1 1 1 1 1 1 1 1 1 1 1 1 1 1 1 1 1 1 1 ",
"1 1 1 1 1 1 1 1 1 1 1 1 1 1 1 1 1 1 1 1 1 1 1 1 1 1 1 1 1 1 1 1 1 1 1 1 1 1 1 1 1 1 1 1 1 1 1 1 1 1 1 1 ",
"1 1 1 1 1 1 1 1 1 1 1 1 1 1 1 1 1 1 1 1 1 1 2 & 1 . o o 2 1 1 1 1 1 1 1 1 1 7 1 1 1 1 1 1 1 1 1 1 1 1 1 ",
"1 1 1 1 1 1 1 1 1 1 1 1 1 1 1 1 1 1 1 X + & R * d d 3 4 q < < 1 1 1 1 1 1 1 7 jX7 1 1 1 1 1 1 1 1 1 1 1 ",
"1 1 1 1 1 1 1 1 1 7 jX1 1 1 1 1 X @ X + e d m.@.Y.o.a f 0 w w < 3 3 1 1 1 1 hXFXgX1 1 1 1 1 1 1 1 1 1 1 ",
"1 1 1 1 1 1 1 1 1 Y FXAX1 1 1 1 . q & a $.%X]._.L.K.-.A g g Z y y 5 3 3 1 1 7 AXp 1 1 1 1 1 1 1 1 1 1 1 ",
"1 1 1 1 1 1 1 1 7 7 hX8 X X . 1 + w w b j kX*X_ ) o.J J x M B Z C y y t 2 1 1 1 1 1 1 1 1 1 1 1 1 1 1 1 ",
"1 1 1 1 1 1 1 1 1 1 1 7 X . , - D.h h.j.V e.A._ %.$.x.'.h.j.M M N Z Z Z u r 1 1 1 1 1 1 1 1 1 1 1 1 1 1 ",
"1 1 1 1 1 1 1 1 1 1 X @ @   !.!.).!.).(.| g.>.F %X<.=X_.).).U M B N V g g g 6 3 1 1 1 1 1 1 1 1 1 1 1 1 ",
"1 1 1 1 1 1 1 1 1 1 X @ [ {.}.W.B.W.K.N.(.).H t bXnX'.W.C.C.).G.P N N n C D t r 1 1 1 1 1 1 1 1 1 1 1 1 ",
"1 1 1 1 1 1 1 1 1 1 X   V.-X}.C.+.+.X.N.K.'.E.r c.DX%X{ ` ] Q.~.V N N z M N Z u < 1 1 1 1 1 1 1 1 1 1 1 ",
"1 1 1 1 1 1 1 1 1 X   |.<X>X&XF...` T ..T.|.H r xXS.~ _ W ( @.[.h n N z P S g.g.c 6 1 1 1 1 1 1 1 1 1 1 ",
"1 1 1 1 1 1 1 1 1 O   S.mXbXY...Q E k.E @X1.*.F y h j R ,.XXA.k 1.v z 9 |.&X{.Q.| d 1 1 1 1 1 1 1 1 1 1 ",
"1 1 1 1 1 1 1 1 1 $ 1.z.VXBXT.X.Q W m.n.=.-.4.D D 4.7.D 4.,.j n V N z U VXnX'.{ U.+.w 1 1 1 1 1 1 1 1 1 ",
"1 1 1 1 1 1 1 1 o = $.BXDX&X} X.( ) <.>.*.:.4.j j F 6.6.3.6.G b z z N u c.&X_ _ ` ' $.0 1 1 1 1 1 1 1 1 ",
"1 1 1 1 1 1 1 1 o = >.M.VX=XL.+.,.G G ;.;.;.4.&.F j F F G C n x z z M x w ;X..E f.k.f 4 1 1 1 1 1 1 1 1 ",
"1 1 1 1 1 1 1 1 = 2.6.j.x.-XF.H F a.7.7.7.6.6.F &.4.D 3.G C C b x x z x x.S.{ E ) z.g r 1 1 1 1 1 1 1 1 ",
"1 1 1 1 1 1 1 1 % g.r.1Xw.1Xl.z.[.Y.9.8.8.7.7.6.6.*.4.3.G Z C C v b z z y s  .D.j.F f 0 3 1 1 1 1 1 1 1 ",
"1 1 1 1 1 1 X % g.a.t.r.r.8.%X!.} } 9.8.7.7.7.7.6.6.4.4.3.G Z C v x z M N b x V.i n h t 2 1 1 1 1 1 1 1 ",
"1 1 1 1 1 1 X   h.l.y.y.i.cX+XA.T ' <.0.8.8.7.7.7.6.6.4.3.3.F C C m x x N N M B 9 M A f 5 1 1 1 1 1 1 1 ",
"1 1 1 1 1 X + % | {.2X8.0.NXNXW M.e.0.0.r.8.r.7.6.7.6.6.4.3.Z Z v v b x N N M i Z.N g 0 1 1 1 1 1 1 1 1 ",
"1 1 1 1 1 O % G.[.F.e.5Xu.lXBXl.uX5Xq.y.8.r.7.7.7.7.6.6.4.4.F G G v S V M I 6 G.`.P S t 5 1 1 1 1 1 1 1 ",
"1 1 1 1 1 o = ].~.F.n.2X5XuX$X7X6X2X3X3Xy.y.8.7.7.;.6.6.4.4.3.3.F G 3.H m D.).^.^.U g f q 1 1 1 1 1 1 1 ",
"1 1 1 1 o $ #XI.` ..2.5X7XqXqX0X0X4X4Xu.y.r.r.7.7.;.;.7.-.4.3.4.4.8.4.5.s P.Q.W.(.W.k w 2 1 1 1 1 1 1 1 ",
"1 1 1 1 1 1 #X;X@.f.yX6XpXwXwXwXwX6X4X3Xu.y.r.t.7.7.-.7.7.6.3.6.7.t.j , P.K.H.B.P.L.k y 4 X 1 1 1 1 1 1 ",
"1 1 1 1 1 O 1.ZXxX' n.4XwXfXfXsX0X7X4X4Xu.y.r.t.;.7.;.-.-.6.7.7.7.:.a | Y.V.O.X.V.Y.f q 1 o 1 1 1 1 1 1 ",
"1 1 1 1 1 1 s x.OXoXyX9X8XdXfXfXwXqX5X3Xu.r.r.7.7.7.7.;.6.-.-.;.:.a #.T...+.o.' X.@.k 0 X 1 1 1 1 1 1 1 ",
"1 1 1 1 1 1 7 O  X;Xn.wXdXaXaXpXpX9X9X3Xu.r.7.7.;.;.;.;.*.*.-.;.%.s |.XX' ( ( ) ] z.g.0 X 1 1 1 1 1 1 1 ",
"1 1 1 1 1 1 1 O 0 x.bXiXiXdXdXyX9X9X5Xu.y.y.8.7.7.;.;.-.-.*.;.%.s %XoX|.) E E E E l.w + 1 1 1 1 1 1 1 1 ",
"1 1 1 1 1 1 1 1 r c.%XiXiXdXdXyXyX9Xs.i.y.t.7.7.;.;.;.;.-.-.7.$.l :X#X) E E E W E l.a + 2 1 1 1 1 1 1 1 ",
"1 1 1 1 1 1 1 1 2 q MXkXyXuXyXyX9Xs.s.p.8.8.7.;.;.;.;.-.6.6.=.$.I ;X%Xk.E E W W Q s + X X 1 1 1 1 1 1 1 ",
"1 1 1 1 1 1 1 1 1 5 U zXkXn.yXv.v.p.q.8.8.7.;.7.;.;.;.;.7.6.&.I MXkX$X' E E W E E e + 1 1 1 1 1 1 1 1 1 ",
"1 1 1 1 1 1 1 1 1 1 P  Xn.v.v.v.s.9.0.8.9.7.;.7.;.;.-.;.6.6.*.I mXcXkX@XT E E R & 0 . o 1 1 1 1 1 1 1 1 ",
"1 1 1 1 1 1 1 1 1 1 1 + :X.Xb.d.8.8.7.%.7.:.o.;.-.;.;.-.6.4.I mXCXCXcXzX] _ ( > + 2 1 1 1 1 1 1 1 1 1 1 ",
"1 1 1 1 1 1 1 1 1 1 1 1  X X%X,.6.8.-.|.#.!.#.V.B.6.4.9.7.6.l MXSXCXcX$X#.: ` e + 2 1 1 1 1 1 1 1 1 1 1 ",
"1 1 1 1 1 1 1 1 1 1 o o O s oXT.,.5.l.-X).Q.W.N.} C.I.4.4.3.d >XSXVXBXvXg.s & 1 1 1 1 1 1 1 1 1 1 1 1 1 ",
"1 1 1 1 1 1 1 1 1 1 1 1 1 1 j.z.1.>XBX_.W.} N.X.) } B.Y.9.5.l j.CXiXa  X; e l p 1 1 1 1 1 1 1 1 1 1 1 1 ",
"1 1 1 1 1 1 1 1 1 1 1 1 1 1   @ $ -XDX}.W.} ) W ! ..Y.Q.h.G F A L a * * + X 1 1 1 1 1 1 1 1 1 1 1 1 1 1 ",
"1 1 1 1 1 1 1 1 1 1 1 1 1 1 7 o , .X>X!.].N.~ W E T |.<.5.F d * g ; % % o o 1 1 1 1 1 1 1 1 1 1 1 1 1 1 ",
"1 1 1 1 1 1 1 1 1 1 1 1 1 1 1 o X   # =X'...( ! ) ( z.d.a d * $ $ o o 1 1 1 1 1 1 1 1 1 1 1 1 1 1 1 1 1 ",
"1 1 1 1 1 1 1 1 1 1 1 1 1 1 1 1 1 1 Y - , V.O...] : * $   =   1 o 1 1 1 1 1 1 1 1 1 1 1 1 1 1 1 1 1 1 1 ",
"1 1 1 1 1 1 1 1 1 1 1 1 1 1 1 1 1 1 X X 1 : : = : @ # O 1 1 7 1 1 1 1 1 1 1 1 1 1 1 1 1 1 1 1 1 1 1 1 1 ",
"1 1 1 1 1 1 1 1 1 1 1 1 1 1 1 1 1 1 1 1 1 1 1 O 1 1 o o 1 1 1 1 1 1 1 1 1 1 1 1 1 1 1 1 1 1 1 1 1 1 1 1 ",
"1 1 1 1 1 1 1 1 1 1 1 1 1 1 1 1 1 1 1 1 1 1 1 1 1 1 1 1 1 1 1 1 1 1 1 1 1 1 1 1 1 1 1 1 1 1 1 1 1 1 1 1 ",
"1 1 1 1 1 1 1 1 1 1 1 1 1 1 1 1 1 1 1 1 1 1 1 1 1 1 1 1 1 1 1 1 7 o 1 1 1 1 1 1 1 1 1 1 1 1 1 1 1 1 1 1 ",
"1 1 1 1 1 1 1 1 1 1 1 1 1 1 1 1 1 1 1 1 1 1 1 1 1 1 1 1 1 1 1 1 1 1 1 1 1 1 1 1 1 1 1 1 1 1 1 1 1 1 1 1 ",
"1 1 1 1 1 1 1 1 1 1 1 1 1 1 1 1 1 1 1 1 1 1 1 1 1 1 1 1 1 1 1 1 1 1 1 1 1 1 1 1 1 1 1 1 1 1 1 1 1 1 1 1 ",
"1 1 1 1 1 1 1 1 1 1 1 1 1 1 1 1 1 1 1 1 1 1 1 1 1 1 1 1 1 1 1 1 1 1 1 1 1 1 1 1 1 1 1 1 1 1 1 1 1 1 1 1 "
};
