/* XPM */
static char *result[] = {
/* columns rows colors chars-per-pixel */
"52 52 218 2 ",
"   c #1C0E4C",
".  c #1D1B42",
"X  c #1D1447",
"o  c #1D0E53",
"O  c #1C1254",
"+  c #1F155D",
"@  c #23154D",
"#  c #251454",
"$  c #251B55",
"%  c #2B1A56",
"&  c #291A5A",
"*  c #311B5E",
"=  c #1D2241",
"-  c #252A48",
";  c #2B225B",
":  c #28225A",
">  c #31225F",
",  c #353A55",
"<  c #1F1965",
"1  c #221C68",
"2  c #311765",
"3  c #351D64",
"4  c #3B1B6B",
"5  c #381B67",
"6  c #231D70",
"7  c #3D1D72",
"8  c #2A2768",
"9  c #312465",
"0  c #322C64",
"q  c #352C6A",
"w  c #39276B",
"e  c #32326E",
"r  c #242878",
"t  c #3C2472",
"y  c #3D2B75",
"u  c #3F2B7B",
"i  c #3E257B",
"p  c #3B3172",
"a  c #3F3079",
"s  c #3A3B79",
"d  c #401F77",
"f  c #402375",
"g  c #43247C",
"h  c #432B7D",
"j  c #452E79",
"k  c #43347C",
"l  c #473A7E",
"z  c #3F435D",
"x  c #434761",
"c  c #5F6278",
"v  c #66697E",
"b  c #2B3789",
"n  c #2C3792",
"m  c #462484",
"M  c #492586",
"N  c #452C82",
"B  c #49268A",
"V  c #4A2C8B",
"C  c #482F83",
"Z  c #522F8E",
"A  c #463383",
"S  c #493486",
"D  c #453B83",
"F  c #493C85",
"G  c #4A358B",
"H  c #463D88",
"J  c #4B3C8C",
"K  c #44308B",
"L  c #513788",
"P  c #513C88",
"I  c #4D2B92",
"U  c #502E95",
"Y  c #522C9B",
"T  c #4D3592",
"R  c #4D3B92",
"E  c #4F3599",
"W  c #533493",
"Q  c #5A3495",
"!  c #513C96",
"~  c #51349B",
"^  c #5D369A",
"/  c #533B9A",
"(  c #5B399E",
")  c #613B9D",
"_  c #5738A1",
"`  c #643DAA",
"'  c #39468F",
"]  c #344DA7",
"[  c #3752B2",
"{  c #4B428D",
"}  c #474589",
"|  c #554289",
" . c #4D4492",
".. c #454C93",
"X. c #4D4A95",
"o. c #4E4C99",
"O. c #4C4499",
"+. c #514495",
"@. c #514B96",
"#. c #51449B",
"$. c #5A429D",
"%. c #524D9B",
"&. c #584C9F",
"*. c #4E5595",
"=. c #4E539A",
"-. c #4B5598",
";. c #515696",
":. c #52549D",
">. c #525B9C",
",. c #505996",
"<. c #54619D",
"1. c #5A45A4",
"2. c #5B4CA4",
"3. c #584BA5",
"4. c #4E5FAB",
"5. c #5554A3",
"6. c #545BA3",
"7. c #5553AA",
"8. c #555EAA",
"9. c #5C5CAC",
"0. c #5A57A6",
"q. c #5E5EB1",
"w. c #4F52AC",
"e. c #6145A4",
"r. c #685EB5",
"t. c #6756AF",
"y. c #4D60AF",
"u. c #5463A2",
"i. c #5568A4",
"p. c #5764AC",
"a. c #5B63AE",
"s. c #566DAA",
"d. c #5A6BAB",
"f. c #5965A5",
"g. c #5A71AB",
"h. c #5672AD",
"j. c #5C65B2",
"k. c #5C6CB5",
"l. c #5E6DB9",
"z. c #576AB0",
"x. c #5B71B6",
"c. c #5C79B4",
"v. c #5D75BC",
"b. c #5E7ABD",
"n. c #5672B9",
"m. c #6363B2",
"M. c #6269B2",
"N. c #636CBA",
"B. c #6D6BBB",
"V. c #6B66B7",
"C. c #6273BB",
"Z. c #6B71BD",
"A. c #617BBC",
"S. c #6361AA",
"D. c #3D5FC1",
"F. c #556CC3",
"G. c #5B78C4",
"H. c #577BD8",
"J. c #6375C1",
"K. c #6E74C2",
"L. c #657BC5",
"P. c #697AC5",
"I. c #677FC9",
"U. c #7279C9",
"Y. c #7275C5",
"T. c #7F8294",
"R. c #6082BC",
"E. c #5F87C5",
"W. c #6384C4",
"Q. c #6684CA",
"!. c #6B85CD",
"~. c #638BCB",
"^. c #678ACA",
"/. c #7584CE",
"(. c #708ACE",
"). c #6B91CD",
"_. c #6C8DD3",
"`. c #6489D8",
"'. c #798CD4",
"]. c #798BD5",
"[. c #6C94D3",
"{. c #6D94DA",
"}. c #6E9BDB",
"|. c #6697D3",
" X c #7294D9",
".X c #7B95DA",
"XX c #739BDB",
"oX c #7D9CDC",
"OX c #7995D7",
"+X c #6EA2DD",
"@X c #72A2DD",
"#X c #7EA5DF",
"$X c #6289E3",
"%X c #759EE1",
"&X c #6A97F3",
"*X c #75A2E2",
"=X c #75AAE5",
"-X c #7AA9E6",
";X c #7DAEEB",
":X c #76ACE9",
">X c #7DB2EE",
",X c #7DB3F0",
"<X c #8B8D9D",
"1X c #9D9FAC",
"2X c #ACADB9",
"3X c #8390DA",
"4X c #809EE1",
"5X c #81A5E4",
"6X c #83ADEC",
"7X c #80AAE6",
"8X c #80B3EF",
"9X c #82B5F1",
"0X c #82BAF4",
"qX c #88BAF4",
"wX c #88C0F8",
"eX c #CDCED5",
"rX c #FCFDFD",
"tX c #E2E0E7",
/* pixels */
"= = = = = = = = = = = = = = = = = = = = = = = = = = = = = = = = = = = = = = = = = = = = = = = = = = = = ",
"= = = = = = = = = = = = = = = = = = = = = = = = = = = = = = = = = = = = = = = = = = = = = = = = = = = = ",
"= = = = = = = = = = = = = = = = = = = = = = = = = = = = = = = = = = = = = = = = = = = = = = = = = = = = ",
"= = = = = = = = = = = = = = = = = = = = = = = = = = = = = = = = = = = = = = = = = = = = = = = = = = = = ",
"= = = = = = = = = = = = = = = = = = = = = = = = = = = = = = = = = = = = = = = = = = = = = = = = = = = = ",
"= = = = = = = = = = = = = = = = = = = = = = = = = = = = = = = = = = = = = = = = = = = = = = = = = = = = ",
"= = = = = = = = = = = = = = = = = = = = = = = = = = = = = = = = = = = = = = . = = = = = = = = = = = = = ",
"= = = = = = = = = = = = = = = = = = = = = = = = = = = = = = = = = = = = = = - <X- = = = = = = = = = = = ",
"= = = = = = = = = - <X. = = = = = = = = = = = X $ ; ; ; $ # . = = = = = = = 2XrX1X= = = = = = = = = = = ",
"= = = = = = = = = v rXeX= = = = = = = . $ p >.a.M.d.j.q.9.8.:.D % . = = = = , eXz = = = = = = = = = = = ",
"= = = = = = = = = - 2Xz = = = = = = 0 *.p.l.l.l.N.N.j.j.8.5.5.9.@.} 0 @ = = = = = = = = = = = = = = = = ",
"= = = = = = = = = = = = = = = = . } M.N.G.L.L.J.P.C.a.j.N.6.=.q.5.@.F k > = = = = = = = = = = = = = = = ",
"= = = = = = = = = = = = = = = e M.N.P.'.!.A.!.OX.X!.p.u.C.8.5.l.9. .D F O.a @ . = = = = = = = = = = = = ",
"= = = = = = = = = = = = = = e M.k.A.'.!.L.!..X.X'.W.u.p.P.a.a.K.j.X.} J #.#.A @ = = = = = = = = = = = = ",
"= = = = = = = = = = = = = e d.C.z.I.!.!.Q. X XXX[.h.i.b.Q.z.k.P.a...} O.3.#.+.D @ = = = = = = = = = = = ",
"= = = = = = = = = = = = ; >.J.x.n.!._.{.`.~.}.XXW.z.A._.Q.k.v.J.j.=.o.5.5.1.$.! y = = = = = = = = = = = ",
"= = = = = = = = = = = . >.l.P.x.v._.{.%X%X+X}.|.W.).%X XQ.x.L.L.j.8.=.0.7.3.2._ G 3 = = = = = = = = = = ",
"= = = = = = = = = = = s 6.l.P.x.G._.{.{.~.|.|.@X-X;X*XXXL.v.I.L.j.6.5.q.7.7.e.1.T u . = = = = = = = = = ",
"= = = = = = = = = = ; 0.8.l.L.v.b.W.Q.|.+X;XqXqX9X8XXXW.G.~.Q.J.p.j.9.5.9.r.t.$.h g 3 = = = = = = = = = ",
"= = = = = = = = = = } M.8.z.I.^._.{.%X=X>X0XwX0X=X|.E.~.}._.L.l.k.j.6.B.V.V.e.A j g f @ = = = = = = = = ",
"= = = = = = = = = $ S.K.M.a.x.L.~.}.*X=X:X=X=X+X+X@X*X*XXXQ.L.A.k.j.K.Z.V.2.R F A h f * = = = = = = = = ",
"= = = = = = = = = p B.U.N.j.k.x.b.Q.).[.}.|.+X=X9X9X6X*X~.Q.Q.A.a.Z.Z.9.:.@.J G C N f 3 . = = = = = = = ",
"= = = = = = = = = } B.U.U.A.A./._.(.[.[.+X=X0X0X>X:X-X@X X^.x.u.6.p.6.%.%.+.J G A h t 5 @ = = = = = = = ",
"= = = = = = = = = @.V.Y.U./.3XOX.X*X5X7X;X>X>X8X>X-XXX[.W.s.u.>.8.6.6.%.@.{ P S C g 7 4 % @ = = = = = = ",
"= = = = = = = = . @.S.Y.U.].3X'.3X4X5X5X7X6X8X#X).R.c.c.i.<.<.u.>.:.:.%.X.+.J S k g 4 4 > = = = = = = = ",
"= = = = = = = = .  .5.m.V.K././.'.OXoX4X4XoX^.c.g.g.g.g.i.f.>.*.=.:.:.%.X. .G S C f 4 4 w = = = = = = = ",
"= = = = = = = = .  .o.5.6.9.k.C.A.A.R.A.A.g.h.g.g.g.i.i.<.>.,.-.:.:.%.X. .R G S h g 5 f w = = = = = = = ",
"= = = = = = = = . { X.=.5.5.8.p.<.<.i.<.i.<.i.i.<.i.<.<.>.;.-.-.5.:.o.X.{ J S h f d d j j = = = = = = = ",
"= = = = = = = = . J  .X.%.:.6.:.*.,.,.<.>.<.<.<.<.<.>.>.,.-.*.;.>.o.X. .{ G L j f 7 f L p = = = = = = = ",
"= = = = = = = = = l {  .o.%.:.:.} ,.;.,.>.>.>.,.>.,.,.;.*.>.:.:.:.%. .J J S h g g 4 j P > = = = = = = = ",
"= = = = = = = = = y J J X.o.=.:.:.;.*.-.*.*.,.>.>.>.>.6.6.5.9.5.@.@.R J G C j d d f P | : = = = = = = = ",
"= = = = = = = = = 9 D J {  .X.%.:.5.:.;.>.6.6.6.6.6.6.6.5.V.V.r.@.&.R F A g f d 4 g | l @ = = = = = = = ",
"= = = = = = = = = # u k k D F { @.:.:.>.>.0.5.6.6.6.6.:.3.0.3.%.J J D h f f 4 d f L | a = = = = = = = = ",
"= = = = = = = = = . 9 j k k k D D F { @.@.:.:.:.%.o.%.o.@.+.} F k k y y t d g f h P } : = = = = = = = = ",
"= = = = = = = = = = # A h k k l D D D } { @.X.o.o.O.X.X.{ F D k a j f f f d m g A } s X = = = = = = = = ",
"= = = = = = = = = = . u E R ! R +./ +.#.&.3.&.%.%.X.R J F G A A G L W Q W g g D } :.$ - = = = = = = = = ",
"= = = = = = = = = = = # N T / 1.3.2.e.2.3.O. .J J J R R R R / 1.e.) ) Q V h b { 5...  . = = = = = = = = ",
"= = = = = = = = = = = = 2 u V ! $./ R A h u A G R R / / / 1.e.) ) ) Q K K O.o.4.y.r X = = = = = = = = = ",
"= = = = = = = = = = = = . 2 g N B K I G G T W ! ~ ~ ~ U U ( ( ^ Q U V R 3.w.F.H.' <   . = = = = = = = = ",
"= = = = = = = = = = = = = X 3 M I ~ _ U I I U U W I T I I B M m d N R 7.F.$X$X] r + X = = = = = = = = = ",
"= = = = = = = = = = = = = = X 2 m Y ` _ B I V U U B B B M M b g T %.4.F.$X&XD.n 6 O . = = = = = = = = = ",
"= = = = = = = = = = = = = = = . # t I Y B B M M M M m m g g Z | 5.4.n.$XH.[ n 6 o . = = = = = = = = = = ",
"= = = = = = = = = = = = = = = = . @ & y g N b g g u k j j P } ..4.n.F.] b 6 <   . = = = = = = = = = = = ",
"= = = = = = = = = = = = = = = = - x tX; # 9 f j s k k k } } -.' ' b r 6 < O X = = = = = = = = = = = = = ",
"= = = = = = = = = = = = = = = = = = c - . . X # * 9 q e e 8 8 O o O O o   . = = = = = = = = = = = = = = ",
"= = = = = = = = = = = = = = = = = = = = = = = = = = = = = = = = . . . = = = = = = = = = = = = = = = = = ",
"= = = = = = = = = = = = = = = = = = = = = = = = = = = = = = = = = = = = = = = = = = = = = = = = = = = = ",
"= = = = = = = = = = = = = = = = = = = = = = = = = = = = = = = = = = = = = = = = = = = = = = = = = = = = ",
"= = = = = = = = = = = = = = = = = = = = = = = = = = = = = = = = = = = = = = = = = = = = = = = = = = = = ",
"= = = = = = = = = = = = = = = = = = = = = = = = = = = = = = = = = = = = = = = = = = = = = = = = = = = = ",
"= = = = = = = = = = = = = = = = = = = = = = = = = = = = = = = = = = = = = = = = = = = = = = = = = = = = ",
"= = = = = = = = = = = = = = = = = = = = = = = = = = = = = = = = = = = = = = = = = = = = = = = = = = = = "
};
