/* XPM */
static char *result[] = {
/* columns rows colors chars-per-pixel */
"52 52 226 2 ",
"   c #261F4F",
".  c #291F4E",
"X  c #2A1E55",
"o  c #2B1D58",
"O  c #321B5C",
"+  c #1D2241",
"@  c #1F2449",
"#  c #212246",
"$  c #232249",
"%  c #29264A",
"&  c #272C49",
"*  c #272754",
"=  c #342955",
"-  c #363758",
";  c #2C375D",
":  c #2E1B62",
">  c #391968",
",  c #3C1774",
"<  c #1F3760",
"1  c #273A67",
"2  c #372E68",
"3  c #422C53",
"4  c #431673",
"5  c #4C1476",
"6  c #44157B",
"7  c #4B147D",
"8  c #4B1E73",
"9  c #53147E",
"0  c #511A7A",
"q  c #412566",
"w  c #4D3862",
"e  c #523862",
"r  c #562B78",
"t  c #5A3371",
"y  c #6B3B7C",
"u  c #3F435D",
"i  c #2A417C",
"p  c #45437C",
"a  c #524B7C",
"s  c #5A4E74",
"d  c #6B467A",
"f  c #66697E",
"g  c #3B3887",
"h  c #323894",
"j  c #372589",
"k  c #481B81",
"l  c #541681",
"z  c #5B1682",
"x  c #5B1A83",
"c  c #551B81",
"v  c #621D84",
"b  c #4D2586",
"n  c #482888",
"m  c #542686",
"M  c #5C2586",
"N  c #542887",
"B  c #592987",
"V  c #562A88",
"C  c #5A2D89",
"Z  c #54338D",
"A  c #5E318B",
"S  c #573B92",
"D  c #423E95",
"F  c #642386",
"G  c #632C89",
"H  c #662888",
"J  c #63348C",
"K  c #6A368D",
"L  c #6D398E",
"P  c #633688",
"I  c #73368C",
"U  c #733B8E",
"Y  c #7A3B8E",
"T  c #723D81",
"R  c #663D91",
"E  c #683F92",
"W  c #763D90",
"Q  c #7B3E90",
"!  c #344E96",
"~  c #366596",
"^  c #3454A4",
"/  c #1C66B0",
"(  c #3C7CBB",
")  c #3C71B4",
"_  c #3B68AE",
"`  c #46479A",
"'  c #5C4A9A",
"]  c #584698",
"[  c #59559E",
"{  c #505190",
"}  c #7E4686",
"|  c #6B4C9A",
" . c #694596",
".. c #734394",
"X. c #7C4292",
"o. c #724C99",
"O. c #7D4D9A",
"+. c #784997",
"@. c #6A559F",
"#. c #77539C",
"$. c #6B6796",
"%. c #4758A4",
"&. c #5759A3",
"*. c #625AA3",
"=. c #695AA2",
"-. c #735CA3",
";. c #7959A1",
":. c #4965AA",
">. c #5262A9",
",. c #5C65AB",
"<. c #5868AC",
"1. c #426CB1",
"2. c #5A74B4",
"3. c #4B71B3",
"4. c #636CAE",
"5. c #6967AA",
"6. c #7C64A6",
"7. c #7367AA",
"8. c #777AA9",
"9. c #6779B6",
"0. c #7B78B3",
"q. c #843C8F",
"w. c #803F90",
"e. c #834292",
"r. c #8B4593",
"t. c #8D4A96",
"y. c #894D98",
"u. c #934C96",
"i. c #944F98",
"p. c #964994",
"a. c #87549C",
"s. c #94539B",
"d. c #9B539A",
"f. c #96589B",
"g. c #89508D",
"h. c #A45B9E",
"j. c #AB5B9D",
"k. c #AF4B86",
"l. c #867A9F",
"z. c #A76997",
"x. c #885BA1",
"c. c #9A5FA1",
"v. c #A95FA0",
"b. c #8D6BAA",
"n. c #8568A9",
"m. c #9B67A6",
"M. c #8775A9",
"N. c #9671AD",
"B. c #877BB3",
"V. c #9D7DB4",
"C. c #907BB3",
"Z. c #AC63A2",
"A. c #A969A6",
"S. c #B363A2",
"D. c #B36BA6",
"F. c #BB6AA6",
"G. c #BA6EA9",
"H. c #B46CA8",
"J. c #A374AE",
"K. c #BA75AC",
"L. c #A87CB3",
"P. c #B87CB2",
"I. c #C57BAF",
"U. c #C878AD",
"Y. c #C27DB2",
"T. c #D27FB1",
"R. c #2E80BE",
"E. c #7F8294",
"W. c #5D87BF",
"Q. c #7583B8",
"!. c #6A86BD",
"~. c #1E92CA",
"^. c #2C99CE",
"/. c #5C9ACB",
"(. c #5486C0",
"). c #6F99C6",
"_. c #7593C5",
"`. c #7FB3D8",
"'. c #8B8D9D",
"]. c #8788BD",
"[. c #9A8BBD",
"{. c #9387BB",
"}. c #9D9FAC",
"|. c #A689BB",
" X c #B484B6",
".X c #B886B8",
"XX c #ACADB9",
"oX c #C683B5",
"OX c #C48DBC",
"+X c #CC8CBA",
"@X c #CC84B6",
"#X c #D389B8",
"$X c #C790BE",
"%X c #DB93BE",
"&X c #8A8FC0",
"*X c #8898C7",
"=X c #989AC7",
"-X c #928EC0",
";X c #A898C5",
":X c #BA95C1",
">X c #B399C4",
",X c #95A2CD",
"<X c #93AAD2",
"1X c #86ABD3",
"2X c #A8A5CC",
"3X c #B6AED1",
"4X c #B9B4D5",
"5X c #AAA8CE",
"6X c #CB96C2",
"7X c #C696C1",
"8X c #D69AC3",
"9X c #E39CC4",
"0X c #D7A8CC",
"qX c #C4BAD6",
"wX c #CDADCF",
"eX c #E2A4C9",
"rX c #EBB8D4",
"tX c #F1B6D3",
"yX c #B9C5DD",
"uX c #B4CEE2",
"iX c #CDCED5",
"pX c #EAC5DB",
"aX c #EED7E4",
"sX c #F6EDF1",
"dX c #FCF8F7",
"fX c #F1EDF3",
/* pixels */
"+ + + + + + + + + + + + + + + + + + + + + + + + + + + + + + + + + + + + + + + + + + + + + + + + + + + + ",
"+ + + + + + + + + + + + + + + + + + + + + + + + + + + + + + + + + + + + + + + + + + + + + + + + + + + + ",
"+ + + + + + + + + + + + + + + + + + + + + + + + + + + + + + + + + + + + + + + + + + + + + + + + + + + + ",
"+ + + + + + + + + + + + + + + + + + + + + + + + + + + + + + + + + + + + + + + + + + + + + + + + + + + + ",
"+ + + + + + + + + + + + + + + + + + + + + + + + + + + + + + + + + + + + + + + + + + + + + + + + + + + + ",
"+ + + + + + + + + + + + + + + + + + + + + + + + + + + + + + + + + + + + + + + + + + + + + + + + + + + + ",
"+ + + + + + + + + + + + + + + + + + + + + # # + . O . . . . . . + + + + + + # + + + + + + + + + + + + + ",
"+ + + + + + + + + + + + + + + + + + + . O O 4 5 5 5 9 5 5 4 4 O * + + + + + & '.$ + + + + + + + + + + + ",
"+ + + + + + + + + & E.+ + + + + $ $ > 8 r c c x 9 v v v 9 9 v 9 l 6 > X $ + XXdX}.+ + + + + + + + + + + ",
"+ + + + + + + + + f dXiX+ + + . q N C V V V V N B F M H H v z v z l 7 4 O + & iX- + + + + + + + + + + + ",
"+ + + + + + + + + & XXu + # = r J J G J C J A V B N N b m b 7 n M v z z 7 ,   + + + + + + + + + + + + + ",
"+ + + + + + + + + + + + # 2 C K K K K K J J J J A A V N m b n b A G F v z l , : @ + + + + + + + + + + + ",
"+ + + + + + + + + + + = r Y o.| | o. ...L L J K J A A C m N N N V Z S H v x l 6 o + + + + + + + + + + + ",
"+ + + + + + + + + + 3 y O.<.>.>.1.) &.&.| +.Y I K J J J C B N N m Z D S H v x l 6 : + + + + + + + + + + ",
"+ + + + + + + + + + k.0.~.&. . .L I R ] ' @.,.*...L J J A A C V m V ! ` J M v x l , : + + + + + + + + + ",
"+ + + + + + + + $ e J.^.) Y U X.W W W I U ..>.( :.o.U K J J A C V V b ^ ' K H x l 6 ,   + + + + + + + + ",
"+ + + + + + + + = { (.1...Q Q Q Q Q W W W Q X.=.&.,.y.Q J J J J C V m h _ E C F v z k : + + + + + + + + ",
"+ + + + + + + + 2 :.,.+.q.q.Q Q Q Q Q Q Q W W X...&.4.u.X.K J J J C V n /  .G M v x k ,   + + + + + + + ",
"+ + + + + + + + ^ =.&.&.4.-.a.e.w.Q Q Q Q Q Q Q e. .:.7.y.W L J J A V N h %.H m v v l 6 : + + + + + + + ",
"+ + + + + + @ 2 :.O.( =.*.,.7.x.v.u.e.w.w.Q Q Q Q X.[ 1.x.y.L L J J J M h ^ R m F v l k , # + + + + + + ",
"+ + + + + + @ 1 5.=.3.p.t.y.=.2.C.H.d.e.e.e.w.Q Q X.X.R.5.s.X.L K R A A k ! ] V M H x l , o + + + + + + ",
"+ + + + + + 1 { -.,.5.p.p.p.i.-.3.0.A.i.r.r.e.w.Q X.e.%.( d.y.L L K J J m h  .J N F v l , o + + + + + + ",
"+ + + + + + 1 &.-.2.n.d.d.d.v.v.y.,.0.A.d.r.r.r.e.Q Q | 1.x.d.W L K J J J j  .Q b C v z k : # + + + + + ",
"+ + + + + + i 7.;.2.f.h.h.h.v.S.v.O.4.L.D.s.t.r.r.e.Q ..&.6.i.X.U L L R J n ] e.V M F x k : + + + + + + ",
"+ + + + + @ ! 6.x.(.S.S.S.S.S.v.F.j.=.B.P.D.i.u.r.r.r.w.&.;.s.X.L L L L J Z W y.G m F x 7 : + + + + + + ",
"+ + + + + $ w b.x.0.H.N.C.-XP.F.S.F.d.9..XoXh.i.u.t.q.r.&.4.s.X.W L L L J S O.y.J m F x 7 O + + + + + + ",
"+ + + + + + { c.n._.L.C.C.-X>X6XG.F.Z.6.{.@XH.d.i.t.r.r.o.R.c.Q W W L L L ` a.a.V m v z 6 o + + + + + + ",
"+ + + + + + { z.B.&XL.J.P.P.*X,X0XY.F.b.].+XK.d.d.i.r.r.+.<.x.X.W L W L U ] m.y.b V v z 6 X + + + + + + ",
"+ + + + + + t H.b._.:X;XoXP.;X_.qX$XU.m.].:XI.v.d.d.u.t.o.-.x.e.W U U L  .&.b.e.m C v z 4   + + + + + + ",
"+ + + + + + ; |.A./.8XC.0X*X;X=X2X+XI.G.!.:XoXZ.h.d.u.t.=.6.s.e.W U U L ] <.6.U V C v l >   + + + + + + ",
"+ + + + + + ; 0.P._.>XP.3X5X>X*X>X8XI.U.0.,X#Xv.h.h.s.u.5.n.s.X.W W U W ] 2.;.K C C x 7 o + + + + + + + ",
"+ + + + + + * $.L.&X5X7X2XyXiX7X7X6X@XI.L.&X#XZ.h.h.d.u.*.N.s.W W W U U S 9.+.C J F z 5 . + + + + + + + ",
"+ + + + + + + ~ C.{.4X8X>X4X3X6X7X:X@XU.L.-X@XD.v.v.d.x.7.m.t.Q W W W L S 5.W A J F l , # + + + + + + + ",
"+ + + + + + + < Q.{.1X8X.XqXqX,X>X:X6XT.H.-XP.H.Z.v.s.-.0.A.r.Q Q W W R ' 7.L J G z 5 o + + + + + + + + ",
"+ + + + + + + + ~  X/.qX%X5XfXaX8X8X%X#XJ.&XP.G.D.v.d.4.B.f.r.Q Q W I ] 2.-.K K F 9 > + + + + + + + + + ",
"+ + + + + + + + ; 8.[.1X0X7X5XyXqXwX8XT.A.&XU.G.D.Z.d.<.C.u.e.Q Q W I %.2.o.L H H #.l.# + + + + + + + + ",
"+ + + + + + + + # a [.*X3X9X.X[.=X;X>X{.&X|.I.Y.H.A.t.>.0.t.w.Q Q W K %.9.X.K v O.- # + + + + + + + + + ",
"+ + + + + + + + + & g.[.,X0XtXeX8X7X7X6X+X@XoXP.H.v.y.4.0.r.e.Q W W L :.n.I H 5 $.& + + + + + + + + + + ",
"+ + + + + + + + + + e U.*X,XtXtXtX9X8X#X+X+X@XY.H.d.-.4.x.r.q.Q W I ' <.x.H 0 > $ + + + + + + + + + + + ",
"+ + + + + + + + + + % z.OX/.yXdXsXaXrX0X8X8X7XK.v.e.*.C.s.e.e.Q Y R %.*.L 0 O + + + + + + + + + + + + + ",
"+ + + + + + + + + + & s z.|./.uXsXdXdXdXpXeXoXz.u...!. Xu.e.w.Q W J G r 8 X . + + + + + + + + + + + + + ",
"+ + + + + + + + + + + # 3 z.7X<XyXaXsXsXiX|.N.a.| 2.*XK.q.w.Q Y L x 9 > . + + + + + + + + + + + + + + + ",
"+ + + + + + + + + + + + + % s l.,X2X;X_.).*X].].-X;X Xf.e.e.r.Y r > . + + + + + + + + + + + + + + + + + ",
"+ + + + + + + + + + + + + + # - { E.!.<X.X.X XH.D.D.h.r.r.Y t 3 .   + + + + + + + + + + + + + + + + + + ",
"+ + + + + + + + + + + + + + + + + & e w d e.g.g.u.} y t = # # + + + + + + + + + + + + + + + + + + + + + ",
"+ + + + + + + + + + + + + + + + + + + + % = %   % = % + + + + + + + + + + + + + + + + + + + + + + + + + ",
"+ + + + + + + + + + + + + + + + + + + + + + + + + + + + + + + + + + + + + + + + + + + + + + + + + + + + ",
"+ + + + + + + + + + + + + + + + + + + + + + + + + + + + + + + + + + + + + + + + + + + + + + + + + + + + ",
"+ + + + + + + + + + + + + + + + + + + + + + + + + + + + + + + + + + + + + + + + + + + + + + + + + + + + ",
"+ + + + + + + + + + + + + + + + + + + + + + + + + + + + + + + + + + + + + + + + + + + + + + + + + + + + ",
"+ + + + + + + + + + + + + + + + + + + + + + + + + + + + + + + + + + + + + + + + + + + + + + + + + + + + ",
"+ + + + + + + + + + + + + + + + + + + + + + + + + + + + + + + + + + + + + + + + + + + + + + + + + + + + "
};
