/* XPM */
static char *result[] = {
/* columns rows colors chars-per-pixel */
"52 52 221 2 ",
"   c #251F4E",
".  c #261F4C",
"X  c #2A1E54",
"o  c #2C1D5B",
"O  c #261F52",
"+  c #321B5D",
"@  c #1D2241",
"#  c #202146",
"$  c #23204A",
"%  c #282A4A",
"&  c #282558",
"*  c #362559",
"=  c #383856",
"-  c #341B63",
";  c #331A6C",
":  c #3B1969",
">  c #3C1675",
",  c #3C1778",
"<  c #2E1B62",
"1  c #272D64",
"2  c #372265",
"3  c #2B3978",
"4  c #472A5B",
"5  c #47345E",
"6  c #44147B",
"7  c #4D137D",
"8  c #491576",
"9  c #53127D",
"0  c #56197E",
"q  c #441A6D",
"w  c #442767",
"e  c #523276",
"r  c #65357B",
"t  c #3F435D",
"y  c #42466F",
"u  c #5F6278",
"i  c #66697E",
"p  c #794D7A",
"a  c #97427C",
"s  c #391D84",
"d  c #313290",
"f  c #4B1881",
"g  c #541481",
"h  c #5A1581",
"j  c #5C1A83",
"k  c #531D80",
"l  c #631C84",
"z  c #621683",
"x  c #4D2586",
"c  c #422183",
"v  c #532686",
"b  c #5C2485",
"n  c #542887",
"m  c #562A88",
"M  c #5A2D8A",
"N  c #5B2888",
"B  c #5D318B",
"V  c #54338C",
"C  c #493992",
"Z  c #553B91",
"A  c #4C308C",
"S  c #642386",
"D  c #682486",
"F  c #6A2E89",
"G  c #642C89",
"H  c #64348C",
"J  c #6A368D",
"K  c #6C398E",
"L  c #73358B",
"P  c #733B8F",
"I  c #7C3C8E",
"U  c #7C368C",
"Y  c #673D91",
"T  c #763D90",
"R  c #7B3E90",
"E  c #1F489E",
"W  c #244581",
"Q  c #2E5697",
"!  c #1D55A6",
"~  c #3B5CA7",
"^  c #2E5EAA",
"/  c #3B67AB",
"(  c #2D6EB3",
")  c #3978B8",
"_  c #156CB4",
"`  c #48489A",
"'  c #55489A",
"]  c #58539F",
"[  c #694797",
"{  c #774997",
"}  c #76549E",
"|  c #62539F",
" . c #4957A3",
".. c #555AA4",
"X. c #655AA2",
"o. c #7E5BA2",
"O. c #4768AD",
"+. c #5766AB",
"@. c #566FB0",
"#. c #4778B7",
"$. c #5C7BB7",
"%. c #416DB1",
"&. c #6667AA",
"*. c #7669AB",
"=. c #6976B3",
"-. c #7B7CB6",
";. c #843C8E",
":. c #813F90",
">. c #834292",
",. c #8C4593",
"<. c #8C4995",
"1. c #874C97",
"2. c #934492",
"3. c #934B96",
"4. c #9A4A95",
"5. c #944F98",
"6. c #8B539B",
"7. c #95529A",
"8. c #9C539A",
"9. c #9F599D",
"0. c #8A5686",
"q. c #A2549A",
"w. c #A45A9D",
"e. c #A95E9F",
"r. c #A7549A",
"t. c #B35E9F",
"y. c #A14F97",
"u. c #965FA1",
"i. c #A95FA1",
"p. c #B55FA0",
"a. c #8569A9",
"s. c #9867A6",
"d. c #8C73AE",
"f. c #9871AC",
"g. c #897CB4",
"h. c #9A7CB4",
"j. c #AC63A2",
"k. c #AE68A6",
"l. c #B364A2",
"z. c #B56BA6",
"x. c #BC6BA6",
"c. c #A774AD",
"v. c #BB73AB",
"b. c #BC78AE",
"n. c #A17AB1",
"m. c #BB7BB1",
"M. c #AE6B9C",
"N. c #D85B99",
"B. c #C46CA6",
"V. c #C273AB",
"C. c #C97AAE",
"Z. c #CA76AC",
"A. c #C77EB1",
"S. c #D177AD",
"D. c #2C81BF",
"F. c #3982BE",
"G. c #7F8294",
"H. c #5582BC",
"J. c #4F83BD",
"K. c #6B85BC",
"L. c #7888BD",
"P. c #1293CC",
"I. c #288AC4",
"U. c #369ACE",
"Y. c #2EA3D5",
"T. c #558AC1",
"R. c #5496C9",
"E. c #488DC5",
"W. c #648CC1",
"Q. c #728EC2",
"!. c #7398C8",
"~. c #55A5D2",
"^. c #6AA6D3",
"/. c #75AAD4",
"(. c #79BFE0",
"). c #9987BA",
"_. c #928CB5",
"`. c #A288B8",
"'. c #BE83B5",
"]. c #B98ABA",
"[. c #ACADB9",
"{. c #8B8D9D",
"}. c #CB83B5",
"|. c #C889B9",
" X c #D583B4",
".X c #D38BB9",
"XX c #DB8CBA",
"oX c #CD91BE",
"OX c #D791BD",
"+X c #EC8FBB",
"@X c #888DC0",
"#X c #8697C6",
"$X c #9A99C6",
"%X c #A995C3",
"&X c #B79AC5",
"*X c #98A6CE",
"=X c #93ADD3",
"-X c #B8A9CE",
";X c #A7B2D6",
":X c #B7B8D8",
">X c #ADA9D0",
",X c #C898C3",
"<X c #D699C3",
"1X c #EB9BC4",
"2X c #F39DC3",
"3X c #D8A5C9",
"4X c #D4B5D4",
"5X c #E8AACD",
"6X c #E8BBD7",
"7X c #F2A9CB",
"8X c #9FC1DB",
"9X c #B6C8E0",
"0X c #C6C9D8",
"qX c #D2D3D9",
"wX c #E8C5DB",
"eX c #FAC4DA",
"rX c #D5CEE2",
"tX c #F5D6E3",
"yX c #FEFEFB",
"uX c #FCF7F4",
"iX c #F9E8EB",
/* pixels */
"@ @ @ @ @ @ @ @ @ @ @ @ @ @ @ @ @ @ @ @ @ @ @ @ @ @ @ @ @ @ @ @ @ @ @ @ @ @ @ @ @ @ @ @ @ @ @ @ @ @ @ @ ",
"@ @ @ @ @ @ @ @ @ @ @ @ @ @ @ @ @ @ @ @ @ @ @ @ @ @ @ @ @ @ @ @ @ @ @ @ @ @ @ @ @ @ @ @ @ @ @ @ @ @ @ @ ",
"@ @ @ @ @ @ @ @ @ @ @ @ @ @ @ @ @ @ @ @ @ @ @ @ @ @ @ @ @ @ @ @ @ @ @ @ @ @ @ @ @ @ @ @ @ @ @ @ @ @ @ @ ",
"@ @ @ @ @ @ @ @ @ @ @ @ @ @ @ @ @ @ @ @ @ @ @ @ @ @ @ @ @ @ @ @ @ @ @ @ @ @ @ @ @ @ @ @ @ @ @ @ @ @ @ @ ",
"@ @ @ @ @ @ @ @ @ @ @ @ @ @ @ @ @ @ @ @ @ @ @ @ @ @ @ @ @ @ @ @ @ @ @ @ @ @ @ @ @ @ @ @ @ @ @ @ @ @ @ @ ",
"@ @ @ @ @ @ @ @ @ @ @ @ @ @ @ @ @ @ @ @ @ @ @ @ @ @ @ @ @ @ @ @ @ @ @ @ @ @ @ @ @ @ @ @ @ @ @ @ @ @ @ @ ",
"@ @ @ @ @ @ @ @ @ @ @ @ @ @ @ @ @ @ @ @ @ & 1 d W W 3 3 * % # @ @ @ @ @ @ @ @ @ @ @ @ @ @ @ @ @ @ @ @ @ ",
"@ @ @ @ @ @ @ @ @ @ @ @ @ @ @ @ @ @ & y &.a.d.*.*.*.o.&.O.O.Q e 4 $ @ @ @ @ % {.# @ @ @ @ @ @ @ @ @ @ @ ",
"@ @ @ @ @ @ @ @ @ % G.@ @ @ @ @ & O.).C.B.t.q.7.o.} } } { >.+.U.@XN.a $ @ @ [.yX[.@ @ @ @ @ @ @ @ @ @ @ ",
"@ @ @ @ @ @ @ @ @ i yXqX@ @ $ Q !.A.B.s.*.T.E.T.T.#.J.#.) I.{ [ P.Y.a.;.* @ % 0X= @ @ @ @ @ @ @ @ @ @ @ ",
"@ @ @ @ @ @ @ @ @ % [.= @ & F.%XS.d.T.~.*X%Xb.B.p.q.y.4.;.X.@.;.K ) P.o.R 2 @ @ @ @ @ @ @ @ @ @ @ @ @ @ ",
"@ @ @ @ @ @ @ @ @ @ @ @ 1 W.|.d.!.(.>XXXV.n.g.s.p.i.8.7.4.X.&.:.U ;.| ) 1.J w # @ @ @ @ @ @ @ @ @ @ @ @ ",
"@ @ @ @ @ @ @ @ @ @ @ & ).|.R.(.6X+Xb.).$X].h.Q.t.i.i.7.;...*.:.R T U  .&.U H w @ @ @ @ @ @ @ @ @ @ @ @ ",
"@ @ @ @ @ @ @ @ @ @ 4 Z.`.~.:X7X X).=X4XXXS.h.#Xx.i.8.8.4.@.a.:.R T T Y ) R H B - @ @ @ @ @ @ @ @ @ @ @ ",
"@ @ @ @ @ @ @ @ @ 0.+X$X~.4X2X'.$X:X:X$XQ.S.@X&Xv.i.i.p.{ $.r.R R T T K ) { J H N X @ @ @ @ @ @ @ @ @ @ ",
"@ @ @ @ @ @ @ @ 5 +X`.~.5X7Xm.;XwX;XrX|.$X).!.<Xl.i.B.4./ g.i.R R T T P / [ J J M 0 . @ @ @ @ @ @ @ @ @ ",
"@ @ @ @ @ @ @ @ j.&XU.3X7XA.=XyX>X-X-X#X$X^.4Xv.l.B.r.[ H.V.3.R I T T L  .} J H M v q @ @ @ @ @ @ @ @ @ ",
"@ @ @ @ @ @ @ * XXR.0XeX7X`.9XtX$XXX<X&X*XwX3Xj.B.e.I ) n.l.>.>.R T T J  .{ J H B N 9 X @ @ @ @ @ @ @ @ ",
"@ @ @ @ @ @ @ p *X8XuXwX7X@X;X7X%X%X&X<XOX}.x.B.t.>.@._.l.,.>.R R T P J ] { J H M v 0 q @ @ @ @ @ @ @ @ ",
"@ @ @ @ @ @ @ _.^.iXyX6X1X$X:X2X,X&X.X}.C.V.B.e.X.K.).v.5.,.>.:.R I I [ X.>.H H B N 0 7 $ @ @ @ @ @ @ @ ",
"@ @ @ @ @ @ % =X&XyXyX6XXX&X&X5X.XS.C.C.S.z.=.H.@X'.A.i.,.,.:.R T P ;.+.@.I H B M m j 9 - # @ @ @ @ @ @ ",
"@ @ @ @ @ @ 5 =X,XyXyX5X.X,Xh. X X XZ.c.-.T.#X|. X|.j.3.,.,.>.R T P ,.D.&.L H H M v b h q # @ @ @ @ @ @ ",
"@ @ @ @ @ @ 5 ^._.uXuX3X.XoXL.s.f.d.L.!.*XoXXX.Xm.i.3.3.,.>.R R T 1.[ ) { H H B M v b z 7 $ # @ @ @ @ @ ",
"@ @ @ @ @ @ w >XE.wXtX<XOXA.&X@X#X$XoXOXXXA.b.j.8.5.5.,.>.:.R T >.R  .&.I H H B m x S l 7 . @ @ @ @ @ @ ",
"@ @ @ @ @ @ 4 XX/.g.5X<X<X}.C.C.C.V.x.z.j.i.w.8.8.3.,.,.>.R R >.:.` @.3.J H B M n n D z 7 o @ @ @ @ @ @ ",
"@ @ @ @ @ @ 4 x.&X$.b.,X|.}.m.b.x.z.z.j.i.w.8.8.5.<.,.,.:.R ;.{ ~ #.7.{ H H B M n n D l 9 o @ @ @ @ @ @ ",
"@ @ @ @ @ @ * e.C.Q.1.j.v.m.m.v.z.k.i.w.w.8.8.3.3.,.>.>.>.:.' P.F.8.1.K J H M n n x k l 9 + @ @ @ @ @ @ ",
"@ @ @ @ @ @ * q.x.@X[ ,.9.i.k.k.k.i.w.q.8.8.3.<.,.,.,.>.[ ~ I.&.y.6.J J H H M n m s , z 9 < @ @ @ @ @ @ ",
"@ @ @ @ @ @ $ <.j.,X#.[ I ,.,.3.3.4.5.5.3.3.4.,.>.:.] O.+.&.6.r.6.K J H H M m v m x f j g o @ @ @ @ @ @ ",
"@ @ @ @ @ @ # r 8.oX;XW.=.+.....O.#.#.$.&.X.+...../ I.*.y.q.i.1.K K J H B M v v m B G j 7 O @ @ @ @ @ @ ",
"@ @ @ @ @ @ # * 3.<.k.}.'.h.-.K._.n.c.c.f.f.d.s.s.s.9.8.1.1.T J K H H H M m x N V B l h ,   @ @ @ @ @ @ ",
"@ @ @ @ @ @ # . r 3.I >.>.,.2.;.2.2.3.5.5.7.5.<.,.R R T K K K K J H H B m n N C ` S l g > @ @ @ @ @ @ @ ",
"@ @ @ @ @ @ @ $ * 2.;.:.>.>.>.>.;.>.I R R R P P T K T P T K K K H H B m v k d / B l h g < @ @ @ @ @ @ @ ",
"@ @ @ @ @ @ @ # . r ,.;.R R R I I { R R P R T T T T T K K K K H H B B n f ! ( K S S g f O @ @ @ @ @ @ @ ",
"@ @ @ @ @ @ @ @ . + I { R T R R R T I P R T T T K T K K K J H H H G k d _ O.U N S j g ; @ @ @ @ @ @ @ @ ",
"@ @ @ @ @ @ @ @ @ @ q J K P I T P R T P P P P T T P K K K K K H v s E ( | I B S l h f O @ @ @ @ @ @ @ @ ",
"@ @ @ @ @ @ @ @ @ # . 8 b V Z J F J L U L P P L L L J K H H x s d ^ ..J F m S l h f > @ @ @ @ @ @ @ @ @ ",
"@ @ @ @ @ @ @ @ @ # # X 9 m / #.O.~ ~ ^ ` V Z  .~  .' ' C A C ' [ L S v v S S h g , O @ @ @ @ @ @ @ @ @ ",
"@ @ @ @ @ @ @ @ @ @ # @ + 0 >.s.d.-.K.K.=.*.=.K.K.-.s.u.7.8.8.<.T m x n S S j g , < @ @ @ @ @ @ @ @ @ @ ",
"@ @ @ @ @ @ @ @ @ @ @ # @ - 9 S U P P L K T P I >.1.6.6.6.{ K m x x G D S j g 6 ; $ @ @ @ @ @ @ @ @ @ @ ",
"@ @ @ @ @ @ @ @ @ @ @ @ # @ + 9 j F J K J H M M m m v x x x x v N D l h g g , ;   @ @ @ @ @ @ @ @ @ @ @ ",
"@ @ @ @ @ @ @ @ @ @ @ @ @ @ @ . 8 h j l G H H H B M m m N N S D l l h g f , ; $ @ @ @ @ @ @ @ @ @ @ @ @ ",
"@ @ @ @ @ @ @ @ @ @ @ @ @ @ @ @ # 2 7 7 h h l S S S S S l S j j j g 6 , > < @ @ @ @ @ @ @ @ @ @ @ @ @ @ ",
"@ @ @ @ @ @ @ @ @ @ @ @ @ @ @ @ @ t rXe 7 7 9 g g h h h h g g 7 f f > ;   @ @ @ @ @ @ @ @ @ @ @ @ @ @ @ ",
"@ @ @ @ @ @ @ @ @ @ @ @ @ @ @ @ @ @ u % $ o - > 6 6 7 6 6 6 > > ; < $ @ @ @ @ @ @ @ @ @ @ @ @ @ @ @ @ @ ",
"@ @ @ @ @ @ @ @ @ @ @ @ @ @ @ @ @ @ @ @ @ @ @ # $ X X o o O   . @ @ @ @ @ @ @ @ @ @ @ @ @ @ @ @ @ @ @ @ ",
"@ @ @ @ @ @ @ @ @ @ @ @ @ @ @ @ @ @ @ @ @ @ @ @ @ @ @ @ @ @ @ @ @ @ @ @ @ @ @ @ @ @ @ @ @ @ @ @ @ @ @ @ ",
"@ @ @ @ @ @ @ @ @ @ @ @ @ @ @ @ @ @ @ @ @ @ @ @ @ @ @ @ @ @ @ @ @ @ @ @ @ @ @ @ @ @ @ @ @ @ @ @ @ @ @ @ ",
"@ @ @ @ @ @ @ @ @ @ @ @ @ @ @ @ @ @ @ @ @ @ @ @ @ @ @ @ @ @ @ @ @ @ @ @ @ @ @ @ @ @ @ @ @ @ @ @ @ @ @ @ ",
"@ @ @ @ @ @ @ @ @ @ @ @ @ @ @ @ @ @ @ @ @ @ @ @ @ @ @ @ @ @ @ @ @ @ @ @ @ @ @ @ @ @ @ @ @ @ @ @ @ @ @ @ ",
"@ @ @ @ @ @ @ @ @ @ @ @ @ @ @ @ @ @ @ @ @ @ @ @ @ @ @ @ @ @ @ @ @ @ @ @ @ @ @ @ @ @ @ @ @ @ @ @ @ @ @ @ ",
"@ @ @ @ @ @ @ @ @ @ @ @ @ @ @ @ @ @ @ @ @ @ @ @ @ @ @ @ @ @ @ @ @ @ @ @ @ @ @ @ @ @ @ @ @ @ @ @ @ @ @ @ "
};
