/* XPM */
static char *result[] = {
/* columns rows colors chars-per-pixel */
"52 52 243 2 ",
"   c #241F3D",
".  c #2A1B39",
"X  c #391C38",
"o  c #3F182F",
"O  c #1F213F",
"+  c #23203E",
"@  c #2B243F",
"#  c #39263D",
"$  c #4C1C2D",
"%  c #46152B",
"&  c #471D38",
"*  c #581D3A",
"=  c #571B28",
"-  c #641E24",
";  c #5C2129",
":  c #59222A",
">  c #472839",
",  c #592637",
"<  c #6B2729",
"1  c #752A2B",
"2  c #7A2927",
"3  c #69263A",
"4  c #782936",
"5  c #7F343B",
"6  c #643939",
"7  c #725331",
"8  c #2A1E42",
"9  c #381B42",
"0  c #1D2241",
"q  c #212241",
"w  c #272C49",
"e  c #35324E",
"r  c #353A55",
"t  c #451942",
"y  c #5E134E",
"u  c #591C43",
"i  c #5B0D52",
"p  c #570E52",
"a  c #590E4F",
"s  c #62144E",
"d  c #681A4C",
"f  c #74134F",
"g  c #79144C",
"h  c #751B4F",
"j  c #791D45",
"k  c #630D55",
"l  c #6B0E55",
"z  c #690D59",
"x  c #660959",
"c  c #790C58",
"v  c #641352",
"b  c #6B1354",
"n  c #6C1A50",
"m  c #741355",
"M  c #7B1254",
"N  c #751B53",
"B  c #740E4E",
"V  c #462540",
"C  c #552341",
"Z  c #5A3947",
"A  c #692543",
"S  c #712342",
"D  c #78264A",
"F  c #713945",
"G  c #3F435D",
"H  c #7D5056",
"J  c #66697E",
"K  c #8A322D",
"L  c #873527",
"P  c #943527",
"I  c #882D39",
"U  c #81333E",
"Y  c #85373A",
"T  c #8A3036",
"R  c #A43D26",
"E  c #884539",
"W  c #954835",
"Q  c #A64A3D",
"!  c #B1493A",
"~  c #AA573C",
"^  c #B7583B",
"/  c #B25129",
"(  c #9D7A20",
")  c #A66C29",
"_  c #A96B35",
"`  c #BC6637",
"'  c #B77937",
"]  c #B27632",
"[  c #C65C3B",
"{  c #CA762D",
"}  c #CA6D39",
"|  c #C56636",
" . c #CA7437",
".. c #D67935",
"X. c #D0792C",
"o. c #E0733B",
"O. c #83144F",
"+. c #82184F",
"@. c #8A0E55",
"#. c #8A0F59",
"$. c #840E57",
"%. c #841353",
"&. c #861B51",
"*. c #8C1B52",
"=. c #8A1256",
"-. c #911555",
";. c #921B55",
":. c #961B58",
">. c #9A1D59",
",. c #9A1657",
"<. c #89164C",
"1. c #A41953",
"2. c #862647",
"3. c #972B4C",
"4. c #8A3646",
"5. c #9C314C",
"6. c #983944",
"7. c #8F2450",
"8. c #942353",
"9. c #9C2457",
"0. c #9D2259",
"q. c #9A2A51",
"w. c #9B3150",
"e. c #A63A48",
"r. c #B9364C",
"t. c #A12459",
"y. c #A72959",
"u. c #A82C58",
"i. c #B62A57",
"p. c #A93455",
"a. c #AD3B54",
"s. c #AD325A",
"d. c #A53253",
"f. c #B23C56",
"g. c #B3345B",
"h. c #B43A59",
"j. c #BC3D5B",
"k. c #B8375C",
"l. c #A1274E",
"z. c #C83C50",
"x. c #C43D60",
"c. c #984449",
"v. c #95594D",
"b. c #A34943",
"n. c #B64845",
"m. c #BA5242",
"M. c #A74857",
"N. c #B54354",
"B. c #BB4655",
"V. c #BC4A54",
"C. c #BB435A",
"Z. c #B64158",
"A. c #A8585F",
"S. c #B45A55",
"D. c #975860",
"F. c #855962",
"G. c #BF4060",
"H. c #B87170",
"J. c #936F60",
"K. c #C2554B",
"L. c #C55746",
"P. c #C24D55",
"I. c #C2425B",
"U. c #C24B59",
"Y. c #CB4D5C",
"T. c #C84859",
"R. c #D24C5C",
"E. c #C65156",
"W. c #CB5456",
"Q. c #CE5C52",
"!. c #CD5359",
"~. c #C4505B",
"^. c #D3545B",
"/. c #DA555E",
"(. c #D45A59",
"). c #DD5B5D",
"_. c #D35854",
"`. c #CB4D48",
"'. c #E45D5F",
"]. c #E45C4F",
"[. c #CB6746",
"{. c #D26745",
"}. c #DA7541",
"|. c #DD605D",
" X c #D66052",
".X c #D87A52",
"XX c #E97B48",
"oX c #E5635E",
"OX c #E66B5B",
"+X c #EA7855",
"@X c #CE5D6D",
"#X c #D95661",
"$X c #CC4461",
"%X c #E25A60",
"&X c #E65B62",
"*X c #CA777A",
"=X c #D36B70",
"-X c #E56663",
";X c #E86562",
":X c #E76862",
">X c #EA7563",
",X c #E56C78",
"<X c #AAA320",
"1X c #AB8133",
"2X c #E29A1D",
"3X c #D0B015",
"4X c #EBA21D",
"5X c #F3AD1B",
"6X c #C98A28",
"7X c #D7862A",
"8X c #D79325",
"9X c #D88532",
"0X c #D1922F",
"qX c #E58A2B",
"wX c #E79727",
"eX c #E58838",
"rX c #E79336",
"tX c #E8A325",
"yX c #F0A322",
"uX c #E9B227",
"iX c #F2D816",
"pX c #EECE11",
"aX c #D7C52C",
"sX c #E7CC20",
"dX c #F8E40E",
"fX c #B48D77",
"gX c #D8884C",
"hX c #EA9746",
"jX c #EA8D51",
"kX c #C78A79",
"lX c #DCA270",
"zX c #E67A82",
"xX c #7F8294",
"cX c #9D9FAC",
"vX c #A8AAB6",
"bX c #8B8D9D",
"nX c #DF8181",
"mX c #CBA681",
"MX c #EAB190",
"NX c #EBAB90",
"BX c #E19087",
"VX c #CDCED5",
"CX c #FCFDFD",
/* pixels */
"0 0 0 0 0 0 0 0 0 0 0 0 0 0 0 0 0 0 0 0 0 0 0 0 0 0 0 0 0 0 0 0 0 0 0 0 0 0 0 0 0 0 0 0 0 0 0 0 0 0 0 0 ",
"0 0 0 0 0 0 0 0 0 0 0 0 0 0 0 0 0 0 0 0 0 0 0 0 0 0 0 0 0 0 0 0 0 0 0 0 0 0 0 0 0 0 0 0 0 0 0 0 0 0 0 0 ",
"0 0 0 0 0 0 0 0 0 0 0 0 0 0 0 0 0 0 0 0 0 0 O O 0 0 0 0 0 0 0 0 0 0 0 0 0 0 0 0 0 0 0 0 0 0 0 0 0 0 0 0 ",
"0 0 0 0 0 0 0 0 0 0 0 0 0 0 0 0 0 0 0 0 0 0 O O 0 0 0 0 0 0 0 0 0 0 0 0 0 0 0 0 0 0 0 0 0 0 0 0 0 0 0 0 ",
"0 0 0 0 0 0 0 0 0 0 0 0 0 0 0 0 0 0 O O 0 0 O O O O O O 0 0 0 0 0 0 0 0 0 0 0 0 0 0 0 0 0 0 0 0 0 0 0 0 ",
"0 0 0 0 0 0 0 0 0 0 0 0 0 0 0 0 0 0 O O 0 0 O O 0 O O O 0 0 0 0 0 0 0 0 0 0 0 0 0 0 0 0 0 0 0 0 0 0 0 0 ",
"0 0 0 0 0 0 0 0 0 0 0 0 0 0 0 0 0 O O O + O o O O O O + 0 O 0 0 0 0 0 0 0 0 O O 0 0 0 0 0 0 0 0 0 0 0 0 ",
"0 0 0 0 0 0 0 0 0 0 0 0 0 0 0 O 0 X 0 @ : $ < = 7 $ ; < @ o 0 0 0 0 0 0 0 0 w bX0 0 0 0 0 0 0 0 0 0 0 0 ",
"0 0 0 0 0 0 0 0 0 w xX0 0 0 0 +   < < < 1 j j 1 Y W I < 1 1 ; 1 % $ + O O O vXCXcX0 0 0 0 0 0 0 0 0 0 0 ",
"0 0 0 0 0 0 0 0 0 J CXVX0 O $ : 4 4 [ n.b z b z i 2.S S s 1 P ! R R = % . O w VXG 0 0 0 0 0 0 0 0 0 0 0 ",
"0 0 0 0 0 0 0 0 q w vXG . 3 / 3 $.#.r.L.l k b b b i y d d @.i.i.X.qXP L .   O O 0 0 0 0 0 0 0 0 0 0 0 0 ",
"0 0 0 0 0 0 0 0 0 0 0 % ) wXqX^ %.#.=.%.r.g m m b b s s s 1.z.].5Xz.R P = % O O 0 0 0 0 0 0 0 0 0 0 0 0 ",
"0 0 0 0 0 0 0 0 0 0 q : ) sXyX9XQ *.O.=.3.R z f b m y i s n.`.z.o.z.1.2.2 - O 0 0 0 0 0 0 0 0 0 0 0 0 0 ",
"0 0 0 0 0 0 0 0 0 X < f.f.f.[.`  .h f %.O.e.c M f f b b B c R [ O.@.<.c K L % . 0 0 0 0 0 0 0 0 0 0 0 0 ",
"0 0 0 0 0 0 0 0 0 X Y G.s.9. .2.5.! Q O.%.e.T g f f -.,.z z w.[ l M v $.b I ; ; e 0 0 0 0 0 0 0 0 0 0 0 ",
"0 0 0 0 0 0 0 0 > c.C.j.g.d.e.[ 5.L.L.T 6.5.d.g %.O.,.>.z 4._ x s s s v v +.W S.O 0 0 0 0 0 0 0 0 0 0 0 ",
"0 0 0 0 0 0 0 q > M.Z.I.p.a.p. .6.&.q.L...+.w.j %.*.:.:.%.2._ i v y y y s z D rXF.e 0 0 0 0 0 0 0 0 0 0 ",
"0 0 0 0 0 0 0 > M.C.C.I.a.f.p.a.` 2.u.p.8X{ 7.! 2.*.:.:.$.n.k z v y y y v i ' W : X 0 0 0 0 0 0 0 0 0 0 ",
"0 0 0 0 0 0 0 > A.C.^.I.f.f.f.h.wX{ d.p.tX7X8.^ 2.&.t.:.#.r.N ,.y y y y y i F _ I < 0 0 0 0 0 0 0 0 0 0 ",
"0 0 0 0 0 0 # A.~.U.).^.Y.N.Z.h.yXQ a.a.a.wX| a.^ 9.l.0.0.n.W @.M s y y y i Q s y < $ 8 0 0 0 0 0 0 0 0 ",
"0 0 0 0 0 0 # D.~.|.#X/./.I.B.f.9X8Xw.N.N.7Xq.L.L.7.y.9.0.n.4.h m b i y y y d S s 2 $ O 0 0 0 0 0 0 0 0 ",
"0 0 0 0 0 @ J.D.U.#X/.).'.^.W.L.wXw.3.Z.f.E.m.x.` 8.g.u.y.:.d.h M z b v y y 4.4.a K 1   0 0 0 0 0 0 0 0 ",
"0 0 0 0 0 O D.@X/.U./.'.'.'.'.R.wXe.N.B.V._...`.eXb.u.s.u.>.,.4.2.4.m m y y A F a P < & 0 0 0 0 0 0 0 0 ",
"0 0 0 0 O H H *X#XW.U.(.^./.'.XXXX! N.B.W.|.XXOX..p.k.k.g.y.t.8.e.N z i v b p 4.a D K o 0 0 0 0 0 0 0 0 ",
"0 0 0 0 0 F kX,X,X^.V.!.oX^.%X+X9Xa.E._.OX'.+XrXrXn.j.h.u.u.t.>.#.b.c.v i z n ~ k I K = + 0 0 0 0 0 0 0 ",
"0 0 0 0 0 > fX,X,X;X).!.E.W.Q.[.7XI.'.'.OX>XjXiX{.{.j.j.g.u.u.>.-.*.~ Q Q 4.b | y N 1 & 0 0 0 0 0 0 0 0 ",
"0 0 0 0 8 v.BX,X-X;X).W.W.W.W...U.oX/.oX;X>X>XiXeXT.I.j.g.u.u.t.>.#.c { d 4.7XA A b K , 0 0 0 0 0 0 0 0 ",
"0 0 0 0 8 * mXzX-X).W.!.W.W.W.9XN.)./.oXOX>XhXuXuXI.T.x.k.x.y.>.#.*.*.n _ z ~ A k D 1 X 0 0 0 0 0 0 0 0 ",
"0 0 0 0 X v.MXzX;X(.!.!.E. X9XV.(.(.P.(.oX>X+XuX_.R.I.x.x.k.i.d. .9X6.X. .{ n d z m K & 0 0 0 0 0 0 0 0 ",
"0 0 0 0 O X MX,X-X!.!.!.W. X..U.W.!.^.;X;XXX+X5X_.^.T.x.j.s.N.8X6.6.c.M k 5XD b b Y , , 0 0 0 0 0 0 0 0 ",
"0 0 0 0 + , fXNX-XQ.(.!.}.} Y.!.W.W.'.:X;X+XwX^.%X#XY.I.x.k.m.{ =.>.M m ] ] _ k z Y 3   0 0 0 0 0 0 0 0 ",
"0 0 0 0 0 w lXNX-X|.|.(...V.!.!.W.W.-X:XjXXXwX^./.&X#XI.`...{ { :.>.>.%.k m.S z D 4 4 . 0 0 0 0 0 0 0 0 ",
"0 0 0 0 O O E aXlXuXeX[.!.!.!.(.!.W.(.#XXX[.#X/./.R.R.x.8X5X .:.t.;.$.M c N D z h 4 & 0 0 0 0 0 0 0 0 0 ",
"0 0 0 0 O 6 <X3XpXdX5X X!.!.!.!.!.W.E.(.}.E.#X#X^.R.G.rXdX .} >.l.,.%.M k 4.i h D 5 & 0 0 0 0 0 0 0 0 0 ",
"0 0 0 0 O @ 7 3X3XgX|.Q.!._.!.!.W.!. X} !.&X).).#X^.$XU.iX| *.*.&.%.%.M m z E s U & 0 O 0 0 0 0 0 0 0 0 ",
"0 0 0 0 O O # 1X1XfXQ.V.!.!.!.!.W.}.}. .!.&X#X/.R.C.I.rXiX` *.7.*.%.m c l v.6X6XI & vX0 0 0 0 0 0 0 0 0 ",
"0 0 0 0 0 0 0 , Z kXS.B.W.W.W.W.E.qX[.R./././.^.I.Z.a.} ` :.8.*.O.<.g M l b.pX5 & 0 0 0 0 0 0 0 0 0 0 0 ",
"0 0 0 0 0 0 0 0 8 J.mXkXE.E.Y.9X XwXP.%X).^.V.B.f.L. . .m.y.8.7.<.O.,.#.*.D 6X3 9 0 0 0 0 0 0 0 0 0 0 0 ",
"0 0 0 0 0 0 0 0 0 Z Z kX=X@XW.yX7X!.'.!.V.I.B.Z.V.K.{ 7.u.9.7.*.&.;.i.1.g.Q , 9 0 0 0 0 0 0 0 0 0 0 0 0 ",
"0 0 0 0 0 0 0 0 0 0 # fXkXgX4XtXXX&X'.Y.V.V.yXyX{ 4XQ 7.u. .q.n.l.`.z.} {.=XH 0 0 0 0 0 0 0 0 0 0 0 0 0 ",
"0 0 0 0 0 0 0 0 0 0 0 C H aXjX,X%XXXOX.XK.yXwX8Xq.8.} 9X6Xq...T [ `.gX6Xc.C 0 0 0 0 0 0 0 0 0 0 0 0 0 0 ",
"0 0 0 0 0 0 0 0 0 0 0 t > _ H.,XjXpX5X2X2XB.e.V.B.K.` ` t.q.:.>.i.n.{.m.5 V 0 0 0 0 0 0 0 0 0 0 0 0 0 0 ",
"0 0 0 0 0 0 0 0 0 0 0 0 0 u E 3XgXhXhX,XT.R.x.{.} p.k.g.g.y.0.>.6.4.5 V 0 0 0 0 0 0 0 0 0 0 0 0 0 0 0 0 ",
"0 0 0 0 0 0 0 0 0 0 0 0 0 X t Y 3 *XH.A.kXjX].[.N.G.Z.s.5.d.4.I D * V 0 0 0 0 0 0 0 0 0 0 0 0 0 0 0 0 0 ",
"0 0 0 0 0 0 0 0 0 0 0 0 0 0 0 t t S d A.c.5 S.4.M.4.6.5.5 I C u @ O 0 0 0 0 0 0 0 0 0 0 0 0 0 0 0 0 0 0 ",
"0 0 0 0 0 0 0 0 0 0 0 0 0 0 0 0 q 9   * t 5 A u 4 u 3 u d 9 q 9 O O 0 0 0 0 0 0 0 0 0 0 0 0 0 0 0 0 0 0 ",
"0 0 0 0 0 0 0 0 0 0 0 0 0 0 0 0 0 0 0 q 0 9 8 0 9 8 t 8 9 0 0 0 0 0 0 0 0 0 0 0 0 0 0 0 0 0 0 0 0 0 0 0 ",
"0 0 0 0 0 0 0 0 0 0 0 0 0 0 0 0 0 0 0 0 0 0 0 0 0 0 q q 0 0 0 0 0 0 0 0 0 0 0 0 0 0 0 0 0 0 0 0 0 0 0 0 ",
"0 0 0 0 0 0 0 0 0 0 0 0 0 0 0 0 0 0 0 0 0 0 0 0 0 0 0 0 0 0 0 0 0 0 0 0 0 0 0 0 0 0 0 0 0 0 0 0 0 0 0 0 ",
"0 0 0 0 0 0 0 0 0 0 0 0 0 0 0 0 0 0 0 0 0 0 0 0 0 0 0 0 0 0 0 0 0 0 0 0 0 0 0 0 0 0 0 0 0 0 0 0 0 0 0 0 ",
"0 0 0 0 0 0 0 0 0 0 0 0 0 0 0 0 0 0 0 0 0 0 0 0 0 0 0 0 0 0 0 0 0 0 0 0 0 0 0 0 0 0 0 0 0 0 0 0 0 0 0 0 ",
"0 0 0 0 0 0 0 0 0 0 0 0 0 0 0 0 0 0 0 0 0 0 0 0 0 0 0 0 0 0 0 0 0 0 0 0 0 0 0 0 0 0 0 0 0 0 0 0 0 0 0 0 "
};
