/* XPM */
static char *result[] = {
/* columns rows colors chars-per-pixel */
"52 52 223 2 ",
"   c #231F4D",
".  c #261F52",
"X  c #2C1C5D",
"o  c #311E59",
"O  c #1D2241",
"+  c #1F2049",
"@  c #212345",
"#  c #24234B",
"$  c #26294A",
"%  c #2A2C4C",
"&  c #262649",
"*  c #2B2A54",
"=  c #352957",
"-  c #323354",
";  c #3D3B5D",
":  c #363358",
">  c #312C4D",
",  c #2D1A64",
"<  c #331A6A",
"1  c #3B1A6C",
"2  c #321B64",
"3  c #3B1871",
"4  c #3D1773",
"5  c #3E2265",
"6  c #342962",
"7  c #393566",
"8  c #3F2670",
"9  c #45345E",
"0  c #411776",
"q  c #451679",
"w  c #4B177D",
"e  c #4C197D",
"r  c #4B1F75",
"t  c #50197D",
"y  c #401D69",
"u  c #44256C",
"i  c #443B6C",
"p  c #463965",
"a  c #4A2675",
"s  c #54257D",
"d  c #483A75",
"f  c #55387C",
"g  c #60327E",
"h  c #3F435D",
"j  c #554676",
"k  c #5B5476",
"l  c #4A456F",
"z  c #654C7B",
"x  c #6C597E",
"c  c #66697E",
"v  c #3C368E",
"b  c #3F3C91",
"n  c #541D83",
"m  c #591F84",
"M  c #592987",
"N  c #4C3C8D",
"B  c #4A3C83",
"V  c #57358A",
"C  c #453D91",
"Z  c #4C3D91",
"A  c #563C91",
"S  c #5C3891",
"D  c #65378B",
"F  c #67368B",
"G  c #554583",
"H  c #534989",
"J  c #5D5789",
"K  c #4D4394",
"L  c #4D4995",
"P  c #4C4D99",
"I  c #544394",
"U  c #5B4494",
"Y  c #534995",
"T  c #5C4A97",
"R  c #544B99",
"E  c #5B4D99",
"W  c #4D539C",
"Q  c #4E5A9E",
"!  c #5B509A",
"~  c #5A5595",
"^  c #484589",
"/  c #624788",
"(  c #734D8A",
")  c #625888",
"_  c #765686",
"`  c #624595",
"'  c #654A96",
"]  c #6B4B97",
"[  c #634E99",
"{  c #6C4E99",
"}  c #6D4493",
"|  c #734A97",
" . c #64549C",
".. c #6B539B",
"X. c #685997",
"o. c #73539B",
"O. c #7A559C",
"+. c #73599F",
"@. c #765895",
"#. c #736483",
"$. c #796699",
"%. c #79718B",
"&. c #575AA0",
"*. c #6C5CA1",
"=. c #675DA3",
"-. c #735DA2",
";. c #7B5DA2",
":. c #6E60A3",
">. c #7363A5",
",. c #7469A4",
"<. c #746CAB",
"1. c #7B6CAB",
"2. c #7965A6",
"3. c #7D72AD",
"4. c #7D76B0",
"5. c #875A9C",
"6. c #955C9E",
"7. c #814E91",
"8. c #916397",
"9. c #897397",
"0. c #957E9A",
"q. c #866C8F",
"w. c #835FA2",
"e. c #A25EA1",
"r. c #8366A6",
"t. c #8B6AA9",
"y. c #8966A6",
"u. c #9A65A3",
"i. c #9D69A6",
"p. c #9F6DA9",
"a. c #9467A4",
"s. c #8272AD",
"d. c #8B73AE",
"f. c #8A7BA6",
"g. c #9372AD",
"h. c #9E74AE",
"j. c #8376B1",
"k. c #867AB3",
"l. c #8B7CB4",
"z. c #937DB4",
"x. c #9C7CB3",
"c. c #A364A6",
"v. c #A76AA7",
"b. c #A374AB",
"n. c #AD74AD",
"m. c #A778AF",
"M. c #B777AE",
"N. c #AB7DB3",
"B. c #A47DB4",
"V. c #B57BB1",
"C. c #C379AF",
"Z. c #C67CB1",
"A. c #7F8294",
"S. c #938B9E",
"D. c #9486A8",
"F. c #9B9AAA",
"G. c #8B81B7",
"H. c #8A83B8",
"J. c #9383B5",
"K. c #9B83B6",
"L. c #9385BA",
"P. c #968ABC",
"I. c #9B8CBE",
"U. c #9B86BA",
"Y. c #8984A1",
"T. c #A78BAA",
"R. c #A582B6",
"E. c #AD83B6",
"W. c #A58BBD",
"Q. c #A888BA",
"!. c #B484B5",
"~. c #B586B8",
"^. c #B28CBC",
"/. c #BB88B9",
"(. c #A791BE",
"). c #B391BB",
"_. c #B692B6",
"`. c #ACACBB",
"'. c #C586B6",
"]. c #C38DBC",
"[. c #CB86B7",
"{. c #D18BB9",
"}. c #C393BC",
"|. c #CD9FBF",
" X c #D792BE",
".X c #9F90C1",
"XX c #A393C2",
"oX c #AA96C3",
"OX c #BB94C1",
"+X c #B49AC5",
"@X c #BA9CC6",
"#X c #B698C4",
"$X c #C296C1",
"%X c #C29BC5",
"&X c #CB9CC5",
"*X c #C29FC8",
"=X c #C895C1",
"-X c #D19AC3",
";X c #D998C2",
":X c #E29EC5",
">X c #CAA2CA",
",X c #C9A3C9",
"<X c #D5A5CB",
"1X c #DAA6CB",
"2X c #D6A9CD",
"3X c #DCAACD",
"4X c #D8A4C6",
"5X c #DEB0D1",
"6X c #DDAED1",
"7X c #E3A3C9",
"8X c #E4ABCD",
"9X c #EBADCF",
"0X c #E6A4C8",
"qX c #E3AED0",
"wX c #ECAFD0",
"eX c #E6B2D2",
"rX c #EEB1D0",
"tX c #E9B9D6",
"yX c #F1B1D1",
"uX c #F5B7D4",
"iX c #EEB2CF",
"pX c #FBFBFC",
"aX c #C7C8D0",
/* pixels */
"O O O O O O O O O O O O O O O O O O O O O O O O O O O O O O O O O O O O O O O O O O O O O O O O O O O O ",
"O O O O O O O O O O O O O O O O O O O O O O O O O O O O O O O O O O O O O O O O O O O O O O O O O O O O ",
"O O O O O O O O O O O O O O O O O O O O O O O O O O O O O O O O O O O O O O O O O O O O O O O O O O O O ",
"O O O O O O O O O O O O O O O O O O O O O O O O O O O O O O O O O O O O O O O O O O O O O O O O O O O O ",
"O O O O O O O O O O O O O O O O O O O O O O O O O O O O O O O O O O O O O O O O O O O O O O O O O O O O ",
"O O O O O O O O O O O O O O O O O O O O O O O O O O O O O O O O O O O O O O O O O O O O O O O O O O O O ",
"O O O O O O O O O O O O O O O O O O O O O O O O O O O O O O O O O O O O O O O O O O O O O O O O O O O O ",
"O O O O O O O O O O O O O O O O O O O O O O O O O O O O O O O O O O O O O O $ S.@ O O O O O O O O O O O ",
"O O O O O O O O O $ A.O @ O O   O O O + O O O @ O O @ @ @   O O O O O O O O `.pXF.O O O O O O O O O O O ",
"O O O O O O O O O c pX`.      & $ @ * : = u u u u u a u u y o     O O O O O - aXh O O O O O O O O O O O ",
"O O O O O O O O O % Y.6 2 1 1 u f / @./ B H L L Y H H N B s a u y o   O O O O O O O O O O O O O O O O O ",
"O O O O O O O O +   , 3 0 w t M V ] *.&.Q Q Q Q W W W P L H A M s r y o   O O O O O O O O O O O O O O O ",
"O O O O O O O O   2 4 q w m M S E Q Q R P L K K K R ! ! E Y Y U S M M r u = = & O O O O O O O O O O O O ",
"O O O O O O O @ X 3 q n M M I R W L P K K K K K R !  ...! T Y E ] D F F s f g j h - O O O O O O O O O O ",
"O O O O O O O X 1 0 w m M U R P L Y T T [ [ E I T E  . . . . . .] | | F F 7.5.X.J j % O O O O O O O O O ",
"O O O O O O . < 0 n n M A R R R T [ ..o.+.O.o...[ [ +.>.:.:.>.:.-.-.O.| F 6.a.>.Q ^ : O O O O O O O O O ",
"O O O O O + , 3 n n M A R R E E [ { { o.O.O.5.o.[ { ;.s.s.1.1.1.>.>.o.{ | 5.p.r.E ^ 6 + O O O O O O O O ",
"O O O O O . < 4 n M A I R E T T ` ' { o.o.O.O.O...o.w.d.k.d.k.d.s.1.>.-.| O.i.p.*.Y l * O O O O O O O O ",
"O O O O + X < n n M I R E T I U U ' ] { o.O.O.O.o.o.y.z.L.L.L.G.G.k.1.2.-.o.6.v.a.X.C 6 O O O O O O O O ",
"O O O O   , 3 n M Z T E E Y Z I U ' ] { o.O.O.O.o.;.p.U.I..XP.P.L.L.k.<.-.-.-.a.i.O.H 7 + O O O O O O O ",
"O O O + . < 4 n V I E =.R C Z I U [ ' { o.o.O.o.;.t.N.W..X.X.X.X.XP.L.k.3.>.-.;.5.a.( i $ O O O O O O O ",
"O O O + , 3 n n Z E [ =.R b C K U U ' { { | { { y.B.^.oXoXoXXXXX.X.X.XL.k.3.>.-.;.5.7.j > O O O O O O O ",
"O O O + , 4 n M U =.=.-.E C v Z A U ` ' ` S { y.E.$X%X@X@X+X+X+XoXoX.X.X.X4.3.<.:.+.@.f @ O O O O O O O ",
"O O O + , 3 n S E =.-.r.-.K v v N Z A A ` ] t.OX-X>X,X,X,X,X*X@X@X+XoX.X.X.XH.4.<.*.) i O O O O O O O O ",
"O O O + , r M ' =.>.1.t.t...K C Z Z A [ -.R.%X<X2X2X2X2X<X2X2X6X2X,X+X+XoXXXP.H.4.<.) * O O O O O O O O ",
"O O O + 3 S } *.:.2.j.l.x.g.;.*.{ -.s.x.#X<XqX8X8X8X8X8X8XeXtXtXqX2X,X@X+XoXXX.XH.4.J @ O O O O O O O O ",
"O O O + a | O.*.>.j.k.L.R.E.E.B.B.OX*X2XqXqX8X8XqX9XwX9XeXtXeX5X1X<X&X,X,X@XoXXXP.f.J O O O O O O O O O ",
"O O O + V O.-.-.1.j.l.L.I.^.$X&X&X2X5XqXeXqX9XwXwXyXwXrXeXqX1X<X&X=X].$X,X@X+X+X(.J.x O O O O O O O O O ",
"O O O # j r.;.>.3.k.L.U..XoX*X>X2X6XqXqX9XwXwXyXyXyXyXqX1X<X-X=X}./.!./.&X,X,X>X+XJ.) $ O O O O O O O O ",
"O O O + G 2.2.1.j.z.L..XoXoX@X>X2X3XqXwXwXwXyXyXyXyX9X1X-X=X]./.~.E.R.E.&X<X<X&X_.K.c % O O O O O O O O ",
"O O O + G 2.2.s.k.L..X.XoXoX*X>X<X8XwXwXyXwXyXyXyXyX8X-X]./.~.~.R.R.K.Q.>X1X|.~.R.J.J $ O O O O O O O O ",
"O O O + l 2.1.j.k.L.P..XoX@X&X2X1XqXwXwXyXwXyXyXyXyX8X=X~.E.Q.R.R.z.l.^.1X3X,XQ.K.D.k $ O O O O O O O O ",
"O O O O 7 <.4.k.H.I.(.XXoX*X>X2X8XwXwXyXyXyXyXwXyXyX0X=XN.x.U.x.z.k.l.$X8X8X4XOX).Y.j $ O O O O O O O O ",
"O O O O i ~ 4.k.P.W.XXoX+X,X2X3X8XwXwXwXwXyXyXyXyXyXyX&XQ.z.l.d.4.4.Q.<X9X9X3X&X).9.; O O O O O O O O O ",
"O O O O : j ~ 3.U.Q.R.W.@X,X<X8XwXwXyXyXyXwXyXyXyXyXyXwX%XK.j.<.<.z.&XwXyXiX8X|.D.) > O O O O O O O O O ",
"O O O O - 7 7 H s.z.g.K.#X>X<X3XwXyXyXyXwXyXyXyXrXyXuXyX9X&XQ.U.XX&XwXyXyX9X4X}.0.F.F.@ O O O O O O O O ",
"O O O O O O O 6 ) d.j.z.#X,X1X8X0XyXyXyXyXyXyXyXyXyXrXuXuXyXwX0X:X7X0X9XwX0X4XT.c - O O O O O O O O O O ",
"O O O O O O O # d 2.l.U.+X,X&X].[.{.;X0XyXyXyXyXyXrXyXyXyXuXyX:X X{.{.;X:X7X XS.q.@ O O O O O O O O O O ",
"O O O O O O O O * [ z.oX@X$Xn.e.e.c.M.{.:XyXyXyXyXrXyXyXyXwX:X[.C.Z.Z.{.;X-X_.#.- O O O O O O O O O O O ",
"O O O O O O O O + 7 X..X#XN.c.c.v.v.v.M.{.0XyXyXyXyXyXyXuX0X[.Z.C.Z.[.'.'.!.9.l $ O O O O O O O O O O O ",
"O O O O O O O O O & 7 ,.Q.N.b.b.B.B.N.V.'.;XyXyXyXyXyXyXwX XZ.M.Z.!.!.N.n.9.z > O O O O O O O O O O O O ",
"O O O O O O O O O O & i $.x.t.r.t.g.h.E./.&X0XyXyXwX7X8X:X[.C.V.N.n.m.b.b.5.p O O O O O O O O O O O O O ",
"O O O O O O O O O O O $ l @.-.{ -.;.r.x.OX-X8XyXwX8X1X4X XZ.n.m.m.b.p.i.8.7.9 O O O O O O O O O O O O O ",
"O O O O O O O O O O O O @ p ' [ ' { -.d.#X<X9XyXyXyXwX;X'.n.b.v.i.u.u.i.i.7.9 O O O O O O O O O O O O O ",
"O O O O O O O O O O O O O $ i /  .X.>.z.|.iXyXiXyXuXuX;XM.v.i.u.8.v.n.V.M.q.9 O O O O O O O O O O O O O ",
"O O O O O O O O O O O O O O $ 7 z X.$.9.T.4X0XiXyXuXeX].8.6.6.u.v.V.~.E.n._ > O O O O O O O O O O O O O ",
"O O O O O O O O O O O O O O O O > ; ; h k c q.S.T.S.D.x z ( 6.e.n.N.g.r._ h O O O O O O O O O O O O O O ",
"O O O O O O O O O O O O O O O O O O O O $ > % % % $ O @ @ p 8.v.u.O.X.G 9 @ O O O O O O O O O O O O O O ",
"O O O O O O O O O O O O O O O O O O O O O O O O O O O O O O x q._ d 9 : @ O O O O O O O O O O O O O O O ",
"O O O O O O O O O O O O O O O O O O O O O O O O O O O O O O h : - @ O O O O O O O O O O O O O O O O O O ",
"O O O O O O O O O O O O O O O O O O O O O O O O O O O O O O O O O O O O O O O O O O O O O O O O O O O O ",
"O O O O O O O O O O O O O O O O O O O O O O O O O O O O O O O O O O O O O O O O O O O O O O O O O O O O "
};
