/* XPM */
static char *result[] = {
/* columns rows colors chars-per-pixel */
"52 52 220 2 ",
"   c #1E1C41",
".  c #1F1643",
"X  c #250A4A",
"o  c #2D094F",
"O  c #230A4A",
"+  c #320A4E",
"@  c #35044F",
"#  c #221343",
"$  c #211B41",
"%  c #2B1045",
"&  c #2D0654",
"*  c #290855",
"=  c #340753",
"-  c #340A53",
";  c #350C59",
":  c #3B0B5D",
">  c #3B0557",
",  c #2E115C",
"<  c #301158",
"1  c #1D2241",
"2  c #242947",
"3  c #272C49",
"4  c #252947",
"5  c #2F3350",
"6  c #353A55",
"7  c #3D0565",
"8  c #3F0B61",
"9  c #3E046B",
"0  c #360966",
"q  c #3B136A",
"w  c #371364",
"e  c #3D0473",
"r  c #3D0C78",
"t  c #3E1D79",
"y  c #42045C",
"u  c #430B5C",
"i  c #450957",
"p  c #53015E",
"a  c #430362",
"s  c #4C0766",
"d  c #420B64",
"f  c #4B0966",
"g  c #45076C",
"h  c #4B066B",
"j  c #440A6A",
"k  c #4A0A6B",
"l  c #56056B",
"z  c #540C6C",
"x  c #580569",
"c  c #5A126F",
"v  c #53126B",
"b  c #440373",
"n  c #4B0573",
"m  c #450875",
"M  c #4B0973",
"N  c #4B077D",
"B  c #5B0473",
"V  c #510A73",
"C  c #590D71",
"Z  c #5B0B7B",
"A  c #540578",
"S  c #451879",
"D  c #51117A",
"F  c #5E137D",
"G  c #561576",
"H  c #4A1B6E",
"J  c #630B75",
"K  c #6A047D",
"L  c #630D7C",
"P  c #6A0A7E",
"I  c #62067D",
"U  c #63137B",
"Y  c #68157A",
"T  c #46286E",
"R  c #3F435D",
"E  c #5B5F75",
"W  c #434761",
"Q  c #5F6278",
"!  c #66697E",
"~  c #490585",
"^  c #4B058B",
"/  c #4B0A89",
"(  c #520585",
")  c #5D0683",
"_  c #520A84",
"`  c #5C0A84",
"'  c #5A068A",
"]  c #530A8B",
"[  c #590B8C",
"{  c #56028F",
"}  c #4A1982",
"|  c #461785",
" . c #56118B",
".. c #5B138C",
"X. c #5C1787",
"o. c #4D0291",
"O. c #4F0996",
"+. c #550A93",
"@. c #5A0C94",
"#. c #5C069C",
"$. c #540B99",
"%. c #5B0B9B",
"&. c #530596",
"*. c #471798",
"=. c #5B1295",
"-. c #5E139E",
";. c #511B95",
":. c #650685",
">. c #6D0584",
",. c #640B81",
"<. c #6B0A82",
"1. c #6C068A",
"2. c #640B8D",
"3. c #6A0A8A",
"4. c #720386",
"5. c #740389",
"6. c #7A068C",
"7. c #740A8C",
"8. c #7B0A8D",
"9. c #730B83",
"0. c #66118D",
"q. c #6A1587",
"w. c #72148E",
"e. c #741A89",
"r. c #741686",
"t. c #640B93",
"y. c #64079C",
"u. c #6A0E9F",
"i. c #680997",
"p. c #750693",
"a. c #7D0C92",
"s. c #710D99",
"d. c #6F1192",
"f. c #64129D",
"g. c #6C129B",
"h. c #7C1292",
"j. c #7E1B92",
"k. c #7C139B",
"l. c #761498",
"z. c #4B259A",
"x. c #582B94",
"c. c #64248F",
"v. c #652A94",
"b. c #63289C",
"n. c #692A9A",
"m. c #65349E",
"M. c #4F0FA2",
"N. c #5A05A5",
"B. c #5C0BA4",
"V. c #5B05AB",
"C. c #5E0AAA",
"Z. c #5606A7",
"A. c #4C16A1",
"S. c #5214A1",
"D. c #5C13A4",
"F. c #541AA3",
"G. c #5D11A9",
"H. c #5B1AAA",
"J. c #581CA5",
"K. c #5C02B2",
"L. c #591AB3",
"P. c #640CA3",
"I. c #600BAA",
"U. c #6706A8",
"Y. c #6112A4",
"T. c #6E12A7",
"R. c #7D1CA4",
"E. c #7C19AC",
"W. c #5421A2",
"Q. c #5623AC",
"!. c #5B23AE",
"~. c #5D28AF",
"^. c #5A23A3",
"/. c #4F29B0",
"(. c #5928B3",
"). c #5729B4",
"_. c #5733B9",
"`. c #6734A8",
"'. c #6E38B0",
"]. c #6F35AF",
"[. c #7542BC",
"{. c #743EC2",
"}. c #7741C5",
"|. c #830D95",
" X c #831396",
".X c #821C95",
"XX c #861299",
"oX c #8A159C",
"OX c #841B9C",
"+X c #8C1A9D",
"@X c #88249D",
"#X c #8715A1",
"$X c #841CA4",
"%X c #8D1AA1",
"&X c #8117AB",
"*X c #921DA4",
"=X c #8C23A1",
"-X c #8E2CA9",
";X c #9321A5",
":X c #9328A4",
">X c #9522A9",
",X c #9A24AC",
"<X c #9C2AAD",
"1X c #972EAF",
"2X c #992BB3",
"3X c #9C30B6",
"4X c #9632BE",
"5X c #A12CAF",
"6X c #A22CB1",
"7X c #A231B4",
"8X c #A634BB",
"9X c #A935B9",
"0X c #A936C1",
"qX c #7F8294",
"wX c #8B8D9D",
"eX c #9D9FAC",
"rX c #A8AAB6",
"tX c #BDBFC8",
"yX c #CDCED5",
"uX c #FDFDFE",
/* pixels */
"1 1 1 1 1 1 1 1 1 1 1 1 1 1 1 1 1 1 1 1 1 1 1 1 1 1 1 1 1 1 1 1 1 1 1 1 1 1 1 1 1 1 1 1 1 1 1 1 1 1 1 1 ",
"1 1 1 1 1 1 1 1 1 1 1 1 1 1 1 1 1 1 1 1 1 1 1 1 1 1 1 1 1 1 1 1 1 1 1 1 1 1 1 1 1 1 1 1 1 1 1 1 1 1 1 1 ",
"1 1 1 1 1 1 1 1 1 1 1 1 1 1 1 1 1 1 1 1 1 1 1 1 1 1 1 1 1 1 1 1 1 1 1 1 1 1 1 1 1 1 1 1 1 1 1 1 1 1 1 1 ",
"1 1 1 1 1 1 1 1 1 1 1 1 1 1 1 1 1 1 1 1 1 1 1 1 1 1 1 1 1 1 1 1 1 1 1 1 1 1 1 1 1 1 1 1 1 1 1 1 1 1 1 1 ",
"1 1 1 1 1 1 1 1 1 1 1 1 1 1 1 1 1 1 1 1 1 1 1 1 1 1 1 1 1 1 1 1 1 1 1 1 1 1 1 1 1 1 1 1 1 1 1 1 1 1 1 1 ",
"1 1 1 1 1 1 1 1 1 1 1 1 1 1 1 1 1 1 1 1 1 1 1 1 1 1 1 1 1 1 1 1 1 1 1 1 1 1 1 1 1 1 1 1 1 1 1 1 1 1 1 1 ",
"1 1 1 1 1 1 1 1 1 1 1 1 1 1 1 1 1 1 1 1 1 1 1 1 1 1 1 1 1 1 1 1 1 1 1 1 1 1 1 1 1 1 1 1 1 1 1 1 1 1 1 1 ",
"1 1 1 1 1 1 1 1 1 1 1 1 1 1 1 1 1 1 1 1 1 1 1 1 1 1 1 1 1 1 1 1 1 1 1 1 1 1 3 wX2 1 1 1 1 1 1 1 1 1 1 1 ",
"1 1 1 1 1 1 1 1 1 3 qX1 1 1 1 1 1 1 1 1 1 1   % u v c c v i i # 1 1 1 1 1 1 rXuXeX1 1 1 1 1 1 1 1 1 1 1 ",
"1 1 1 1 1 1 1 1 1 ! uXyX1 1 1 1 1 1 1 1 + c e..X+X+XoXoX X X|.9.x > 1 1 1 1 5 yXR 1 1 1 1 1 1 1 1 1 1 1 ",
"1 1 1 1 1 1 1 1 1 5 rXR 1 1 1 1 1 $ @ Y @X+X*X*X*X*X+X+X+XoXXX X|.8.J y % * * 1 1 1 1 1 1 1 1 1 1 1 1 1 ",
"1 1 1 1 1 1 1 1 1 1 1 1 1 1 1 1 $ Y @X*X*X;X*X;X*X*X*X*X+X+XoXoXXX|.a.@.#.D.*.r * 1 1 1 1 1 1 1 1 1 1 1 ",
"1 1 1 1 1 1 1 1 1 1 1 1 1 1 + u Y +X;X*X;X;X=Xk.d.=X>X*X*X*X*XoXoXXXa.{ V.L.A.F.| * 1 1 1 1 1 1 1 1 1 1 ",
"1 1 1 1 1 1 1 1 1 1 1 1 1 = j q.@X*X;X,X=Xw.` N N ' l.OX;X*X*XoXoXXXa.{ Z.L.A.Q.A.| 1 1 1 1 1 1 1 1 1 1 ",
"1 1 1 1 1 1 1 1 1 1 1 1 + j k l .X;X,X5Xj.s > 7 m m j 7 Z ;X*X*X%XoXk.2.O._./.A.L.S.0 1 1 1 1 1 1 1 1 1 ",
"1 1 1 1 1 1 1 1 1 1 1 $ d s f Y  X;X,X,X;Xe.C f s k f u y .X*X*X%XoXXXs./ _.A.H.L.Z.m # 1 1 1 1 1 1 1 1 ",
"1 1 1 1 1 1 1 1 1 1   : V q.h.R.u.P.E.2X6X7X:Xe.r.Y Y U J 9.;X;X%XoXoX X( S.A.F.C.B.9 . 1 1 1 1 1 1 1 1 ",
"1 1 1 1 1 1 1 1 1 1 - s w.%X&XU.V.V.V.N.P.R.3X8X9X7X:X@X=X<X,X;X*X%XoXXX` -.!.$.C.O.& & 1 1 1 1 1 1 1 1 ",
"1 1 1 1 1 1 1 1 1 $ d Z  XoXU.K.K.V.K.Z.o.o.%.2X8X-XM b F @X,X,X*X*XoXXXd.=.B.#.M.r 0 t w 1 1 1 1 1 1 1 ",
"1 1 1 1 1 1 1 1 1 - k 3.+X#Xu.N.V.V.Z.o.^ Z.B.Y.4X3Xe.G z Z ;X>X*X+XoXXXh.] S.F.W.z.z.| S 1 1 1 1 1 1 1 ",
"1 1 1 1 1 1 1 1 1 : V h.+X%X&Xg.{ &.o.~ o.K.V.V.T.0X7X;Xj..X;X;X*X%XoXXX|.[ Q.).).).J.| S $ 1 1 1 1 1 1 ",
"1 1 1 1 1 1 1 1 # d Z  X#Xs.#.P.f.~ e e ~ ~ / ~ ~ q.9X8X6X<X,X,X*X%XoXXX|...J.H.G.C.D.;.S < 1 1 1 1 1 1 ",
"1 1 1 1 1 1 1 1 + g ,. XXXd.#.I.C.N.&.N e 9 9 7 a V 1X7X6X<X,X*X*X%X+XXXa.2.=.G.G.G.!.;.} ; 1 1 1 1 1 1 ",
"1 1 1 1 1 1 1 1 - g <. XoXk.i.%.C.C.C.B.$.[ F F Y q.+X6X5X<X*X%X%XoXoX Xa.3.[ D.H.(.(.J.m - 1 1 1 1 1 1 ",
"1 1 1 1 1 1 1 1 8 g <.|.oXoXk.P.B.B.Z.C.C.C.P.g.R.1X6X6X,X,X;X*X#XoXXX|.|.>. .~.~.~.J.=.d 1 1 1 1 1 1 1 ",
"1 1 1 1 1 1 1 1 : g <. X|.k.u.P.I.B.Z.$.+.+.+.+.[ 0.:X,X,X>X*X*X%XXXXX|.6.1. .~.!.H.f. .8 1 1 1 1 1 1 1 ",
"1 1 1 1 1 1 1 1 : g <.a.|.a.t.P.I.I.C.D.$.] M M C J +X,X*X*X*X+XoXXX|.|.6.6.` Y.Y.Y.=.M m $ 1 1 1 1 1 1 ",
"1 1 1 1 1 1 1 1 ; g ,.a.a.a.2.+.B.P.B.G.P.B.@.0.OX=X;X>X*X%X%XoXXX|.|.6.6.5.:.f.=. .g v d   1 1 1 1 1 1 ",
"1 1 1 1 1 1 1 1 & g I a.6.a. X3.' ( / ] ] +.+.] ' OX%X*X*XoXoXXX|.|.|.6.5.4.1.l h h M v - 1 1 1 1 1 1 1 ",
"1 1 1 1 1 1 1 1 # d B 4.6.8.a.|.h.Z M _ _ ] ' ] [ d.%X%X%XoXXXXX|.a.6.6.4.4.>.P ,.,.M ; 1 1 1 1 1 1 1 1 ",
"1 1 1 1 1 1 1 1 1 u h >.6.6.8.|.a.Z M =.-.%.Y.D.P.t.oXoXXX|.|.|.6.6.6.5.4.>.<.<.,.,.G + 1 1 1 1 1 1 1 1 ",
"1 1 1 1 1 1 1 1 1 X : C 4.5.6.8.8.<.n =.Y.Y.Y.P.Y.-.7.|.|.|.|.|.p.p.5.5.4.>.I <.U U G # 1 1 1 1 1 1 1 1 ",
"1 1 1 1 1 1 1 1 1 1 1 = P 4.5.6.6.6.B h  .Y.Y.Y.-. .L a.|.6.6.p.U.y.i.:.>.<.I L F F H 1 1 1 1 1 1 1 1 1 ",
"1 1 1 1 1 1 1 1 1 1 1 1 x 4.4.4.5.|.9.x g M =.[ g y B 8.|.6.5.1.' A n l <.<.P U F v.X   1 1 1 1 1 1 1 1 ",
"1 1 1 1 1 1 1 1 1 1 1 1 % J 4.5.5.5.5.9.x y y y y l <.1.4.5.5.4.1.>.>.I I P F F v.x.1 2 1 1 1 1 1 1 1 1 ",
"1 1 1 1 1 1 1 1 1 1 1 1   > J 9.4.4.4.4.4.B p p x K 4.:.4.4.4.4.1.1.2.t.Z U F n.`.w eX2 1 1 1 1 1 1 1 1 ",
"1 1 1 1 1 1 1 1 1 1 1 1 1 1 > L >.>.9.>.>.>.K K K >.4.>.>.4.1.i.y.%.P.] 7 D b.'.S # 1 1 1 1 1 1 1 1 1 1 ",
"1 1 1 1 1 1 1 1 1 1 1 1 1 1   v L <.>.>.>.>.>.>.4.>.>.>.>.>.3.y.C.C.$.m b x.}.S T 1 1 1 1 1 1 1 1 1 1 1 ",
"1 1 1 1 1 1 1 1 1 1 1 1 1 1 1   d L P P :.) ) :.K >.>.<.P P <.[ %.@.D X.'.'.} # 1 1 1 1 1 1 1 1 1 1 1 1 ",
"1 1 1 1 1 1 1 1 1 1 1 1 1 1 1 1 1 - z L L ' ( ~ ( Z Z Z L L L Z X.X.b.{.`.q # 1 1 1 1 1 1 1 1 1 1 1 1 1 ",
"1 1 1 1 1 1 1 1 1 1 1 1 1 1 1 1 1 1 # d G ..@.@.$. ._ G U J F X.n.'.}.^.; $ 1 1 1 1 1 1 1 1 1 1 1 1 1 1 ",
"1 1 1 1 1 1 1 1 1 1 1 1 1 1 1 1 1 1 1 1   = j D X.X.q.c.c.v.m.m.x.} 0 & 1 1 1 1 1 1 1 1 1 1 1 1 1 1 1 1 ",
"1 1 1 1 1 1 1 1 1 1 1 1 1 1 1 1 1 5 tX3 1 1 . # o ; w d q w < * * X .   1 1 1 1 1 1 1 1 1 1 1 1 1 1 1 1 ",
"1 1 1 1 1 1 1 1 1 1 1 1 1 1 1 1 1 W uXQ 1 1 1 1 1 1 1 1 1 1 1 1 1 1 1 1 1 1 1 1 1 1 1 1 1 1 1 1 1 1 1 1 ",
"1 1 1 1 1 1 1 1 1 1 1 1 1 1 1 1 1 1 Q 1 1 1 1 1 1 1 1 1 1 1 1 1 1 1 1 1 1 1 1 1 1 1 1 1 1 1 1 1 1 1 1 1 ",
"1 1 1 1 1 1 1 1 1 1 1 1 1 1 1 1 1 1 1 1 1 1 1 1 1 1 1 1 1 1 1 1 1 1 1 1 1 1 1 1 1 1 1 1 1 1 1 1 1 1 1 1 ",
"1 1 1 1 1 1 1 1 1 1 1 1 1 1 1 1 1 1 1 1 1 1 1 1 1 1 1 1 1 1 1 1 1 1 1 1 1 1 1 1 1 1 1 1 1 1 1 1 1 1 1 1 ",
"1 1 1 1 1 1 1 1 1 1 1 1 1 1 1 1 1 1 1 1 1 1 1 1 1 1 1 1 1 1 1 1 1 1 1 1 1 1 1 1 1 1 1 1 1 1 1 1 1 1 1 1 ",
"1 1 1 1 1 1 1 1 1 1 1 1 1 1 1 1 1 1 1 1 1 1 1 1 1 1 1 1 1 1 1 1 1 1 1 1 1 1 1 1 1 1 1 1 1 1 1 1 1 1 1 1 ",
"1 1 1 1 1 1 1 1 1 1 1 1 1 1 1 1 1 1 1 1 1 1 1 1 1 1 1 1 1 1 1 1 1 1 1 1 1 1 1 1 1 1 1 1 1 1 1 1 1 1 1 1 ",
"1 1 1 1 1 1 1 1 1 1 1 1 1 1 1 1 1 1 1 1 1 1 1 1 1 1 1 1 1 1 1 1 1 1 1 1 1 1 1 1 1 1 1 1 1 1 1 1 1 1 1 1 ",
"1 1 1 1 1 1 1 1 1 1 1 1 1 1 1 1 1 1 1 1 1 1 1 1 1 1 1 1 1 1 1 1 1 1 1 1 1 1 1 1 1 1 1 1 1 1 1 1 1 1 1 1 "
};
