/* XPM */
static char *_0811b1b754d45fbae8bf1fef93641adSGjimHyN67qjt35W[] = {
/* columns rows colors chars-per-pixel */
"52 52 107 2 ",
"   c #1D2241",
".  c #282C4A",
"X  c #8B8D9D",
"o  c #232846",
"O  c #AAACB7",
"+  c #FDFDFE",
"@  c #9D9FAC",
"#  c #303551",
"$  c #C7C8D0",
"%  c #3F435D",
"&  c #1E2242",
"*  c #262547",
"=  c #232445",
"-  c #2E274D",
";  c #2B264B",
":  c #342951",
">  c #362952",
",  c #3F2D59",
"<  c #422D5B",
"1  c #513266",
"2  c #8B6996",
"3  c #5E3E72",
"4  c #4F3064",
"5  c #644374",
"6  c #825B8E",
"7  c #7E5689",
"8  c #5B346C",
"9  c #533368",
"0  c #653E75",
"q  c #5D346D",
"w  c #663774",
"e  c #6E3A7A",
"r  c #D7C8D9",
"t  c #DBCDDD",
"y  c #763C7F",
"u  c #753C7F",
"i  c #753C7E",
"p  c #743C7E",
"a  c #743B7E",
"s  c #733B7D",
"d  c #723B7C",
"f  c #713B7C",
"g  c #703A7B",
"h  c #6F3A7A",
"j  c #6D3979",
"k  c #6B3977",
"l  c #693876",
"z  c #683875",
"x  c #673874",
"c  c #633672",
"v  c #603670",
"b  c #5E356E",
"n  c #5C346D",
"m  c #653773",
"M  c #5F356F",
"N  c #5A346C",
"B  c #553268",
"V  c #523266",
"C  c #503164",
"Z  c #4F3164",
"A  c #753B7E",
"S  c #6D3A79",
"D  c #673775",
"F  c #5F366F",
"G  c #58336A",
"H  c #513165",
"J  c #4A2F61",
"K  c #462E5D",
"L  c #432D5C",
"P  c #452F5D",
"I  c #713B7B",
"U  c #482E5F",
"Y  c #402C5A",
"T  c #3A2B55",
"R  c #372953",
"E  c #362953",
"W  c #A192AC",
"Q  c #693976",
"!  c #603570",
"~  c #553368",
"^  c #372A53",
"/  c #30284E",
"(  c #2C264C",
")  c #E9E0EA",
"_  c #462E5E",
"`  c #3B2A56",
"'  c #30284F",
"]  c #292649",
"[  c #242446",
"{  c #262747",
"}  c #6D6B83",
"|  c #F3EEF4",
" . c #F5F1F6",
".. c #9E9CAD",
"X. c #272748",
"o. c #372954",
"O. c #1F2243",
"+. c #FDFCFD",
"@. c #A1A3B0",
"#. c #202543",
"$. c #343453",
"%. c #B2AABC",
"&. c #3D3058",
"*. c #474663",
"=. c #635578",
"-. c #635C79",
";. c #3B2E57",
/* pixels */
"                                                                                                        ",
"                                                                                                        ",
"                                                                                                        ",
"                                                                                                        ",
"                                                                                                        ",
"                                                                                                        ",
"                                                                                                        ",
"                                                                            . X o                       ",
"                                                                            O + @                       ",
"                                                                            # $ %                       ",
"                                                                                                        ",
"                                                                                                        ",
"                                                                                                        ",
"                                                                                                        ",
"                                                                                                        ",
"                                                                                                        ",
"                                                    & & & & & & & & & & & & & & & & & & & & & & & & & & ",
"                                  * * * * * * * * * = = = = = = = = = = = = = = = = = = = = = = = = = = ",
"                                  * - - - - - - - - ; ; ; ; ; ; ; ; ; ; ; ; ; ; ; ; ; ; ; ; ; ; ; ; ; ; ",
"                                  * - : : : : : : : > > > > > > > > > > > > > > > > > > > > > > > > > > ",
"                                  * - : , , , , , , < < < < < < < < < < < < < < < < < < < < < < < < < < ",
"                                  * - : , 1 2 3 1 1 4 4 4 4 4 4 4 4 4 4 4 4 4 4 4 4 4 4 4 4 4 4 4 4 4 4 ",
"                                  * - : , 5 6 7 8 8 8 8 8 8 8 8 8 8 8 8 8 8 8 8 8 8 8 8 8 8 8 8 8 8 8 8 ",
"                                  * - : , 9 0 q q q w w w w w w w w w w w w w w w w w w w w w w w w w w ",
"                                  * - : , 1 8 q q q e e e e e e e e e e e e e e e e e e e e e e e e e e ",
"                                  * - : , 1 8 q q r t t t t t t t t t t t t t t t t t t t t t t t t t t ",
"                                & = ; > < 4 8 w e t t t t t t t t t t t t t t t t t t t t t t t t t t t ",
"                                & = ; > < 4 8 w e t t y y y u i i i i p a a a a a a a a a a a a a a a a ",
"                                & = ; > < 4 8 w e t t y u i a s d f g h h h h h h h h h h h h h h h h h ",
"                                & = ; > < 4 8 w e t t y i s d h j k l z x x x x x x x x x x x x x x x x ",
"                                & = ; > < 4 8 w e t t u a d e k x c v b n n n n n n n n n n n n n n n n ",
"                                & = ; > < 4 8 w e t t u s h k m M N B V C Z Z Z Z Z Z Z Z Z Z Z Z Z Z Z ",
"                                & = ; > < 4 8 w e t t A d S D F G H J K L < < < P < < < < < < < < < < < ",
"                                & = ; > < 4 8 w e t t A I k c N H U Y T R E E E W E E E E E E E E E E E ",
"                                & = ; > < 4 8 w e t t a g Q ! ~ J Y ^ / ( ; ; ; ) ; ; ; ; ; ; ; ; ; ; ; ",
"                                & = ; > < 4 8 w e t t a h z b V _ ` ' ] [ { } |  .| ..X.= = = = = = = = ",
"                                & = ; > < 4 8 w e t t a h x n C L o.( [ O.& & & +.& & & & & & & & & & & ",
"                                & = ; > < 4 8 w e t t a h x n Z < E ; = &       @.                      ",
"                                & = ; > < 4 8 w e t t a h x n Z < E ; = &       #.                      ",
"                                & = ; > < 4 8 w e t t a h x n Z < E ; = &                               ",
"                                & = ; > < 4 8 w e t t a h x n Z < E ; = &                               ",
"                                & = ; > < 4 8 w e t t a h x n Z < E ; = &                               ",
"                                & $.%.&.< 4 8 w e t t a h x n Z < E ; = &                               ",
"                                & *.) =.< 4 8 w e t t a h x n Z < E ; = &                               ",
"                                & = -.;.< 4 8 w e t t a h x n Z < E ; = &                               ",
"                                & = ; > < 4 8 w e t t a h x n Z < E ; = &                               ",
"                                & = ; > < 4 8 w e t t a h x n Z < E ; = &                               ",
"                                & = ; > < 4 8 w e t t a h x n Z < E ; = &                               ",
"                                & = ; > < 4 8 w e t t a h x n Z < E ; = &                               ",
"                                & = ; > < 4 8 w e t t a h x n Z < E ; = &                               ",
"                                & = ; > < 4 8 w e t t a h x n Z < E ; = &                               ",
"                                & = ; > < 4 8 w e t t a h x n Z < E ; = &                               "
};
