/* XPM */
static char *_11e1d6430e54592c706a708da009e913TLZy8jOlauR2kHE[] = {
/* columns rows colors chars-per-pixel */
"50 50 2 1 ",
"  c #4800FF",
". c white",
/* pixels */
"                                                  ",
"                                                  ",
"                                                  ",
"                                                  ",
"                                                  ",
"                                                  ",
"                                                  ",
"                                                  ",
"                                                  ",
"                                                  ",
"                                                  ",
"                                                  ",
"                                                  ",
"                                                  ",
"                                                  ",
"                                                  ",
"                                                  ",
"                                                  ",
"                                                  ",
"                                                  ",
"                                                  ",
"                                                  ",
"............................                      ",
"............................                      ",
"............................                      ",
"............................                      ",
"............................                      ",
"............................                      ",
"                      ......                      ",
"                      ......                      ",
"                      ......                      ",
"                      ......                      ",
"                      ......                      ",
"                      ......                      ",
"                      ......                      ",
"                      ......                      ",
"                      ......                      ",
"                      ......                      ",
"                      ......                      ",
"                      ......                      ",
"                      ......                      ",
"                      ......                      ",
"                      ......                      ",
"                      ......                      ",
"                      ......                      ",
"                      ......                      ",
"                      ......                      ",
"                      ......                      ",
"                      ......                      ",
"                      ......                      "
};
