/* XPM */
static char *_f8c4a01e5a646e8f0b304d7fe09e8257yEKMiVxLA1iiSfg[] = {
/* columns rows colors chars-per-pixel */
"52 52 115 2 ",
"   c #1D2241",
".  c #282C4A",
"X  c #8B8D9D",
"o  c #232846",
"O  c #272C49",
"+  c #7F8294",
"@  c #AAACB7",
"#  c #FDFDFE",
"$  c #9D9FAC",
"%  c #66697E",
"&  c #FBFCFC",
"*  c #D2D3D9",
"=  c #303551",
"-  c #C7C8D0",
";  c #3F435D",
":  c #2A2F4C",
">  c #ADAEBA",
",  c #393E59",
"<  c #1E2242",
"1  c #262547",
"2  c #232445",
"3  c #2E274D",
"4  c #2B264B",
"5  c #342951",
"6  c #362952",
"7  c #3F2D59",
"8  c #422D5B",
"9  c #513266",
"0  c #8B6996",
"q  c #5E3E72",
"w  c #4F3064",
"e  c #644374",
"r  c #825B8E",
"t  c #7E5689",
"y  c #5B346C",
"u  c #533368",
"i  c #653E75",
"p  c #5D346D",
"a  c #663774",
"s  c #6E3A7A",
"d  c #D7C8D9",
"f  c #DBCDDD",
"g  c #763C7F",
"h  c #753C7F",
"j  c #753C7E",
"k  c #743C7E",
"l  c #743B7E",
"z  c #733B7D",
"x  c #723B7C",
"c  c #713B7C",
"v  c #703A7B",
"b  c #6F3A7A",
"n  c #6D3979",
"m  c #6B3977",
"M  c #693876",
"N  c #683875",
"B  c #673874",
"V  c #633672",
"C  c #603670",
"Z  c #5E356E",
"A  c #5C346D",
"S  c #653773",
"D  c #5F356F",
"F  c #5A346C",
"G  c #553268",
"H  c #523266",
"J  c #503164",
"K  c #4F3164",
"L  c #753B7E",
"P  c #6D3A79",
"I  c #673775",
"U  c #5F366F",
"Y  c #58336A",
"T  c #513165",
"R  c #4A2F61",
"E  c #462E5D",
"W  c #432D5C",
"Q  c #452F5D",
"!  c #713B7B",
"~  c #482E5F",
"^  c #402C5A",
"/  c #3A2B55",
"(  c #372953",
")  c #362953",
"_  c #A192AC",
"`  c #693976",
"'  c #603570",
"]  c #553368",
"[  c #372A53",
"{  c #30284E",
"}  c #2C264C",
"|  c #E9E0EA",
" . c #462E5E",
".. c #3B2A56",
"X. c #30284F",
"o. c #292649",
"O. c #242446",
"+. c #262747",
"@. c #6D6B83",
"#. c #F3EEF4",
"$. c #F5F1F6",
"%. c #9E9CAD",
"&. c #272748",
"*. c #372954",
"=. c #1F2243",
"-. c #FDFCFD",
";. c #A1A3B0",
":. c #202543",
">. c #343453",
",. c #B2AABC",
"<. c #3D3058",
"1. c #474663",
"2. c #635578",
"3. c #635C79",
"4. c #3B2E57",
/* pixels */
"                                                                                                        ",
"                                                                                                        ",
"                                                                                                        ",
"                                                                                                        ",
"                                                                                                        ",
"                                                                                                        ",
"                                                                                                        ",
"                                                                            . X o                       ",
"                  O +                                                       @ # $                       ",
"                  % & *                                                     = - ;                       ",
"                  : > ,                                                                                 ",
"                                                                                                        ",
"                                                                                                        ",
"                                                                                                        ",
"                                                                                                        ",
"                                                                                                        ",
"                                                    < < < < < < < < < < < < < < < < < < < < < < < < < < ",
"                                  1 1 1 1 1 1 1 1 1 2 2 2 2 2 2 2 2 2 2 2 2 2 2 2 2 2 2 2 2 2 2 2 2 2 2 ",
"                                  1 3 3 3 3 3 3 3 3 4 4 4 4 4 4 4 4 4 4 4 4 4 4 4 4 4 4 4 4 4 4 4 4 4 4 ",
"                                  1 3 5 5 5 5 5 5 5 6 6 6 6 6 6 6 6 6 6 6 6 6 6 6 6 6 6 6 6 6 6 6 6 6 6 ",
"                                  1 3 5 7 7 7 7 7 7 8 8 8 8 8 8 8 8 8 8 8 8 8 8 8 8 8 8 8 8 8 8 8 8 8 8 ",
"                                  1 3 5 7 9 0 q 9 9 w w w w w w w w w w w w w w w w w w w w w w w w w w ",
"                                  1 3 5 7 e r t y y y y y y y y y y y y y y y y y y y y y y y y y y y y ",
"                                  1 3 5 7 u i p p p a a a a a a a a a a a a a a a a a a a a a a a a a a ",
"                                  1 3 5 7 9 y p p p s s s s s s s s s s s s s s s s s s s s s s s s s s ",
"                                  1 3 5 7 9 y p p d f f f f f f f f f f f f f f f f f f f f f f f f f f ",
"                                < 2 4 6 8 w y a s f f f f f f f f f f f f f f f f f f f f f f f f f f f ",
"                                < 2 4 6 8 w y a s f f g g g h j j j j k l l l l l l l l l l l l l l l l ",
"                                < 2 4 6 8 w y a s f f g h j l z x c v b b b b b b b b b b b b b b b b b ",
"                                < 2 4 6 8 w y a s f f g j z x b n m M N B B B B B B B B B B B B B B B B ",
"                                < 2 4 6 8 w y a s f f h l x s m B V C Z A A A A A A A A A A A A A A A A ",
"                                < 2 4 6 8 w y a s f f h z b m S D F G H J K K K K K K K K K K K K K K K ",
"                                < 2 4 6 8 w y a s f f L x P I U Y T R E W 8 8 8 Q 8 8 8 8 8 8 8 8 8 8 8 ",
"                                < 2 4 6 8 w y a s f f L ! m V F T ~ ^ / ( ) ) ) _ ) ) ) ) ) ) ) ) ) ) ) ",
"                                < 2 4 6 8 w y a s f f l v ` ' ] R ^ [ { } 4 4 4 | 4 4 4 4 4 4 4 4 4 4 4 ",
"                                < 2 4 6 8 w y a s f f l b N Z H  ...X.o.O.+.@.#.$.#.%.&.2 2 2 2 2 2 2 2 ",
"                                < 2 4 6 8 w y a s f f l b B A J W *.} O.=.< < < -.< < < < < < < < < < < ",
"                                < 2 4 6 8 w y a s f f l b B A K 8 ) 4 2 <       ;.                      ",
"                                < 2 4 6 8 w y a s f f l b B A K 8 ) 4 2 <       :.                      ",
"                                < 2 4 6 8 w y a s f f l b B A K 8 ) 4 2 <                               ",
"                                < 2 4 6 8 w y a s f f l b B A K 8 ) 4 2 <                               ",
"                                < 2 4 6 8 w y a s f f l b B A K 8 ) 4 2 <                               ",
"                                < >.,.<.8 w y a s f f l b B A K 8 ) 4 2 <                               ",
"                                < 1.| 2.8 w y a s f f l b B A K 8 ) 4 2 <                               ",
"                                < 2 3.4.8 w y a s f f l b B A K 8 ) 4 2 <                               ",
"                                < 2 4 6 8 w y a s f f l b B A K 8 ) 4 2 <                               ",
"                                < 2 4 6 8 w y a s f f l b B A K 8 ) 4 2 <                               ",
"                                < 2 4 6 8 w y a s f f l b B A K 8 ) 4 2 <                               ",
"                                < 2 4 6 8 w y a s f f l b B A K 8 ) 4 2 <                               ",
"                                < 2 4 6 8 w y a s f f l b B A K 8 ) 4 2 <                               ",
"                                < 2 4 6 8 w y a s f f l b B A K 8 ) 4 2 <                               ",
"                                < 2 4 6 8 w y a s f f l b B A K 8 ) 4 2 <                               "
};
