/* XPM */
static char *result[] = {
/* columns rows colors chars-per-pixel */
"52 52 117 2 ",
"   c #271F4C",
".  c #291F4E",
"X  c #2D1E52",
"o  c #311D55",
"O  c #351C5A",
"+  c #391C5E",
"@  c #1D2241",
"#  c #212145",
"$  c #252049",
"%  c #28204D",
"&  c #2D2254",
"*  c #342057",
"=  c #35225B",
"-  c #3B225D",
";  c #3D1B62",
":  c #3D2361",
">  c #3D2862",
",  c #40255F",
"<  c #411765",
"1  c #401A65",
"2  c #451768",
"3  c #431D69",
"4  c #491F6D",
"5  c #432563",
"6  c #482765",
"7  c #442966",
"8  c #4A2966",
"9  c #46226B",
"0  c #4A246C",
"q  c #472B69",
"w  c #4C2A6A",
"e  c #532D6D",
"r  c #592F6E",
"t  c #52306C",
"y  c #5B316F",
"u  c #4E2373",
"i  c #4D2B72",
"p  c #522575",
"a  c #582777",
"s  c #542B74",
"d  c #5A2E74",
"f  c #562778",
"g  c #5A277A",
"h  c #562B79",
"j  c #5B2C7B",
"k  c #573070",
"l  c #5C3172",
"z  c #5E3279",
"x  c #602F77",
"c  c #622E7D",
"v  c #633375",
"b  c #6A3575",
"n  c #653B75",
"m  c #65327C",
"M  c #6A357B",
"N  c #6C3A7A",
"B  c #71377E",
"V  c #733A7D",
"C  c #7A3B7F",
"Z  c #76437D",
"A  c #78437E",
"S  c #622D80",
"D  c #643081",
"F  c #6C3481",
"G  c #723682",
"H  c #743981",
"J  c #7A3C81",
"K  c #774580",
"L  c #7E4582",
"P  c #7D4D84",
"I  c #7F5085",
"U  c #824483",
"Y  c #834A85",
"T  c #884887",
"R  c #894D88",
"E  c #825186",
"W  c #855489",
"Q  c #8A538C",
"!  c #85598A",
"~  c #885A8B",
"^  c #87608C",
"/  c #89628F",
"(  c #8C6590",
")  c #8C6991",
"_  c #926192",
"`  c #936B95",
"'  c #9A6C9A",
"]  c #9A729B",
"[  c #9C7B9F",
"{  c #A2729F",
"}  c #9D7BA1",
"|  c #A17DA2",
" . c #9F84A6",
".. c #A487A9",
"X. c #A58CAA",
"o. c #AC8AAC",
"O. c #AB93AF",
"+. c #AB95B0",
"@. c #AE9BB4",
"#. c #B091B1",
"$. c #B29BB6",
"%. c #BB9EBB",
"&. c #AEA5B8",
"*. c #AFABBA",
"=. c #B6A4BA",
"-. c #BDA7BF",
";. c #B2AEBC",
":. c #BAADBF",
">. c #B6B1BF",
",. c #BEADC0",
"<. c #B5B2C0",
"1. c #BBB5C2",
"2. c #BBBAC5",
"3. c #BEBEC8",
"4. c #C2B5C5",
"5. c #C4BCC9",
"6. c #C4C1CB",
/* pixels */
"@ @ @ @ $     X X X O + + ; u 9 i u i S s z n K I +.;.) Z l t q > > > = & & %   $ $ @ @ @ @ @ @ @ @ @ @ ",
"@ @ @ @   . X X X O O + ; ; ; 3 u i i i z z n F I O.*.) n k t t > > > > & &     # # # # # @ @ @ @ @ @ @ ",
"@ @ @ @   X X X O O ; ; ; 2 S 4 > S i S z z n F I +.;.) Z y t q > > > & & &     #   # @ @ @ @ @ @ @ @ @ ",
"# $   . . X X X O O ; ; ; ; ; 4 S i i i h S n N E +.2.) y k t q > > & = & &       # # @ @ @ @ @ @ @ @ @ ",
"        X X o O ; O ; ; ; 4 3 u u i S i S S z Z E @.<.` n t t 7 > > = = & &   $ # @ @ @ @ @ @ @ @ @ @ @ ",
"    X X X o O O ; ; ; ; 3 9 4 p i i i i S S z Z E $.2.) Z t t q > : ; = & &   $ #   $ @ @ @ @ @ @ @ @ @ ",
"    X o X O O O ; ; ; ; 3 u u u S S i S i D n z I +.*.) n k t q > > + & X     $     @ # @ @ @ @ @ @ @ @ ",
"X X o o O O + ; ; ; 2 2 3 u p p u u i S S D z K I @.>./ Z k t q > : = & & X   $ @ @ @ @ @ @ @ @ @ @ @ @ ",
"X X o O O + + < < 2 3 3 4 u u p p h h h m m m N E @.<./ n k t w > : = o X X   $ # # # @ @ @ @ @ @ @ @ @ ",
"o o O O + + ; < 2 2 4 u u u p f f h z z c m N V Q @.;.^ N k e w : : = & X %   $ # # # @ @ @ @ @ @ @ @ @ ",
"O O O + + + ; 2 3 4 4 u u p f f S S m m m m N H Q $.&.! N k w w > : : & X % % $ # # @ # @ @ @ @ @ @ @ @ ",
"O O O ; + 5 3 4 4 4 u u p f g j S h D D m m M V ~ :.=.! n k t q : : = o X X     # # # @ @ @ @ @ @ @ @ @ ",
"O ; + 1 5 3 4 6 4 p u p a a g j S S D D m F B A ` >.O.I v k t q > : = = X X $ $ # # # # @ @ @ @ @ @ @ @ ",
"+ ; 1 6 6 9 4 0 u p p p g g g S S S D z M H H Y | >. .Z v k w 7 > = O X X   % $ # # # # @ @ @ @ @ @ @ @ ",
"; 5 9 0 4 0 u p p p a a g j S S D z n D M H V W @.>./ V v y w q : : : o X . % $ # # # @ @ @ @ @ @ @ @ @ ",
"5 9 9 9 0 u p p a a a g g j S S D m F F H J L ] 2.@.E N z s w 7 : : = o X . $ $ # @ # # @ @ @ @ @ @ @ @ ",
"0 9 9 0 e u s a a d g g c c S F F F G H V J ~ +.5.] K M l s q 7 , - o o o . . # # # # # @ @ @ @ @ @ @ @ ",
"w e e e p s s d d j x c c F c F m G G H H U } 5.$.W N v k e 8 5 , - * o X . . # # # # @ @ @ @ @ @ @ @ @ ",
"e e r d d d d g j j c c c c F F F G H K T { 1.1.` Z v z l w 8 5 , O o o X . $ # # # # @ @ @ @ @ @ @ @ @ ",
"d d d d x j x x x m c M M M M G H J J T ' 4.2.} P N v k s w 5 5 + , * o . . $ $ # # # @ @ @ @ @ @ @ @ @ ",
"v x v v v m c m v c M M M M B J J J T ' -.5.X.I N v l s e 9 7 : , o o o . # . # # # # @ @ @ @ @ @ @ @ @ ",
"y b v M b b b B N M M M B J J J U Q } 4.5.#.~ N v v d e w 6 5 : < + o o . . . # # @ # @ @ @ @ @ @ @ @ @ ",
"b V B B V V V V V B B C J U T Q ' %.5.5...! H N v k e e q q 5 : o o o . . . . # # # @ @ @ @ @ @ @ @ @ @ ",
"L L U A L L L U L L Y T R _ | $.4.5.=.| W V N v l r e q 9 : : ; < o o . . . # # # # @ # @ @ @ @ @ @ @ @ ",
"{ [  .[ [ [ [ [  .[ o.O.@.,.4.5.1.o._ U V M v d r e e 6 5 : ; + o o o . . # . # @ @ @ @ @ @ @ @ @ @ @ @ ",
"2.2.2.>.>.2.2.2.3.3.6.5.>.:.O.[ _ P V B b v l d w w 9 5 5 5 + = o o . . . . # # @ @ @ @ @ @ @ @ @ @ @ @ ",
" .[ [ [ [ [ [ [  .{ { ] ` _ E U V B N v x d e e 9 6 6 5 : : - O o o . . # . # # @ @ @ @ @ @ @ @ @ @ @ @ ",
"Z Z Z Z Z Z Z Z A A A A A C V b b v v k d e w e w 5 9 - ; : O o o . . . . # # # @ @ @ @ @ @ @ @ @ @ @ @ ",
"b b b b b b b b b b v b v b v v x r d r r e 6 5 5 5 5 : + + O X o . . . # # # # @ @ @ @ @ @ @ @ @ @ @ @ ",
"y b y y y y y y y r y y x l r e r e e e 0 8 6 9 5 : - + O O o X . . # . # # # # @ @ @ @ @ @ @ @ @ @ @ @ ",
"y r r r r r y r e r r r r e e e e w 6 6 5 9 5 5 ; - + O O o X X . . . # # # # # # @ # @ @ @ @ @ @ @ @ @ ",
"r e e e e w e r w e w e w w q 8 6 6 5 5 5 5 - - - O O O o X X . . . # . # # @ # # @ # @ @ @ @ @ @ @ @ @ ",
", 8 8 8 8 8 8 8 8 8 8 8 6 6 , , , , , , , , , o < o o o o . . . . $ # # # # # @ @ # # @ @ @ @ @ @ @ @ @ ",
"8 8 8 8 8 , 8 , , 8 , , , , , , , , , * , o o o o o o o . . . . $ $ $ # # # @ # # @ @ @ @ @ @ @ @ @ @ @ ",
", , , , , , , , , , , , , , , , o * o , o o o o o o o . . . . $ $ $ # # # @ # # @ @ @ @ @ @ @ @ @ @ @ @ ",
", , , , , , * , , , o * * * * o , o o o o o o . . . . . . $ $ $ # # # # # @ @ @ # @ @ @ @ @ @ @ @ @ @ @ ",
", - , * * - * * * o o o o o o o * . o o . * . . . # . # . # $ # # # # # @ @ # @ @ @ @ @ @ @ @ @ @ @ @ @ ",
"* * * * * o o o o o o o o . o . * . . . . . . # # . . # $ # $ # # # @ # @ # @ @ @ @ @ @ @ @ @ @ @ @ @ @ ",
"o o X X X X o o o . . . . . . . . . . . . # . . . # # # # # # # # # # # # @ @ @ @ @ @ @ @ @ @ @ @ @ @ @ ",
". X X . . . . . . . . . . # . . . . # # . # # # # # # . # # # # # # # @ @ @ # @ @ @ @ @ @ @ @ @ @ @ @ @ ",
". . . . . . . . $ $ . # . # # . # $ # . # # # # # # # # @ @ @ @ @ @ @ @ @ @ @ @ @ @ @ @ @ @ @ @ @ @ @ @ ",
". # . # # # # # $ # # # # # # # # # # # # # # # # # @ # @ @ @ @ @ @ @ @ @ @ @ @ @ @ @ @ @ @ @ @ @ @ @ @ ",
"# # . # # # # # # # # # # # # # # # @ @ # # # # # @ @ # @ @ @ @ @ @ @ @ @ @ @ @ @ @ @ @ @ @ @ @ @ @ @ @ ",
"# # # # # # @ @ # # # # # # # # @ # @ @ # # @ @ @ # @ @ @ @ @ @ @ @ @ @ @ @ @ @ @ @ @ @ @ @ @ @ @ @ @ @ ",
"# @ @ @ @ @ @ @ @ @ @ @ @ @ @ @ @ @ @ @ @ @ @ @ @ @ @ @ @ @ @ @ @ @ @ @ @ @ @ @ @ @ @ @ @ @ @ @ @ @ @ @ ",
"@ @ @ @ @ @ @ @ @ @ @ @ @ @ @ @ @ @ @ @ @ @ @ @ @ @ @ @ @ @ @ @ @ @ @ @ @ @ @ @ @ @ @ @ @ @ @ @ @ @ @ @ ",
"@ @ @ @ @ @ @ @ @ @ @ @ @ @ @ @ @ @ @ @ @ @ @ @ @ @ @ @ @ @ @ @ @ @ @ @ @ @ @ @ @ @ @ @ @ @ @ @ @ @ @ @ ",
"@ @ @ @ @ @ @ @ @ @ @ @ @ @ @ @ @ @ @ @ @ @ @ @ @ @ @ @ @ @ @ @ @ @ @ @ @ @ @ @ @ @ @ @ @ @ @ @ @ @ @ @ ",
"@ @ @ @ @ @ @ @ @ @ @ @ @ @ @ @ @ @ @ @ @ @ @ @ @ @ @ @ @ @ @ @ @ @ @ @ @ @ @ @ @ @ @ @ @ @ @ @ @ @ @ @ ",
"@ @ @ @ @ @ @ @ @ @ @ @ @ @ @ @ @ @ @ @ @ @ @ @ @ @ @ @ @ @ @ @ @ @ @ @ @ @ @ @ @ @ @ @ @ @ @ @ @ @ @ @ ",
"@ @ @ @ @ @ @ @ @ @ @ @ @ @ @ @ @ @ @ @ @ @ @ @ @ @ @ @ @ @ @ @ @ @ @ @ @ @ @ @ @ @ @ @ @ @ @ @ @ @ @ @ ",
"@ @ @ @ @ @ @ @ @ @ @ @ @ @ @ @ @ @ @ @ @ @ @ @ @ @ @ @ @ @ @ @ @ @ @ @ @ @ @ @ @ @ @ @ @ @ @ @ @ @ @ @ "
};
