/* XPM */
static char *result[] = {
/* columns rows colors chars-per-pixel */
"52 52 117 2 ",
"   c #271F4C",
".  c #291F4E",
"X  c #2D1E52",
"o  c #311D55",
"O  c #351C5A",
"+  c #391C5E",
"@  c #1D2241",
"#  c #212145",
"$  c #252049",
"%  c #28204D",
"&  c #2D2254",
"*  c #342057",
"=  c #35225B",
"-  c #3B225D",
";  c #3D1B62",
":  c #3D2361",
">  c #3D2862",
",  c #40255F",
"<  c #411765",
"1  c #401A65",
"2  c #451768",
"3  c #431D69",
"4  c #491F6D",
"5  c #432563",
"6  c #482765",
"7  c #442966",
"8  c #4A2966",
"9  c #46226B",
"0  c #4A246C",
"q  c #472B69",
"w  c #4C2A6A",
"e  c #532D6D",
"r  c #592F6E",
"t  c #52306C",
"y  c #5B316F",
"u  c #4E2373",
"i  c #4D2B72",
"p  c #522575",
"a  c #582777",
"s  c #542B74",
"d  c #5A2E74",
"f  c #562778",
"g  c #5A277A",
"h  c #562B79",
"j  c #5B2C7B",
"k  c #573070",
"l  c #5C3172",
"z  c #5E3279",
"x  c #602F77",
"c  c #622E7D",
"v  c #633375",
"b  c #6A3575",
"n  c #653B75",
"m  c #65327C",
"M  c #6A357B",
"N  c #6C3A7A",
"B  c #71377E",
"V  c #733A7D",
"C  c #7A3B7F",
"Z  c #76437D",
"A  c #78437E",
"S  c #622D80",
"D  c #643081",
"F  c #6C3481",
"G  c #723682",
"H  c #743981",
"J  c #7A3C81",
"K  c #774580",
"L  c #7E4582",
"P  c #7D4D84",
"I  c #7F5085",
"U  c #824483",
"Y  c #834A85",
"T  c #884887",
"R  c #894D88",
"E  c #825186",
"W  c #855489",
"Q  c #8A538C",
"!  c #85598A",
"~  c #885A8B",
"^  c #87608C",
"/  c #89628F",
"(  c #8C6590",
")  c #8C6991",
"_  c #926192",
"`  c #936B95",
"'  c #9A6C9A",
"]  c #9A729B",
"[  c #9C7B9F",
"{  c #A2729F",
"}  c #9D7BA1",
"|  c #A17DA2",
" . c #9F84A6",
".. c #A487A9",
"X. c #A58CAA",
"o. c #AC8AAC",
"O. c #AB93AF",
"+. c #AB95B0",
"@. c #AE9BB4",
"#. c #B091B1",
"$. c #B29BB6",
"%. c #BB9EBB",
"&. c #AEA5B8",
"*. c #AFABBA",
"=. c #B6A4BA",
"-. c #BDA7BF",
";. c #B2AEBC",
":. c #BAADBF",
">. c #B6B1BF",
",. c #BEADC0",
"<. c #B5B2C0",
"1. c #BBB5C2",
"2. c #BBBAC5",
"3. c #BEBEC8",
"4. c #C2B5C5",
"5. c #C4BCC9",
"6. c #C4C1CB",
/* pixels */
"@ @ @ @ @ @ @ @ # # . . . o * , , , 8 r r r r b C ` 2.[ A Z y y r e 0 0 5 5 + - + o o X X         @ @ @ ",
"@ @ @ @ @ @ @ @ # . $ . . o o , , , 6 6 r r b b A { 2.[ Y b b b d e w 0 6 5 : + O O o o X .       @ @ @ ",
"@ @ @ @ @ @ @ @ # # $ . . o * * , , 6 6 8 r b b A [ 1.[ U b b y d d e 8 0 5 1 - + O o o X X .     @ @ @ ",
"@ @ @ @ @ @ @ @ # # $ $ . o * , , , 6 8 8 r b b A ] 5.[ U b b b d a e 0 0 0 3 1 + + O O O X X .   @ @ @ ",
"@ @ @ @ @ @ @ @ # # . . . . * * , , 6 8 r r r b Z [ 1.[ U A b b x a s u 0 0 0 1 ; + + O O o O X . .     ",
"@ @ @ @ @ @ @ @ # $ # . . o * - , , 6 8 8 r r b Z  .1.[ L b b b x d s s 0 0 0 3 1 ; + + O o X X X   .   ",
"@ @ @ @ @ @ @ @ # # # . . o * * * , 6 8 r r r b Z [ 2.[ L V b b x d a s p 0 4 3 3 ; ; + + O O X X X . . ",
"@ @ @ @ @ @ @ @ # # # . . . * * , , , 8 r r b b Z [ >.{ L V b b d d s a a p 0 4 9 3 < < + + O O O X .   ",
"@ @ @ @ @ @ @ @ @ @ # $ . . o * - , , 6 w e y b Z [ 6. .L V b b x d d a a a u 0 4 ; 2 2 + ; O O O X X X ",
"@ @ @ @ @ @ @ @ @ @ $ $ $ o o o - , 6 e e r y b A  .>. .L V M x c x j a a u p p u 4 4 ; ; ; ; ; O O O O ",
"@ @ @ @ @ @ @ @ # # # $ $ . o * * , , 6 e e r v A { 6.o.U B M M m c x c a a p p u u 2 2 ; ; ; ; + + O O ",
"@ @ @ @ @ @ @ @ # # # $ . . o * * , , 6 w r x b A ' 2.+.R V B M c c c g a a p p u u u 2 2 2 3 ; ; ; + + ",
"@ @ @ @ @ @ @ @ # # $ $ $ . X o * - , , 8 e v v A ` 1.$.R C B M F c c c S u u S u u 4 4 3 3 3 3 ; ; : ; ",
"@ @ @ @ @ @ @ @ @ # # $ $ . . * - , , 8 e e r b V _ :.,._ T H M M F c c S S S u S u S u u u 4 3 2 ; ; ; ",
"@ @ @ @ @ @ @ @ # # # $ $ . X * * - , 6 w e l v V E o.4.| T J B F D S S S u S u S S 4 u u u u 9 2 3 3 9 ",
"@ @ @ @ @ @ @ @ # # # $ . . X o * + , , 8 w r v M L | 4.%.Q J H G F F S S S S S u u u S u u u u u u 9 9 ",
"@ @ @ @ @ @ @ @ # # # $ $ . . o - * , , 6 w r x b V _ 1.4.' U C H F F F m S S S j h h p h u p i i i i i ",
"@ @ @ @ @ @ @ @ # # # # . . . o o - , , 6 0 r l v V P o.5.%.Q C J H G F c m D S S S h h i h p h i i i i ",
"@ @ @ @ @ @ @ @ # # # # $ $ . o o - - , 5 w e d x B V _ =.5.' R J G N G F m F m D S h h h h h h h i i h ",
"@ @ @ @ @ @ @ @ # # # # $ . . o o * + , 5 5 e r y v V A | 5.4.' T J H G M m D F D z D h z h h h h h i i ",
"@ @ @ @ @ @ @ @ @ # # # $ . . X o O - , , 6 0 r d v b V W ..6.-.' T H G H M M M m m m m m z z d S i D i ",
"@ @ @ @ @ @ @ @ # # # # $ $ . . o o * + , , 8 e e d v M V ~ #.6.,.| Y J J G G F m m m m D m z m S D D D ",
"@ @ @ @ @ @ @ @ @ # # # $ $ . . X o O - , 5 8 0 w d l l m Z ! X.2.1.} ~ L J V B N n m m m M m m n D D n ",
"@ @ @ @ @ @ @ @ # # # # # $ $ . X o O - , 1 5 6 w e d l v b Z Y } ,.5.+.] W P J K H H N N N N N K n K D ",
"@ @ @ @ @ @ @ @ @ # # # #   . . . o o O + : : 5 6 w e e d v b n P ' $.3.1.@.} ` ~ W Q E P P I I I I I I ",
"@ @ @ @ @ @ @ @ @ # # # # # # . . X o O + - : 5 5 5 w e r d v v n Z W ] @.<.<.<.,.$.@.$.@.O.&.&.+.&.X.&.",
"@ @ @ @ @ @ @ @ @ # # # # #   . . X o o O - + : 5 9 6 w e s d l v n N Z W (  .O.=.&.>.<.>.;.2.<.<.2.<.*.",
"@ @ @ @ @ @ @ @ # @ @ # #   # . . . X o O + + : : 5 5 0 w w e d l l m m N V Z P ! ! ^ / / ) ) ) ) I I  .",
"@ @ @ @ @ @ @ @ @   @ # # # $ $ . . X o o O + ; : 5 : 6 5 w w s s d l l z v n v v N n N Z n n Z n Z n Z ",
"@ @ @ @ @ @ @ @ @ @ @ # # # # $   . . . X o o + ; ; : : 5 5 6 6 w e w k e k k l t l k k y y y t t t t n ",
"@ @ @ @ @ @ @ @ @ @ @ # # # # $ $ % . . X X X O O = = : 5 : : 7 6 7 7 w w w w e e t t e t t t t q t t t ",
"@ @ @ @ @ @ @ @ @ @ @ # # # # # $ % % . . X X X O + O ; ; : : : 5 5 5 7 6 7 7 7 q q w w q q q q q q q > ",
"@ @ @ @ @ @ @ @ @ @ @ @ @ @ @ @ $ $ $ . . . . o o o O O + + + , , , , , : : : : > > > > > > > > > > i > ",
"@ @ @ @ @ @ @ @ @ @ @ @ @ @ @ @ # $ $ $ $ $ . . . . o o o o - O O O - + : : > : : : = > : : : > > > > > ",
"@ @ @ @ @ @ @ @ @ @ @ @ @ # @ # # # # $ $ $ $ . . . X o o o o o * * * * = = = = = ; = = = = : : > & = > ",
"@ @ @ @ @ @ @ @ @ @ @ @ @ @ # @ # # # # $ $ $ . . . . . . X o o o o o O o & o o & & o & = = & = = & = & ",
"@ @ @ @ @ @ @ @ @ @ @ @ @ @ @ # @ # # # # $ # . # . . $ . . . X . X X X X X X X X X X & & & & & & & & & ",
"@ @ @ @ @ @ @ @ @ @ @ @ # @ @ @ # @ # # # # # # # # . # . $ . . % . . . . . X X X X     X   X & & & & & ",
"@ @ @ @ @ @ @ @ @ @ @ # # @ # @ # # # # # # # # # . # . # $ $ $ $ % $ $ %                             & ",
"@ @ @ @ @ @ @ @ @ @ @ @ @ @ @ @ @ @ @ @ # # # # # # # # # # $ # $ # $ $ @   % @ #     #                 ",
"@ @ @ @ @ @ @ @ @ @ @ @ @ @ @ @ # # @ @ # @ # # # # @ @ @ @ @ @ # # # # # #   # # #   @   @       $ $ $ ",
"@ @ @ @ @ @ @ @ @ @ @ @ @ @ @ @ @ @ @ # # @ @ # @ @ @ @ @ @ @ @ # # # # # # # # # # @   @   @ @ # # @ $ ",
"@ @ @ @ @ @ @ @ @ @ @ @ @ @ @ @ @ @ @ @ @ @ @ @ @ # @ @ @ @ @ @ @ # # # @ # # # # # # @ @     @ # # @ @ ",
"@ @ @ @ @ @ @ @ @ @ @ @ @ @ @ @ @ @ @ @ @ @ @ @ @ @ @ @ @ @ @ @ # @ @ # @ # @ @ @ @ @ @ @ @ @ @ @ @ @ @ ",
"@ @ @ @ @ @ @ @ @ @ @ @ @ @ @ @ @ @ @ @ @ @ @ @ @ @ @ @ @ @ @ @ @ @ @ @ @ @ @ @ @ @ @ @ @ @ @ @ @ @ @ @ ",
"@ @ @ @ @ @ @ @ @ @ @ @ @ @ @ @ @ @ @ @ @ @ @ @ @ @ @ @ @ @ @ @ @ @ @ @ @ @ @ @ @ @ @ @ @ @ @ @ @ @ @ @ ",
"@ @ @ @ @ @ @ @ @ @ @ @ @ @ @ @ @ @ @ @ @ @ @ @ @ @ @ @ @ @ @ @ @ @ @ @ @ @ @ @ @ @ @ @ @ @ @ @ @ @ @ @ ",
"@ @ @ @ @ @ @ @ @ @ @ @ @ @ @ @ @ @ @ @ @ @ @ @ @ @ @ @ @ @ @ @ @ @ @ @ @ @ @ @ @ @ @ @ @ @ @ @ @ @ @ @ ",
"@ @ @ @ @ @ @ @ @ @ @ @ @ @ @ @ @ @ @ @ @ @ @ @ @ @ @ @ @ @ @ @ @ @ @ @ @ @ @ @ @ @ @ @ @ @ @ @ @ @ @ @ ",
"@ @ @ @ @ @ @ @ @ @ @ @ @ @ @ @ @ @ @ @ @ @ @ @ @ @ @ @ @ @ @ @ @ @ @ @ @ @ @ @ @ @ @ @ @ @ @ @ @ @ @ @ ",
"@ @ @ @ @ @ @ @ @ @ @ @ @ @ @ @ @ @ @ @ @ @ @ @ @ @ @ @ @ @ @ @ @ @ @ @ @ @ @ @ @ @ @ @ @ @ @ @ @ @ @ @ ",
"@ @ @ @ @ @ @ @ @ @ @ @ @ @ @ @ @ @ @ @ @ @ @ @ @ @ @ @ @ @ @ @ @ @ @ @ @ @ @ @ @ @ @ @ @ @ @ @ @ @ @ @ "
};
