/* XPM */
static char *result[] = {
/* columns rows colors chars-per-pixel */
"52 52 117 2 ",
"   c #271F4C",
".  c #291F4E",
"X  c #2D1E52",
"o  c #311D55",
"O  c #351C5A",
"+  c #391C5E",
"@  c #1D2241",
"#  c #212145",
"$  c #252049",
"%  c #28204D",
"&  c #2D2254",
"*  c #342057",
"=  c #35225B",
"-  c #3B225D",
";  c #3D1B62",
":  c #3D2461",
">  c #3D2862",
",  c #40255F",
"<  c #411765",
"1  c #401A65",
"2  c #451768",
"3  c #431D69",
"4  c #491F6D",
"5  c #432563",
"6  c #482765",
"7  c #442966",
"8  c #4A2966",
"9  c #46226B",
"0  c #4A246C",
"q  c #472B69",
"w  c #4C2A6A",
"e  c #532D6D",
"r  c #592F6E",
"t  c #52306C",
"y  c #5B316F",
"u  c #4E2373",
"i  c #4D2B72",
"p  c #522575",
"a  c #582777",
"s  c #542B74",
"d  c #5A2E74",
"f  c #562778",
"g  c #5A277A",
"h  c #562B79",
"j  c #5B2C7B",
"k  c #573070",
"l  c #5C3172",
"z  c #5E3279",
"x  c #602F77",
"c  c #622E7D",
"v  c #633375",
"b  c #6A3575",
"n  c #653B75",
"m  c #65337C",
"M  c #6B357B",
"N  c #6C3A7A",
"B  c #71377E",
"V  c #733A7D",
"C  c #7A3B7F",
"Z  c #76437D",
"A  c #78437E",
"S  c #622D80",
"D  c #643081",
"F  c #6C3481",
"G  c #723682",
"H  c #743981",
"J  c #7A3C81",
"K  c #774580",
"L  c #7E4582",
"P  c #7D4D84",
"I  c #7F5085",
"U  c #824483",
"Y  c #834A85",
"T  c #884887",
"R  c #894D88",
"E  c #825186",
"W  c #855489",
"Q  c #8A538C",
"!  c #85598A",
"~  c #885A8B",
"^  c #87608C",
"/  c #89628F",
"(  c #8C6590",
")  c #8C6991",
"_  c #926192",
"`  c #936B95",
"'  c #9A6C9A",
"]  c #9A729B",
"[  c #9C7B9F",
"{  c #A2729F",
"}  c #9D7BA1",
"|  c #A17DA2",
" . c #9F84A6",
".. c #A487A9",
"X. c #A58CAA",
"o. c #AC8AAC",
"O. c #AB93AF",
"+. c #AB95B0",
"@. c #AE9BB4",
"#. c #B091B1",
"$. c #B29BB6",
"%. c #BB9EBB",
"&. c #AEA5B8",
"*. c #AFABBA",
"=. c #B6A4BA",
"-. c #BDA7BF",
";. c #B2AEBC",
":. c #BAADBF",
">. c #B6B1BF",
",. c #BEADC0",
"<. c #B5B2C0",
"1. c #BBB5C2",
"2. c #BBBAC5",
"3. c #BEBEC8",
"4. c #C2B5C5",
"5. c #C4BCC9",
"6. c #C4C1CB",
/* pixels */
"@ @ @ @ @ @ @ @ @ @ @ @ @ @ @ @ @ @ @ @ @ @ @ @ @ @ @ @ @ @ @ @ @ @ @ @ @ @ @ @ @ @ @ @ @ @ @ @ @ @ @ @ ",
"@ @ @ @ @ @ @ @ @ @ @ @ @ @ @ @ @ @ @ @ @ @ @ @ @ @ @ @ @ @ @ @ @ @ @ @ @ @ @ @ @ @ @ @ @ @ @ @ @ @ @ @ ",
"@ @ @ @ @ @ @ @ @ @ @ @ @ @ @ @ @ @ @ @ @ @ @ @ @ @ @ @ @ @ @ @ @ @ @ @ @ @ @ @ @ @ @ @ @ @ @ @ @ @ @ @ ",
"@ @ @ @ @ @ @ @ @ @ @ @ @ @ @ @ @ @ @ @ @ @ @ @ @ @ @ @ @ @ @ @ @ @ @ @ @ @ @ @ @ @ @ @ @ @ @ @ @ @ @ @ ",
"@ @ @ @ @ @ @ @ @ @ @ @ @ @ @ @ @ @ @ @ @ @ @ @ @ @ @ @ @ @ @ @ @ @ @ @ @ @ @ @ @ @ @ @ @ @ @ @ @ @ @ @ ",
"@ @ @ @ @ @ @ @ @ @ @ @ @ @ @ @ @ @ @ @ @ @ @ @ @ @ @ @ @ @ @ @ @ @ @ @ @ @ @ @ @ @ @ @ @ @ @ @ @ @ @ @ ",
"@ @ @ @ @ @ @ @ @ @ @ @ @ @ @ @ @ @ @ @ @ @ @ @ @ @ @ @ @ @ @ @ @ @ @ @ @ @ @ @ @ @ @ @ @ @ @ @ @ @ @ @ ",
"@ @ @ @ @ @ @ @ @ @ @ @ @ @ @ @ @ @ @ @ @ @ @ @ @ @ @ @ @ @ @ @ @ @ @ @ @ @ # # @ @ @ @ @ @ @ @ @ @ @ @ ",
"@ @ @ @ @ @ @ @ @ @ @ @ @ @ @ @ @ @ @ @ @ @ @ @ @ @ @ @ @ @ @ @ # # @ # # # # $ # # # # # # # # @ @ @ # ",
"@ @ @ @ @ @ @ @ @ @ @ @ @ @ @ @ @ @ # # @ # @ @ @ @ @ @ @ @ # # # # # # @ # # # # # # # $ # $ # @ @ # # ",
"@ @ @ @ @ @ @ @ @ @ @ @ @ @ @ @ @ @ @ # @ # # # @ @ @ @ # # # # # # # # # # # # # # $ $ $ $ # # # # # . ",
"@ @ @ @ @ @ @ @ @ @ @ @ @ @ @ @ @ @ @ # @ # # # @ @ @ @ # # # # # $ $ $ # # . # $ $ $ $ $ $ . . . . . . ",
"@ @ @ @ @ @ @ @ @ @ @ @ @ @ @ @ @ @ # @ # # # # # # # $ $ $ $ $ $ $ $ $ $ . $ $ . . . . . . . . . * . . ",
"@ @ @ @ @ @ @ @ @ @ @ @ @ @ @ @ @ @ # # # # # # $ # $ $ $ $ $ $ . $ . . . . . . . . * . X . o X . * * . ",
"@ @ @ @ @ @ @ @ @ @ @ @ @ @ @ @ # @ # # # $ # # $ $ $ . $ $ . . . . . . o . . o o o * * o * o o * o o * ",
"@ @ @ @ @ @ @ @ @ @ @ @ @ @ @ @ # # # # # $ $ $ . $ $ $ X X X X o o o o o o o o o * * * * * * * , , , * ",
"@ @ @ @ @ @ @ @ @ @ @ @ @ @ @ @ # # # $ . # . $ . . . X X o o o o o * * O * * - - * - - , , , , , , , , ",
"@ @ @ @ @ @ @ @ @ @ @ @ # # # # # # # $ # . . . . . X o o o o o - * * - - - - - - , , , , , , , , , , , ",
"@ @ @ @ @ @ @ @ @ @ @ @ @   # # # $ . $ . . . X X o o o * * + - + - - - , , , , , , , 6 8 8 8 , 8 8 6 8 ",
"@ @ @ @ @ @ @ @ @ @   @ @ @ # @ # # $ . . . X X o O O O + + - , : 5 5 5 , 6 6 6 8 6 8 8 8 8 8 , 8 8 8 8 ",
"@ @ @ @ @ @ @ @ @ @ @ @ $ @ $ # $ $ . . . . o o O O + < , , < , 5 6 6 6 8 8 w w e e e 8 e e 8 r e e 8 r ",
"@ @ @ @ @ @ @ @ @   @ @ @ # # $ $ $ . . . o o o O + , , , , , 6 6 8 8 w e e e e r e r e r r r r r r r r ",
"@ @ @ @ @ @ @ @ @ @ # @ $ @ @ $ $ $ . . X o O - - , , , 2 8 8 r e e e r e l l l v r y y v y y v v y y v ",
"@ @ @ @ @ @ @ @ @ @ @   @ $ $ $ . . . X o o + + ; , , , 6 0 8 r r y d d v b b b b v b b b b b b b b b b ",
"@ @ @ @ @ @ @ @ @ @   $ @ $ $ $ . . X X O O : ; , , 6 6 e 0 d r l v v b M V V V A A A Z Z Z Z Z A A Z Z ",
"@ @ @ @ @ @ @ @ @ @ @ @ @ $ $ $ . X X o O O : : 1 6 6 8 e s d v v B B V L E _ ` ] } |  .[ [ [ [  .{ ]  .",
"@ @ @ @ @ @ @ @ $ @ $ @ $ $ $ % . . X O O : ; 5 6 6 w 0 d l v b B V P Q | O.:.1.2.6.3.3.1.1.1.1.>.>.2.>.",
"@ @ @ @ @ @ @ @ @ @ @ @ $ $ $ $ . X O O O : 5 9 8 w e r l z b B L _ o.4.5.4.,.$.#.o.} } [ [ [ [  .{  . .",
"@ @ @ @ @ @ @ @ @ $ @ $ @ $     . o o ; ; : : 7 w e s l v b V W | ,.5.4.$.| _ R R Y U A U U A L L U L L ",
"@ @ @ @ @ @ @ @ @ @ @ $ $       X o o = : 5 7 w w e k z b Z ! ..5.5.%.' Q T U C V V V V V V V V V b V b ",
"@ @ @ @ @ @ @ @ $ @ $ @ @     X X o : O : : 6 w d e v b B ! #.6.4.' R U J J H B M M M M M b b b b b b n ",
"@ @ @ @ @ @ @ @ @ @ @ @ $     X X X : : : 5 w s k l v N I X.5.,.' T J J J G M M M M M M m m m x v v y y ",
"@ @ @ @ @ @ @ @ @ @ @           X = ; : : 5 w d k v N P } 2.4.' T J J G F F M F m m b j z x x x d j d d ",
"@ @ @ @ @ @ @ @ @ @ @   @     . o O = : 5 q w s z n Z ` 1.,.{ T J G H F F F M c c c z j j d d d s s e e ",
"@ @ @ @ @ @ @ @ @ @ @ @ $ $ . X o = = : 5 q w l b N E $.5.} Y V H G G F F m D c c x g a a s s s i w i i ",
"@ @ @ @ @ @ @ @ @ @ @   #   . X X = : : 5 w s l b K ] 3.+.! K H H F F F F D m j j j a s a s p 0 u i 9 > ",
"@ @ @ @ @ @ @ @ $ @ @ @ $ $ . X O = : : 7 w e z N I @.1.] L J H M F c m S c S g g a a p p p p 0 u > ; S ",
"@ @ @ @ @ @ @ @ @ @ $ $ $ . . X & = : : q w k v H ( >.@.W J H M M m m D S j j g a a p p e 0 0 9 u ; > ; ",
"@ @ @ @ @ @ @ @ @ @ @ $ @   . X X = : > q w k n K  .<.} P V H F D D S S S g g g a p p u 0 4 4 4 ; ; ; ; ",
"@ @ @ @ @ @ @ @ @   $ @     X X o = : 5 7 e k v P +.<.` J B M m F m D S j g g h p p p 4 4 6 3 ; ; ; + O ",
"@ @ @ @ @ @ @ @ @ @ $   @   X X & : : : 7 i k n ! =.,.! J M m m S S S f u S S 3 p 4 0 4 4 3 ; ; ; O O O ",
"@ @ @ @ @ @ @ @ @ $ @ $ $ &   X o = : > q w l N I &.$.Q J n m m S S f S S S 3 S u 4 4 3 3 1 ; + ; O O O ",
"@ @ @ @ @ @ @ @ @ @ $ @       o & : : 5 q e l n / <.@.Q H n m D S S S u 3 S 2 4 4 4 3 2 < ; + + O O X X ",
"@ @ @ @ @ @ @ @ @ $ @ $ $   X X & = : > q d y n / <.@.E N m v D S i u S u 2 S ; 4 2 2 1 ; + + O O O X X ",
"@ @ @ @ @ @ @ @ @ # # # $     X = = : > q e l N ) <.@.P N m m m i i S i ; S ; S ; 2 ; ; + + O O O O X X ",
"@ @ @ @ @ @ @ @ # @ # # $   X & & = > > 7 t l n ) *.+.I N M F z S i S i S u 2 ; 2 ; ; + + O O o X X     ",
"@ @ @ @ @ @ @ @ @ # #       & X & > > > q t l n ) 2.$.E N D z z S i u u 4 4 2 2 2 ; ; + O O o X         ",
"@ @ @ @ @ @ @ @ @ # # #     & & = = : > q t l n ` <.$.I N n z l i S i i S 4 2 ; ; ; + O o o X X         ",
"@ @ @ @ @ @ @ @ # # $ $     & & & = > > i > D D ) 3.&.I n m z z i S u u i i ; 3 ; + O O X X X           ",
"@ @ @ @ @ @ @ @ @ @ @ $     & & = = > > i i t n ) *.+.I N N z z i i S i 9 ; 3 ; ; + O O X X X   @ @ @ @ ",
"@ @ @ @ @ @ @ @ # # # #     & & & > > > q t n n ) *.*.I N m z h S i i > i 3 3 ; + O & & X X     @ @ @ @ ",
"@ @ @ @ @ @ @ @ @ # # @   & & & = > > > q t t K ) *.+.I H n z h i i i i 9 3 > ; ; + & & X       @ @ @ @ "
};
