/* XPM */
static char *result[] = {
/* columns rows colors chars-per-pixel */
"52 52 102 2 ",
"   c #1D2241",
".  c #1E2242",
"X  c #232445",
"o  c #2B264B",
"O  c #362952",
"+  c #422D5B",
"@  c #4F3064",
"#  c #5B346C",
"$  c #663774",
"%  c #6E3A7A",
"&  c #DBCDDD",
"*  c #743B7E",
"=  c #6F3A7A",
"-  c #673874",
";  c #5C346D",
":  c #4F3164",
">  c #362953",
",  c #282C4A",
"<  c #8B8D9D",
"1  c #232846",
"2  c #272C49",
"3  c #7F8294",
"4  c #AAACB7",
"5  c #FDFDFE",
"6  c #9D9FAC",
"7  c #66697E",
"8  c #FBFCFC",
"9  c #D2D3D9",
"0  c #303551",
"q  c #C7C8D0",
"w  c #3F435D",
"e  c #2A2F4C",
"r  c #ADAEBA",
"t  c #393E59",
"y  c #673875",
"u  c #503164",
"i  c #432D5C",
"p  c #372A53",
"a  c #2C264C",
"s  c #252446",
"d  c #202343",
"f  c #683875",
"g  c #5E356E",
"h  c #523166",
"j  c #462E5D",
"k  c #3B2B56",
"l  c #31284F",
"z  c #29264A",
"x  c #753C7E",
"c  c #703A7B",
"v  c #693876",
"b  c #603670",
"n  c #563368",
"m  c #4B2F61",
"M  c #402C5A",
"N  c #713B7C",
"B  c #6B3977",
"V  c #633672",
"C  c #5A346C",
"Z  c #513165",
"A  c #482F5F",
"S  c #723B7C",
"D  c #6D3979",
"F  c #60356F",
"G  c #58336A",
"H  c #753C7F",
"J  c #733B7D",
"K  c #6A3977",
"L  c #653773",
"P  c #956D9D",
"I  c #6E3F7A",
"U  c #763C7F",
"Y  c #684A79",
"T  c #9F77A6",
"R  c #8A5A92",
"E  c #503265",
"W  c #6D457B",
"Q  c #262547",
"!  c #2E274D",
"~  c #352952",
"^  c #3F2C59",
"/  c #5B346D",
"(  c #5C356E",
")  c #D7C8D9",
"_  c #392B54",
"`  c #A8A1B4",
"'  c #F5F1F6",
"]  c #212544",
"[  c #6C6E83",
"{  c #FAF9FB",
"}  c #FDFCFD",
"|  c #A0A1AF",
" . c #222545",
".. c white",
"X. c #A1A3B0",
"o. c #202543",
"O. c #2F3350",
"+. c #BDBFC8",
"@. c #434761",
"#. c #5B5F75",
"$. c #5F6278",
"%. c #242947",
/* pixels */
"                                . X o O + @ # $ % & & * = - ; : + > o X .                               ",
"                                . X o O + @ # $ % & & * = - ; : + > o X .                               ",
"                                . X o O + @ # $ % & & * = - ; : + > o X .                               ",
"                                . X o O + @ # $ % & & * = - ; : + > o X .                               ",
"                                . X o O + @ # $ % & & * = - ; : + > o X .                               ",
"                                . X o O + @ # $ % & & * = - ; : + > o X .                               ",
"                                . X o O + @ # $ % & & * = - ; : + > o X .                               ",
"                                . X o O + @ # $ % & & * = - ; : + > o X .   , < 1                       ",
"                  2 3           . X o O + @ # $ % & & * = - ; : + > o X .   4 5 6                       ",
"                  7 8 9         . X o O + @ # $ % & & * = - ; : + > o X .   0 q w                       ",
"                  e r t         . X o O + @ # $ % & & * = - ; : + > o X .                               ",
"                                . X o O + @ # $ % & & * = - ; : + > o X .                               ",
"                                . X o O + @ # $ % & & * = - ; : + > o X .                               ",
"                                . X o O + @ # $ % & & * = - ; : + > o X .                               ",
"                                . X o O + @ # $ % & & * = - ; : + > o X .                               ",
"                                . X o O + @ # $ % & & * = y ; u i p a s d . . . . . . . . . . . . . . . ",
"                                . X o O + @ # $ % & & * = f g h j k l z s X X X X X X X X X X X X X X X ",
"                                . X o O + @ # $ % & & x c v b n m M p l a o o o o o o o o o o o o o o o ",
"                                . X o O + @ # $ % & & x N B V C Z A M k p > > > > > > > > > > > > > > > ",
"                                . X o O + @ # $ % & & x S D - F G Z m j i + + + + + + + + + + + + + + + ",
"                                . X o O + @ # $ % & & H J = K L F C n h u : : : : : : : : : : : : : : : ",
"                                . X o O + @ P I % & & U * N % K - V b g ; ; ; ; ; ; ; ; ; ; ; ; ; ; ; ; ",
"                                . X o O + Y T R % & & U x J N = D B v f y - - - - - - - - - - - - - - - ",
"                                . X o O + E W $ % & & U H x * J S N c = = = = = = = = = = = = = = = = = ",
"                                . X o O + @ # $ % & & U U U U H x x x * * * * * * * * * * * * * * * * * ",
"                                . X o O + @ # $ % & & & & & & & & & & & & & & & & & & & & & & & & & & & ",
"                                  Q ! ~ ^ h / ( ( ) & & & & & & & & & & & & & & & & & & & & & & & & & & ",
"                                  Q ! ~ ^ h / ( ( ( % % % % % % % % % % % % % % % % % % % % % % % % % % ",
"                                  Q ! ~ ^ h / ( ( ( $ $ $ $ $ $ $ $ $ $ $ $ $ $ $ $ $ $ $ $ $ $ $ $ $ $ ",
"                                  Q ! ~ ^ h / / / / # # # # # # # # # # # # # # # # # # # # # # # # # # ",
"                                  Q ! ~ ^ h h h h h @ @ @ @ @ @ @ @ @ @ @ @ @ @ @ @ @ @ @ @ @ @ @ @ @ @ ",
"                                  Q ! ~ ^ ^ ^ ^ ^ ^ + + + + + + + + + + + + + + + + + + + + + + + + + + ",
"                                  Q ! ~ ~ ~ ~ ~ ~ ~ O O O O O O O O O O O O O O _ O O O O O O O O O O O ",
"                                  Q ! ! ! ! ! ! ! ! o o o o o o o o o o o o o o ` o o o o o o o o o o o ",
"                                  Q Q Q Q Q Q Q Q Q X X X X X X X X X X X X X X ' X X X X X X X X X X X ",
"                                                    . . . . . . . . . . . ] [ { } { |  .. . . . . . . . ",
"                                                                                ..                      ",
"                                                                                X.                      ",
"                                                                                o.                      ",
"                                                                                                        ",
"                                                                                                        ",
"                                                                                                        ",
"                                  O.+.2                                                                 ",
"                                  @...#.                                                                ",
"                                    $.%.                                                                ",
"                                                                                                        ",
"                                                                                                        ",
"                                                                                                        ",
"                                                                                                        ",
"                                                                                                        ",
"                                                                                                        ",
"                                                                                                        "
};
