/* XPM */
static char *result[] = {
/* columns rows colors chars-per-pixel */
"52 52 117 2 ",
"   c #271F4C",
".  c #291F4E",
"X  c #2D1E52",
"o  c #311D55",
"O  c #351C5A",
"+  c #391C5E",
"@  c #1D2241",
"#  c #212145",
"$  c #252049",
"%  c #28204D",
"&  c #2D2254",
"*  c #342057",
"=  c #35225B",
"-  c #3B225D",
";  c #3D1B62",
":  c #3D2361",
">  c #3D2862",
",  c #40255F",
"<  c #411765",
"1  c #401A65",
"2  c #451768",
"3  c #431D69",
"4  c #491F6D",
"5  c #432563",
"6  c #482765",
"7  c #442966",
"8  c #4A2966",
"9  c #46226B",
"0  c #4A246C",
"q  c #472B69",
"w  c #4C2A6A",
"e  c #532D6D",
"r  c #592F6E",
"t  c #52306C",
"y  c #5B316F",
"u  c #4E2373",
"i  c #4D2B72",
"p  c #522575",
"a  c #582777",
"s  c #542B74",
"d  c #5A2E74",
"f  c #562778",
"g  c #5A277A",
"h  c #562B79",
"j  c #5B2C7B",
"k  c #573070",
"l  c #5C3172",
"z  c #5E3279",
"x  c #602F77",
"c  c #622E7D",
"v  c #633375",
"b  c #6A3575",
"n  c #653B75",
"m  c #65327C",
"M  c #6A357B",
"N  c #6C3A7A",
"B  c #71377E",
"V  c #733A7D",
"C  c #7A3B7F",
"Z  c #76437D",
"A  c #78437E",
"S  c #622D80",
"D  c #643081",
"F  c #6C3481",
"G  c #723682",
"H  c #743981",
"J  c #7A3C81",
"K  c #774580",
"L  c #7E4582",
"P  c #7D4D84",
"I  c #7F5085",
"U  c #824483",
"Y  c #834A85",
"T  c #884887",
"R  c #894D88",
"E  c #825186",
"W  c #855489",
"Q  c #8A538C",
"!  c #85598A",
"~  c #885A8B",
"^  c #87608C",
"/  c #89628F",
"(  c #8C6590",
")  c #8C6991",
"_  c #926192",
"`  c #936B95",
"'  c #9A6C9A",
"]  c #9A729B",
"[  c #9C7B9F",
"{  c #A2729F",
"}  c #9D7BA1",
"|  c #A17DA2",
" . c #9F84A6",
".. c #A487A9",
"X. c #A58CAA",
"o. c #AC8AAC",
"O. c #AB93AF",
"+. c #AB95B0",
"@. c #AE9BB4",
"#. c #B091B1",
"$. c #B29BB6",
"%. c #BB9EBB",
"&. c #AEA5B8",
"*. c #AFABBA",
"=. c #B6A4BA",
"-. c #BDA7BF",
";. c #B2AEBC",
":. c #BAADBF",
">. c #B6B1BF",
",. c #BEADC0",
"<. c #B5B2C0",
"1. c #BBB5C2",
"2. c #BBBAC5",
"3. c #BEBEC8",
"4. c #C2B5C5",
"5. c #C4BCC9",
"6. c #C4C1CB",
/* pixels */
"@ @ @ @ @ @ @ @ @ @ @ @ @ @ @ @ @ @ @ @ @ @ @ @ @ @ @ @ @ @ @ @ @ @ @ @ @ @ @ @ @ @ @ @ @ @ @ @ @ @ @ @ ",
"@ @ @ @ @ @ @ @ @ @ @ @ @ @ @ @ @ @ @ @ @ @ @ @ @ @ @ @ @ @ @ @ @ @ @ @ @ @ @ @ @ @ @ @ @ @ @ @ @ @ @ @ ",
"@ @ @ @ @ @ @ @ @ @ @ @ @ @ @ @ @ @ @ @ @ @ @ @ @ @ @ @ @ @ @ @ @ @ @ @ @ @ @ @ @ @ @ @ @ @ @ @ @ @ @ @ ",
"@ @ @ @ @ @ @ @ @ @ @ @ @ @ @ @ @ @ @ @ @ @ @ @ @ @ @ @ @ @ @ @ @ @ @ @ @ @ @ @ @ @ @ @ @ @ @ @ @ @ @ @ ",
"@ @ @ @ @ @ @ @ @ @ @ @ @ @ @ @ @ @ @ @ @ @ @ @ @ @ @ @ @ @ @ @ @ @ @ @ @ @ @ @ @ @ @ @ @ @ @ @ @ @ @ @ ",
"@ @ @ @ @ @ @ @ @ @ @ @ @ @ @ @ @ @ @ @ @ @ @ @ @ @ @ @ @ @ @ @ @ @ @ @ @ @ @ @ @ @ @ @ @ @ @ @ @ @ @ @ ",
"@ @ @ @ @ @ @ @ @ @ @ @ @ @ @ @ @ @ @ @ @ @ @ @ @ @ @ @ @ @ @ @ @ @ @ @ @ @ @ @ @ @ @ @ @ @ @ @ @ @ @ @ ",
"@ @ @ @ @ @ @ @ @ @ @ @ @ @ @ @ @ @ @ @ @ @ @ @ @ @ @ @ @ @ @ @ @ @ @ @ @ @ @ @ @ @ @ @ @ @ @ @ @ @ @ @ ",
"@ @ @ # @ @ @ @ @ @ # @   @ @ @ # @ @ @ # @ @ @ @ @ @ @ @ @ # @ @ @ @ @ @ @ @ @ @ @ @ @ @ @ @ @ @ @ @ @ ",
"@ @ @ # # # # # $ @ # # @ @ @ # @ # # # @ @ # @ @ @ # # @ # @ @ @ @ # @ @ @ @ @ @ @ @ @ @ @ @ @ @ @ @ @ ",
"@ % $ @ @ # # # @ # # #   @   @   @ # # # # # # @ @ # @ @ # # @ # @ @ @ @ @ @ @ @ @ @ @ @ @ @ @ @ @ @ @ ",
"% @ $ % $ $ # #   #   # @   @ @   # # # # # # # @ @ @ # # @ # # @ # @ # @ @ # @ @ @ @ @ @ @ @ @ @ @ @ @ ",
"%         $   $   #   #         # @     # # # # # # # # # # # # @ # @ @ @ @ @ @ @ @ @ @ @ @ @ @ @ @ @ @ ",
"% % % %                                       #   #   # # # # @ # @ # @ @ @ @ @ @ @ @ @ @ @ @ @ @ @ @ @ ",
"& & & & & X   X &   &         X                       #   # # # # # # @ @ @ @ @ @ @ @ @ @ @ @ @ @ @ @ @ ",
"& & & & & & X & & & X X X X X & & &   & & %           #   #   # # # # @ @ @ @ @ @ @ @ @ @ @ @ @ @ @ @ @ ",
"= & = = = & & = & & o o o o o X & & O & X X X X % % .     $ $ @ # # # $ # # @ # @ @ @ @ @ @ @ @ @ @ @ @ ",
"> = > = : : = = : * : = = = - = O = O O O o o o X X . .   % % . # . # # # # # # @ @ @ @ @ @ @ @ @ @ @ @ ",
"> > > > > > > - = : : > > : - : + = O + - O O o o X X X . . % $ # # . # # # # # @ @ @ @ @ @ @ @ @ @ @ @ ",
"> > > > > > 7 > > > > : : : 5 > > > > : : + - = O O O X X . . . . . # # # # # # # @ # @ @ @ @ @ @ @ @ @ ",
"q t q q q q q q q q q q q 7 q 7 > > 5 5 : : : + ; X O o X X . . # . # # # # # # # @ @ @ @ @ @ @ @ @ @ @ ",
"t t t t t t t t i s w e w t w w > u q 7 9 : 5 : : ; : * ; X X . o # . . # # # # # @ # @ @ @ @ @ @ @ @ @ ",
"k t k l y k l l l k l k k k l e h t i q q 9 9 5 : : : ; ; X O X o . . . . # # # # @ @ @ @ @ @ @ @ @ @ @ ",
"Z n Z n n n n N n N N n v v v v j h k k e w w 7 9 : : O ; ; O O . o . . # . # # # # # @ @ @ @ @ @ @ @ @ ",
") ) ) ` ` ) ) ) ( ^ ! ! P Z B N n b z l s e e q q 9 5 1 : + = O o o . . . # # # @ @ @ @ @ @ @ @ @ @ @ @ ",
"*.*.*.2.>.2.*.>.<.;.&.=.+. ./ E K N m l l d e e q q 6 5 5 + + O o o o . . # # # @ @ @ @ @ @ @ @ @ @ @ @ ",
"+.+.@.+.$.&.+.@.$.@.=.:.<.>.;.$.] W Z N b v l s e 0 6 5 5 - - + o o o . . . # # @ @ @ @ @ @ @ @ @ @ @ @ ",
"I I I I E E I I Y Q ! ~ ` } @.2.3.$.` P n b l l r w w 6 5 , , - o o o . . # . # # # @ @ @ @ @ @ @ @ @ @ ",
"Z V N N b N N V N B H H K Y ! ' +.5.1.} Y N N v d s r w 9 5 5 + * * o o . . . # # # # @ @ @ @ @ @ @ @ @ ",
"z m M m m m b m m m n M B V C L Q } 1.2.X.! Z M v d r e w 6 5 , , o o o o . # # # # # @ @ @ @ @ @ @ @ @ ",
"z z z z m z m m m m m m M G G C J U | 4.5.#.! V b v d s e 0 5 5 , o o o . . . # # # # @ @ @ @ @ @ @ @ @ ",
"k z l z h z z m m m F m m F M G B C T ' ,.6...W B b d r r w 5 5 , , * o o . . # # # # # @ @ @ @ @ @ @ @ ",
"s s h h i S i S S i S S S D D D G G J T ' 4.5.| U V m y r 0 8 5 5 = + o o $ $ $ $ # @ # @ @ @ @ @ @ @ @ ",
"s i s s S i S i i S S S D D D D G F H J R ' 5.=._ C V d r e w 5 , - * o o . . $ $ # # # @ @ @ @ @ @ @ @ ",
"i i i s S u S 4 i S i S D D n D F G G J J Q %.5.o.P V v x r 8 5 , - = * o . $ $ # # # # @ @ @ @ @ @ @ @ ",
"9 i i i u u 3 S S i S S z D D D M M F G J U ' 4.4.~ V b y e e 6 , , - O o o $   $ # # # @ @ @ @ @ @ @ @ ",
"9 9 u u u S S 3 f p f f S S S D F F F G J J Q $.5.} L M v r e 6 5 , - o o X .   # # # # @ @ @ @ @ @ @ @ ",
"u > u ; ; ; ; S u p f S s h S S S M F F B J T | 4.O.E V v l e 6 5 , - o o X .   $ # # # @ @ @ @ @ @ @ @ ",
"; ; ; u ; ; u u u u u f h h h S c c M M M J U _ -.:._ V v l e e 6 , - - o X .   $ # # @ @ @ @ @ @ @ @ @ ",
"; ; ; > ; S ; u 4 u u p f h h h c c c F M M C R $.1.` Z b l e e 6 , - - * X . . $ # @ @ @ @ @ @ @ @ @ @ ",
"+ + + ; ; 2 2 2 4 4 u u f p f S j x x m M B V R O.3.] A b v r w 6 , , * * o . . $ # # # @ @ @ @ @ @ @ @ ",
"O O + + ; ; ; < ; 4 4 u u f f p j j c m m M V T o.6.{ A v r r r 8 , , , * o . . $ $ # # @ @ @ @ @ @ @ @ ",
"O O O O + ; ; < 2 4 4 u p p u f j j d m b M B L { 3. .A b r y 8 8 , , * * o . . $ # # # @ @ @ @ @ @ @ @ ",
"X X O O O + + ; 2 2 ; 4 4 u p f p j x x c M B U  .3.{ A b y y , 8 6 , , * o . . . # # # @ @ @ @ @ @ @ @ ",
"X X X X o O + + < < 3 3 4 4 p p a d d j b b V L [ 2.[ Z b v r r 8 , , , * * . . . $ # # @ @ @ @ @ @ @ @ ",
"  X X X o o O + + + 3 3 4 4 u p p d d x m b V L [ >.[ Z b y r r 8 6 , , * * o . . # # # @ @ @ @ @ @ @ @ ",
"  X X X X o O O + + + 3 3 4 4 0 p s d x m b V L  .>.[ Z b y y 8 8 6 , , * * o . $ $ # # @ @ @ @ @ @ @ @ ",
"        X o o o O + + ; , 4 0 0 0 s j d m b V A [ >. .Z b v y w 8 , , , * * o . $ $ # # @ @ @ @ @ @ @ @ ",
"@ @ @     X X X O O + + ; ; 0 0 0 s d d x b B L } 2.[ Z b v r t 8 6 , , * o o . . # # # # # @ @ @ @ @ @ ",
"@ @ @     X X X X O O + ; 2 5 9 0 e d d x b b L [ 2.[ Z b y r t r , , , , o o . . $ # # @ @ @ @ @ @ @ @ ",
"@ @ @       X X X O O O + ; ; 9 0 w s d x b V L [ 2.[ A b y r w , 6 , , , * o . . $ # # @ @ @ @ @ @ @ @ ",
"@ @ @ #       X X X O O ; ; ; 5 8 w e r y v B A [ 2.[ A b v r r r 6 , , , * o . . $ # # @ @ @ @ @ @ @ @ "
};
