/* XPM */
static char *result[] = {
/* columns rows colors chars-per-pixel */
"52 52 98 2 ",
"   c #1D2241",
".  c #282C4A",
"X  c #8B8D9D",
"o  c #232846",
"O  c #272C49",
"+  c #7F8294",
"@  c #AAACB7",
"#  c #FDFDFE",
"$  c #9D9FAC",
"%  c #66697E",
"&  c #FBFCFC",
"*  c #D2D3D9",
"=  c #303551",
"-  c #C7C8D0",
";  c #3F435D",
":  c #2A2F4C",
">  c #ADAEBA",
",  c #393E59",
"<  c #1E2242",
"1  c #232445",
"2  c #262547",
"3  c #2B264B",
"4  c #2E274D",
"5  c #362952",
"6  c #352952",
"7  c #422D5B",
"8  c #3F2C59",
"9  c #4F3064",
"0  c #A484AB",
"q  c #624373",
"w  c #523166",
"e  c #5B346C",
"r  c #6D457B",
"t  c #9F77A6",
"y  c #976E9E",
"u  c #5B346D",
"i  c #663774",
"p  c #673875",
"a  c #70427D",
"s  c #5C356E",
"d  c #6E3A7A",
"f  c #DBCDDD",
"g  c #D7C8D9",
"h  c #743B7E",
"j  c #753C7E",
"k  c #753C7F",
"l  c #763C7F",
"z  c #6F3A7A",
"x  c #703A7B",
"c  c #713B7C",
"v  c #723B7C",
"b  c #733B7D",
"n  c #673874",
"m  c #683875",
"M  c #693876",
"N  c #6B3977",
"B  c #6D3979",
"V  c #5C346D",
"C  c #5E356E",
"Z  c #603670",
"A  c #633672",
"S  c #6A3977",
"D  c #4F3164",
"F  c #503164",
"G  c #563368",
"H  c #5A346C",
"J  c #60356F",
"K  c #653773",
"L  c #432D5C",
"P  c #462E5D",
"I  c #4B2F61",
"U  c #513165",
"Y  c #58336A",
"T  c #212544",
"R  c #362953",
"E  c #372A53",
"W  c #3B2B56",
"Q  c #402C5A",
"!  c #482F5F",
"~  c #B2B4BE",
"^  c #2C264C",
"/  c #31284F",
"(  c white",
")  c #252446",
"_  c #29264A",
"`  c #202543",
"'  c #6C6F83",
"]  c #FCFCFD",
"[  c #A1A3B0",
"{  c #202343",
"}  c #3A3458",
"|  c #A99AB3",
" . c #483360",
".. c #4B4566",
"X. c #D8C8DB",
"o. c #665079",
"O. c #65577A",
"+. c #46315E",
/* pixels */
"                                                                                                        ",
"                                                                                                        ",
"                                                                                                        ",
"                                                                                                        ",
"                                                                                                        ",
"                                                                                                        ",
"                                                                                                        ",
"                                                                            . X o                       ",
"                  O +                                                       @ # $                       ",
"                  % & *                                                     = - ;                       ",
"                  : > ,                                                                                 ",
"                                                                                                        ",
"                                                                                                        ",
"                                                                                                        ",
"                                                                                                        ",
"                                                                                                        ",
"< < < < < < < < < < < < < < < < < < < < < < < < < <                                                     ",
"1 1 1 1 1 1 1 1 1 1 1 1 1 1 1 1 1 1 1 1 1 1 1 1 1 1 2 2 2 2 2 2 2 2 2                                   ",
"3 3 3 3 3 3 3 3 3 3 3 3 3 3 3 3 3 3 3 3 3 3 3 3 3 3 4 4 4 4 4 4 4 4 2                                   ",
"5 5 5 5 5 5 5 5 5 5 5 5 5 5 5 5 5 5 5 5 5 5 5 5 5 5 6 6 6 6 6 6 6 4 2                                   ",
"7 7 7 7 7 7 7 7 7 7 7 7 7 7 7 7 7 7 7 7 7 7 7 7 7 7 8 8 8 8 8 8 6 4 2                                   ",
"9 9 9 9 9 9 9 9 9 9 9 9 9 9 9 9 9 9 9 9 9 9 0 q 9 9 w w w w w 8 6 4 2                                   ",
"e e e e e e e e e e e e e e e e e e e e e r t y e e u u u u w 8 6 4 2                                   ",
"i i i i i i i i i i i i i i i i i i i i i p a i i i s s s u w 8 6 4 2                                   ",
"d d d d d d d d d d d d d d d d d d d d d d d d d d s s s u w 8 6 4 2                                   ",
"f f f f f f f f f f f f f f f f f f f f f f f f f f g s s u w 8 6 4 2                                   ",
"f f f f f f f f f f f f f f f f f f f f f f f f f f f d i e 9 7 5 3 1 <                                 ",
"h h h h h h h h h h h h h h h h h j j j k l l l l f f d i e 9 7 5 3 1 <                                 ",
"z z z z z z z z z z z z z z z z z x c v b h j k l f f d i e 9 7 5 3 1 <                                 ",
"n n n n n n n n n n n n n n n p m M N B z c b j l f f d i e 9 7 5 3 1 <                                 ",
"V V V V V V V V V V V V V V V V C Z A n S d c h l f f d i e 9 7 5 3 1 <                                 ",
"D D D D D D D D D D D D D D D F w G H J K S z b k f f d i e 9 7 5 3 1 <                                 ",
"7 7 7 7 7 7 7 7 7 7 7 7 7 7 7 L P I U Y J n B v j f f d i e 9 7 5 3 1 <         T                       ",
"R R R R R R R R R R R R R R R E W Q ! U H A N c j f f d i e 9 7 5 3 1 <         ~                       ",
"3 3 3 3 3 3 3 3 3 3 3 3 3 3 3 ^ / E Q I G Z M x j f f d i e 9 7 5 3 1 <         (                       ",
"1 1 1 1 1 1 1 1 1 1 1 1 1 1 1 ) _ / W P w C m z h f f d i e 9 7 5 3 1 <   ` ' ] ( ] [ T                 ",
"< < < < < < < < < < < < < < < { ) ^ E L F V p z h f f d i e 9 7 5 3 1 <         (                       ",
"                              < 1 3 R 7 D V n z h f f d i e 9 7 5 3 1 <         [                       ",
"                              < 1 3 R 7 D V n z h f f d i e 9 7 5 3 1 <         `                       ",
"                              < 1 3 R 7 D V n z h f f d i e 9 7 5 3 1 <                                 ",
"                              < 1 3 R 7 D V n z h f f d i e 9 7 5 3 1 <                                 ",
"                              < 1 3 R 7 D V n z h f f d i e 9 7 5 3 1 <                                 ",
"                              < 1 } |  .D V n z h f f d i e 9 7 5 3 1 <                                 ",
"                              < 1 ..X.o.D V n z h f f d i e 9 7 5 3 1 <                                 ",
"                              < 1 3 O.+.D V n z h f f d i e 9 7 5 3 1 <                                 ",
"                              < 1 3 R 7 D V n z h f f d i e 9 7 5 3 1 <                                 ",
"                              < 1 3 R 7 D V n z h f f d i e 9 7 5 3 1 <                                 ",
"                              < 1 3 R 7 D V n z h f f d i e 9 7 5 3 1 <                                 ",
"                              < 1 3 R 7 D V n z h f f d i e 9 7 5 3 1 <                                 ",
"                              < 1 3 R 7 D V n z h f f d i e 9 7 5 3 1 <                                 ",
"                              < 1 3 R 7 D V n z h f f d i e 9 7 5 3 1 <                                 ",
"                              < 1 3 R 7 D V n z h f f d i e 9 7 5 3 1 <                                 "
};
