/* XPM */
static char *result[] = {
/* columns rows colors chars-per-pixel */
"52 52 94 2 ",
"   c #1D2241",
".  c #1E2242",
"X  c #232445",
"o  c #2B264B",
"O  c #362953",
"+  c #422D5B",
"@  c #4F3164",
"#  c #5C346D",
"$  c #673874",
"%  c #6F3A7A",
"&  c #743B7E",
"*  c #DBCDDD",
"=  c #6E3A7A",
"-  c #663774",
";  c #5B346C",
":  c #4F3064",
">  c #362952",
",  c #282C4A",
"<  c #8B8D9D",
"1  c #232846",
"2  c #272C49",
"3  c #7F8294",
"4  c #AAACB7",
"5  c #FDFDFE",
"6  c #9D9FAC",
"7  c #66697E",
"8  c #FBFCFC",
"9  c #D2D3D9",
"0  c #303551",
"q  c #C7C8D0",
"w  c #3F435D",
"e  c #2A2F4C",
"r  c #ADAEBA",
"t  c #393E59",
"y  c #202343",
"u  c #252446",
"i  c #2C264C",
"p  c #372A53",
"a  c #432D5C",
"s  c #503164",
"d  c #673875",
"f  c #29264A",
"g  c #31284F",
"h  c #3B2B56",
"j  c #462E5D",
"k  c #523166",
"l  c #5E356E",
"z  c #683875",
"x  c #402C5A",
"c  c #4B2F61",
"v  c #563368",
"b  c #603670",
"n  c #693876",
"m  c #703A7B",
"M  c #753C7E",
"N  c #482F5F",
"B  c #513165",
"V  c #5A346C",
"C  c #633672",
"Z  c #6B3977",
"A  c #713B7C",
"S  c #58336A",
"D  c #60356F",
"F  c #6D3979",
"G  c #723B7C",
"H  c #653773",
"J  c #6A3977",
"K  c #733B7D",
"L  c #753C7F",
"P  c #7B4484",
"I  c #763C7F",
"U  c #743E7E",
"Y  c #7A4283",
"T  c #773E80",
"R  c #D7C8D9",
"E  c #5C356E",
"W  c #5B346D",
"Q  c #3F2C59",
"!  c #352952",
"~  c #2E274D",
"^  c #262547",
"/  c #212544",
"(  c #B2B4BE",
")  c white",
"_  c #202543",
"`  c #6C6F83",
"'  c #FCFCFD",
"]  c #A1A3B0",
"[  c #2F3350",
"{  c #BDBFC8",
"}  c #434761",
"|  c #5B5F75",
" . c #5F6278",
".. c #242947",
/* pixels */
"                              . X o O + @ # $ % & * * = - ; : + > o X .                                 ",
"                              . X o O + @ # $ % & * * = - ; : + > o X .                                 ",
"                              . X o O + @ # $ % & * * = - ; : + > o X .                                 ",
"                              . X o O + @ # $ % & * * = - ; : + > o X .                                 ",
"                              . X o O + @ # $ % & * * = - ; : + > o X .                                 ",
"                              . X o O + @ # $ % & * * = - ; : + > o X .                                 ",
"                              . X o O + @ # $ % & * * = - ; : + > o X .                                 ",
"                              . X o O + @ # $ % & * * = - ; : + > o X .     , < 1                       ",
"                  2 3         . X o O + @ # $ % & * * = - ; : + > o X .     4 5 6                       ",
"                  7 8 9       . X o O + @ # $ % & * * = - ; : + > o X .     0 q w                       ",
"                  e r t       . X o O + @ # $ % & * * = - ; : + > o X .                                 ",
"                              . X o O + @ # $ % & * * = - ; : + > o X .                                 ",
"                              . X o O + @ # $ % & * * = - ; : + > o X .                                 ",
"                              . X o O + @ # $ % & * * = - ; : + > o X .                                 ",
"                              . X o O + @ # $ % & * * = - ; : + > o X .                                 ",
". . . . . . . . . . . . . . . y u i p a s # d % & * * = - ; : + > o X .                                 ",
"X X X X X X X X X X X X X X X u f g h j k l z % & * * = - ; : + > o X .                                 ",
"o o o o o o o o o o o o o o o i g p x c v b n m M * * = - ; : + > o X .                                 ",
"O O O O O O O O O O O O O O O p h x N B V C Z A M * * = - ; : + > o X .                                 ",
"+ + + + + + + + + + + + + + + a j c B S D $ F G M * * = - ; : + > o X .                                 ",
"@ @ @ @ @ @ @ @ @ @ @ @ @ @ @ s k v V D H J % K L * * = - ; : + > o X .                                 ",
"# # # # # # # # # # # # # # # # l b C $ J = P M I * * = - ; : + > o X .                                 ",
"$ $ $ $ $ $ $ $ $ $ $ $ $ $ $ d z n Z F % U Y T I * * = - ; : + > o X .                                 ",
"% % % % % % % % % % % % % % % % % m A G K & I L I * * = - ; : + > o X .                                 ",
"& & & & & & & & & & & & & & & & & M M M L I I I I * * = - ; : + > o X .                                 ",
"* * * * * * * * * * * * * * * * * * * * * * * * * * * = - ; : + > o X .                                 ",
"* * * * * * * * * * * * * * * * * * * * * * * * * * R E E W k Q ! ~ ^                                   ",
"= = = = = = = = = = = = = = = = = = = = = = = = = = E E E W k Q ! ~ ^                                   ",
"- - - - - - - - - - - - - - - - - - - - - - - - - - E E E W k Q ! ~ ^                                   ",
"; ; ; ; ; ; ; ; ; ; ; ; ; ; ; ; ; ; ; ; ; ; ; ; ; ; W W W W k Q ! ~ ^                                   ",
": : : : : : : : : : : : : : : : : : : : : : : : : : k k k k k Q ! ~ ^                                   ",
"+ + + + + + + + + + + + + + + + + + + + + + + + + + Q Q Q Q Q Q ! ~ ^                                   ",
"> > > > > > > > > > > > > > > > > > > > > > > > > > ! ! ! ! ! ! ! ~ ^           /                       ",
"o o o o o o o o o o o o o o o o o o o o o o o o o o ~ ~ ~ ~ ~ ~ ~ ~ ^           (                       ",
"X X X X X X X X X X X X X X X X X X X X X X X X X X ^ ^ ^ ^ ^ ^ ^ ^ ^           )                       ",
". . . . . . . . . . . . . . . . . . . . . . . . . .                       _ ` ' ) ' ] /                 ",
"                                                                                )                       ",
"                                                                                ]                       ",
"                                                                                _                       ",
"                                                                                                        ",
"                                                                                                        ",
"                                                                                                        ",
"                                  [ { 2                                                                 ",
"                                  } ) |                                                                 ",
"                                     ...                                                                ",
"                                                                                                        ",
"                                                                                                        ",
"                                                                                                        ",
"                                                                                                        ",
"                                                                                                        ",
"                                                                                                        ",
"                                                                                                        "
};
