/* XPM */
static char *_e998edbcdab4ce4af9fec62f7274147qHxe7xvRBKZJDUlB[] = {
/* columns rows colors chars-per-pixel */
"50 50 2 1 ",
"  c #4800FF",
". c white",
/* pixels */
"                                                  ",
"                                                  ",
"                                                  ",
"                                                  ",
"                                                  ",
"                                                  ",
"                                                  ",
"                                                  ",
"                                                  ",
"                                                  ",
"                                                  ",
"                                                  ",
"                                                  ",
"                                                  ",
"                                                  ",
"                                                  ",
"                                                  ",
"                                                  ",
"                                                  ",
"                                                  ",
"                                                  ",
"                                                  ",
"                      ............................",
"                      ............................",
"                      ............................",
"                      ............................",
"                      ............................",
"                      ............................",
"                      ......                      ",
"                      ......                      ",
"                      ......                      ",
"                      ......                      ",
"                      ......                      ",
"                      ......                      ",
"                      ......                      ",
"                      ......                      ",
"                      ......                      ",
"                      ......                      ",
"                      ......                      ",
"                      ......                      ",
"                      ......                      ",
"                      ......                      ",
"                      ......                      ",
"                      ......                      ",
"                      ......                      ",
"                      ......                      ",
"                      ......                      ",
"                      ......                      ",
"                      ......                      ",
"                      ......                      "
};
