/* XPM */
static char *result[] = {
/* columns rows colors chars-per-pixel */
"52 52 239 2 ",
"   c #0C0812",
".  c #120B1B",
"X  c #190D24",
"o  c #1E1838",
"O  c #1D132B",
"+  c #261739",
"@  c #231131",
"#  c #61412B",
"$  c #1F1F40",
"%  c #231E42",
"&  c #2A1D45",
"*  c #2C1E4A",
"=  c #271846",
"-  c #341D4C",
";  c #381A4A",
":  c #2A1F53",
">  c #341D53",
",  c #3C1B54",
"<  c #381C5B",
"1  c #340D59",
"2  c #1D2241",
"3  c #212144",
"4  c #24234C",
"5  c #2A224C",
"6  c #2A2353",
"7  c #2B245A",
"8  c #282555",
"9  c #352455",
"0  c #391A65",
"q  c #3F0E73",
"w  c #2E2763",
"e  c #362667",
"r  c #3B2B75",
"t  c #3C2C78",
"y  c #3D3378",
"u  c #431B55",
"i  c #441A5C",
"p  c #4D185C",
"a  c #54195F",
"s  c #47295B",
"d  c #4C1964",
"f  c #481969",
"g  c #531664",
"h  c #58176A",
"j  c #431C72",
"k  c #4A1B73",
"l  c #491977",
"z  c #591779",
"x  c #62166D",
"c  c #691678",
"v  c #76197D",
"b  c #43256B",
"n  c #45247A",
"m  c #4D317C",
"M  c #6C2779",
"N  c #75287C",
"B  c #773376",
"V  c #713055",
"C  c #78465C",
"Z  c #645269",
"A  c #D56A2B",
"S  c #982C6B",
"D  c #9F675C",
"F  c #C3695C",
"G  c #976826",
"H  c #AC862C",
"J  c #F48D19",
"K  c #F4B21B",
"L  c #CEBA37",
"P  c #DF9D2B",
"I  c #F8C61D",
"U  c #EED530",
"Y  c #FEED31",
"T  c #B49257",
"R  c #A28F60",
"E  c #C5AC48",
"W  c #34378A",
"Q  c #581C82",
"!  c #4C1F81",
"~  c #671B82",
"^  c #7A1A82",
"/  c #4A2884",
"(  c #532D8A",
")  c #592786",
"_  c #4C3A8B",
"`  c #4A3487",
"'  c #523A8E",
"]  c #563589",
"[  c #593A90",
"{  c #672888",
"}  c #772886",
"|  c #6C348C",
" . c #67368D",
".. c #733B8E",
"X. c #77388C",
"o. c #753B91",
"O. c #7C3D90",
"+. c #673D97",
"@. c #3A4A98",
"#. c #37529E",
"$. c #2B4798",
"%. c #3B5CA4",
"&. c #3857A1",
"*. c #3D64A9",
"=. c #574288",
"-. c #5A4494",
";. c #494F99",
":. c #664797",
">. c #794596",
",. c #7C549B",
"<. c #75539D",
"1. c #714D90",
"2. c #4A5BA2",
"3. c #795AA4",
"4. c #6C56A3",
"5. c #436BAE",
"6. c #4679B8",
"7. c #5E70B4",
"8. c #7A64A7",
"9. c #6675B1",
"0. c #706FAD",
"q. c #821E84",
"w. c #862A86",
"e. c #8C328A",
"r. c #86398B",
"t. c #95388D",
"y. c #843D90",
"u. c #8B3E91",
"i. c #933F91",
"p. c #993E91",
"a. c #B3378C",
"s. c #C63C8F",
"d. c #864797",
"f. c #9B4594",
"g. c #984695",
"h. c #84599D",
"j. c #955697",
"k. c #975D82",
"l. c #A34493",
"z. c #A5549C",
"x. c #B44D99",
"c. c #8F639C",
"v. c #875CA1",
"b. c #955CA1",
"n. c #AC5CA3",
"m. c #8B63A4",
"M. c #8667A9",
"N. c #9768A6",
"B. c #9B73AD",
"V. c #9474AD",
"C. c #977CB4",
"Z. c #8974B0",
"A. c #A76AA7",
"S. c #A875AB",
"D. c #A47CB4",
"F. c #BC7BB2",
"G. c #B67AB2",
"H. c #B36EAA",
"J. c #AC779E",
"K. c #D14F97",
"L. c #CC70AB",
"P. c #E66EA7",
"I. c #7A88BD",
"U. c #4D9DD3",
"Y. c #5B9ED3",
"T. c #4E8CC6",
"R. c #688CC1",
"E. c #4CA7DB",
"W. c #57BDDC",
"Q. c #55A8D9",
"!. c #6DABD8",
"~. c #54B3E1",
"^. c #65B7E4",
"/. c #6EC4DE",
"(. c #76C5E9",
"). c #69C2E4",
"_. c #9B85B9",
"`. c #8E84B1",
"'. c #AA8CBD",
"]. c #A686B9",
"[. c #B986B8",
"{. c #AD94BC",
"}. c #B690BE",
"|. c #BDA5AF",
" X c #AB9287",
".X c #C88ABA",
"XX c #C791BE",
"oX c #E690BA",
"OX c #9398C5",
"+X c #AD92C1",
"@X c #AF98C3",
"#X c #B699C4",
"$X c #AA87C0",
"%X c #BBA4CA",
"&X c #AFAACE",
"*X c #C999C3",
"=X c #D698C4",
"-X c #EB9EC3",
";X c #C6A8CC",
":X c #D9ABCB",
">X c #C9ADD1",
",X c #C9B6D5",
"<X c #D5B9D6",
"1X c #DAAFD1",
"2X c #E7BAD6",
"3X c #EBB5D3",
"4X c #89CBE7",
"5X c #98D4E6",
"6X c #94CFE8",
"7X c #A7D6EC",
"8X c #B6DCF2",
"9X c #A1CFEE",
"0X c #98E2F2",
"qX c #BBE1EF",
"wX c #86CFDF",
"eX c #DBC3DD",
"rX c #D6CEDA",
"tX c #CDC3DB",
"yX c #E5C9DD",
"uX c #F2C8DE",
"iX c #DCCAE2",
"pX c #DFD0E3",
"aX c #E5CDE2",
"sX c #EBDDEC",
"dX c #E9D7E7",
"fX c #F4D9E8",
"gX c #F0CCE1",
"hX c #C4E5EE",
"jX c #DBEEF5",
"kX c #C8E6F3",
"lX c #EDE1ED",
"zX c #F3E2ED",
"xX c #EBE4F1",
"cX c #F5EDF5",
"vX c #FAEDF4",
"bX c #F7E3F2",
"nX c #FFFEFE",
"mX c #F9F2F7",
"MX c #ECF6F8",
/* pixels */
"2 2 2 2 2 2 2 2 2 2 2 2 2 2 2 2 2 2 2 2 2 2 2 2 2 2 2 2 2 2 2 2 2 2 2 2 2 2 2 2 2 2 2 2 2 2 2 2 2 2 2 2 ",
"2 2 2 2 2 2 2 2 2 2 2 2 2 2 2 2 2 2 2 2 2 2 2 2 $ 3 3 2 2 $ 2 2 2 2 2 2 2 2 2 2 2 2 2 2 2 2 2 2 2 2 2 2 ",
"2 2 2 2 2 2 2 2 2 2 2 2 2 2 2 2 2 2 2 2 o 3 3 3 3 & 3 & & % + 2 $ $ 2 2 2 2 2 2 2 2 2 2 2 2 2 2 2 2 2 2 ",
"2 2 2 2 2 2 2 2 2 2 2 2 2 2 2 2 2 2 o % & & - > > u u u , > * % % 3 + 2 2 2 2 2 2 2 2 2 2 2 2 2 2 2 2 2 ",
"2 2 2 2 2 2 2 2 2 2 2 2 2 2 o % % % * - , i f h h h h g h g p u > - & 3 2 $ 2 $ 2 2 2 2 2 2 2 2 2 2 2 2 ",
"2 2 2 2 2 2 2 2 2 2 2 2 2 3 3 * > < d f h z c c M } N M B M M h h d u - & 3 $ $ 2 2 2 2 2 2 2 2 2 2 2 2 ",
"2 2 2 2 2 2 2 2 2 2 2 o % & > < h x z ~ } | o.O.>.>.>.X.B X.N N X.v x g u ; & 3 2 2 2 2 2 2 2 2 2 2 2 2 ",
"2 2 2 2 2 2 2 2 2 2 2 % * < f z ~ { y.j.d.>.<.3.Z.Z.3.3.<.>.j.j.S e.w.v c g , & 2 2 2 2 2 2 2 2 2 2 2 2 ",
"2 2 2 2 2 2 2 $ $ $ % > 0 z c M d.A.b.>.4.`.5X0X4XwXwXW.Y.R.4.d.A.N.l.S w.v x u - 3 2 2 2 2 2 2 2 2 2 2 ",
"2 2 2 2 2 2 2 $ $ = : f z c d.A.b.d.o.Z.6X5X/.5XhXkXqX/.W.W.Q.9.X.j.].F.i.e.^ x u * + % 2 2 2 2 2 2 2 2 ",
"2 2 2 2 2 $ $ % = < f Q } h.N.>.{ | 0.0X5X5X7X7XkXhX5X/.W.W.~.E.7.| r.A.XXl.e.w.x u & 3 2 2 2 2 2 2 2 2 ",
"2 2 2 2 2 $ $ * 0 l Q X.G.c.N { { 4.4X7XkXjXhX5X5XwX(.).~.~.E.E.E.7.| } j.XXz.e.w.x u & 2 2 2 2 2 2 2 2 ",
"2 2 2 2 2 2 * 0 l ) X.[.A.M { Q -.!.8XxXjXjXkX7X6X(.).^.~.~.E.E.E.6.-.} } l.=Xz.w.v x ; & + 3 2 2 2 2 2 ",
"2 2 2 2 2 2 > l ) { [.S.{ ) z ] R.!.jXMX8XkX8X4X(.(.).^.E.E.E.E.*.%.%.( ~ ~ f.=Xl.w.v a ; + 3 $ 2 2 2 2 ",
"2 2 2 2 2 : 0 ! { S.[.| n l l 7.^.!.8X8X8X8X6X(.(.).Q.Q.E.E.U.*.*.%.%.;.n h w.z.*Xt.q.x p ; = $ 2 2 2 2 ",
"2 2 2 2 4 < l ( d.XXO.{ 1 l [ R.T.Y.4X9X9X4X^.^.^.^.E.E.E.T.*.*.%.%.%.&._ 1 q.w.n.F.q.S x u & + 2 2 2 2 ",
"2 2 2 $ 7 0 m | XXb. .) b _._.7.5.6.Y.!.Y.Y.Y.Y.Y.U.T.6.*.*.*.%.%.&.&.$.0._.N } e..Xl.q.c g 1 = 2 2 2 2 ",
"2 2 2 : 0 l ) N.[. .] M |.mX,X2.;.2.5.6.T.T.T.5.*.%.*.%.*.%.%.%.*.%.$.;.&XnX<X} w.z..Xe.S x u + + 2 2 2 ",
"2 2 $ : 0 /  .XXb.) m <XxXmXpX4.W $.@.#.#.%.#.#.%.%.%.%.%.%.#.#.$.W 2.&XzXaX>X1Xj.w..Xz.q.c p ; 3 2 2 2 ",
"2 2 $ : n _ c.:Xd.m rXmXsXaXbX>X0.4.2.;.2.#.2.%.%.&.#.#.$.#.%.9.OX&X,XsXdX:XyXfXvXF.j.L.w.v a ; & 2 2 2 ",
"2 2 $ w m  .}..XZ 3XbXgX=XeXsXvXaXtX&X&XOXI.0.9.9.9.9.I.OXtXrXrXaXsXfXeX>X-X2X2X*Xx.z.].p.^ h u & 2 2 2 ",
"2 $ : e =.1.1Xc.:XfXuXL.p.>XlXbXmXmXnXnXnXnXfXvXzXvXsXaXpXpXaXyXeXeX<X#X%X-XoXL.x.w.:.$Xj.w.c p & % 2 2 ",
"2 $ 4 r =.h.:X*X-XoXL.x.~ &XxXbXbXcXvXcXmXfXdXyXfXfXuXfXyXyXyXeXeX<X#X'.+XXXK.K.a.y.8.Z.D.} v p ; 3 2 2 ",
"2 2 6 r m h.{.dXoXK.s.q.d.tXsXsXxXvXmXmXmXsXuXuXuX3X.Xz.<XyXeXeX>X%X'.$X].$X[.H.b.D._.C.V.X.c g - 3 + 2 ",
"2 2 7 r ` c.iX,XeX=XL.*XeXsXsXsXcXmXmXmXvXdXuX-X-XL.p.l aXaX<X*X#X'.'.].]._._._._.`.`.M.N.w.v g - & 2 2 ",
"2 2 7 t ` N.$X%X<XeXaXsXbXsXsXxXmXcXcXmXcXaXuXP.K.a.w.<.dX>X#X+X'.'.'.'.]._._.C._.C.8.) A.t.v g - & % 2 ",
"2 2 7 t ` B.D.M.C.,XbXvXxXxXxXcXcXcXcXcXcX<XaX1XL.n..X;X;X#X@X+X+X'.].]._._._.Z.8.:.z D T e.v g , & % 2 ",
"2 4 7 t ` B.;X] M.M._.+X>XiXsXmXmXMXmXcXbXtX,XeXiX>X;X#X+X+X+X+X+X+X_._.V.8.,.:.( z D J K D N g - 3 2 2 ",
"2 2 7 y ` B.:XH P D 3.4.M.V.].,XiXiXdXsXdX>X1X;X#X@X#X@X#X$X]._.V.M.m.v.+.[ ) f z S J J K U z g - 3 2 2 ",
"2 2 7 y _ N. XI K A F j.<.<.<.,.A.G.S.'.D.B.V.V.V.V.N.m.v.v.3.v.,.,.,.+.( = , d c V A J I U C i - + 2 2 ",
"2 2 7 y _ 1.T Y K A A u O + - s M.B.B.N.m.N.N.m.v.v.,.m.v.v.,.,.,.<.= @ X + , h ~ } S P I U D u 5 % 2 2 ",
"2 2 2 w ` =.L Y K P s 0 O       @ d.b.N.N.N.N.m.m.m.m.m.,.,.,.d.d.y..   . ; d z ^ y.g.D U U V u 5 2 2 2 ",
"2 2 4 w W ` R Y K G / q = .       u.e.p.g.f.l.l.j.p.l.f.g.f.g.g.u.u.X . @ 1 g ~ } e.z.S.Y L g 1 3 2 2 2 ",
"2 2 2 7 r ` Z Y K # ( W < O     X g.u.u.p.p.p.p.p.x.p.l.p.f.t.u.u.y.@ @ ; d z c } e.F.j.L C p ; 2 2 2 $ ",
"2 2 2 8 w W ' R U =._ / 0 = X   X g.y.y.u.i.i.g.i.p.f.p.p.i.u.y.y.y.; ; i h ~ ~ } g.*Xe.B z i * 2 2 2 2 ",
"2 2 2 2 7 t _ :. X1._ ` / 0 o . @ >.y.y.y.u.u.u.u.u.i.u.u.y.y.O.O.O.o.u f z ~ { w.G.H.w.c h > = 2 2 2 2 ",
"2 2 2 2 8 w W ` C.#X[ _ / / 0 % + >.O.o.O.y.y.y.y.y.y.y.y.O.O.O.....o.f z ~ { } g.*Xy.^ x d * % 2 2 2 2 ",
"2 2 2 2 2 w r ` -.;X_.] ' [ / 0 { o.o.o.o.O.o.o.y.O.O.O.O.O.O.o.| | { z Q { X.y.*Xg.} z d , & 2 2 2 2 2 ",
"2 2 2 2 2 8 w W _ 1.<XD.:.-.-.` Q {  .| | o.o.o.o.o.o.>...o... .{ { Q z { | y.*XA.} M f < * 3 2 2 2 2 2 ",
"2 2 2 2 2 4 4 w y =.M.fX}.1.-.] k l Q ) { { | | | | | |  .{ { ) Q l Q ) | y.XXL.y.{ z d - % 2 2 2 2 2 2 ",
"2 2 2 2 2 2 2 4 w y =._.zX}.1.=._ / n l z Q Q Q Q ) ) ) Q Q l l z ) | X.d.XXL.X.| z f > 3 2 2 2 2 2 2 2 ",
"2 2 2 2 2 2 2 2 4 w m ;.V.rX;X1.' ' ( / l t j t j j j q j l ! ) ] ..u.H.:XG.O.X.c f < & 3 2 2 2 2 2 2 2 ",
"2 2 2 2 2 2 2 2 2 8 w y =.1.#X1XV.:.' _ ` ( ( ( / / ! ! ! Q )  .| z.XX:Xn.X.| { l , * % 2 2 2 2 2 2 2 2 ",
"2 2 2 2 2 2 2 2 2 2 4 w y _ ' 8.#X;XD.<.[ [ [ ] ] ( ( ( ) ) | b.*X1XG.d.|  .Q l < * % $ 2 2 2 2 2 2 2 2 ",
"2 2 2 2 2 2 2 2 2 2 2 4 8 r W _ _ <.'.*X;X].V.m.v.,.v.v.N.G.[.[.A.d.|  . .! l < * 3 2 2 2 2 2 2 2 2 2 2 ",
"2 2 2 2 2 2 2 2 2 2 2 2 2 8 w r ` ` _ -.v.B.].}.+X[.$XG.B.v.o.] ) ] [ ) k 0 , * & 2 2 2 2 2 2 2 2 2 2 2 ",
"2 2 2 2 2 2 2 2 2 2 2 2 2 4 4 7 e r t n / ` ` ] ] ] [ ( ) / ) ( ) k k b < - * % 3 2 2 2 2 2 2 $ 2 2 2 2 ",
"2 2 2 2 2 2 2 2 2 2 2 2 2 2 2 4 4 7 7 w e r t / n / / / / n e b b e > * 5 % 3 2 2 2 2 2 2 2 2 2 2 2 2 2 ",
"2 2 2 2 2 2 2 2 2 2 2 2 2 2 2 2 2 2 2 4 8 8 w w e e e e e b 9 9 9 5 % 3 3 3 2 2 2 2 2 2 2 2 2 2 2 2 2 2 ",
"2 2 2 2 2 2 2 2 2 2 2 2 2 2 2 2 2 2 2 2 2 2 4 4 5 5 5 6 5 5 5 5 % 2 3 2 2 2 2 2 2 2 2 2 2 2 2 2 2 2 2 2 ",
"2 2 2 2 2 2 2 2 2 2 2 2 2 2 2 2 2 2 2 2 2 2 2 2 2 4 3 3 4 3 3 3 2 2 2 2 2 2 2 2 2 2 2 2 2 2 2 2 2 2 2 2 ",
"2 2 2 2 2 2 2 2 2 2 2 2 2 2 2 2 2 2 2 2 2 2 2 2 2 2 2 2 2 2 2 2 2 2 2 2 2 2 2 2 2 2 2 2 2 2 2 2 2 2 2 2 "
};
