/* XPM */
static char *result[] = {
/* columns rows colors chars-per-pixel */
"52 52 228 2 ",
"   c #0D0713",
".  c #0B0811",
"X  c #140A1B",
"o  c #130619",
"O  c #19101F",
"+  c #1E0025",
"@  c #1B0924",
"#  c #1C1222",
"$  c #1E1F3F",
"%  c #210025",
"&  c #22002C",
"*  c #240D2F",
"=  c #29152F",
"-  c #26142D",
";  c #250033",
":  c #290136",
">  c #260139",
",  c #2A013C",
"<  c #2E0C3D",
"1  c #2B1836",
"2  c #34163C",
"3  c #321A38",
"4  c #30023F",
"5  c #1F1F40",
"6  c #2C0044",
"7  c #2E004A",
"8  c #2F0B4A",
"9  c #320343",
"0  c #330B45",
"q  c #32014C",
"w  c #340A4A",
"e  c #390A4C",
"r  c #231E42",
"t  c #2A1D45",
"y  c #2C1E4A",
"u  c #231F49",
"i  c #3C1943",
"p  c #341D4C",
"a  c #3A1C4D",
"s  c #3A1449",
"d  c #330153",
"f  c #3A0255",
"g  c #36005B",
"h  c #3B025C",
"j  c #3A0A5B",
"k  c #3A0B53",
"l  c #2A1F53",
"z  c #341D53",
"x  c #3C1C54",
"c  c #341D5C",
"v  c #3B1C5B",
"b  c #3F1053",
"n  c #1D2241",
"m  c #212144",
"M  c #24234C",
"N  c #2A224C",
"B  c #2A2353",
"V  c #2B245A",
"C  c #282555",
"Z  c #352458",
"A  c #3B2142",
"S  c #3A0064",
"D  c #3D006B",
"F  c #3B0463",
"G  c #3C1765",
"H  c #2E2763",
"J  c #352766",
"K  c #3B2B75",
"L  c #3E2D79",
"P  c #392A72",
"I  c #3D3378",
"U  c #42164E",
"Y  c #431A4C",
"T  c #401C47",
"R  c #41045D",
"E  c #440A5B",
"W  c #460C59",
"Q  c #431B55",
"!  c #441A5C",
"~  c #4A1957",
"^  c #531A5F",
"/  c #45234B",
"(  c #4C2252",
")  c #54295B",
"_  c #450562",
"`  c #430A63",
"'  c #4B0C65",
"]  c #4D0A6B",
"[  c #4B0768",
"{  c #520E6D",
"}  c #4D1464",
"|  c #4C166A",
" . c #461767",
".. c #531663",
"X. c #53146B",
"o. c #5D156B",
"O. c #561A67",
"+. c #410074",
"@. c #4F0E7C",
"#. c #530D70",
"$. c #5B0E79",
"%. c #491C73",
"&. c #461A75",
"*. c #531473",
"=. c #5C1474",
"-. c #5D1A75",
";. c #5D147A",
":. c #57197D",
">. c #62166D",
",. c #631572",
"<. c #6A1274",
"1. c #641A74",
"2. c #68197B",
"3. c #751C7D",
"4. c #76157C",
"5. c #42236B",
"6. c #5A2167",
"7. c #47257C",
"8. c #5C297C",
"9. c #42377B",
"0. c #5F3166",
"q. c #6B237B",
"w. c #682477",
"e. c #713C78",
"r. c #6B2C76",
"t. c #6C427D",
"y. c #3F3081",
"u. c #5C1E84",
"i. c #6B1B83",
"p. c #6F1A89",
"a. c #661782",
"s. c #771B85",
"d. c #771D91",
"f. c #4A2882",
"g. c #562985",
"h. c #453283",
"j. c #4C3B8B",
"k. c #4A3687",
"l. c #56368A",
"z. c #6A2684",
"x. c #742485",
"c. c #7A2687",
"v. c #67368B",
"b. c #7B338B",
"n. c #75368B",
"m. c #7F2593",
"M. c #7C3A97",
"N. c #633894",
"B. c #5A4391",
"V. c #52428A",
"C. c #634A96",
"Z. c #754D95",
"A. c #7D5FA2",
"S. c #7C61A3",
"D. c #831E84",
"F. c #842B85",
"G. c #882987",
"H. c #8D338A",
"J. c #85358B",
"K. c #96398C",
"L. c #87289A",
"P. c #8B3899",
"I. c #943D92",
"U. c #932BA8",
"Y. c #9834A7",
"T. c #902FA6",
"R. c #A938B8",
"E. c #B13ABB",
"W. c #874696",
"Q. c #984897",
"!. c #84579E",
"~. c #914F96",
"^. c #A44D99",
"/. c #A7549C",
"(. c #9D6F9B",
"). c #8A5BA1",
"_. c #9858A4",
"`. c #9E42AF",
"'. c #A659A6",
"]. c #AD4FB9",
"[. c #8864A6",
"{. c #9667A9",
"}. c #9A73AE",
"|. c #9472AC",
" X c #9978B2",
".X c #AD63A4",
"XX c #A968AA",
"oX c #B36AA8",
"OX c #A771AD",
"+X c #B873AE",
"@X c #BD7BB2",
"#X c #B879B2",
"$X c #A873B2",
"%X c #C17CB2",
"&X c #B73DC2",
"*X c #B959C5",
"=X c #BE41C7",
"-X c #BB62C3",
";X c #B573C0",
":X c #C857D4",
">X c #C456D0",
",X c #CA65D4",
"<X c #D468DD",
"1X c #C465CB",
"2X c #D96CE2",
"3X c #DD72E5",
"4X c #AB86B9",
"5X c #B987BA",
"6X c #B490BF",
"7X c #B7A3BB",
"8X c #C281B5",
"9X c #C68ABB",
"0X c #C78ABB",
"qX c #C591BE",
"wX c #CA92BE",
"eX c #BB96C3",
"rX c #CC94C0",
"tX c #CD9BC4",
"yX c #C39AC3",
"uX c #D19BC4",
"iX c #C38EC3",
"pX c #C8A3C8",
"aX c #D8AACC",
"sX c #D8B5D3",
"dX c #CEB4D3",
"fX c #E3BED8",
"gX c #E4C9DE",
"hX c #F1D7E6",
/* pixels */
"n n n n n n n n n n n n n n n n n n n n n n n n n n $ n n n n n n n n n n n n n n n n n n n n n n n n n ",
"n n n n n n n n n n n n n n n n n n n n n n n n n n m m $ n n $ n n n n n n n n n n n n n n n n n n n n ",
"n n n n n n n n n n n n n n n n n n n n 1 n m m t t t m m m $ $ 5 n n n n n n n n n n n n n n n n n n n ",
"n n n n n n n n n n n n n n n n n $ $ $ t t p x x x v Q Q a y t r r n n n n n n n n n n n n n n n n n n ",
"n n n n n n n n n n n n n n n n r t y p x ! O.O.>.>.>.>.1.>.^ Q a t t 1 r n n n n n n n n n n n n n n n ",
"n n n n n n n n n n n n $ r r y z x  .X.,.2.3.3.F.F.H.F.F.F.3.2.>.^ Q p t m n n n n n n n n n n n n n n ",
"n n n n n n n n n n n 5 5 t z ! | =.2.x.G.Q./..X.XoXoX.X/.^.Q.H.F.4.,...Q p m 1 n n n n n n n n n n n n ",
"n n n n n n n n n 5 5 r y v  .;.i.c.Q.oX9X0X9X%X%X%X0XwXwXwX0XoXQ.H.G.3.<...Y N n $ n n n n n n n n n n ",
"n n n n n n n n $ $ u p G *.a.c._.5XXXW.w.] ` g 9 q d ` X.q.Q.XXwX8X^.H.F.4.o.Q y r n n n n n n n n n n ",
"n n n n n n 5 5 5 u z  .:.z.~.@X.Xb.] g > & + + + % + + & ; f X.c.'.tX@XK.H.D.>.Q y n n n n n n n n n n ",
"n n n n 5 5 $ r 8 c  .u.z.XX#XM.j , ; ; , 7 d S g S g g d 6 ; & , U m.@XwX^.K.D.>.~ y 1 n n n n n n n n ",
"n n n n 5 5 r l c &.u.n.#XXXu.g & ; 6 g D D g g g g g g S D g 7 ; & k 1.'.uX/.G.F.>.Q y 5 n n n n n n n ",
"n n n n n n u v &.g.n.5X'.u.; + 7 S +.g ; o % > , 9 9 4 , > d +.D d & + #.I.uX'.G.4.o.a t 1 n n n n n n ",
"n n n n n n c &.g.z.5X_.S ; > 7 D d ; & : 6 9 6 , , , : , 6 6 q g D d , & E I.uX^.G.<.^ a t 5 n n n n n ",
"n n n n n l G g.z.$X#X@.; ; d S 6 & ; , 7 6 , , 6 q q q 9 , : , 9 d yXg > & #.Q.0XK.D.<.~ s r 5 n n n n ",
"n n n n M c &.g.!.9Xu.; ; d S 6 % , q q q d q h E { #.{ [ R f q : yXrXdXg , & <.oX%XG.4.o.~ t 1 n n n n ",
"n n n 5 V G f.v.iXM.j & q D , % , q q f h f X.-.=.=.1.*X>X`.*.h f 6 pX6 S g & e s.9X^.D.4.^ i t $ n n n ",
"n n 5 u G &.l._.$Xj & 6 D 6 % ; q f R ` ;.2.O.e w X o   X -.,X`.] R e : > d d & e Q.0XH.4.>.U p r n n n ",
"n n 5 l G h.v.rXM., & D q o % 6 f h Y.*Xr.Q 6.U b U s * X . 0 P.>X;.f q & , S > : 3.8X'.D.<.~ p r $ n n ",
"n n 5 l 7.k.!.iX*.& q +.&   , d R ' *Xb , U i 2 3 2 i T U < o w =.,XP.h 9 & 7 7 & ' Q.%XG.4...a r $ n n ",
"n n u H l.v.6XXXj ; g g o + 9 f R P.q.< s - X . X X # * 2 s s X k ,.,X` d : > q , w c.wXK.F.o.x t n n n ",
"n n u P 9.W.sXe.> , D &   & h _ ] 1.0 s =   . . . . . o # 3 i e b E m.*Xf 9 + q 7 & >.0X/.G.<.! A $ n n ",
"n 5 l P k.!.fX*.& d D o   : ,.3.| k 0 2 X . . . . . - +Xe.O 2 U U X.$.].q f & 6 7 & W +XoXG.3.~ p r m $ ",
"n n B K l.{.sX` & g S   o , h R X.0 Y 1     . . . . . . W.i - Y e X.' a.W q , , 7 & k '.+XH.4.^ p m $ n ",
"n n B K k.}.pXh + D q . + 7 R f } 0 Y = . . . . . . . . . ].# i 0 } X.;.] , f , d & 9 /.%XH.3...a t $ $ ",
"n m V K k.OXyXd + D 7 . ; 7 R R } wXa = . . . . . . . . . e./ 2 s ..q.{ #.9 h , g ; , ^.8XH.3...a r m n ",
"n M V L k.}.6Xd ; D 6 . > d ` Z.qXwXtX=   . . . . . . . . ) 0.3 b e.W.*.#.9 h 6 g ; , ^.8XH.3...a t m n ",
"n m V K k.}.pXh + D q . ; 7 _ [ e.pXQ 3 # . . . . . . . . _.3 T 0 } 3.] ] 9 R 6 S ; 9 /.%XH.s...p m $ $ ",
"n m V L k.}.sX` & h g . > 7 ] ;.X.6.Q Y ,XX . . . . . # '.,X1 Q w } { ] ] , h q S & k /.+XH.3...p m m n ",
"n n C L j.{.fX%.& d S . & 6 ] p.X.X.^ Q Q.XX. . 1 1 '.3X'.= / ~ w -.' [ _ : f g g & W oX+XG.3.~ p m n n ",
"n n C I j.A.sX8.; 6 D % ; d ` p.x.1.w.^ ( 0.-X) ].1X,XoX0.A (.0 X.i.R [ R ; < D d & o.8X.XG.2.~ N $ n n ",
"n n M J k.B.yX!.d ; S g & , S a.U.L.c.6...( A '.1 e.( A ( 7XaXt.c.,.[ { 4 4 7 D , 0 3.0XQ.c.o.Q m $ n n ",
"n n M H y.j. XeXG > q D > > h $.R.R.L.c.3.6.O.( ( ( ) ) 6...pXeXP.#.[ ] : 9 S g ; W W.8XH.s.O.x m n n n ",
"n n n C I y.B.dXl.> > D 7 > 9 _ U.2X&XU.m.x.q.3.q.>.>.O.-.i.#XL.a.a.#.f , q +., ; q.+X.XG.2.} p n n n n ",
"n n n M H y.j.4X Xj ; q g 6 , q d.>X3X2X].U.L.D.c.x.x.F.T.Y.U.L.p.a.' ; 6 S g + 0 P.wXI.c.-.Q y n n n n ",
"n n n M H y.y.C.dXN.8 & g D q 6 q $.:X3X2X:X>XE.E.E.E.R.R.U.L.d.p.,.; o D S ; w 2.@XoXF.2.X.x t n n n n ",
"n n n n C H y.j. XeX&.; > g S d q q ,.L.2X2X3X3X2X>X>X<X].m.p.2.2.@ + S S 6 + *.~.iXJ.x.,. .p m n n n n ",
"n n n n n H K h.B.pX XG & > g D d f f f E c.*X2X2X2X2X<X#.p.i.W   , D S , &  .J.rXQ.x.2.| z N $ n n n n ",
"n n n n n C H L y.S.sX{.j & , g D g f j ` h R E ` ] ,.p.p.' % o 6 D g 6 & w b.rXoXb.2.| x N $ $ n n n n ",
"n n n n n n C H y.j.[.hX$X&.+ & q D D q : q j ' [ { E & o o 9 h D g & +  .b.0X@XJ.z.:.! p m m n n n n n ",
"n n n n n n n M H y.V.4XhX4XK 8 & ; 7 d g 7 6 6 6 6 , 6 7 d g q , & 0 | W.wX5Xb.v.;. .z m m n n n n n n ",
"n n n n n n n n n H 9.V.4XgXeXl.8 > & ; > 6 7 7 7 7 6 q q 7 , ; ; 0 q..XaX#Xb.n.a. .x t m n n n n n n n ",
"n n n n n n n n n C H 9.V.C.7XdX[.f.G q ; & & & + ; + + + & w E 8.~.uXaX/.n.v.a.%.x t m n n n n n n n n ",
"n n n n n n n n n n M H I j.B.S.eXpX{.l.5.G q , > ; 6 8 F  .g.W.wXaX#XW.n.v.g.*.v N m n n n n n n n n n ",
"n n n n n n n n n n n M C K h.j.j.A.4XyXyX4X|.).A.Z.).).{.$X5X5XOXW.v.v.v.:.&.v y r n n n n n n n n n n ",
"n n n n n n n n n n n n n V H K h.h.j.C.S. X4XeX6X6X4X4X}.).Z.g.g.l.l.g.7.G z y m m n n n n n n n n n n ",
"n n n n n n n n n n n n n M C C J P L L h.k.f.l.l.l.l.g.g.g.f.g.g.%.%.5.c p y r m m n n n n n n n n n n ",
"n n n n n n n n n n n n n n n n M C V G P K L h.f.f.f.f.7.7.5.5.5.J z p y r m m n n n n n n n n n n n n ",
"n n n n n n n n n n n n n n n n n n M M C C H H J J J J J 5.Z Z Z N m m m m n n n n n n n n n n n n n n ",
"n n n n n n n n n n n n n n n n n n n n n n M n M C B N z N N N m m m n m $ n n n n n n n n n n n n n n ",
"n n n n n n n n n n n n n n n n n n n n n n n n n n M M m m m n $ n n n n n n n n n n n n n n n n n n n ",
"n n n n n n n n n n n n n n n n n n n n n n n n n n n n m n m n $ n n n n n n n n n n n n n n n n n n n "
};
