/* XPM */
static char *result[] = {
/* columns rows colors chars-per-pixel */
"52 52 224 2 ",
"   c #0B0811",
".  c #120619",
"X  c #120B19",
"o  c #1A0323",
"O  c #1C0428",
"+  c #1D1123",
"@  c #1E1F3F",
"#  c #1E0430",
"$  c #22002C",
"%  c #23052A",
"&  c #27162E",
"*  c #250034",
"=  c #270039",
"-  c #2A003D",
";  c #280635",
":  c #31053E",
">  c #2A1934",
",  c #341B3A",
"<  c #1F1F40",
"1  c #2C0043",
"2  c #2E004A",
"3  c #310245",
"4  c #32014D",
"5  c #39034E",
"6  c #380D46",
"7  c #231E42",
"8  c #2A1D45",
"9  c #2C1E4A",
"0  c #231F49",
"q  c #341D4C",
"w  c #391A4A",
"e  c #330054",
"r  c #3A0354",
"t  c #36015B",
"y  c #3A025C",
"u  c #3C0A58",
"i  c #2A1F53",
"p  c #341D53",
"a  c #3C1C54",
"s  c #341D5C",
"d  c #3B1C5B",
"f  c #1D2241",
"g  c #212144",
"h  c #24234C",
"j  c #2A224C",
"k  c #2A2353",
"l  c #2B245A",
"z  c #282555",
"x  c #352458",
"c  c #3B2042",
"v  c #3A0163",
"b  c #3C0665",
"n  c #3C1B66",
"m  c #2E2763",
"M  c #352766",
"N  c #3B2B75",
"B  c #3E2D79",
"V  c #392A72",
"C  c #3D3378",
"Z  c #40184A",
"A  c #41055C",
"S  c #440A5C",
"D  c #450D57",
"F  c #431B55",
"G  c #441A5C",
"H  c #4E195B",
"J  c #491558",
"K  c #521B5D",
"L  c #400D4D",
"P  c #4B2352",
"I  c #55295C",
"U  c #44254B",
"Y  c #4A0B64",
"T  c #4E096B",
"R  c #470765",
"E  c #520C6D",
"W  c #4C1464",
"Q  c #4C1861",
"!  c #4B166B",
"~  c #45196A",
"^  c #531762",
"/  c #54146C",
"(  c #5D146B",
")  c #5B1A6D",
"_  c #561A66",
"`  c #470D77",
"'  c #540A73",
"]  c #580D76",
"[  c #5A0D78",
"{  c #4C1573",
"}  c #461B75",
"|  c #5B1474",
" . c #5D127B",
".. c #581978",
"X. c #62166D",
"o. c #621572",
"O. c #6A1274",
"+. c #641A73",
"@. c #62147D",
"#. c #641A7C",
"$. c #691C7C",
"%. c #6D1879",
"&. c #751C7D",
"*. c #76157C",
"=. c #42236B",
"-. c #5B2464",
";. c #562662",
":. c #45267C",
">. c #42377B",
",. c #5D2F71",
"<. c #62296C",
"1. c #64346C",
"2. c #6A2B75",
"3. c #682576",
"4. c #693573",
"5. c #733D7C",
"6. c #79457E",
"7. c #3F3081",
"8. c #5A1C83",
"9. c #651482",
"0. c #6A1585",
"q. c #6C1B83",
"w. c #6E1A89",
"e. c #691A83",
"r. c #771C87",
"t. c #771C93",
"y. c #4A2882",
"u. c #562986",
"i. c #453283",
"p. c #4C3B8B",
"a. c #4A3687",
"s. c #56368A",
"d. c #692785",
"f. c #772687",
"g. c #68368B",
"h. c #793688",
"j. c #7B2493",
"k. c #7A3895",
"l. c #683B94",
"z. c #55428C",
"x. c #7D4485",
"c. c #634A96",
"v. c #744494",
"b. c #735394",
"n. c #7D5FA2",
"m. c #7C61A3",
"M. c #831E84",
"N. c #842B85",
"B. c #882987",
"V. c #8D338A",
"C. c #843688",
"Z. c #83259B",
"A. c #852B9A",
"S. c #87359B",
"D. c #953A8E",
"F. c #8D2BA4",
"G. c #8C28A5",
"H. c #952BAD",
"J. c #8C34A2",
"K. c #9639A9",
"L. c #9D2EB1",
"P. c #A12EB5",
"I. c #A435B9",
"U. c #84458D",
"Y. c #8A4995",
"T. c #974897",
"R. c #88559C",
"E. c #995A9A",
"W. c #A5549C",
"Q. c #A04A97",
"!. c #9A649B",
"~. c #954AA5",
"^. c #895CA4",
"/. c #9B59A4",
"(. c #9E40B2",
"). c #A659A7",
"_. c #AA47BA",
"`. c #AB58B2",
"'. c #AA55B2",
"]. c #986AA7",
"[. c #9A74AE",
"{. c #9472AC",
"}. c #9978B2",
"|. c #8A67A9",
" X c #AD66A5",
".X c #A768A8",
"XX c #B36CA9",
"oX c #A671A9",
"OX c #B47AAD",
"+X c #A167B2",
"@X c #AC76B0",
"#X c #B57AB2",
"$X c #B879B2",
"%X c #B860BE",
"&X c #B53AC7",
"*X c #C53ED3",
"=X c #B945CA",
"-X c #BB57C8",
";X c #BB62C6",
":X c #BE78C2",
">X c #D154DE",
",X c #C751D5",
"<X c #C666CD",
"1X c #CD64D8",
"2X c #D46EDC",
"3X c #D969E2",
"4X c #D970E1",
"5X c #AA85B9",
"6X c #BB83B6",
"7X c #B88ABB",
"8X c #B293BE",
"9X c #C48ABA",
"0X c #C390BE",
"qX c #BB95C3",
"wX c #B78BC1",
"eX c #C59BC5",
"rX c #C38DC3",
"tX c #CAA7CC",
"yX c #DAACCD",
"uX c #CFAED1",
"iX c #D7B5D3",
"pX c #E3BED8",
"aX c #E4C9DE",
"sX c #F1D6E6",
/* pixels */
"f f f f f f f f f f f f f f f f f f f f f f f f f f @ f f f f f f f f f f f f f f f f f f f f f f f f f ",
"f f f f f f f f f f f f f f f f f f f f f f f f < f @ @ @ @ f f f f f f f f f f f f f f f f f f f f f f ",
"f f f f f f f f f f f f f f f f f f f f @ > 7 7 0 8 8 j 8 g @ @ f f f f f f f f f f f f f f f f f f f f ",
"f f f f f f f f f f f f f f f f f < @ < 7 8 q a a d G a a q q g > 7 7 7 f f f f f f f f f f f f f f f f ",
"f f f f f f f f f f f f f f @ @ 7 8 8 p a G K ( X.X.X.X.+.) H F w q g 7 < < f f f f f f f f f f f f f f ",
"f f f f f f f f f f f f f > g j p a Q _ | %.&.f.N.N.B.N.V.N.&.%.X.H F w 8 7 < f f f f f f f f f f f f f ",
"f f f f f f f f f f f < f 0 p G ! o.q.r.N.T.W. XXXXXXX XW.Q.D.V.M.&.o.K G q 8 > f f f f f f f f f f f f ",
"f f f f f f f f f < < 7 9 d ! @.q.f.T.XX9X9X9X XE.E.!.oX6X9X9XXXT.V.N.r.O.^ a 8 f f f f f f f f f f f f ",
"f f f f f f f f < < 7 p n | 9.f.W.6X+XU.) u 4 2 = - 1 2 3 J 3.Y.6X$XQ.V.B.&.( F q 7 f f f f f f f f f f ",
"f f f f f f < < < 0 p ~ ..e.Y.6X.Xf.A 1 = * * * - : - 1 * * ; - J h.6X$XD.V.N.X.F 9 g f f f f f f f f f ",
"f f f f f f < < 9 s ~  .d..X$Xg.u 1 = * * 2 e v y v v t v t 2 1 * * J Y.$XQ.V.M.X.F 9 > f f f f f f f f ",
"f f f f < < 7 9 n { 8.g.#X+X[ 2 * # = 2 e e 4 4 e 4 3 e e y v t r 1 = - 2.OXW.V.N.X.F 9 @ f f f f f f f ",
"f f f f f f 9 n { u.g.6X/.` 1 = - 1 2 1 - 3 e y 5 : - 3 1 1 2 1 v v e * - J oXW.B.*.X.w 8 < f f f f f f ",
"f f f f f f i } u.d.#X/.v - * 1 1 2 1 1 r r r 3 3 5 5 5 L L : % % e t t 1 $ J oXT.M.*.K w , 7 @ f f f f ",
"f f f f f i n 8.d.oX#X8.1 * - 2 - $ * 2 3 5 A R T T R T T T E Y 6 ; = e y - * ^  XV.M.O.J w 7 < f f f f ",
"f f f f h s } u.R.9X8.1 = 1 e 1 * 3 r r R ] [ ] ' ' ' ' [ [ @.0.q.+.; O r e - 1 1. XB.*.( F q > f f f f ",
"f f < < i n u.g.0Xk.b # $ e 3 * - 4 S | [ 9.w.A.t.0.w.F.F.J.t.t.t.w.o.6 * 2 4 1 - U.W.B.O.K Z 8 7 f f f ",
"f f < 0 n :.u.^.@Xb 1 = 2 e - * 5 | -XF.9.w.j.k.#.J D W d.+X;XI.G.j.w.@.L o 4 4 $ L OXV.*.X.J 8 7 f f f ",
"f f < i n y.g.0Xk.1 = = v e = 4 { K.K.Z.w.#.&.+.) / ) H b.tXtX;X&XL.F.#.q.% - 3 * ; x.W.M.O.H w 7 f f f ",
"f f < i :.a.^.rX{ 2 ; 4 8X1.F r A.(.j.| / ) -.-.;.-.<.2.5XtXx.j.I.=X=X_.K.D 3 - - $ L $XV.*.^ q > f f f ",
"f f < M >.g.0X].b * 1 ].7X7X1.T J.J...J ) K U c I P x.1.1.!.5.<.Z.P.>X>X<X| S 1 3 * * OXD.f.( a g g @ f ",
"f f 0 V s.b.yXh.1 * - ! oX!.r | -X#.; J H , > I I 4.Y./.T.U.2.d.f.G.*X>X2X$.T 4 2 * * 6.W.N.O.J 9 g g f ",
"f f i V s.R.pX{ 1 * e b 1.- r j.K.J 6 _ w > 1.4.&   , <X4X<X2.5.f.G.&X>X3XS.Y u 2 1 # _ XXN.%.H q 7 @ f ",
"f f k N s.].iXb = * t v 3 3 A A.~.; w ^ > I U.        X `.-XT.C.r.Z.P.,X2X,XS A 2 1 $ J  XV.*.K q 7 f f ",
"f f k N a.[.eXb 1 * e v 1 1 Y A.f.X K F + x.U           + <X).<.&.A.H.,X3X,X( r 4 2 * J E.V.&.^ q 8 @ f ",
"f g l V a.oXwXy 1 * v 2 1 - A I.I & H P + , &             6.T./.h.S.P.&X2X_.| 5 1 4 * L .XV.&.^ w 8 7 f ",
"f h l B a.[.7Xu 1 - v 2 - 3 A A.C.> E.P +   X             I U.Y.&.K.I.&X3X<XS A 2 4 * J E.V.&._ q 8 7 @ ",
"f f l B a.{.tXy - = e t - - A  .S.+ ) I >                 W.5.Y.3.A.L.=X3XI.Y A t e * J  XV.&._ q j @ f ",
"f f l B a.[.iXb 2 $ e t 1 - r ' w.6 Q <.<X. .         + '.2X'.h.$.Z.L.,X3XK.T r y t * F  XV.&.^ q g f f ",
"f f l C p.].pX{ 2 $ 2 v 3 1 3 Y  .9./ 3.W.%X    > & ).2X).Y.~.C.r.G.P.,X1Xj.4 r v e * <. XV.$.Q 9 7 f f ",
"f f z N p.n.iX3.2 - 1 t e 1 2 5 T t.@.f.2.4.%XI `.<X2X%X4.1.XXq.Z.L.P.2X=X/ 3 t b - : U.W.B.%.F j 7 f f ",
"f f h M a.z.eX^.e 2 O y t - 1 3 A  .w.f.$.<.I '.U 5.I I !.tX<Xk.Z.H.P.I.t.A 4 t t = 3 .XT.f.( F g 7 f f ",
"f f h m 7.z.{.wXV 2 # 2 v 1 * 1 r R @.j.A./ ) 3.<.<.2.C.7XuXeX~.j.G.t.0.A 2 3 v 2 * ..#XV.r./ q g @ f f ",
"f f f l 7.7.c.uXs.2 1 # t e # 1 4 S T w._.A.f.q.$.$.#.Y.rXuX7Xj.j.t.[ ` 3 - t t = 1 x.).B.$.Q q g f f f ",
"f f f h m 7.z.5X}.t 2 O 2 v = * 1 r R | j._.K.J.j.@.e.w.w.eX9.0. .R y 3 = 2 t 3 = ^ 6XD.f.| G 9 f f f f ",
"f f f f l 7.7.c.uXl.t 1 - e e 2 * - r A E | 0.j.w.t.w. .[ #.' R y r 3 * - e e $ 3 Y. XN.q./ a 8 f f f f ",
"f f f f z V 7.p.}.qX} 1 1 * e b = * - 3 u R T T ] w.0.' T A y 2 - * * 1 v v : 1 3.#XC.f.o.Q 9 g f f f f ",
"f f f f f m N 7.c.qX}.n e * = v e 2 * $ = 1 3 r A Y Y L 3 : - # o . # e e - = Y @XT.f.#.W p j g f f f f ",
"f f f f f z m 7.p.c.uX|.b 1 * 1 4 t e 1 * $ O # o $ $ . . o . . # e v e = * J ]..Xh.e./ d 8 7 @ f f f f ",
"f f f f f f h m 7.z.|.sX+Xn 1 1 $ 2 e y 4 - O o . . . . . O = 1 e t e - 2 ! ].$XC.d...d q g f f f f f f ",
"f f f f f f f z m 7.z.5XsX5XV e 1 # - 1 e t v e e e 2 2 t e y v r = O 1 ) .X$XC.g.8.~ p g 7 f f f f f f ",
"f f f f f f f f h m >.z.5XaXwXs.t e 1 * * = 2 e e t t e t e 1 * * 2 y h.7X$Xh.g.#.! s 8 g 7 f f f f f f ",
"f f f f f f f f f z m >.z.c.qXiXm.u.b v 1 - * * - * - - * * 1 4 u 2.9XyX).h.g.d.{ d 8 g f f f f f f f f ",
"f f f f f f f f f f h m C p.z.m.qXtX|.l.} b t 2 1 2 2 1 e b ! v.rXyX$XY.g.g.u.{ d 8 7 f f f f f f f f f ",
"f f f f f f f f f f f z z C 7.z.p.n.wXqXtX@X|.R.v.l.l.v.^.@X7X6XoXY.l.l.g...} d j g f f f f f f f f f f ",
"f f f f f f f f f f f f f z m V i.i.a.z.n.[.5X7XwX8X7X5X{.^.v.u.u.s.u.u.} ~ s 8 8 @ f f f f f f f f f f ",
"f f f f f f f f f f f f f f h z M V B y.i.a.a.a.s.s.s.s.u.u.y.u.,.:.:.~ s p j g g @ f f f f f f f f f f ",
"f f f f f f f f f f f f f f f f 0 z i m V V B y.y.y.y.y.y.} =.=.V =.p 9 h g > g f f f f f f f f f f f f ",
"f f f f f f f f f f f f f f f f f f f h z m m m M M M M M =.x x p 8 0 g 7 f f f f f f f f f f f f f f f ",
"f f f f f f f f f f f f f f f f f f f f f f f f h z k k j j j j 7 7 f f g f f f f f f f f f f f f f f f ",
"f f f f f f f f f f f f f f f f f f f f f f f f f h h f g g g f f f f f f f f f f f f f f f f f f f f f ",
"f f f f f f f f f f f f f f f f f f f f f f f f f f f f g g g f f f f f f f f f f f f f f f f f f f f f "
};
