/* XPM */
static char *result[] = {
/* columns rows colors chars-per-pixel */
"52 52 226 2 ",
"   c #0E0713",
".  c #0B0811",
"X  c #14061B",
"o  c #140B1B",
"O  c #140718",
"+  c #1E0025",
"@  c #1C0625",
"#  c #1C1122",
"$  c #1E1F3F",
"%  c #210026",
"&  c #22002C",
"*  c #29152F",
"=  c #26132C",
"-  c #250033",
";  c #290135",
":  c #260039",
">  c #2A013C",
",  c #2C0C3A",
"<  c #2A1835",
"1  c #34163C",
"2  c #311A37",
"3  c #30023F",
"4  c #1F1F40",
"5  c #2C0044",
"6  c #2E004A",
"7  c #2E0B47",
"8  c #310243",
"9  c #340C45",
"0  c #32014C",
"q  c #350A4B",
"w  c #3A0A4C",
"e  c #231E42",
"r  c #2A1D45",
"t  c #2C1E4A",
"y  c #231F49",
"u  c #3C1A43",
"i  c #3D124C",
"p  c #341D4C",
"a  c #3A1C4D",
"s  c #381645",
"d  c #330153",
"f  c #3A0354",
"g  c #36005B",
"h  c #3B025C",
"j  c #390B56",
"k  c #2A1F53",
"l  c #341D53",
"z  c #3C1C54",
"x  c #341D5C",
"c  c #3B1C5B",
"v  c #3F1053",
"b  c #1D2241",
"n  c #212144",
"m  c #24234C",
"M  c #2A224C",
"N  c #2A2353",
"B  c #2B245A",
"V  c #282555",
"C  c #352458",
"Z  c #3B2142",
"A  c #3A0064",
"S  c #3D006A",
"D  c #370060",
"F  c #3B1865",
"G  c #3F0071",
"H  c #2E2763",
"J  c #352766",
"K  c #3B2B75",
"L  c #3E2D79",
"P  c #392A72",
"I  c #3D3378",
"U  c #41164E",
"Y  c #431A4C",
"T  c #401C47",
"R  c #41045D",
"E  c #430A5B",
"W  c #440D56",
"Q  c #431B55",
"!  c #441A5C",
"~  c #4A1957",
"^  c #531A5F",
"/  c #44234B",
"(  c #4C2352",
")  c #54295B",
"_  c #440663",
"`  c #4A0B65",
"'  c #4D0B6A",
"]  c #480865",
"[  c #510D6C",
"{  c #4E1565",
"}  c #4C1862",
"|  c #4C156B",
" . c #441869",
".. c #531663",
"X. c #53146B",
"o. c #5D146B",
"O. c #571A67",
"+. c #430473",
"@. c #530D70",
"#. c #5A0E7A",
"$. c #4B1572",
"%. c #461D75",
"&. c #5D1475",
"*. c #5C1975",
"=. c #5D137A",
"-. c #571878",
";. c #62166D",
":. c #631573",
">. c #6A1274",
",. c #641B74",
"<. c #62147C",
"1. c #6B1A7A",
"2. c #751C7D",
"3. c #76157C",
"4. c #42236B",
"5. c #5A2167",
"6. c #46257A",
"7. c #58287D",
"8. c #42377B",
"9. c #5C3077",
"0. c #692379",
"q. c #713B7A",
"w. c #653071",
"e. c #6C417D",
"r. c #3F3081",
"t. c #5B1E83",
"y. c #6B1B83",
"u. c #691985",
"i. c #771B85",
"p. c #771D92",
"a. c #4A2882",
"s. c #562986",
"d. c #453283",
"f. c #4C3B8B",
"g. c #4A3687",
"h. c #573689",
"j. c #692684",
"k. c #742485",
"l. c #7D2383",
"z. c #792789",
"x. c #67368B",
"c. c #77368C",
"v. c #7F2593",
"b. c #7A3392",
"n. c #5A4391",
"m. c #52428A",
"M. c #634A96",
"N. c #754D95",
"B. c #7D5FA2",
"V. c #7C61A3",
"C. c #831E84",
"Z. c #842B85",
"A. c #882987",
"S. c #8D338A",
"D. c #85358B",
"F. c #96398C",
"G. c #852998",
"H. c #8C3999",
"J. c #953D92",
"K. c #8C28A2",
"L. c #932CA8",
"P. c #9B31A9",
"I. c #9735AA",
"U. c #A938B8",
"Y. c #B13ABB",
"T. c #864696",
"R. c #974897",
"E. c #83579C",
"W. c #914F95",
"Q. c #A44D99",
"!. c #A5539C",
"~. c #A9579D",
"^. c #9C6A9C",
"/. c #885CA2",
"(. c #9859A4",
"). c #9E42AF",
"_. c #A659A6",
"`. c #B45EBC",
"'. c #AA49B8",
"]. c #8C66A6",
"[. c #976AA8",
"{. c #9A73AE",
"}. c #9472AD",
"|. c #9A7CB2",
" X c #AB66A7",
".X c #B36BAA",
"XX c #B369A7",
"oX c #A772AE",
"OX c #B873AE",
"+X c #BD7BB2",
"@X c #B778B4",
"#X c #AE7FB5",
"$X c #C17EB4",
"%X c #B73DC2",
"&X c #B857C6",
"*X c #BE41C7",
"=X c #BB62C3",
"-X c #C658D3",
";X c #C64FD2",
":X c #C965D4",
">X c #D467DD",
",X c #C365CA",
"<X c #D86CE1",
"1X c #DD72E5",
"2X c #AA87BA",
"3X c #B986B9",
"4X c #B691BF",
"5X c #B7A2BA",
"6X c #C181B5",
"7X c #C486B9",
"8X c #C58CBC",
"9X c #C98EBC",
"0X c #CA92BF",
"qX c #C290BC",
"wX c #BB96C3",
"eX c #CD95C1",
"rX c #CC9CC5",
"tX c #C49AC3",
"yX c #D19CC5",
"uX c #C6A3C8",
"iX c #D8AACC",
"pX c #D7B4D2",
"aX c #CDB1D1",
"sX c #E2BDD7",
"dX c #E4C9DE",
"fX c #F1D7E6",
/* pixels */
"b b b b b b b b b b b b b b b b b b b b b b b b b b b b b b b b b b b b b b b b b b b b b b b b b b b b ",
"b b b b b b b b b b b b b b b b b b b b b b b b b $ b b b < b b b b b b b b b b b b b b b b b b b b b b ",
"b b b b b b b b b b b b b b b b b b b b 4 e e e r r r r e e b 4 b b b b b b b b b b b b b b b b b b b b ",
"b b b b b b b b b b b b b b b b b 4 $ $ e r p a z z Q c z z t e < e e e b b b b b b b b b b b b b b b b ",
"b b b b b b b b b b b b b b $ $ e e t l z ! ^ o.;.;.,.;.,.;.^ Q a r r e 4 b b b b b b b b b b b b b b b ",
"b b b b b b b b b b b b b e e t p c } X.&.1.2.l.Z.Z.Z.Z.D.Z.2.1.;.^ U p r n b b b b b b b b b b b b b b ",
"b b b b b b b b b b b b < y C c X.:.1.k.Z.R.!. XXXXXXXXX~.Q.F.S.Z.3.;...! p M < b b b b b b b b b b b b ",
"b b b b b b b b b 4 e e t x | =.u.z.R..X7X8X7X$XOX$X6X0X0X0X0XXXR.S.A.2.>...Y r b b b b b b b b b b b b ",
"b b b b b b b b $ $ e p F $.1.z.(.3X XT.0.$.` h 0 f h ` $.0.R. XrX6XR.S.A.3.;.Q M < $ b b b b b b b b b ",
"b b b b b b 4 4 4 y l  .-.j.W.+X_.c.' d : + + & & & & & & ; j @.z._.yX+XF.S.l.;.~ t e b b b b b b b b b ",
"b b b b b 4 4 4 t x  .t.k. X@Xb.f ; - - 5 d D A S A A g d 5 - - > E v.+X0XQ.S.C.;.Q t e b b b b b b b b ",
"b b b b 4 4 e t F %.t.z.@XoX-.d & - 0 D S A g 6 > 5 d g A S g 6 - & W u._.yX~.A.Z.o.Q t 4 b b b b b b b ",
"b b b b b b y F $.s.c.3X(.' & & 0 S S g %     .         X & g +.S 6 % - #.J.yX_.A.i.o.i r < b b b b b b ",
"b b b b b b x $.s.j.3X(.j - : g D 0 - - - - - : : & + O     X & 0 A d - : ] J.eXQ.A.>.^ a r b b b b b b ",
"b b b b b k F s.j.oX@X$.& : g S 5 : ; 5 d 5 5 0 d 6 5 > ; & X O O 5 S d - - #.R.9XF.C.>.~ s e 4 b b b b ",
"b b b b m x %.s.E.3X-.& > g D 0 > 8 R h _ ' ' _ _ R R R <.R 8 > + + 5 D d : ; <.XX$XA.3.;.U p e b b b b ",
"b b 4 4 B F s.x.tXc.q & g S f 5 0 ] #.u.p.u.=.` N.W h R i.] f d 5 ; % > S 0 + h z.8XQ.C.3.^ i < b b b b ",
"b b 4 k x %.s./.oXq + 0 S f 5 f p.L.P.K.k.X.X.x.9X` ` { ` ` R h f d ; % 5 S 6 & R R.9XS.3.;.Y p e b b b ",
"b b 4 k F a.x.eXc.: - S d f 0 :.;X<XU.G.0...5.uX9X0Xs 9 v *.H.X.h f 5 > - d A - 5 k.$X!.C.>.~ p < b b b ",
"b b 4 B %.f./.8X| & 5 S f g :.-X1X%XK.i.,.^ ~ Y 0XT Y Y 9 9 0.&XH.R d 5 - - +.5 & @.R.$XA.3.^ a n b b b ",
"b b m H 7.n.qX^.q - d 6 R f K.1X<XP.z.,.) Q / 2 * * = 2 1 s 7 W &X` f 0 > & g f - h Z.eXJ.i.o.z r $ b b ",
"b b k J h.N.pXq.& : g : ] E >X1X%Xz.0.^ ( R.,X# o .   . o * 1 , j.*.h 0 6 - - S > - ,.7X_.Z.>.~ p e b b ",
"b 4 m P g.E.sX{ + 5 0 0 R z.<X-XL.k.5.( w.`.o . . . . . .   = U U 1.h 0 5 5 + S 0 & ' OXOXA.>.^ p e e b ",
"b 4 V P h.[.pXj + 6 5 E R &X1X*XG.0.5.u `.. . . . . . . .   o i O.O.| 0 5 5 + h g + _ _.OXS.3.^ p e $ b ",
"b b N K g.oXrX5 & 6 5 ] E <X1X%XZ.0.) (.) . . . . . . . . . . 2 v q *.j > 5 - g g + g !.$XS.3...Z e e b ",
"b b B P g.{.wX: & 6 5 ' E <X>XY.l.0.~ 2 _.* . . . . . . . .   < U 9 &.E 5 5 > g D + d Q.6XS.2...a r e b ",
"b m H L g.{.4X; & 5 5 [ X.1X;XY.k.,.( q.,X< . . . . . . . . o 1 U O *.@.0 > 8 g D & 6 Q.6XS.2.O.a e n b ",
"b b B L g.}.rX> & 5 > E =.1X-XU.k.5.) / >X_.. . . . . . * . # u i O *.@.0 > 5 g h + f Q.$XS.k...a n b b ",
"b b B L f.}.pXw + 0 5 & i.:X>XU.G.O.) u `.<X# . . . . . `.o * T =   &X' 0 > 5 g g + A ~.OXS.2...p n b b ",
"b b B L f.[.pX} + d 6   i.#.'.U.G.0.5.( w.(. X. . . . T.e.# 1 Y O # -X_ 8 > > S 0 + [ .XOXA.2.~ p e b b ",
"b b V I m.N.pX9.& 6 f X ` u.G.K.P.k.O.5X/ * :X!.( q.`./ o 1 T ,   *.U.R ; 5 : S > - *.6X XA.>.! r n b b ",
"b b m J f.n.uXE.7 : g 8 @ u.u.K.L.@XuXuX^./ * 2 ) / # = 1 u i O 5 ,XX.f ; 5 d h - d l.9XR.l.o.z r b b b ",
"b b m H r.m.}.wXF & d h X ~ u.p.G.G.wXq.7 Q Y T u 1 T U U 9 # 9 H.'.h 0 > 0 S 0 - ' R.7XS.i.X.l n b b b ",
"b b b B r.r.M.aXg.- : S 5 O <.u.u.u.H.p.X.q 9 9 i s 9 9 v i j &.&X[ f > 5 h S - > 0.OX_.A.1.} p b b b b ",
"b b b m H r.f.2X{.9 - g S > @ :.<.#.[ <.y.*.{ ..w.O...O.| ` *.-X<.h 8 qXd S d & j J.0XJ.z.&.! t b b b b ",
"b b b b B r.r.M.aXh.7 & g S + - ` @.' ] _ ` X.y.T.1.X.' =.v.:XH.f U tX0X4Xd & 0 y.+X XZ.1...z r b b b b ",
"b b b b B H r.f.|.wX%.+ 5 D D X ; W ` [ ' ] ' ' &.@.&.<.'.&X] f 0 ; q aXg : & -.W.qXD.k.<.! p n b b b b ",
"b b b b b H P f.n.uX}.F & > A S 8 > ; 3 f ] ] ' @.@.[ E f f f 3 & > D h - - $.D.eXR.z.<.{ l t n b b b b ",
"b b b b b V H L f.M.aX].i & 5 D S 0 8 5 ; 3 3 8 5 3 3 0 f 8 ; - > g g > - j b.0X.Xz.0.X.z t n b b b b b ",
"b b b b b b V H r.m.].fXoX .& & g +.D 8 > f h h _ g f > % % - 6 D d & & $.c.9X+XD.x.-. .t e b b b b b b ",
"b b b b b b b m H I m.2XfX2XJ 7 & > g S A g 0 6 5 : 5 5 5 6 d 6 - & q -.T.0X3Xc.x.=. .l M b b b b b b b ",
"b b b b b b b b m H 8.m.2XdX4Xh.7 - - > d D A D D g 6 6 6 6 : - : q k. XiXOXc.c.*.{ l r < b b b b b b b ",
"b b b b b b b b b V H 8.m.M.5XpX].a.F d + & & & - - - + + - q  .7.W.0XiX~.c.c.t.$.c t n b b b b b b b b ",
"b b b b b b b b b b m H I f.n.V.wXuX].h.4.F d 7 : : 7 j D  .s.T.0XiX@XT.c.x.s.$.c M e b b b b b b b b b ",
"b b b b b b b b b b b m V P d.m.f.B.wXuXwX#X}./.B.B.E./.[.#X3X3XoXT.x.x.x.-.$.c t m b b b b b b b b b b ",
"b b b b b b b b b b b b b B H K d.d.d.h.V.}.wXwX4X2X3X#X[./.b.h.s.h.h.s.6.F x t e b b b b b b b b b b b ",
"b b b b b b b b b b b b b m m B H P L a.d.g.g.s.h.h.h.s.s.s.a.s.s.%.%.4.x l t e n b b b b b b b b b b b ",
"b b b b b b b b b b b b b b b b m V k H P K L a.r.a.a.a.6.6.4.4.4.4.x p t e n b b b b b b b b b b b b b ",
"b b b b b b b b b b b b b b b b b b m m V H H H J J J J J 4.C C M M n n n e b b b b b b b b b b b b b b ",
"b b b b b b b b b b b b b b b b b b b b b b b b m m M N p M M m n n e b b b b b b b b b b b b b b b b b ",
"b b b b b b b b b b b b b b b b b b b b b b b b b m m m m n n n e b b b b b b b b b b b b b b b b b b b ",
"b b b b b b b b b b b b b b b b b b b b b b b b b b b b b b n b b b b b b b b b b b b b b b b b b b b b "
};
