/* XPM */
static char *_35491357ca245f9a74138fdb262c3a0BOG2PPS6ewugVfu7[] = {
/* columns rows colors chars-per-pixel */
"50 50 4 1 ",
"  c #4800FF",
". c #3A00CE",
"X c #3700C1",
"o c #3200B2",
/* pixels */
"                                                  ",
"                                                  ",
"                                                  ",
"                                                  ",
"                                                  ",
"     .XXXXXXXXXXXXXXXXXXXXXXXXXXXXXXXXXXXXXX.     ",
"     XooooooooooooooooooooooooooooooooooooooX     ",
"     XooooooooooooooooooooooooooooooooooooooX     ",
"     XooooooooooooooooooooooooooooooooooooooX     ",
"     XooooooooooooooooooooooooooooooooooooooX     ",
"     XooooooooooooooooooooooooooooooooooooooX     ",
"     XooooooooooooooooooooooooooooooooooooooX     ",
"     XooooooooooooooooooooooooooooooooooooooX     ",
"     XooooooooooooooooooooooooooooooooooooooX     ",
"     XooooooooooooooooooooooooooooooooooooooX     ",
"     XooooooooooooooooooooooooooooooooooooooX     ",
"     XooooooooooooooooooooooooooooooooooooooX     ",
"     XooooooooooooooooooooooooooooooooooooooX     ",
"     XooooooooooooooooooooooooooooooooooooooX     ",
"     XooooooooooooooooooooooooooooooooooooooX     ",
"     XooooooooooooooooooooooooooooooooooooooX     ",
"     XooooooooooooooooooooooooooooooooooooooX     ",
"     XooooooooooooooooooooooooooooooooooooooX     ",
"     XooooooooooooooooooooooooooooooooooooooX     ",
"     XooooooooooooooooooooooooooooooooooooooX     ",
"     XooooooooooooooooooooooooooooooooooooooX     ",
"     XooooooooooooooooooooooooooooooooooooooX     ",
"     XooooooooooooooooooooooooooooooooooooooX     ",
"     XooooooooooooooooooooooooooooooooooooooX     ",
"     XooooooooooooooooooooooooooooooooooooooX     ",
"     XooooooooooooooooooooooooooooooooooooooX     ",
"     XooooooooooooooooooooooooooooooooooooooX     ",
"     XooooooooooooooooooooooooooooooooooooooX     ",
"     XooooooooooooooooooooooooooooooooooooooX     ",
"     XooooooooooooooooooooooooooooooooooooooX     ",
"     XooooooooooooooooooooooooooooooooooooooX     ",
"     XooooooooooooooooooooooooooooooooooooooX     ",
"     XooooooooooooooooooooooooooooooooooooooX     ",
"     XooooooooooooooooooooooooooooooooooooooX     ",
"     XooooooooooooooooooooooooooooooooooooooX     ",
"     XooooooooooooooooooooooooooooooooooooooX     ",
"     XooooooooooooooooooooooooooooooooooooooX     ",
"     XooooooooooooooooooooooooooooooooooooooX     ",
"     XooooooooooooooooooooooooooooooooooooooX     ",
"     .XXXXXXXXXXXXXXXXXXXXXXXXXXXXXXXXXXXXXX.     ",
"                                                  ",
"                                                  ",
"                                                  ",
"                                                  ",
"                                                  "
};
