/* XPM */
static char *result[] = {
/* columns rows colors chars-per-pixel */
"52 52 216 2 ",
"   c #0B0811",
".  c #0F0A18",
"X  c #100917",
"o  c #130A1C",
"O  c #150C21",
"+  c #1A0C25",
"@  c #1C0D2A",
"#  c #190723",
"$  c #1B112A",
"%  c #1E1131",
"&  c #1E1F3F",
"*  c #230E2C",
"=  c #260D35",
"-  c #241134",
";  c #2D113C",
":  c #261339",
">  c #33123C",
",  c #1F1F40",
"<  c #2B1443",
"1  c #231E42",
"2  c #2A1D45",
"3  c #2C1E4A",
"4  c #29184A",
"5  c #311444",
"6  c #34164B",
"7  c #331D4C",
"8  c #3A1C4D",
"9  c #381648",
"0  c #2B1D51",
"q  c #2B1C53",
"w  c #331B53",
"e  c #3C1B54",
"r  c #341B5B",
"t  c #3C1B5B",
"y  c #3E1751",
"u  c #1D2241",
"i  c #212144",
"p  c #24234C",
"a  c #2A224C",
"s  c #2A2353",
"d  c #2B245A",
"f  c #282555",
"g  c #352458",
"h  c #3C1B62",
"j  c #3B1C6A",
"k  c #371B61",
"l  c #2E2763",
"z  c #332464",
"x  c #312B63",
"c  c #3B236A",
"v  c #372769",
"b  c #3B2B75",
"n  c #3E2D79",
"m  c #392A72",
"M  c #3D3378",
"N  c #43154D",
"B  c #431B55",
"V  c #4D145B",
"C  c #431A5B",
"Z  c #491756",
"A  c #51145C",
"S  c #54195F",
"D  c #4E1763",
"F  c #431A64",
"G  c #4B1963",
"H  c #4B176B",
"J  c #45196D",
"K  c #4A186A",
"L  c #531562",
"P  c #5A1565",
"I  c #53166C",
"U  c #5D156A",
"Y  c #551868",
"T  c #4C1674",
"R  c #421D73",
"E  c #491B74",
"W  c #451E79",
"Q  c #4D1679",
"!  c #5D1475",
"~  c #5A147A",
"^  c #541A7C",
"/  c #561777",
"(  c #62166C",
")  c #720F7B",
"_  c #641473",
"`  c #6A1274",
"'  c #661973",
"]  c #6C157B",
"[  c #69187B",
"{  c #751C7D",
"}  c #76157C",
"|  c #690F75",
" . c #42236B",
".. c #412275",
"X. c #44227C",
"o. c #49227D",
"O. c #432A7E",
"+. c #42377B",
"@. c #3F3081",
"#. c #4C1F81",
"$. c #591A82",
"%. c #651B83",
"&. c #6A1A82",
"*. c #7B1481",
"=. c #731D83",
"-. c #7A1D84",
";. c #741680",
":. c #4C2582",
">. c #4A2984",
",. c #4C2C8A",
"<. c #452781",
"1. c #522484",
"2. c #532D8A",
"3. c #5A2C89",
"4. c #592786",
"5. c #453283",
"6. c #4C3285",
"7. c #4D338B",
"8. c #4C3A8B",
"9. c #473987",
"0. c #503986",
"q. c #53348C",
"w. c #5C338B",
"e. c #523A8F",
"r. c #5C3A8E",
"t. c #563D90",
"y. c #5B3C91",
"u. c #6D2286",
"i. c #672887",
"p. c #7D2484",
"a. c #792987",
"s. c #7B2B89",
"d. c #762887",
"f. c #63338B",
"g. c #6C338B",
"h. c #6C398E",
"j. c #643B8D",
"k. c #73398D",
"l. c #77358B",
"z. c #633E90",
"x. c #7A3E91",
"c. c #54448B",
"v. c #5B4192",
"b. c #594393",
"n. c #4D4087",
"m. c #664895",
"M. c #774794",
"N. c #6C5199",
"B. c #77559C",
"V. c #7D5FA2",
"C. c #7C61A3",
"Z. c #831E85",
"A. c #842286",
"S. c #842B85",
"D. c #8A2A87",
"F. c #832C89",
"G. c #8B2D89",
"H. c #852488",
"J. c #8D338B",
"K. c #883A8D",
"L. c #93348B",
"P. c #94398D",
"I. c #993B8D",
"U. c #953D90",
"Y. c #A13E8F",
"T. c #A13F90",
"R. c #874895",
"E. c #964393",
"W. c #9C4393",
"Q. c #984A97",
"!. c #83579D",
"~. c #9A549C",
"^. c #A44D98",
"/. c #A5539C",
"(. c #A9579D",
"). c #8A5CA1",
"_. c #945CA1",
"`. c #AB5DA1",
"'. c #A45DA1",
"]. c #976AA8",
"[. c #9A73AE",
"{. c #9371AC",
"}. c #9B7CB3",
"|. c #8966A6",
" X c #AE63A4",
".X c #AB6CA9",
"XX c #B36CAA",
"oX c #B368A6",
"OX c #A972AD",
"+X c #B773AE",
"@X c #A17DB3",
"#X c #BD7BB2",
"$X c #B878B1",
"%X c #C17CB2",
"&X c #AB86B9",
"*X c #BD82B6",
"=X c #BB8BBB",
"-X c #B889BB",
";X c #B690BE",
":X c #C281B5",
">X c #C487B9",
",X c #C68ABB",
"<X c #C98EBC",
"1X c #CA91BE",
"2X c #C391BE",
"3X c #BC9AC4",
"4X c #CC94C0",
"5X c #CD9AC4",
"6X c #C39EC6",
"7X c #D19BC4",
"8X c #C8A5CA",
"9X c #DAABCD",
"0X c #D7B4D3",
"qX c #E3BED8",
"wX c #E4C9DE",
"eX c #F1D7E6",
/* pixels */
"u u u u u u u u u u u u u u u u u u u u u u u u u u u u u u u u u u u u u u u u u u u u u u u u u u u u ",
"u u u u u u u u u u u u u u u u u u u u u & u u & u & 1 & u u u u u u u u u u u u u u u u u u u u u u u ",
"u u u u u u u u u u u u u u u u u u u u & 1 1 i i a i 2 i i & & u u u & u u u u u u u u u u u u u u u u ",
"u u u u u u u u u u u u u u u u u & & & 2 2 3 e e B B B B 8 2 2 : i & 1 u u u u u u u u u u u u u u u u ",
"u u u u u u u u u u u u u u & & 1 1 3 7 e C D U ( ( ' ( ' U S e 8 7 1 1 i & u u u u u u u u u u u u u u ",
"u u u u u u u u u u u u u : i a 7 t G I ' ] { p.S.S.S.S.J.S.{ [ U S B 7 i i & & u u u u u u u u u u u u ",
"u u u u u u u u u u u u i p w C I ! [ =.F.E./. XoXoXoXoX(.W.E.L.S.{ ( L Z 8 2 1 u u u u u u u u u u u u ",
"u u u u u u u u u , 1 1 3 e H ~ &.s.Q.XX>X,X,X:X#X#X>X1X1X7X<XoXW.J.D.{ ' L e 2 u u u u u u u u u u u u ",
"u u u u u u u u & & 1 7 h / %.d._.*X#X`.Q.J.J.L.I.W.Y.Y.T.^.oX%X4X:X^.L.S.} U B 7 1 & u u u u u u u u u ",
"u u u u u u u & & 4 w F ^ %.E.#X$XQ.a.=.=.;.-.s.J.E.E.I.P.P.L.L.T.+X4X#XI.J.A.( B 2 1 u u u u u u u u u ",
"u u u u u , , 1 3 r J $.i..X*X~.s.=.%.! / I ! | { p.S.-.-.-.H.G.L.I.^.:X4X^.L.Z.( B 7 1 u u u u u u u u ",
"u u u u u u 1 3 h T $.l.$X+Xl.=.%.~ T G y y N N V A A A A P | *.A.G.L.L. X7X/.D.S.( B 2 & u u u u u u u ",
"u u u u u u 4 k Q 4.g.*X.Xd.i.$.Q K y 5 > = * * * * * * = 5 N P ` *.A.G.L.^.7X(.D.{ P N 2 & & u u u u u ",
"u u u u u u r J 4.i.*X+Xi.i./ J C 6 5 * # o X X     X   X o * > Z S ` *.Z.D.^.1X^.D.} S 8 2 & & u u u u ",
"u u u u u q j 1.3.OX*Xg.3.^ F y 5 = # o                       o * > V ( ) Z.D.(.<XI.Z.( Z 8 1 & u u u u ",
"u u u u p r W 4.R.1XM.f.$.K e < = # X                           X o > N ( } Z.D.oX%XD.*.( Z 2 1 u u u u ",
"u u u u q j o.f.4X_.f.$.Q F 6 ; # X                                 o > Z ` } A.L.:X^.D.) S 9 > & u u u ",
"u u u 4 k ..w.].*Xf.3.$.H t < @ o                                   X * 9 S ` *.D.(.,XG.*.( B 2 1 u u u ",
"u u u s j >.j.1X_.f.4.#.h 6 = #                                         * N ( ) Z.L.,X^.A.` V 2 1 & u u ",
"u u i q ..q.).9XR.y.4.Q t 5 @                                           X > A ` *.D.`.%XG.} S 8 2 & u u ",
"u u , z 6.j.=X1Xx.y.2.Q t = .                                             * N ( ) D.W.1XI.Z.( B 2 u u u ",
"u u p c 0.R.9XXXM.y.1.R q @                                               o > S ) Z.G.,X(.H.` C 2 1 u u ",
"u u f m 0.!.qX~.z.y.1.j < o                                               X = V | Z.G.+X+XS.] V 7 1 & u ",
"u u s m q.].0XM.z.e.:.r %                                                   * V ) D.L.(.$XG.{ S 8 2 u u ",
"u u f n 6.[.8Xh.y.q.#.r @                                                   * A p.J.P./.*XJ.{ L 7 2 & u ",
"u i d b 7.[.2Xz.t.q.W w #                                                   * P =.J.P.^.:XL.{ L 8 1 1 & ",
"u i d n 9.[.;Xr.e.2.W 4 o                                                   * A } F.L.^.:XJ.{ Y 8 2 u u ",
"u i d n 6.[.5Xm.q.,.W 4 o                                                   ; A ] A.J.^.%XJ.{ Y 7 1 u u ",
"u , d n 9.[.0XM.t.q.W <                                                   o ; V _ -.J.'.#XG.{ D 7 2 u u ",
"u u d M 8.].qXB.b.7.<.q                                                   o 9 D | -.G.oX+XS.{ V 7 1 u u ",
"u u f M 0.B.0X).t.q.#.r O                                                 - y I &.a.G.#X XS.' B a u u u ",
"u u p v 0.v.6X@Xt.7.<.k %                                               o 5 V ~ ;.F.P.4XW.S.( B 2 u u u ",
"u u u l @.n.{.8Xb.8.,.<.4 .                                           X - y D [ s.G./.>XG.=.I e 1 u u u ",
"u u u d @.@.m.0XN.e.,.@.r @                                           @ 9 F / &.s.J.#X`.F.[ V 7 u u u u ",
"u u u f l @.@.&X3Xb.8.,.j < #                                       @ 5 C I ~ u.s.Q.4XU.p.! C a u u u u ",
"u u u u d @.8.N.8XN.e.7.<.k , o                                   + 5 C H ~ %.u.s.#X XF.[ I e 2 u u u u ",
"u u u u f m @.8.&X3Xt.e.,.#.k 4 o .                           X * 5 B F ~ %.i.d.~.,XJ.u.! C a i u u u u ",
"u u u u u l n @.n.8X}.t.e.e.,.c 3 $ .                       o - 5 e G / %.i.k.K.2XQ.d.[ K e 2 i u u u u ",
"u u u u u f l n 9.N.0X@Xm.v.t.q.X.q % # .             . o @ ; 7 C G T $.i.g.K.4X.Xs.u.H t 2 i i u u u u ",
"u u u u u u p l @.n.|.eX=XN.b.v.7.>.j q < % @ # O $ % - < 6 e h J Q $.i.g.K.4X#Xl.g./ C 7 i i u u u u u ",
"u u u u u u u p l @.c.&XeX;Xb.c.t.,.,.b k r w w w r r r t h J Q ^ 3.h.k.E.1X%Xl.l.! G w p i & u u u u u ",
"u u u u u u u u p x +.c.{.wX8XN.e.e.7.,.#.j b W c R R j R T #.4.f.k.K.oX9X#Xl.g.^ G w 3 i & u u u u u u ",
"u u u u u u u u u p x +.n.N.3X0X{.m.t.7.7.2.2.2.,.:.:.#.#.$.3.w.k.~.1X9X(.k.g.i.I e 3 i u u u u u u u u ",
"u u u u u u u u u u p x M 9.c.C.3X8X}.B.y.r.q.q.q.2.2.2.1.3.j.~.4X9X$XR.h.j.4.T t a i u u u u u u u u u ",
"u u u u u u u u u u u f f M @.n.e.V.&X8X8X&X[.).).B.!.).].$X=X-XOXR.h.j.f.^ E t 3 i u u u u u u u u u u ",
"u u u u u u u u u u u u u f l M 5.5.6.v.V.[.&X;X3X&X3X@X[.!.M.3.3.3.3.2.E J r a i u u u u u u u u u u u ",
"u u u u u u u u u u u u u u f d z m n 5.5.>.7.q.e.q.4.2.2.2.1.1.o.o. .J t 3 3 i i i u u u u u u u u u u ",
"u u u u u u u u u u u u u u u u p s d z v m n O.<.:.:.:.o.X. . . . .w a 2 i i & i u u u u u u u u u u u ",
"u u u u u u u u u u u u u u u u u u p p f f x l x v c v v z g g g a a 1 u u u u u u u u u u u u u u u u ",
"u u u u u u u u u u u u u u u u u u u u u u p u f f s 0 s 3 a a 1 1 u u u u u u u u u u u u u u u u u u ",
"u u u u u u u u u u u u u u u u u u u u u u u u u p u u i i i i u u u u u u u u u u u u u u u u u u u u ",
"u u u u u u u u u u u u u u u u u u u u u u u u u u u u i i u u u u u u u u u & u u u u u u u u u u u u "
};
