/* XPM */
static char *b57d0bde7f004a61ae13844260694012rJpJgN4kw5RVrMCD[] = {
/* columns rows colors chars-per-pixel */
"50 50 33 1 ",
"  c #4800FF",
". c #4A03FF",
"X c #4B04FF",
"o c #4C06FF",
"O c #723AFF",
"+ c #7C49FF",
"@ c #5614FF",
"# c #7741FF",
"$ c #5917FF",
"% c #743EFF",
"& c #C3ABFF",
"* c #D7C7FF",
"= c #9368FF",
"- c #8251FF",
"; c white",
": c #DACBFF",
"> c #F6F2FF",
", c #E0D4FF",
"< c #510CFF",
"1 c #682CFF",
"2 c #AA88FF",
"3 c #4D07FF",
"4 c #5F20FF",
"5 c #9064FF",
"6 c #DFD3FF",
"7 c #8C5FFF",
"8 c #EAE2FF",
"9 c #B598FF",
"0 c #E9E1FF",
"q c #6021FF",
"w c #AA89FF",
"e c #500BFF",
"r c #D6C6FF",
/* pixels */
"                                                  ",
"                                                  ",
"                                                  ",
"                                                  ",
"                                                  ",
"                                                  ",
"                                                  ",
"                                                  ",
"                                                  ",
"                                                  ",
"                                                  ",
"               .X                                 ",
"              oO+@               #$               ",
"             o%&*=@             -;:$              ",
"            o%&>;,=@           -;;;:$             ",
"           <%&>;;;,=@         -;;;;;:$            ",
"           12>;;;;;,=@       -;;;;;;;:3           ",
"           456;;;;;;,=@     -;;;;;;;;-            ",
"            @=6;;;;;;,=@   -;;;;;;;;-             ",
"             @=6;;;;;;,=@ -;;;;;;;;-              ",
"              @=6;;;;;;,=7;;;;;;;;-               ",
"               @=6;;;;;;8;;;;;;;;-                ",
"                @=6;;;;;;;;;;;;;-                 ",
"                 @=6;;;;;;;;;;;-                  ",
"                  @=6;;;;;;;;;-                   ",
"                   @9;;;;;;;;9@                   ",
"                   -;;;;;;;;;,=@                  ",
"                  -;;;;;;;;;;;,=@                 ",
"                 -;;;;;;;;;;;;;,=@                ",
"                -;;;;;;;;0;;;;;;,=@               ",
"               -;;;;;;;;7=6;;;;;;,=@              ",
"              -;;;;;;;;- @=6;;;;;;,=@             ",
"             -;;;;;;;;-   @=6;;;;;;,=@            ",
"            -;;;;;;;;-     @=6;;;;;;,5q           ",
"           3:;;;;;;;-       @=6;;;;;>w1           ",
"            $:;;;;;-         @=6;;;>&%e           ",
"             $:;;;-           @=6;>&%o            ",
"              $:;-             @=r&%o             ",
"               $#               @+Oo              ",
"                                 .X               ",
"                                                  ",
"                                                  ",
"                                                  ",
"                                                  ",
"                                                  ",
"                                                  ",
"                                                  ",
"                                                  ",
"                                                  ",
"                                                  "
};
