/* XPM */
static char *result[] = {
/* columns rows colors chars-per-pixel */
"52 52 225 2 ",
"   c #1D0608",
".  c #1D070B",
"X  c #190A12",
"o  c #1D0B1C",
"O  c #1A111D",
"+  c #24030A",
"@  c #2E070B",
"#  c #350808",
"$  c #240A18",
"%  c #340A17",
"&  c #39141D",
"*  c #30110C",
"=  c #1C1224",
"-  c #1E142D",
";  c #1D1632",
":  c #1C1935",
">  c #1D1D3B",
",  c #2A0E23",
"<  c #2A0F24",
"1  c #22142C",
"2  c #281428",
"3  c #38162A",
"4  c #241834",
"5  c #1D213F",
"6  c #362126",
"7  c #491916",
"8  c #581C18",
"9  c #751B12",
"0  c #7A1113",
"q  c #542319",
"w  c #67271A",
"e  c #7A2314",
"r  c #7D2914",
"t  c #7C251A",
"y  c #77281A",
"u  c #7E391F",
"i  c #6B321B",
"p  c #441422",
"a  c #451826",
"s  c #511827",
"d  c #451831",
"f  c #551B32",
"g  c #4D2524",
"h  c #592327",
"j  c #552735",
"k  c #44223B",
"l  c #682A29",
"z  c #762C2A",
"x  c #733423",
"c  c #652736",
"v  c #7D2D34",
"b  c #792F39",
"n  c #75323C",
"m  c #783437",
"M  c #704139",
"N  c #1D1F40",
"B  c #1D2241",
"V  c #202443",
"C  c #552344",
"Z  c #642C48",
"A  c #6B334B",
"S  c #67364A",
"D  c #773848",
"F  c #733B52",
"G  c #7C4C41",
"H  c #851B15",
"J  c #832414",
"K  c #8A2516",
"L  c #842A15",
"P  c #8D2B15",
"I  c #86241B",
"U  c #89261C",
"Y  c #842B1C",
"T  c #8C2D1D",
"R  c #922D14",
"E  c #932E1C",
"W  c #982C1C",
"Q  c #8E331C",
"!  c #943114",
"~  c #93311E",
"^  c #9C3719",
"/  c #812A0F",
"(  c #A33B16",
")  c #A4391A",
"_  c #B13F1A",
"`  c #852624",
"'  c #8A2722",
"]  c #852924",
"[  c #8B2C23",
"{  c #852B2A",
"}  c #8B2C28",
"|  c #87262A",
" . c #942E2B",
".. c #952D25",
"X. c #8C3222",
"o. c #8B362B",
"O. c #923323",
"+. c #9C3323",
"@. c #93332A",
"#. c #98382A",
"$. c #952E35",
"%. c #863A38",
"&. c #963233",
"*. c #9C3434",
"=. c #9E343B",
"-. c #9B383B",
";. c #832F31",
":. c #A23323",
">. c #AA3B24",
",. c #A4352B",
"<. c #A53B2C",
"1. c #AA3A2B",
"2. c #A33B24",
"3. c #A23533",
"4. c #A43B34",
"5. c #A93C34",
"6. c #A2373C",
"7. c #A43B3A",
"8. c #A93D3A",
"9. c #AC431D",
"0. c #A8431C",
"q. c #B8451A",
"w. c #BF5119",
"e. c #9F4126",
"r. c #864437",
"t. c #9A4637",
"y. c #9B5836",
"u. c #88442A",
"i. c #AC4626",
"p. c #B34424",
"a. c #B54C23",
"s. c #BC4B2C",
"d. c #B74929",
"f. c #A3592D",
"g. c #BD5323",
"h. c #BD532C",
"j. c #BE5D2F",
"k. c #A6423A",
"l. c #AB403A",
"z. c #A84236",
"x. c #B34737",
"c. c #A75A35",
"v. c #BA5B38",
"b. c #AC633A",
"n. c #B4663F",
"m. c #C14D17",
"M. c #C4531C",
"N. c #CB591A",
"B. c #D15D1C",
"V. c #D6621D",
"C. c #C75929",
"Z. c #C55A36",
"A. c #D15D31",
"S. c #C04E27",
"D. c #CC632A",
"F. c #DB6424",
"G. c #DD6A27",
"H. c #D4632D",
"J. c #DC6B2C",
"K. c #D76329",
"L. c #C86236",
"P. c #D96C35",
"I. c #DC6B3C",
"U. c #D56734",
"Y. c #DA733B",
"T. c #E26C25",
"R. c #E46E2C",
"E. c #E66A28",
"W. c #E57026",
"Q. c #EB7727",
"!. c #EA7927",
"~. c #E6732C",
"^. c #EA762D",
"/. c #EB7A2E",
"(. c #E26E35",
"). c #E06F3E",
"_. c #E47434",
"`. c #EA7632",
"'. c #EB7A32",
"]. c #E3743A",
"[. c #EA7638",
"{. c #E57B3B",
"}. c #EC7C3B",
"|. c #E47D37",
" X c #883D4A",
".X c #953B44",
"XX c #9A3B45",
"oX c #953C4B",
"OX c #993746",
"+X c #A23B42",
"@X c #A23B46",
"#X c #92434D",
"$X c #9B4544",
"%X c #9A5943",
"&X c #964453",
"*X c #8F594A",
"=X c #A24648",
"-X c #A65852",
";X c #AA664E",
":X c #B77258",
">X c #B36B4D",
",X c #9C6D63",
"<X c #B87E61",
"1X c #C65C45",
"2X c #CA6743",
"3X c #DB6D42",
"4X c #D66B45",
"5X c #C7744B",
"6X c #D47C4B",
"7X c #DC7647",
"8X c #CD7C56",
"9X c #DC7358",
"0X c #E37C42",
"qX c #EB7D43",
"wX c #E37646",
"eX c #E97C55",
"rX c #EA8136",
"tX c #EC823B",
"yX c #E7803A",
"uX c #DB8553",
"iX c #DE8049",
"pX c #EB8343",
"aX c #E9864A",
"sX c #F08040",
"dX c #E38853",
/* pixels */
"B B B B B B B B B B B B 5 B B B B B B B B B B B B B B B B B B B B B B B B B B B B B B B B B B B B B B B ",
"B B B B B B B B B 5 B B B B B B B B B B B B B B B B B B B B B B B B B B B B B B B B B B B B B B B B B B ",
"B B B B B B B B 5 5 5 5 B 5 5 5 B B B B > B B B B N N B B B B B B B B B B B B B B B B B B B B B B B B B ",
"B B B B B B B B 5 5 = o O X X X = = = = X X X O O > B B B B B B B B B B B B B B B B B B B B B B B B B B ",
"B B B B B B B B B @ r.n.c.b.b.b.b.b.c.f.f.f.f.b.*Xg : B B B B B B B B B B B B B B B B B B B B B B B B B ",
"B B B B B B B B O x uXaXrXrX{.tXyXyXrXyXtXyXyXaXuXw = B B B B B B B B B B B B B B B B B B B B B B B B B ",
"B B B B B B B ; q iXpX~././.'./.rX/.rX}.yX}.`.{.L.l % B B B B B B B B B B B B B B B B B B B B B B B B B ",
"B B B B B B > * b.aX/./.'.'.^.^.!.!.'.[.`.T.V.J.0.y 3 B B B B B B B B B B B B B B B B B B B B B B B B B ",
"B B B B 5 B X u.dX/.Q.'.'.'.'.'.^.~.G.K.B.V.rXY.0.r h : 5 B B B B B B B B B V V B B B B B B B B B B B B ",
"B B B B 5 - q 6X}./.'.^.'.'./.~.~.R.G.G.'.rX'.U.! r l < 5 B B B B B B B B B B V B B B B B B B B B B B B ",
"B B B B > @ >XpX^.`.'./.!./.^.T.~.~.`.'.`.}.}.g.P t z & 5 B B B B B B B B B B B B B B B B B B B B B B B ",
"B B B 5 + y.aX/./.`.'./.rX~.F.T.^.^.[.'.^.'.P.0.J L z 8 : B B B B B B B B B B B B B B B B B B B B B B B ",
"B B 5 o u iXrX!.'./.'.'.T.B.G.~.^.`.^./.'.'.U.a.L L y i 4 5 B B 5 5 B B 5 5 5 5 B 5 B B B B B B B B B B ",
"B B 5 7 >XyX/./.!.'.'.T.B.G.[.'.'.'././.'._.C.U.e.e L r 2 B B B V 5 B B 5 5 5 5 4 4 : 5 B B B B B B B B ",
"B B * y.aX'.rX/.'.'.W.F.R.}.'.'.'.^.!./.rXG.w.pXC.e r / j B B B 5 5 5 5 O O     +     2 5 B B B B B B B ",
"B B u uXrX!./.`.rXQ.E.`.[.`./.^.`.`.'./.'.B.N.tXY.! e L c : 5 B 5 5 5 * *X;X;X:X:X:X<X,X3 B B B B B B B ",
"5 > Y.pX/./.`.'.T.W.'.'.'.'.`././././.'.(.M.E.`.}.a.9 / z 3 : V B B $ %XuXpX'.yXaXpXiX>X7 : B B B B B B ",
"B : D.rX/././.W.W.'.'.'./.^.'.!././.'.'.U.m.}.^.rXZ.e r z s ; B 5 5 7 8X{.!.rX!././.'.j.w 5 B B B B B B ",
"B B 3 :X].F.E.W./.!./.^./.^.'.'./.!.`.}.M.K.}.pXD.! r e r w 2 B 5 + c.rX'.^./.!.^.'.rXa.X.& : 5 B B B B ",
"B B $ %.4XE.^.^.'.'.'./.'./.^././.'.'.(.w._.tXH.^ P Y r e y 3 > - w 6X'.^.'./.rX'.'.rXq.X.l - 5 B B B B ",
"B B B g c.I.}.^././.'.^./.rX/.^.'./.}.D.m.pXP.( P #.J e e y s   @ c.aXrX/./././.`.^._.0.X.m 3 > B B B B ",
"B B B @ %.L.wX`././.'.^././././.`.'.`.N.P.P.( R E O.J e e y l 8 X.6X'.~./.'./.'.'.'._.) E r.g ; B B B B ",
"B B B : 8 t.Z.`.'.'./././.^.'.`.`.tXJ.S.wXh.R ~ Q ~ Y r e t L ~ L.pX/.^.^.'.'././.'._.^ E o.m , B B B B ",
"B B B 5 $ m c.H.}.'.^./.'.^.^.`.'.^.C.S.S.A.h.R O.O.L e y e J 0._.'././.^.'./././.}.U.! ~ Q %.7 N B B B ",
"B B B B > j $Xi.U.}.}.`.^.^.'.'.`.F.C.S.q.3XY.P Y X.X.e e r ! D.}.`.^././.'.'./.!.rXD.! ~ O.o.c - B B B ",
"B B B B B < r.i._ (.}.}.}.}.}.[.H.A.Z.p.9.7XY.J 9 u y e e r 0.].}.^.'.'.'.'.^.'./.'.C.P Q O.X.%.% N B B ",
"B B B B 5 2 ;XwXq.w.P.I.U.Z.h.9.p._ 1.:.a.qX{.P 9 t e e 9 r L.{.`.'./././.'.Q./.'.}.h.P [ ~ E o.j - 5 B ",
"B B B B 5 # 5XeX[.K.q.P H R K P P E R K a.eX7XQ 9 9 9 e e i.{.}.'.'./.'.'./.'.'.`.(.Z.^ [ E E @.m < 5 B ",
"B B 5 B : i iX'.'.'.}.C.^ P ! O.O.T [ ! d.v.0.P [ T U t K C.}.^.!.'./.Q.^.^.}.qX_.A.1X,.O...W [ #X6 B B ",
"B B B 5 ; y.yX!././.^.'.Y.a.P L T O.[ [ P P L Q @.[ @.I ( _.rX/./.'./.rX`.(.J.A.S._ x.5.z.5.#.@.m 3 B B ",
"B B B B + n.yX^.'././.'.'.[.J.9.P K [ @.O.T O.X.[ T T T H.rX!.!.^.'.}.}.U.S._ 1.1.1.1.5.8.k.$Xm p ; B B ",
"B B 5 5 g 6XrX'.^.'./.^.'.'.'.0XA.i.P P T X.[ [ [ O.J e.0XrX/.'.[.[.P.S.p.>.1.1.8.x.8.5.3.k.$Xs = 5 B B ",
"B B B : M dXrX/./.'.'./.'.'.^.'.tX[.C.^ T O.[ [ X.O.K z.3XqXpXY.L.s.2.>.<.8.l.8.4.4.<.5.8.=Xc 1 B B B B ",
"B B B : M pX!./.'.'.^.`././.'./.!.'.pX4X2.U [ [ T [ [ J R w.C.! K K <.z.8.8.3.8.4.5.l.5.k.z @ B B B B B ",
"B B B B > S -X1XwXwXqX}.'.`.'.'.}.wX>X#.[ [ T [ [ { } [ I 0 J +.T [ [ O.4.7.8.4.5.7.5.&XA > N B B B B B ",
"B B B B 5 , m -.) p.C.U.[.}.`.'.B.( H I ] Y [ ' [ [ T I d.L.7X4XE [ [ [ ..*.4.8.5.8.=Xb , B N B B B B B ",
"B B B B B > 2  X=X5.,.,.1.s.A.q.H H E [ @.&. . . .K R C.qXqXpX3XW T } [ ` } @.4.+X=XD % ; B N B B B B B ",
"B B B B B B B 3 #X@X6.8.4.) S.I.1X9Xx.' @.6.k.3.+.p.I.qX[.^.}.I.W U } { } } ]  .-.;.2 ; B B B B B B B B ",
"B B B B B B B > 3  X$X-.4.Z.eXeXeXeX<.I *.7.4.1.s.].}.~.`.qXqXA.W ] { [ [ [ ` { v p B B B B B B B B B B ",
"B B B B N B B B : p #XXX8.1XZ.d.>.2.E ..7.-.*.x.wXqX_.}.[.I.S.9...] { ] ] ] ;.n s 4 B B B B B B B B B B ",
"B B B B B B B B B B d  X+X+.:.,.5.7.*. .OX@X6.d.wXqXqX(.S.1.+.4.$.| | [ ` { b f 4 N N B B B B B B B B B ",
"B B B B N B B B B B > f oX@X6.6.6.6.6. .=.+X3.:.1X4Xp.W 3.6.3.+X-.| ` ] { b c 4 B N B B B B B B B B B B ",
"B B B B B B B B B B B ; s &XOX6.6.6.6.$.&.6.6.6.3.,.3.6.6.6.6.6.=. .| ] v c 2 B B N B B B B B B B B B B ",
"B B B B B B B B B B B B ; f &X=.=.6.+X*. .*.6.6.=.=.=.@X6.6.=.=.=.$.` v A 3 N B N B B B B B B B B B B B ",
"B B B B B B B B B B B B B : C OXOX$.=.=.$.OX=.OXOX6.=.*.=.=.6.6.=.-.v n 3 : B B B B B B B B B B B B B B ",
"B B B B B B B B B B B B N B N c &X&XOXOXOXOXOXoXOXoXoX.X.XoXoXoXoX#XD d : B N B B B B B B B B B B B B B ",
"B B B B B B B B B B B B B B N 4 C F F D D F A A A A A A A Z Z Z S S d : B B B B B B B B B B B B B B B B ",
"B B B B B B B B B B B B B B B N > 4 ; ; ; ; ; ; o ; : : : : : > N B B B B B B B B B B B B B B B B B B B ",
"B B B B B B B B B B B B B B B B B B B B B B B B N B B B B B B B B B B B B B B B B B B B B B B B B B B B ",
"B B B B B B B B B B B B B B B B B B B B B B B B B B B B B B B B B B B B B B B B B B B B B B B B B B B B ",
"B B B B B B B B B B B B B B B V B B B B B V B B B B B N B B B B B B B B B B B B B B B B B B B B B B B B ",
"B B B B B B B B B B B B B B B B B B B B B B B B B B B B B B B B B B B B B B B B B B B B B B B B B B B B "
};
