/* XPM */
static char *result[] = {
/* columns rows colors chars-per-pixel */
"52 52 226 2 ",
"   c #1A1B3E",
".  c #1B203F",
"X  c #1D1640",
"o  c #231848",
"O  c #2D1B56",
"+  c #2D185B",
"@  c #331B5D",
"#  c #2A0C53",
"$  c #1D2241",
"%  c #222344",
"&  c #25244A",
"*  c #272B49",
"=  c #2A2D4B",
"-  c #282747",
";  c #2D2654",
":  c #362D5B",
">  c #313252",
",  c #3B3757",
"<  c #33304B",
"1  c #3C0C69",
"2  c #361A63",
"3  c #3C1B6B",
"4  c #391467",
"5  c #3E1773",
"6  c #3E0C74",
"7  c #392763",
"8  c #3A3262",
"9  c #3A237B",
"0  c #463759",
"q  c #46167A",
"w  c #451A7A",
"e  c #441A77",
"r  c #40006D",
"t  c #442768",
"y  c #50396C",
"u  c #593878",
"i  c #452E72",
"p  c #3F435D",
"a  c #544E6E",
"s  c #635779",
"d  c #5F6278",
"f  c #66697E",
"g  c #901B7E",
"h  c #343B90",
"j  c #4C1A81",
"k  c #511D83",
"l  c #522286",
"z  c #552B8C",
"x  c #5A2A8A",
"c  c #5E348E",
"v  c #5A3591",
"b  c #46328A",
"n  c #682F8C",
"m  c #2B4798",
"M  c #3A4A98",
"N  c #3A539E",
"B  c #33519E",
"V  c #3B56A1",
"C  c #3B5CA4",
"Z  c #3657A1",
"A  c #3D64A9",
"S  c #47559E",
"D  c #584A99",
"F  c #6C4B85",
"G  c #704F8F",
"H  c #665788",
"J  c #664798",
"K  c #6C5498",
"L  c #76529D",
"P  c #7B549B",
"I  c #795794",
"U  c #795090",
"Y  c #6C6F83",
"T  c #4259A2",
"R  c #5756A1",
"E  c #7858A2",
"W  c #6855A2",
"Q  c #436BAE",
"!  c #4779B9",
"~  c #5C6EB0",
"^  c #7964A7",
"/  c #7673AE",
"(  c #6777B4",
")  c #6C70AD",
"_  c #862E88",
"`  c #983C90",
"'  c #B7378C",
"]  c #AB378D",
"[  c #C63C8F",
"{  c #824798",
"}  c #825B9D",
"|  c #835A9A",
" . c #AE4C98",
".. c #855CA1",
"X. c #BE5EA4",
"o. c #8564A6",
"O. c #8A63A3",
"+. c #886BA9",
"@. c #946AA8",
"#. c #9D73AC",
"$. c #9274AE",
"%. c #8579B4",
"&. c #957CB4",
"*. c #8C73AE",
"=. c #A369A7",
"-. c #A279AB",
";. c #B175B0",
":. c #D14F97",
">. c #C96DA8",
",. c #CC74AF",
"<. c #D16FA9",
"1. c #E66EA7",
"2. c #7F8294",
"3. c #7A88BD",
"4. c #4D86C3",
"5. c #528CC7",
"6. c #4D9DD3",
"7. c #5B9ED3",
"8. c #5096CE",
"9. c #7190C5",
"0. c #4CA5DA",
"q. c #4CA9DD",
"w. c #58A7D8",
"e. c #55BDDE",
"r. c #5CBED5",
"t. c #4DB4DF",
"y. c #73B1DD",
"u. c #6CAADA",
"i. c #57AEE0",
"p. c #4EB4E0",
"a. c #58B6E3",
"s. c #4CADE0",
"d. c #65B7E4",
"f. c #79BBE3",
"g. c #69C3DE",
"h. c #78C8DF",
"j. c #69C2E4",
"k. c #76C5E9",
"l. c #8B889D",
"z. c #9B81B6",
"x. c #9D84B8",
"c. c #9C8CBD",
"v. c #9582B7",
"b. c #938DAF",
"n. c #A286B9",
"m. c #A488BA",
"M. c #AA8CBD",
"N. c #B584B7",
"B. c #AD90BF",
"V. c #A6A8B4",
"C. c #B7AEBC",
"Z. c #CB88B9",
"A. c #E397BF",
"S. c #E989B6",
"D. c #959AC6",
"F. c #8A91C3",
"G. c #AD92C1",
"H. c #AF98C3",
"J. c #B195C2",
"K. c #B69BC5",
"L. c #BA9DC6",
"P. c #A9A3C9",
"I. c #BBA4CA",
"U. c #B3ADD0",
"Y. c #BBBBCF",
"T. c #D999C5",
"R. c #EB9EC3",
"E. c #C5A9CE",
"W. c #C9ADD1",
"Q. c #CCB2D3",
"!. c #CCBBD8",
"~. c #C4B6D6",
"^. c #D1B3D6",
"/. c #D6BBD7",
"(. c #DAACCB",
"). c #E7BAD6",
"_. c #EBB5D3",
"`. c #86CFDF",
"'. c #8DCFE5",
"]. c #87C8E9",
"[. c #97CAE7",
"{. c #8BD7EE",
"}. c #98D4E6",
"|. c #A6D7EC",
" X c #B4DDF1",
".X c #B9DCF4",
"XX c #A8D5EF",
"oX c #99E5F4",
"OX c #BBE1EF",
"+X c #CBC4D7",
"@X c #DBC3DD",
"#X c #D6CEDA",
"$X c #D2D3D9",
"%X c #E1C5DD",
"&X c #ECCBDD",
"*X c #E4CEDD",
"=X c #F2C8DE",
"-X c #DCCBE3",
";X c #DCC5E0",
":X c #DFD0E3",
">X c #E3CDE2",
",X c #EBCEE1",
"<X c #E2C7E0",
"1X c #EBD4E5",
"2X c #E7DBE9",
"3X c #EBDDEC",
"4X c #E7D6E7",
"5X c #F2DCEA",
"6X c #F7D8E8",
"7X c #F0CCE1",
"8X c #C4E5EE",
"9X c #C8E6F3",
"0X c #DBEEF5",
"qX c #EDE1ED",
"wX c #F3E2ED",
"eX c #EDE2F0",
"rX c #E0EEF4",
"tX c #F5EDF5",
"yX c #FAEDF4",
"uX c #F7E3F2",
"iX c #F7F1F6",
"pX c #FAF2F5",
"aX c #FBF4F9",
"sX c #FEFEFE",
"dX c #F6F1F8",
"fX c #ECF6F8",
/* pixels */
"$ $ $ $ $ $ $ $ $ $ $ $ $ $ $ $ $ $ $ $ $ $ $ $ $ $ $ $ $ $ $ $ $ $ $ $ $ $ $ $ $ $ $ $ $ $ $ $ $ $ $ $ ",
"$ $ $ $ $ $ $ $ $ $ $ $ $ $ $ $ $ $ $ $ $ $ $ $ $ $ $ $ $ $ $ $ $ $ $ $ $ $ $ $ $ $ $ $ $ $ $ $ $ $ $ $ ",
"$ $ $ $ $ $ $ $ $ $ $ $ $ $ $ $ $ $ $ $ $ $ $ $ $ $ $ $ $ $ $ $ $ $ $ $ $ $ $ $ $ $ $ $ $ $ $ $ $ $ $ $ ",
"$ $ $ $ $ $ $ $ $ $ $ $ $ $ $ $ $ $ $ $ $ $ $   o % X $ $ $ $ $ $ $ $ $ $ $ $ $ $ $ $ $ $ $ $ $ $ $ $ $ ",
"$ $ $ $ $ $ $ $ $ $ $ $ $ $ $ $ $ $ $ $ $ % % @ @ @ @ o X     X $ $ $ $ $ $ $ $ $ $ $ $ $ $ $ $ $ $ $ $ ",
"$ $ $ $ $ $ $ $ $ $ $ $ $ $ $ $ $ $ $ + 2 3 e e q q 5 O O O o X $ $ $ $ $ $ $ $ $ $ $ $ $ $ $ $ $ $ $ $ ",
"$ $ $ $ $ $ $ $ $ $ $ $ $ $ $ $ $ X 3 5 q j l x x l q 1 3 2 O o $ $ $ $ $ $ $ $ $ $ $ $ $ $ $ $ $ $ $ $ ",
"$ $ $ $ $ $ $ $ $ $ $ $ $ $ $ $ $ 3 w j l v J K / %.W W z r 1 2 ; $ $ $ $ $ = l.% $ $ $ $ $ $ $ $ $ $ $ ",
"$ $ $ $ $ $ $ $ $ * 2.$ $ $ $ ; 3 w j c J F.}.oX`.'.`.r.w.9.T q 4 @ $ $ $ $ V.sXV.$ $ $ $ $ $ $ $ $ $ $ ",
"$ $ $ $ $ $ $ $ $ f sX$X$ $ $ 3 w x J v.[.}.h.}.8X8X Xg.r.e.w.! z r @ $ $ $ > +Xp $ . $ $ $ $ $ $ $ $ $ ",
"$ $ $ $ $ $ $ $ $ = V.p $ ; 2 q l J 9.oX{.}.|.|.9X8X}.g.a.p.p.s.4.b 1 O $ $ $ $   . $ $ $ $ $ $ $ $ $ $ ",
"$ $ $ $ $ $ $ $ $ $ . $ $ + 5 k J 9.{.|.9XrX8X|.}.'.h.g.a.p.q.q.0.4.b 4 + $ $ $ $ . $ $ $ $ $ $ $ $ $ $ ",
"$ $ $ $ $ $ $ $ $ $ $ $ $ i v z ( f. X0X0X0X8X}.'.k.j.d.a.s.q.0.6.! V e @ $ $ $ $ $ $ $ $ $ $ $ $ $ $ $ ",
"$ $ $ $ $ $ $ $ $ $ $ $ X i z R y.f.0XfX.X9X X'.].k.j.a.t.0.q.6.! C A h 4 O $ $ $ $ $ $ $ $ $ $ $ $ $ $ ",
"$ $ $ $ $ $ $ $ $ $ $ $ 2 6 j ( d.y. X.X.X.X[.k.k.d.d.w.0.0.8.! C C A N 9 + $ $ $ $ $ $ $ $ $ $ $ $ $ $ ",
"$ $ $ $ $ $ $ $ $ $ $ $ + 6 D 9.5.7.[.[.XX].d.d.d.a.w.0.0.4.A C C C C C b # $ $ $ $ $ $ $ $ $ $ $ $ $ $ ",
"$ $ $ $ $ $ $ $ . % . % i -.c.~ Q ! 7.y.7.7.w.7.7.6.4.4.A A N A C Z C M / z.> $ $ $ $ $ $ $ $ $ $ $ $ $ ",
"$ $ $ $ $ $ $ $ . . % > I.pX~.S S T Q ! 4.4.4.Q A A A N A A A N C Z m M Y.sX/.8 $ $ $ $ $ $ $ $ $ $ $ $ ",
"$ $ $ $ $ $ . $ . . < +XwXyX-X^ h m M M N C N N A C C A N A B B m h R P.2X>XW.^.s $ $ $ $ $ $ $ $ $ $ $ ",
"$ $ $ $ $ $ % . . < #XaX1X*XuX~.^ R R S S N N N C N N B m B C ( D.U.+X3X1X(.).6XuX#.& $ $ $ $ $ $ $ $ $ ",
"$ $ $ $ . % . . 0 _.6X,XT./.wXyX>X+XU.P.D.3.3.) ) ( ~ 3.D.+X-X+X>X5X1X@XW.(.=X).Z.X.s & X $ $ $ $ $ $ $ ",
"$ $ $ $ . . . - (.6X).Z.` Q.eXwXyXaXsXsXsXsXwXpXuXyX5X,X4X*X*X,X%X<X^.L.L.T.S.>. ._ J H * $ $ $ $ $ $ $ ",
"$ $ $ $ . % % C.A.A.,. .n H.3XeXeXtXtXiXpX5X1X&X5X5X,X6X*X%X%X%X@X^.L.M.G.Z.:.:.] { ^ &.H & . $ $ $ $ $ ",
"$ $ $ $ %   l.5XS.[ [ g { +XeXeXtXyXyXiXaX3X&X_.=X_.Z. ./.%X@X;XW.L.M.M.n.G.N.X.=.=.z.&.%.8 $ $ $ $ $ $ ",
"$ $ $ $ $ - @X!./.R.,.T.!.3X3X3XtXiXiXdXiX4X=XR.R.X. .q %X%X/.E.J.M.M.M.m.&.c.c.c.v.%.+.8 $ $ $ $ $ $ $ ",
"$ $ $ $ $ % +.I.!.-X>X3XtX2X3XeXiXtXdXdXtX;X&X1.:. ._ J 1XW.L.B.G.M.M.m.n.n.z.&.v.&.^ u $ $ $ $ $ $ $ $ ",
"$ $ $ $ $ $ - K &.!.eXyXeXeXeXtXtXtXtXtXdX/.<X_.>.X.N.W.E.J.G.B.G.m.G.m.n.x.x.*.^ J 7 - $ $ $ $ $ $ $ $ ",
"$ $ $ $ $ $ . % G E n.J.~.-X3XdXaXaXdXtXtX/.!.;X<X^.E.J.J.J.J.M.G.G.x.n.$.o.E J z t - $ $ $ $ $ $ $ $ $ ",
"$ $ $ $ $ $ $ $ % < J ..+.$.x.Q.@X-X4X2X2XE.Q.E.I.H.K.H.J.M.n.&.$.@.o...J v z ; & % . $ $ $ $ $ $ $ $ $ ",
"$ $ $ $ $ $ $ $ $ $ < s L P L E =.N.-.N.N.=.@.#.@.@.@.@...O.....P P P v x ; ; % $ $ $ $ $ $ $ $ $ $ $ $ ",
"$ $ $ $ $ $ $ $ $ $ $ % $ : t y ..#.#.#.@.@.O.O.O.......} } | P P P 8 ; & X $ $ $ $ $ $ $ $ $ $ . $ $ $ ",
"$ $ $ $ $ $ $ $ $ $ $ $ $ $ $ $ & u y a s | I | } } I I I G G n u u & $ $ $ $ $ $ $ $ $ $ $ $ $ $ $ $ $ ",
"$ $ $ $ $ $ $ $ $ $ $ $ $ $ $ $ $ $ $ $ $ * * $ * $ * * * % % % % % $ $ $ $ $ $ % $ $ $ $ $ $ $ $ $ $ $ ",
"$ $ $ $ $ $ $ $ $ $ $ $ $ $ $ $ $ $ $ $ . . $ $ . . . . $ $ . $ $ $ $ $ $ $ $ $ C.$ $ $ $ $ $ $ $ $ $ $ ",
"$ $ $ $ $ $ $ $ $ $ $ $ $ $ $ $ $ $ $ $ . $ $ $ $ $ . $ $ $ $ $ $ $ $ $ $ $ $ $ sX$ $ $ $ $ $ $ $ $ $ $ ",
"$ $ $ $ $ $ $ $ $ $ $ $ $ $ $ $ $ $ $ $ $ $ $ $ $ $ $ $ $ $ $ $ $ $ $ $ $ $ Y sXsXsXV.$ $ $ $ $ $ $ $ $ ",
"$ $ $ $ $ $ $ $ $ $ $ $ $ $ $ $ $ $ $ $ $ $ $ $ $ $ $ $ $ $ $ $ $ $ $ $ $ $ $ $ sX$ $ $ $ $ $ $ $ $ $ $ ",
"$ $ $ . $ $ $ $ $ $ $ $ $ $ $ $ $ $ $ $ $ $ $ $ $ $ $ $ $ $ $ $ $ $ $ $ $ $ $ $ V.$ $ $ $ $ $ $ $ $ $ $ ",
"$ $ $ $ $ $ $ $ $ $ $ $ $ $ $ $ $ $ $ $ $ $ $ $ $ $ $ $ $ $ $ $ $ $ $ $ $ $ $ $ $ $ $ $ $ $ $ $ $ $ $ $ ",
"$ $ $ $ $ $ $ $ $ $ $ $ $ $ $ $ $ $ $ $ $ $ $ $ $ $ $ $ $ $ $ $ $ $ $ $ $ $ $ $ $ $ $ $ $ $ $ $ $ $ $ $ ",
"$ $ $ $ . * $ $ $ $ $ $ $ $ $ $ . . * . . * $ $ $ $ $ $ $ $ $ $ $ $ $ $ $ $ $ $ $ $ $ $ $ $ $ $ $ $ $ $ ",
"$ $ $ $ . $ $ $ $ $ $ $ $ $ $ $ . . . . . . $ $ $ $ $ $ $ $ $ $ $ $ $ $ $ $ $ $ $ $ $ $ $ $ $ $ $ $ $ $ ",
"$ $ $ $ . . $ $ $ $ $ $ $ $ $ $ . > Y.* . . . $ $ $ $ $ $ $ $ $ $ $ $ $ $ $ $ $ $ $ $ $ $ $ $ $ . $ $ $ ",
"$ $ $ $ $ $ $ $ $ $ $ $ $ $ $ $ . p sXd . * . . $ $ $ $ $ $ $ $ $ $ $ $ $ $ $ $ $ $ $ $ $ $ . $ $ $ $ $ ",
"$ $ $ $ $ $ $ $ $ . . * $ . % . $ $ f * $ $ $ $ $ $ $ $ $ $ $ $ $ $ $ $ $ $ $ $ $ $ $ $ $ $ $ $ $ $ $ $ ",
"$ $ $ $ $ $ $ $ $ . . . $ $ % . $ $ . . $ $ $ $ $ $ $ $ $ $ $ $ $ $ $ $ $ $ $ $ $ $ $ $ $ $ $ $ $ $ $ $ ",
"$ $ $ $ $ $ $ $ $ $ . . . . . . $ $ $ $ $ $ $ $ $ $ $ $ . $ * . $ $ $ $ $ $ $ $ $ $ $ $ $ $ $ $ $ $ $ $ ",
"* $ $ $ $ $ $ $ $ $ . * . . * . $ $ $ $ $ $ $ $ $ $ $ $ . . . $ $ $ $ $ $ $ $ $ $ $ $ $ $ $ $ $ $ $ $ $ ",
". . $ $ $ $ $ $ $ $ $ $ $ $ $ $ $ $ $ $ $ $ $ $ $ $ $ $ $ $ $ $ . $ $ $ $ $ $ $ $ $ $ $ $ $ $ $ $ $ $ $ ",
". . $ $ $ $ $ $ $ $ $ $ $ $ $ $ $ $ $ $ $ $ $ $ $ $ $ $ $ $ $ $ $ $ $ $ $ $ $ $ $ $ $ $ $ $ $ $ $ $ $ $ ",
"$ $ $ $ $ $ $ $ $ $ $ $ $ $ $ $ $ $ $ $ $ $ $ $ $ $ $ $ $ $ $ $ $ $ $ $ $ $ $ $ $ $ $ $ $ $ $ $ $ $ $ $ ",
"$ $ $ $ $ . $ $ $ $ $ $ $ $ $ $ $ $ $ $ $ $ $ $ $ $ $ $ $ $ $ $ $ $ $ $ $ $ $ $ $ $ $ $ $ $ $ $ $ $ $ $ "
};
