/* XPM */
static char *_5fa2a4c20564989f1effd7d621928deztmtIlgG0q3jxIhr[] = {
/* columns rows colors chars-per-pixel */
"50 50 166 2 ",
"   c #2A2F3F",
".  c #222F3D",
"X  c #22313A",
"o  c #232D43",
"O  c #252B4E",
"+  c #322F44",
"@  c #3D2E4D",
"#  c #243741",
"$  c #263A45",
"%  c #2C3C43",
"&  c #273D4A",
"*  c #283E4C",
"=  c #333F44",
"-  c #262A52",
";  c #28275E",
":  c #28285B",
">  c #293559",
",  c #292662",
"<  c #2C236D",
"1  c #2B2F65",
"2  c #2F3C6F",
"3  c #2C2273",
"4  c #2E207A",
"5  c #333F7D",
"6  c #303E72",
"7  c #402E4F",
"8  c #452E53",
"9  c #4A2D56",
"0  c #4E2E59",
"q  c #402769",
"w  c #592C61",
"e  c #563365",
"r  c #462671",
"t  c #632C68",
"y  c #752A75",
"u  c #7C2A7A",
"i  c #692976",
"p  c #28414F",
"a  c #314149",
"s  c #294352",
"d  c #2D4B5C",
"f  c #364F5E",
"g  c #2F4F62",
"h  c #304D69",
"j  c #2F5063",
"k  c #305165",
"l  c #31556A",
"z  c #33586E",
"x  c #324D70",
"c  c #355C73",
"v  c #395E74",
"b  c #365D78",
"n  c #37617A",
"m  c #3A6279",
"M  c #424769",
"N  c #46697D",
"B  c #4C6D7E",
"V  c #586871",
"C  c #767E7A",
"Z  c #812A7E",
"A  c #9B8C76",
"S  c #2F1E81",
"D  c #301E84",
"F  c #321C8B",
"G  c #331A92",
"H  c #35189B",
"J  c #35179E",
"K  c #333B80",
"L  c #35338B",
"P  c #3617A2",
"I  c #3F18A1",
"U  c #3714AB",
"Y  c #3814AD",
"T  c #361EA0",
"R  c #3914B2",
"E  c #3B10BC",
"W  c #3821A5",
"Q  c #385884",
"!  c #396681",
"~  c #3B6985",
"^  c #3D658E",
"/  c #3C6D8B",
"(  c #3E708E",
")  c #3F7392",
"_  c #577384",
"`  c #42799B",
"'  c #5D7F93",
"]  c #667882",
"[  c #447EA1",
"{  c #3C0EC4",
"}  c #3E0DCA",
"|  c #3F0BD2",
" . c #400AD6",
".. c #4108DD",
"X. c #4307E3",
"o. c #4405EB",
"O. c #4602F6",
"+. c #4800FF",
"@. c #4701FA",
"#. c #852981",
"$. c #4C819F",
"%. c #57859E",
"&. c #788186",
"*. c #768187",
"=. c #678B9C",
"-. c #7D9499",
";. c #4581A5",
":. c #4B82A4",
">. c #4784AA",
",. c #4886AD",
"<. c #4989AF",
"1. c #5489A9",
"2. c #5789A6",
"3. c #5F90AE",
"4. c #4A8CB4",
"5. c #4C8FB8",
"6. c #4D92BC",
"7. c #5F96B5",
"8. c #5795B9",
"9. c #6E8EA2",
"0. c #648FA5",
"q. c #6392AF",
"w. c #789DAE",
"e. c #6499B5",
"r. c #6C9AB5",
"t. c #6F9FB8",
"y. c #639AB9",
"u. c #759FB9",
"i. c #7EA1B1",
"p. c #969D97",
"a. c #8C9998",
"s. c #AAAB9E",
"d. c #A1A79E",
"f. c #B6B19E",
"g. c #8095A1",
"h. c #969EA1",
"j. c #8CA3A8",
"k. c #9CB2BF",
"l. c #9BA9A7",
"z. c #A2A8A1",
"x. c #AEB4AA",
"c. c #ACB4B8",
"v. c #B4BAB0",
"b. c #BBB9A9",
"n. c #C2AE92",
"m. c #D9BA93",
"M. c #C1BFAF",
"N. c #E4C197",
"B. c #EDC99E",
"V. c #CFC1A8",
"C. c #DCC5A3",
"Z. c #F6D0A2",
"A. c #FFD7A8",
"S. c #84AAC1",
"D. c #90AEC1",
"F. c #8FB1C6",
"G. c #A0BDCF",
"H. c #AAC5D4",
"J. c #A6C0D0",
"K. c #C0D3DF",
"L. c #D8DCDF",
"P. c #C5D7E2",
"I. c #CBDAE4",
"U. c #DEE0E1",
"Y. c #FDFDFD",
"T. c #F6F8F9",
/* pixels */
"+.+.+.+.+.+.+.+.+.+.+.+.+.+.+.+.+.+.+.+.+.+.+.+.+.+.+.+.+.+.+.+.+.+.+.+.+.+.+.+.+.+.+.+.+.+.+.+.+.+.",
"+.+.+.+.+.+.+.+.+.+.+.+.+.+.+.+.+.+.+.+.+.+.+.+.+.+.+.+.+.+.+.+.+.+.+.+.+.+.+.+.+.+.+.+.+.+.+.+.+.+.",
"+.+.+.+.+.+.+.+.+.+.+.+.+.+.+.+.+.+.+.+.+.+.+.+.+.+.+.+.+.+.+.+.+.+.+.+.+.+.+.+.+.+.+.+.+.+.+.+.+.+.",
"+.+.+.+.+.+.+.+.+.+.+.+.+.+.+.+.+.+.+.+.+.+.+.+.+.+.+.+.+.+.+.+.+.+.+.+.+.+.+.+.+.+.+.+.+.+.+.+.+.+.",
"+.+.+.+.+.+.+.+.+.+.+.+.+.+.+.+.+.+.+.+.+.+.+.+.+.+.+.+.+.+.+.+.+.+.+.+.+.+.+.+.+.+.+.+.+.+.+.+.+.+.",
"+.+.+.+.+.+.+.+.+.+.+.+.+.+.+.+.+.+.+.+.+.+.+.+.+.+.+.+.+.+.+.+.+.+.+.+.+.+.+.+.+.+.+.+.+.+.+.+.+.+.",
"+.+.+.+.+.+.+.+.+.+.+.+.+.+.+.+.+.+.+.+.+.+.+.+.+.+.+.+.+.+.+.+.+.+.+.+.+.+.+.+.+.+.+.+.+.+.+.+.+.+.",
"+.+.+.+.+.+.+.+.+.+.+.+.o.{ U U U U U U U U U U U U U U U U U U U U U U { o.+.+.+.+.+.+.+.+.+.+.+.+.",
"+.+.+.+.+.+.+.+.+.+.+.+.| S O - O O - - - - O O O O O O O - O O - - O O S | +.+.+.+.+.+.+.+.+.+.+.+.",
"+.+.+.+.+.+.+.+.+.+.X.} H ; X s d d d d d * X $ d k k k k k k k k l k k 5 W { o.+.+.+.+.+.+.+.+.+.+.",
"+.+.+.+.+.+.+.+.+.+.} D - o $ l ( / / ( / l $ d / ;.[ [ ;.[ ;.;.[ [ >.[ ^ 2 S } +.+.+.+.+.+.+.+.+.+.",
"+.+.+.+.+.+.+.+.} } I q @   * n ;.3.i.%./ N V _ :.5.6.6.6.6.6.6.6.6.6.6.[ v 6 W } o.+.+.+.+.+.+.+.+.",
"+.+.+.+.+.+.+.+.< < r i t @ & n :.F.I.g.g ] c.k.q.>.5.6.6.6.6.6.6.6.6.6.4.[ ^ x S { +.+.+.+.+.+.+.+.",
"+.+.+.+.+.+.+.+.X X 8 Z u 8 & n 1.H.Y.h.= *.U.I.r.;.4.5.,.;.<.6.6.6.6.6.4.,.^ d - Y +.+.+.+.+.+.+.+.",
"+.+.+.+.+.+.+.+.X X 8 Z u 8 $ n 1.H.Y.h.= *.U.P.r.;.4.<.~ l ` 5.6.6.6.6.[ n d & - Y +.+.+.+.+.+.+.+.",
"+.+.+.+.+.+.+.+.X X 8 y y @ $ n 1.H.Y.h.= &.U.P.r.>.4.>.v p ~ 5.6.6.6.6.` k $ X - Y +.+.+.+.+.+.+.+.",
"+.+.+.+.+.+.+.+.X X + 9 9 + * n 1.H.Y.h.= ] U.I.r.:.4.4.` ~ [ 6.6.6.6.6.<.) c s - U +.+.+.+.+.+.+.+.",
"+.+.+.+.+.+.+.+.. . . X X X & m 2.J.T.h.a &.U.K.r.:.4.6.6.6.6.6.6.6.6.6.6.6.[ j - U +.+.+.+.+.+.+.+.",
"+.+.+.+.+.+.+.+.H H 4 O + 9 e M m 9.G.9.m %.D.S.1.>.4.6.6.6.6.6.6.6.6.6.6.6.$.j - Y +.+.+.+.+.+.+.+.",
"+.+.+.+.+.+.+.+.O.O.E ; @ y Z 0 $ n :.` ` ` :.;.[ :.4.6.6.6.6.6.6.6.6.6.6.6.[ j - U +.+.+.+.+.+.+.+.",
"+.+.+.+.+.+.+.+.+.+.E , 7 y #.0 X c ` ;.` [ ` [ [ ;.4.6.6.6.6.6.6.6.6.6.6.6.$.j - Y +.+.+.+.+.+.+.+.",
"+.+.+.+.+.+.+.+.+.+.E , 7 y #.0 $ c ;.` [ [ [ [ [ ;.4.6.6.6.6.6.6.6.6.6.6.6.) j - Y +.+.+.+.+.+.+.+.",
"+.+.+.+.+.+.+.+.+.+.E , + w t @ X z ` ;.[ ` [ [ ` ;.,.4.5.6.;.) ( ( ( ( ) ) m d - Y +.+.+.+.+.+.+.+.",
"+.+.+.+.+.+.+.+.+.+.E ,   + +   $ c ;.` [ [ [ [ [ [ ;.;.4.4.~ s s s s s s s p   - U +.+.+.+.+.+.+.+.",
"+.+.+.+.+.+.+.+.+.+.} F 3 < , O X j ~ ( [ ` [ ;.;.>.;.>.5.5./ d p X O , < < , , S { +.+.+.+.+.+.+.+.",
"+.+.+.+.+.+.+.+.+.+.o. .} } R < X & s n ) [ [ :.4.4.5.5.5.5.>.) z X < Y  . . . .| X.+.+.+.+.+.+.+.+.",
"+.+.+.+.+.+.+.+.+.+.+.+.+.+.X.H : O X l ` :.%.0.r.r.r.t.t.t.t.t.B a S ..O.+.+.+.+.+.+.+.+.+.+.+.+.+.",
"+.+.+.+.+.+.+.+.+.+.+.+.+.+.O.| Y 3 X l ` =.p.s.b.M.V.M.M.M.M.M.C a S ..O.@.+.+.+.+.+.+.+.+.+.+.+.+.",
"+.+.+.+.+.+.+.+.+.+.+.+.+.o.X.o. .D X l ` -.n.N.Z.A.A.A.A.A.A.A.A   4 ..+.+.+.+.+.+.+.+.+.+.+.+.+.+.",
"+.+.+.+.+.+.+.+.+.+.+.+.X.R F F D , X l ` -.n.N.Z.A.A.A.A.A.A.A.A a S ..+.+.+.+.+.+.+.+.+.+.+.+.+.+.",
"+.+.+.+.+.+.+.+.+.+.+.+.} 3 X X X X X z ) -.n.N.Z.A.A.A.A.A.A.A.A % S X.+.+.+.+.+.+.+.+.+.+.+.+.+.+.",
"+.+.+.+.+.+.+.+.+.+.+.+.} 3 $ k n n n ( ` -.n.C.Z.A.A.A.A.A.A.A.A a S | +.+.+.+.+.+.+.+.+.+.+.+.+.+.",
"+.+.+.+.+.+.+.+.+.+.+.+.} 3 p / 5.5.5.>.[ -.n.N.Z.A.A.A.A.A.A.A.A = S | +.+.+.+.+.+.+.+.+.+.+.+.+.+.",
"+.+.+.+.+.+.+.+.+.+.+.+.} 3 $ k / ) <.>.[ =.a.d.x.M.C.B.B.B.V.v.C % S X.+.+.+.+.+.+.+.+.+.+.+.+.+.+.",
"+.+.+.+.+.+.+.+.+.+.+.+.} 3 X # s n ;.[ [ ;.$.2.7.i.f.m.m.m.l.y._ $ S X.+.+.+.+.+.+.+.+.+.+.+.+.+.+.",
"+.+.+.+.+.+.+.+.+.+.+.+.X.P 3 - # d n / ` ;.>.<.5.e.j.s.s.z.w.6.Q $ S | +.+.+.+.+.+.+.+.+.+.+.+.+.+.",
"+.+.+.+.+.+.+.+.+.+.+.+.O.X.E 3 X # & c ) >.4.5.6.8.7.e.r.e.8.6.! # S ..+.+.+.+.+.+.+.+.+.+.+.+.+.+.",
"+.+.+.+.+.+.+.+.+.+.+.+.+.+.X.P < - X l ) ,.5.<.;.) ` ` >.5.5.6.! # S ..+.+.+.+.+.+.+.+.+.+.+.+.+.+.",
"+.+.+.+.+.+.+.+.+.+.+.+.+.+.@...E 4 X z [ <.5.[ c d d k / >.<.6.! $ S ..+.+.+.+.+.+.+.+.+.+.+.+.+.+.",
"+.+.+.+.+.+.+.+.+.+.+.+.+.+.+.+.o.G X z ) [ [ ^ 2 - o $ v [ [ ;.Q 1 H X.+.+.+.+.+.+.+.+.+.+.+.+.+.+.",
"+.+.+.+.+.+.+.+.+.+.+.+.+.+.+.+.o.G X k ) / z K W J , & n ` ! k L R | O.+.+.+.+.+.+.+.+.+.+.+.+.+.+.",
"+.+.+.+.+.+.+.+.+.+.+.+.+.+.+.+.O.G X g ( b > S  .| 3 & z ( x O J o.+.+.+.+.+.+.+.+.+.+.+.+.+.+.+.+.",
"+.+.+.+.+.+.+.+.+.+.+.+.+.+.+.+.o.G X & g K P { o.| 4 X s h L U | O.+.+.+.+.+.+.+.+.+.+.+.+.+.+.+.+.",
"+.+.+.+.+.+.+.+.+.+.+.+.+.+.+.+.o.F X X X D X.+.+.| 3 X X o J +.+.+.+.+.+.+.+.+.+.+.+.+.+.+.+.+.+.+.",
"+.+.+.+.+.+.+.+.+.+.+.+.+.+.+.+.o.G X X X S X.+.+.| 3 X X o P +.+.+.+.+.+.+.+.+.+.+.+.+.+.+.+.+.+.+.",
"+.+.+.+.+.+.+.+.+.+.+.+.+.+.+.+.+.+.+.+.+.+.+.+.+.+.+.+.+.+.+.+.+.+.+.+.+.+.+.+.+.+.+.+.+.+.+.+.+.+.",
"+.+.+.+.+.+.+.+.+.+.+.+.+.+.+.+.+.+.+.+.+.+.+.+.+.+.+.+.+.+.+.+.+.+.+.+.+.+.+.+.+.+.+.+.+.+.+.+.+.+.",
"+.+.+.+.+.+.+.+.+.+.+.+.+.+.+.+.+.+.+.+.+.+.+.+.+.+.+.+.+.+.+.+.+.+.+.+.+.+.+.+.+.+.+.+.+.+.+.+.+.+.",
"+.+.+.+.+.+.+.+.+.+.+.+.+.+.+.+.+.+.+.+.+.+.+.+.+.+.+.+.+.+.+.+.+.+.+.+.+.+.+.+.+.+.+.+.+.+.+.+.+.+.",
"+.+.+.+.+.+.+.+.+.+.+.+.+.+.+.+.+.+.+.+.+.+.+.+.+.+.+.+.+.+.+.+.+.+.+.+.+.+.+.+.+.+.+.+.+.+.+.+.+.+."
};
