/* XPM */
static char *result[] = {
/* columns rows colors chars-per-pixel */
"52 52 228 2 ",
"   c #1B173F",
".  c #1D213F",
"X  c #29293D",
"o  c #37373E",
"O  c #342E3B",
"+  c #4D3636",
"@  c #703D33",
"#  c #57553C",
"$  c #776C38",
"%  c #745931",
"&  c #1D1941",
"*  c #251D4C",
"=  c #251A4B",
"-  c #2C1B56",
";  c #321C5C",
":  c #33165D",
">  c #1D2241",
",  c #212244",
"<  c #25214B",
"1  c #2A2C4B",
"2  c #272849",
"3  c #332A4F",
"4  c #2C2553",
"5  c #35295A",
"6  c #353456",
"7  c #323546",
"8  c #3D1A6C",
"9  c #371865",
"0  c #3F1573",
"q  c #3C2864",
"w  c #3E2D7E",
"e  c #451E6C",
"r  c #471A77",
"t  c #511B79",
"y  c #432A66",
"u  c #49257B",
"i  c #4F3170",
"p  c #6D367B",
"a  c #3F435D",
"s  c #5B5877",
"d  c #504570",
"f  c #5F6278",
"g  c #66667E",
"h  c #6C5777",
"j  c #8B7B35",
"k  c #B27425",
"l  c #CF6E30",
"z  c #F07B1F",
"x  c #853E52",
"c  c #BC6861",
"v  c #9D5D65",
"b  c #948B38",
"n  c #B6AA38",
"m  c #BC9E2B",
"M  c #EB8F1C",
"N  c #F2B81D",
"B  c #F2A61B",
"V  c #E7912D",
"C  c #CCA729",
"Z  c #C39726",
"A  c #D8CA32",
"S  c #F9D627",
"D  c #EED12B",
"F  c #3D2E85",
"G  c #4C1F81",
"H  c #5B1D83",
"J  c #4A2882",
"K  c #582586",
"L  c #5A348D",
"P  c #5B3A93",
"I  c #652A8A",
"U  c #602786",
"Y  c #6C358C",
"T  c #6F398E",
"R  c #743B8F",
"E  c #793A8C",
"W  c #683A93",
"Q  c #7C3D90",
"!  c #753C90",
"~  c #3A4C9A",
"^  c #3A539E",
"/  c #2D4998",
"(  c #3C5CA4",
")  c #3857A1",
"_  c #3E65AA",
"`  c #49519D",
"'  c #524894",
"]  c #685685",
"[  c #644295",
"{  c #684B9B",
"}  c #7C549C",
"|  c #78579D",
" . c #724892",
".. c #766E90",
"X. c #4558A2",
"o. c #7959A3",
"O. c #6B5FA6",
"+. c #4568AC",
"@. c #586BAC",
"#. c #456DB2",
"$. c #4677B7",
"%. c #517EBD",
"&. c #696DAC",
"*. c #7366A8",
"=. c #6D7AB6",
"-. c #737DB4",
";. c #843E90",
":. c #8B3E91",
">. c #923F91",
",. c #9B3F91",
"<. c #8F338A",
"1. c #AB3D90",
"2. c #8A4696",
"3. c #934292",
"4. c #9C4293",
"5. c #984997",
"6. c #83579D",
"7. c #95579D",
"8. c #A24393",
"9. c #B1539C",
"0. c #8F6D95",
"q. c #865EA1",
"w. c #BF59A0",
"e. c #8C62A3",
"r. c #8568A7",
"t. c #9567A7",
"y. c #9B74AE",
"u. c #967AB3",
"i. c #8B74B0",
"p. c #A77BB3",
"a. c #A96FAA",
"s. c #CA579D",
"d. c #CF5EA0",
"f. c #C97BB3",
"g. c #D76FA9",
"h. c #E47BB0",
"j. c #7F8294",
"k. c #4580BE",
"l. c #7582B9",
"z. c #4D8AC5",
"x. c #4B92CB",
"c. c #5C93C8",
"v. c #4D9BD2",
"b. c #5494CC",
"n. c #7192C6",
"m. c #4DA7DB",
"M. c #57A6D9",
"N. c #4EB3DE",
"B. c #5ABDDD",
"V. c #66A8D9",
"C. c #75B4DF",
"Z. c #4DAEE0",
"A. c #59B5E2",
"S. c #68BBE5",
"D. c #79BBE3",
"F. c #75C4E8",
"G. c #63C0E3",
"H. c #6AC3DA",
"J. c #8689BD",
"K. c #9C85B9",
"L. c #9886BA",
"P. c #9D9FAC",
"I. c #A386B9",
"U. c #A68ABC",
"Y. c #AA8DBD",
"T. c #A980B5",
"R. c #B486BA",
"E. c #AC90BF",
"W. c #AD9AB7",
"Q. c #B890BD",
"!. c #9EA0AE",
"~. c #A4A6B2",
"^. c #B2ADBC",
"/. c #8B8D9D",
"(. c #D08DBB",
"). c #E894BD",
"_. c #8691C2",
"`. c #AC97C4",
"'. c #B699C5",
"]. c #86A8D2",
"[. c #A7A6CC",
"{. c #B9A4C6",
"}. c #BAB3D3",
"|. c #BDBFC8",
" X c #82BCE3",
".X c #D696C2",
"XX c #E99DC2",
"oX c #C7A7CA",
"OX c #D9A7CC",
"+X c #C7ACD1",
"@X c #CBB7D5",
"#X c #D6BAD8",
"$X c #D2B3CE",
"%X c #E9B9D5",
"&X c #85CBE5",
"*X c #96D4E9",
"=X c #96CBEA",
"-X c #A8D8E9",
";X c #B3DEED",
":X c #B0D8F0",
">X c #BAE1EC",
",X c #BCE1F2",
"<X c #8DC1D7",
"1X c #CCC3D8",
"2X c #D9C5DD",
"3X c #D7D8DE",
"4X c #E1C5DD",
"5X c #E7C7DC",
"6X c #DCCDE2",
"7X c #DBD5E7",
"8X c #E7CDE1",
"9X c #EAD3E4",
"0X c #EBDDEC",
"qX c #E6D3E6",
"wX c #F2D5E6",
"eX c #C7E5F3",
"rX c #D8ECF3",
"tX c #C6E6EF",
"yX c #EDE1EE",
"uX c #F3E2ED",
"iX c #EEE3F0",
"pX c #F2E6F1",
"aX c #F5ECF5",
"sX c #FAEDF3",
"dX c #F9F2F6",
"fX c #FDFDFE",
"gX c #F7F3F8",
"hX c #EAF5F8",
/* pixels */
"> > > > > > > > > > > > > > > > > > > > > > > > > > > > > > > > > > > > > > > > > > > > > > > > > > > > ",
"> > > > > > > > > > > > > > > > > > > > > > > > > > > > > > > > > > > > > > > > > > > > > > > > > > > > ",
"> > > > > > > > > > > > > > > > > > > > > > > > > > > > > > > > > > > > > > > > > > > > > > > > > > > > ",
"> > > > > > > > > > > > > > > > > > > > > > & . > > > > > > > > > > > > > > > > > > > > > > > > > > > > ",
"> > > > > > > > > > > > > > > > > > & > & &     & > > > > > > > > > > > > > > > > > > > > > > > > > > > ",
"> > > > > > > > > > > > > > > > & - - - = - - = = > & . > > > > > > > > > > > > > > > > > > > > > > > > ",
"> > > > > > > > > > > > > > > > ; 9 8 8 : 9 9 9 : ; - * > > > > > > > > > > > > > > > > > > > > > > > > ",
"> > > > > > > > > > > > > > < ; 0 J G r u J r r u r 9 9 ; , > > > > > > > > 1 /.> > > > > > > > > > > > ",
"> > > > > > > > > 1 j.. < ; 8 r K P { *.&.l.c.v.%.#.P F 0 9 - = > > > > > > ^.fXP.> > > > > > > > > > > ",
"> > > > > > > > > g fX..- 0 r K [ ..n.<X&XH.B.B.N.m.v.%.) w 9 - > > > > > > 1 1Xa > > > > > > > > > > > ",
"> > > > > > > > > 1 P.> 0 r K { ].*X*X>X,X&XB.A.N.m.m.v.$.` F 9 - & > > > > > > > > > > > > > > > > > > ",
"> > > > > > > > > > > ; r J [ _.<X&X-XtX>X&XG.A.Z.m.m.x._ ( ~ F q * > . > > > > > > > > > > > > > > > > ",
"> > > > > . > > > > ; 0 J W _.=X*X-X-X-X=XF.G.A.Z.Z.m.z._ _ ( ~ w i 1 . > > X , > > > > > > > > > > > > ",
"> > > > > > > > > < q r W &.=X*X>XtX-X*X&XF.G.A.Z.v.x._ ( ( ) ) &.{.~.] d 3 > , > > > > > > > > > > > > ",
"> > > > > > > > > > 8 J [ n.*XeXrXeX>X&X&XF.S.Z.v.x.$.( ( ( ) ~ -.qX8X+X{.W.0.3 2 > > > > > > > > > > > ",
"> > > > > > > > 4 9 0 J O.C.,XrXrXeX>X&XD.S.A.m.v.k._ ( ( ( ~ X.[.0X#X%XwX%Xa. .d 6 1 > > > > > > > > > ",
"> > > > > > > > & 9 J K =.C.eXhX,X,X*XF.S.A.M.x.#._ ( ( ) / / J.6X8X#X%X%Xf.4.! o.*.s 4 > > > > > > > > ",
"> > > > > > > > > q L P n.C.-X:X:X:XD.S.V.v.z.#.( ( _ ) ( =.[.1X8X@XoXXXh.s.1.2.i.u.*.6 > > > > > > > > ",
"> . > > > > > > > q G P c.V.C.=X=X XM.b.z.#._ +.( ) ^ ) l.}.9X9X#X{.'.(.d.s.9.a.u.u.] < > > > > > > > > ",
"> > > > > > > > > ; r L n.z.c.V.V.c.z.$.+.( ^ ) ) ( =.}.8X4X8X#XoXE.Y.Q.R.a.p._.u.o.i 7 . > > > > > > > ",
"> > > > > > > > > - 0 O.=.#.#.#.+.X.( ) ) ) X.+.@._.}.6X8X5X4X#X'.Y.U.I.K.L.L.u.i.P v j % 7 . > > > > > ",
"> > > > > > > > & ; { '.L.` ~ ~ ~ X.) ) @.&.-.[.6X9X9X5X4X2X#XoX'.Y.U.I.K.K.u.i.{ p l B C j X . > > > > ",
"> > > > > > . . X 6 {.dX2X*.` ` ` &.l._.[.1XsXuXwXwXOX#X4X#X+X'.E.Y.U.I.I.u.*.{ u x z M N D # X > > > > ",
"> > > > > > > . , ..6XuXwX1X[.`.}.@X7XfXdX9X8XwX%X(.2.oX8X#X'.`.Y.U.U.K.u.o.{ q < @ k z N S b a > > > > ",
"> > > > > > > . 3 ^.0X8X8XuXpXuXaXfXfXdXwXwX%X%X.Xw.E u.4X'.'.`.Y.Y.K.y.| P u 4 > X o % m S n X > > > > ",
"> > > > > > > > s 8XwX.X#X0XyXpXaXsXsXgXpXwX%XXXg.8.3.I.+X`.`.`.U.u.i.| W i 4 > . . X . # S n 7 > > > > ",
"> > > > > > > 6 OXwXOX8.p.6XyXyXpXdXdXgXsX8X5Xh.d.w.R.oX'.'.p.p.y.q.}  .q < > > > > . . . j $ X > > > > ",
"> > > > > . . h %X%Xf.1.7.@XyXyXaXgXgXaXaXqX6X%XOXOXoX'.'.`.u.e.6.} } 5 4 > > > > > . . . O o > > > > > ",
"> > > > > > 1 0.XXh.s.<.t.6X0X0XaXaXaXdXaX0X#X#X#X+X`.Y.y.q.q.6.} }  .i , > > > > > > > > > > > > > > > ",
"> > > > > > 7 1XXXd.s.a.#X0X0XiXaXaXaXaXaXyX+X@X'.p.y.e.q.q.q.} 6.2.:.p < > > > > > > > > > > > . > > > ",
"> > > > .   f @X#XOXOX6XiXpXiXiXaXgXaXpX0X6X'.p.t.t.e.q.q.q.2.2.3.3.:.2.y , > > > > > > > > > > > > > > ",
"> > > . . X s }.+X@X2X0XpX6XqX6X6X6X#X+XQ.p.y.t.e.r.q.q.7.5.4.5.>.>.;.;.p y , > . > > > > > > > > > > > ",
"> > > > > > > ] *.u.'.`.E.U.U.u.u.p.a.p.y.t.t.t.t.7.5.8.8.8.4.4.:.:.;.E Q Y < . , . > > > > > > > > > > ",
"> > > > > > > , 6 d 0.7.o.| o.o. .d r.q.t.t.7.5.5.8.8.8.,.4.>.>.:.;.Q Q R T q * ^.> > > > > > > > > > > ",
"> > > > > > > > X j V c c v i 3 5 1 1 i >.>.>.,.,.,.4.3.>.>.:.;.2.Q Q R Y I e , fX> > > > > > > > > > > ",
"> > > > > > > > O m N M l @ , > > > , 4 ,.>.:.>.>.>.>.2.:.;.;.;.E E R Y I H 5 3XfXfX~., > > > > > > > > ",
"> > > > > > > > o n S B k X & > > > > , E 2.;.;.:.;.:.;.;.;.Q Q E R Y I H e * . fX> > > > > > > > > . > ",
"> > > . > > > > O n S N k o > > > > > < i ;.;.;.;.Q Q Q Q R R R Y Y K y * . > > ~.> > > > > > > > > > > ",
"> > > > > > > > . $ A D k O > > > > > > 3 Q R E E ! ! ! R R T Y I H e < , > > > > > > > > > > > > > > > ",
"> > > > > > > > . o j A C X > > > > > & 5 Y R R T T R Y Y I I H e 4 > > . . > > > > > > > > > > > > > > ",
"> > > > > > > > . > X # j o . > > > > > 5 K I I I I I U K u q > > > > > > > > > > > > > > > > > > > > > ",
"> > > > > > > > > > > > . > > > . . > > , t t r t t r ; < > > > > > > > > > > > > > > > > > > > > > > > ",
"> > > > > > > > > > > > > > > > > 6 |.2 > 4 < , * , > > > > > > > > > > > > > > > > > > > > > > > > > > ",
"> > > > > > > > > > > > > > > > > a fXf > > > > > , > > > > > > > > > > > > > > > > > > > > > > > > > > ",
"> > > > > > > > > > > > > > > > > > f 2 > > > > , > > > > > > > > > > > > > > > > > > > > > > > > > > > ",
"> > . > > > > > > > > > > > > > > > > > > > > > . . > > > > > > > > > > > > > > > > > > > > > . > > > > ",
"> > > > > > > > > > > > > > . > > > > > > > > > > > > > > > > > > > > > > > > > > > > > > > > > > > > > ",
"> > > > > > > > > > > > > > > > > > > > > > > > > > > > > > > > > > > > > > > > > > > > > > > > > > > > ",
"> > > > > > > > > > > > > > > > > > > > > > > > > > > > > > > > > > > > > > > > > > > > > > > > > > > > ",
"> > > > > > > > > > > > > > > > > > > > > > > > > > > > > > > > > > > > > > > > > > > > > > > > > > > > ",
"> > > > > > > > > > > > > > > > > > > > > > > > > > > > > > > > > > > > > > > > > > > > > > > > > > > > ",
"> > > > > > > > > > > > > > > > > . > > > > > > > > > > > > > > > > > > > > > > > > > > > > > > > > > > "
};
