/* XPM */
static char *result[] = {
/* columns rows colors chars-per-pixel */
"52 52 229 2 ",
"   c #1A1B3E",
".  c #1E223E",
"X  c #23243B",
"o  c #38323A",
"O  c #473230",
"+  c #7C3E3E",
"@  c #49473C",
"#  c #61412B",
"$  c #736535",
"%  c #1D1640",
"&  c #241B49",
"*  c #2D1B55",
"=  c #2D185B",
"-  c #331A5D",
";  c #2A0C53",
":  c #1D2241",
">  c #222345",
",  c #26224A",
"<  c #2A244C",
"1  c #282B49",
"2  c #2D2654",
"3  c #352958",
"4  c #353555",
"5  c #302C48",
"6  c #3C0C69",
"7  c #361B62",
"8  c #3B1769",
"9  c #3E1773",
"0  c #3E0C74",
"q  c #3A3262",
"w  c #38266B",
"e  c #471977",
"r  c #4E1178",
"t  c #492B73",
"y  c #463759",
"u  c #3F435D",
"i  c #4F536B",
"p  c #5F6278",
"a  c #6A6769",
"s  c #8D712F",
"d  c #C86221",
"f  c #DE7735",
"g  c #901B7E",
"h  c #9C5F58",
"j  c #A14B53",
"k  c #C3695C",
"l  c #A49234",
"z  c #F68517",
"x  c #F1951A",
"c  c #DCA81C",
"v  c #F4B21B",
"b  c #DC9B33",
"n  c #CEBA37",
"m  c #D58C1D",
"M  c #F8C61D",
"N  c #F1D72D",
"B  c #FEED31",
"V  c #D3C835",
"C  c #343B90",
"Z  c #4C1A81",
"A  c #581C82",
"S  c #552B8C",
"D  c #592487",
"F  c #5E358C",
"G  c #5A3591",
"H  c #46328A",
"J  c #65288A",
"K  c #6B358D",
"L  c #6C368D",
"P  c #733B8F",
"I  c #7A3D8F",
"U  c #753B92",
"Y  c #7D3D90",
"T  c #673D97",
"R  c #2B4798",
"E  c #3A4A98",
"W  c #37529E",
"Q  c #3B56A1",
"!  c #3B5CA4",
"~  c #3657A1",
"^  c #3D64A9",
"/  c #47559E",
"(  c #584A99",
")  c #674798",
"_  c #7B4697",
"`  c #76529D",
"'  c #7C549C",
"]  c #715A99",
"[  c #68548C",
"{  c #4259A2",
"}  c #5756A1",
"|  c #7557A4",
" . c #6855A2",
".. c #436BAE",
"X. c #4779B9",
"o. c #5C6EB0",
"O. c #7964A8",
"+. c #6777B4",
"@. c #7071AD",
"#. c #6C6F83",
"$. c #863C8F",
"%. c #843D90",
"&. c #8B3E91",
"*. c #933F91",
"=. c #993E91",
"-. c #862E88",
";. c #B3378C",
":. c #C63C8F",
">. c #854698",
",. c #934192",
"<. c #9B4494",
"1. c #9B4898",
"2. c #835A9E",
"3. c #955D8A",
"4. c #A34192",
"5. c #B04F9A",
"6. c #855DA1",
"7. c #BE5EA4",
"8. c #8B63A4",
"9. c #8668A9",
"0. c #9465A5",
"q. c #956BA9",
"w. c #9873AD",
"e. c #8579B4",
"r. c #957CB4",
"t. c #8C73AE",
"y. c #A279AB",
"u. c #AB70AC",
"i. c #D14F97",
"p. c #CC74AF",
"a. c #CC6EA8",
"s. c #E66EA7",
"d. c #7F8294",
"f. c #7A88BD",
"g. c #4D86C3",
"h. c #4D9DD3",
"j. c #5B9ED3",
"k. c #518FC9",
"l. c #7190C5",
"z. c #4CA9DD",
"x. c #4CA5DA",
"c. c #58A7D8",
"v. c #57BDDC",
"b. c #4DB4DF",
"n. c #73B1DD",
"m. c #6CAADA",
"M. c #57AEE0",
"N. c #4EB4E0",
"B. c #58B6E3",
"V. c #4CADE0",
"C. c #65B7E4",
"Z. c #79BBE3",
"A. c #6EC4DE",
"S. c #69C2E4",
"D. c #76C5E9",
"F. c #8B889D",
"G. c #9B81B6",
"H. c #9D84B8",
"J. c #9988BB",
"K. c #938DAF",
"L. c #A286B9",
"P. c #A488BA",
"I. c #AA8CBD",
"U. c #AD90BF",
"Y. c #B584B7",
"T. c #A6A8B4",
"R. c #B7AEBC",
"E. c #CB88B9",
"W. c #E690BA",
"Q. c #9398C6",
"!. c #AD92C1",
"~. c #AF98C3",
"^. c #B195C2",
"/. c #B79BC6",
"(. c #A9A3C9",
"). c #BBA4CA",
"_. c #B3ADD0",
"`. c #BBBBCF",
"'. c #D999C5",
"]. c #EB9EC3",
"[. c #C5A9CE",
"{. c #C9ADD1",
"}. c #C9B6D5",
"|. c #D5B9D7",
" X c #DAACCB",
".X c #E7BAD6",
"XX c #EBB5D3",
"oX c #8DCFE5",
"OX c #87C8E9",
"+X c #98D4E6",
"@X c #91D0EA",
"#X c #A6D7EC",
"$X c #B6DCF2",
"%X c #A8D5EF",
"&X c #99E5F4",
"*X c #BBE1EF",
"=X c #86CFDF",
"-X c #CBC4D7",
";X c #DBC3DD",
":X c #D6CEDA",
">X c #D2D3D9",
",X c #E1C5DD",
"<X c #EACCDD",
"1X c #F2C8DE",
"2X c #DCCBE3",
"3X c #DCC5E0",
"4X c #DFD0E3",
"5X c #E3CDE2",
"6X c #E9CDE1",
"7X c #EBD4E5",
"8X c #EBDDEC",
"9X c #E7D8E8",
"0X c #F4DAE9",
"qX c #F0CCE1",
"wX c #C4E5EE",
"eX c #C8E6F3",
"rX c #DBEEF5",
"tX c #EDE1ED",
"yX c #F3E2ED",
"uX c #EDE2F0",
"iX c #E0EEF4",
"pX c #F5EDF5",
"aX c #FAEDF4",
"sX c #F7E3F2",
"dX c #FAF2F5",
"fX c #FBF4F9",
"gX c #FEFEFE",
"hX c #F6F1F7",
"jX c #ECF6F8",
/* pixels */
": : : : : : : : : : : : : : : : : : : : : : : : : : : : : : : : : : : : : : : : : : : : : : : : : : : : ",
": : : : : : : : : : : : : : : : : : : : : : : : : : : : : : : : : : : : : : : : : : : : : : : : : : : : ",
": : : : : : : : : : : : : : : : : : : : : : : : : : : : : : : : : : : : : : : : : : : : : : : : : : : : ",
": : : : : : : : : : : : : : : : : : : : : : : : & : : : : : : : : : : : : : : : : : : : : : : : : : : : ",
": : : : : : : : : : : : : : : : : : : : : : : - - - = & %     % : : : : : : : : : : : : : : : : : : : : ",
": : : : : : : : : : : : : : : : : : : 7 7 9 8 e e e 9 * = * % % : : : : : : : : : : : : : : : : : : : : ",
": : : : : : : : : : : : : : : : : : 8 9 e Z D D S Z e 6 8 = = ; : : : : : : : : : : : : : : : : : : : : ",
": : : : : : : : : : : : : : : : : 8 9 Z D G )  .@.e. . .D r 6 7 * : : : : : 1 F.1 . : : : : : : : : : : ",
": : : : : : : : : 1 F.. : : : 7 8 e Z G  .J.+X&X=X+X=Xv.j.l./ e 8 - . : : : T.gXT.: : : : : : : : : . : ",
": : : : : : : : : p gX>X% : : w e S ) J.oX+XA.+XwXwX$XA.v.v.c.X.Z e - : : : 4 -Xu : : : : : : : : : : : ",
": : : : : : : : : 1 T.u : w 7 Z D ) l.&X@X+X#X#XeXwX+XA.v.b.b.z.g.H 6 = % : : : . . : : : : : : : : : : ",
": : : : : : : : : : : : : = 9 A ) l.oX#XeXiXwX+X+XoXD.S.B.b.V.z.x.g.H 8 2 : : : : : : : : : : : : : : : ",
": : : : : . : : : : : : : w G S +.Z.%XiXrXrXwX#X@XD.D.B.N.z.z.z.h.X.Q e = : : : : : : : : : : : : : : : ",
": : : : : : : : : : : : : t S } n.Z.rXjX$XeX$XoXOXD.S.C.M.z.z.h.X.^ ! C 8 * : : : : : : : : : : : : : : ",
": : : : : : : : : : : : 7 0 Z +.C.n.$X$X$X$X@XD.D.S.M.c.x.z.h...! ! ! W 9 = : : : : : : : : : : : : : : ",
": : : : : : : : : : : : = 0 ( l.k.j.OX%X%XOXC.C.C.M.c.x.x.g.^ ^ ! ! ! Q E ; % : : : : : : : : : : : : : ",
": : : : : : : : : : : : t G.J.o...X.j.n.j.j.j.c.j.h.k.g.^ ^ ^ ! ! ! Q E @.G.3 : : : : : : : : : : : : : ",
": : : : : : : : : : : 5 R.dX-X} / { ....g.g.g.....^ ! ! ! ! ! ! ! ~ R E `.gX|.4 : : : : : : : : : : : : ",
": : : : : : : : : . 4 |.0XdX2X .C C E W W ! W W ! ! ! ! ! ~ ~ R R C } (.8X5X{.|.p > : : : : : : : : : : ",
": : : : : : : : . 1 :XdX9X<XpX{.O.} } { { / W W ! W W W R W W f.Q._.-X8X7X X.X0XsXw.> : : : : : : : : : ",
": : : : . . . : y XXsX1X'.;X8XdX9X-X_.(.Q.f.f.@.@.+.o.f.Q.-X>X:X6X7X7X;X}.].XX.XE.7.[ > . . : : : : : : ",
": : : : . . : :  X0X.XE.=.{.tXyXaXfXgXgXgXgXyXaXyXaXyX7X4X<X6X5X;X5X|./.).].W.a.5.-.) [ 1 : : : : : : : ",
": : : : . . X R.].W.p.5.J ~.uXuXyXpXaXpXdX8X7XqX7X0XqX7X<X,X;X,X;X|./.I.!.E.a.:.;._ O.r.[ : : : : : : : ",
": : : : . . w.0XW.:.;.g >.-XuXuXuXfXfXhXfX8X<XXX1XXXE.5.|.,X;X;X{./.I.I.P.!.Y.7.5.r.r.r.t.q : : : : : : ",
": : : : : 1 2X}.|.].p.'.}.uX8X8XpXhXhXhXpX9X1X].].7.4.e 6X,X|.[./.I.I.I.I.G.J.J.J.J.G.9.q : : : : : : : ",
": : : : : : 9.).|.3X5XuXuXuX8XuXhXpXhXhXpX5X1Xs.i.5.-.) 7X{./.!.U.I.P.P.L.G.H.r.G.e.O.F : : : . : : : : ",
": : : : : : 1 ] r.}.uXhXuXuXuXpXpXpXpXpXhX|.5X Xa.7.Y.{.[.^.^.!.U.P.P.L.L.H.G.t.O.( D h $ : . . . : : : ",
": : : : : : : 1 9.9.J.~.}.2X9XfXfXhXfXpXpX|.|.;X5X{.[./.!.^.!.!.U.U.L.L.t.9.] ) D t j x M $ . . : : : : ",
": : : : : : : l b 3.| | 9.w.P.}.;X2X8X9XuX{.|.[.).~./.^.^.U.L.y.q.q.9.' ) G S 2 < + f z c V X . : : : : ",
": : : : : : O M x f k 3.` ' ` | u.y.u.Y.y.w.q.w.q.q.0.q.6.6.6.6.' ` ` ) S 2 2 & > O d x M N @ . : : : : ",
": : : : : : l B x z d 5 % 3 t y 9.u.r.q.0.0.8.8.8.6.6.6.' 2.| >.' ` q 2 , : : : : > X c M N $ : : : : : ",
": : : : : : n N v m o : : : : : < >.0.0.0.0.0.8.8.8.6.6.2.2.' 2.>._ & : : : : : : X X O N N u : : : : : ",
": : : : : : $ B M s . . . : : : : &.&.*.<.1.4.4.1.1.1.1.<.<.,.,.,.%., : : : : : > : : . B n     : : : : ",
": : : : : : u B c # . . : : : : & 1.&.*.=.=.=.=.5.4.4.4.=.<.*.*.&.&.3 : : : : : R.: : . n @ : . : : : : ",
": : : : : : : $ N . . . : : : : , ,.$.$.&.*.*.*.*.=.=.=.=.*.&.%.%.%.3 & : : : : gX: : . o : : : : : : : ",
": : : : : : : : o X . . : : : : 2 %.Y %.%.&.&.&.&.&.&.>.%.%.$.%.I I P > : > #.gXgXgXT.: : : : : : : : : ",
": : : : : : : : : : : : : : : : 2 _ I Y %.Y %.%.$.$.%.%.%.Y Y I U P U 2 % : : : gX: : : : : : : : : : : ",
": : : : : : : : : : : : : : : : J U P P U I Y Y %.Y I I Y I I I L K J < : : : : T.: : : : : : : : : : : ",
": : : : : : : : : : : : : : : : A J K K L P U P P I I P P L P K K J r , : : : : : : : : : : : : : : : : ",
": : : : : : : : : : : : : : : : t r e J J J K L L L K K K K J D A r , : : : : : : : : : : : : : : : : : ",
": : : : : : : : : : : : : : : : : : > e r A A A A D J A A Z 2 : : : : : : : : : : : : : : : : : : : : : ",
": : : : : : : : : : : : : : : : . . : : : > : : * < & > : : : : : : : : : : : : : : : : : : : : : : : : ",
": : : : : : : : : : : : : : : : . 4 `.1 : : : : : : : : : : : : : : : : : : : : : : : : : : : : : : : : ",
": : : : : : : : : : : : : : : : . u gXp : : : : : : : : : : : : : : : : : : : : : : : : : : : : : : : : ",
": : : : : : : : : : : : : : : : : : p 1 : : : : : : : : : : : : : : : : : : : : : : : : : : : : : : : : ",
": : : : : : : : : : : : : : : : : : : : : : : : : : : : : : : : : : : : : : : : : : : : : : : : : : : : ",
": : : : : : : : : : : : : : : : : : : : : : : : : : : : : : : : : : : : : : : : : . : : : : : : : : : : ",
": : : : : : : : : : : : : : : : : : : : : : : : : : : : : : : : : : : : : : : : : : : : : : : : : : : : ",
": : : : : : : : : : : : : : : : : : : : : : : : : : : : : : : : : : : : : : : : : : : : : :   : : : : : ",
": : : : : : : : : : : : : : : : : : : : : : : : : : : : : : : : : : : : : : : : : : : : : : : : : : : : ",
": : : : : : : : : : : : : : : : : : : : : : : : : : : : : : : : : : : : : : : : : : : : : : : : : : : : ",
": : : : : : : : : : : : : : : : : : : : : : : : : : : : : : : : : : : : : : : : : : : : : : : : : : : : "
};
