/* XPM */
static char *result[] = {
/* columns rows colors chars-per-pixel */
"52 52 233 2 ",
"   c #27283E",
".  c #37363D",
"X  c #30273A",
"o  c #452D3B",
"O  c #55543E",
"+  c #4C423A",
"@  c #6D5435",
"#  c #7D7438",
"$  c #6E6739",
"%  c #1E1C42",
"&  c #251C4C",
"*  c #281B4D",
"=  c #2C1D54",
"-  c #2E1958",
";  c #321C5A",
":  c #351B5D",
">  c #1D2241",
",  c #212344",
"<  c #242843",
"1  c #25224A",
"2  c #29234D",
"3  c #2A2C4C",
"4  c #282C45",
"5  c #2E3140",
"6  c #2D2452",
"7  c #32235A",
"8  c #38285C",
"9  c #363658",
"0  c #2F3350",
"q  c #3D1A6C",
"w  c #361965",
"e  c #3D1971",
"r  c #3C2566",
"t  c #392877",
"y  c #45325C",
"u  c #421B6B",
"i  c #421C73",
"p  c #491D77",
"a  c #551F7D",
"s  c #4A2B69",
"d  c #54336D",
"f  c #492676",
"g  c #542779",
"h  c #553A77",
"j  c #4A386D",
"k  c #70377E",
"l  c #3F435D",
"z  c #464563",
"x  c #5C5779",
"c  c #585A6C",
"v  c #6B4A76",
"b  c #5F6278",
"n  c #5A525B",
"m  c #997A2D",
"M  c #807C3B",
"N  c #BF653C",
"B  c #91502D",
"V  c #843D54",
"C  c #945A6F",
"Z  c #915F6A",
"A  c #C7704E",
"S  c #D87025",
"D  c #8C853A",
"F  c #BA8F29",
"G  c #B7A533",
"H  c #E98F1E",
"J  c #F2B41D",
"K  c #C88228",
"L  c #C49622",
"P  c #E5952F",
"I  c #D5B62D",
"U  c #EDBB22",
"Y  c #DCC42F",
"T  c #EECA27",
"R  c #3F3A8D",
"E  c #4D2883",
"W  c #572785",
"Q  c #58348C",
"!  c #50368E",
"~  c #652C89",
"^  c #6B338C",
"/  c #6A3C89",
"(  c #743B8E",
")  c #773B8C",
"_  c #7C3D90",
"`  c #743B90",
"'  c #613F94",
"]  c #3C4998",
"[  c #334E9B",
"{  c #3B5CA4",
"}  c #3B56A0",
"|  c #3E63A9",
" . c #48579F",
".. c #514B95",
"X. c #684996",
"o. c #7D549B",
"O. c #795A9A",
"+. c #6C4F90",
"@. c #776C8A",
"#. c #74698F",
"$. c #415CA4",
"%. c #4B58A2",
"&. c #5E5BA2",
"*. c #695BA4",
"=. c #7557A0",
"-. c #4366AB",
";. c #486BB1",
":. c #4577B7",
">. c #556EAF",
",. c #7767A8",
"<. c #6775B3",
"1. c #7877B3",
"2. c #656DAE",
"3. c #833D90",
"4. c #8B3E90",
"5. c #933F91",
"6. c #993F91",
"7. c #983A8E",
"8. c #944192",
"9. c #9D4292",
"0. c #994C98",
"q. c #87569D",
"w. c #96569D",
"e. c #8A4695",
"r. c #A54595",
"t. c #B6539B",
"y. c #857395",
"u. c #855EA2",
"i. c #955EA1",
"p. c #8C63A4",
"a. c #886CAB",
"s. c #956AA7",
"d. c #8A71AF",
"f. c #9773AC",
"g. c #967AB3",
"h. c #8F7BB2",
"j. c #A67AB3",
"k. c #B16DA8",
"l. c #CC5EA1",
"z. c #D97CB2",
"x. c #CC74AE",
"c. c #CC5B9F",
"v. c #7F8294",
"b. c #4680BE",
"n. c #7B84B9",
"m. c #4D86C2",
"M. c #4C92CC",
"N. c #5992C9",
"B. c #4C9BD2",
"V. c #529CD2",
"C. c #508CC7",
"Z. c #669ED1",
"A. c #6F95C8",
"S. c #4DA7DB",
"D. c #57AAD8",
"F. c #52B7DF",
"G. c #64ACDC",
"H. c #78B3DE",
"J. c #58B5E2",
"K. c #4EAFE0",
"L. c #64B8E3",
"P. c #65C1DD",
"I. c #75C3E8",
"U. c #6BC2E5",
"Y. c #A4829F",
"T. c #9E8AAE",
"R. c #8387BA",
"E. c #9D84B8",
"W. c #9982B7",
"Q. c #9D9FAC",
"!. c #A385B9",
"~. c #A68ABC",
"^. c #AA89BB",
"/. c #B58CBC",
"(. c #AD97BC",
"). c #A697AC",
"_. c #ACADB9",
"`. c #8B8D9D",
"'. c #DA90BD",
"]. c #E180B3",
"[. c #C0A0B9",
"{. c #8993C3",
"}. c #979AC6",
"|. c #AE93C1",
" X c #B395C2",
".X c #B99AC5",
"XX c #A88FC1",
"oX c #87A5CC",
"OX c #89B5D8",
"+X c #A8A6CB",
"@X c #BBA5CB",
"#X c #B8B7D0",
"$X c #84BCE3",
"%X c #D598C4",
"&X c #E79CC2",
"*X c #C6A8CD",
"=X c #D9A5CA",
"-X c #C7ADD1",
";X c #CCB7D5",
":X c #D7B8D7",
">X c #DAABD0",
",X c #E8A9CC",
"<X c #E8B7D4",
"1X c #86CBE7",
"2X c #92C7E6",
"3X c #99D5E8",
"4X c #A6D8E9",
"5X c #B4DAF1",
"6X c #ADDBF0",
"7X c #BBE1EE",
"8X c #BDE1F1",
"9X c #CBC5D8",
"0X c #D2C2DB",
"qX c #DCC3DC",
"wX c #DCC9DD",
"eX c #D3C9DE",
"rX c #D2D3D9",
"tX c #E5C6DD",
"yX c #DCCBE1",
"uX c #DAD7E6",
"iX c #E5CDE2",
"pX c #EBDCEB",
"aX c #E9D6E7",
"sX c #F1D4E6",
"dX c #C6E5F2",
"fX c #D5EBF4",
"gX c #EDE1EE",
"hX c #F4E2ED",
"jX c #F5ECF5",
"kX c #F5EAF2",
"lX c #F8F1F6",
"zX c #FAF7FA",
"xX c #E9E6F1",
/* pixels */
"> > > > > > > > > > > > > > > > > > > > > > > > > > > > > > > > > > > > > > > > > > > > > > > > > > > > ",
"> > > > > > > > > > > > > > > > > > > > > > > > > > > > > > > > > > > > > > > > > > > > > > > > > > > > ",
"> > > > > > > > > > > > > > > > > > > > > > > > > > > > > > > > > > > > > > > > > > > > > > > > > > > > ",
"> > > > > > > > > > > > > > > > > > > > > > > > > > > > > 1 > % > > > > > > > > > > > > > > > > > > > > ",
"> > > > > > > > > > > > > > > > > > > > > > > 1 1 ; ; = = = = * & % > > > > > > > > > > > > > > > > > > ",
"> > > > > > > > > > > > > > > > > > > > 1 & & ; e e e e e e u w - * % % > > > > > > > > > > > > > > > > ",
"> > > > > > > > > > > > > > > > > > , > = w q p p E W W W W E p e - % % > > > > > > > > > > > > > > > > ",
"> > > > > > > > > > > > > > > > > > = ; e f E Q ' ' *.1.,.*.X.Q i q - = > > 4 `.< > > > > > > > > > > > ",
"> > > > > > > > > 3 v.> > > > > > > w E W Q X.,.{.oXOXOX3XOXoX1.&.f q w & % _.zXQ.> > > > > > > > > > > ",
"> > > > > > > > > b zXrX> > > > % - E E Q *.A.$X3X3X3X1X3X4X4X2XZ.<.! r : > 0 9Xl > > > > > > > > > > > ",
"> > > > > > > > > 3 _.l > > > , = t Q ' <.A.$X5X5XdX8X4X4X7X7X3XP.D.N...e - % > > > > > > > > > > > > > ",
"> > > > > > > > > > > > > > > & - e ! 2.Z.$XdXfXfXfXdX6X4X4X4XI.P.F.S.m...q & > > > > > > > > > > > > > ",
"> > > > > > > > > > > > > > 4 6 f Q *.N.G.$X5XfXdXdX8X3X3X1XI.P.J.F.K.S.;.E w & > > > > > > > > > > > > ",
"> > > > > > > > > > > > , , z @.g.E.<.<.N.H.6X5X5X6X3X1XI.I.P.P.J.K.K.K.M. .q - > > > > > > > > > > > > ",
"> > > > > > > > > > >   l @.).wXjX@X2.-.:.Z.$X2X2X1XI.I.I.U.P.L.K.S.S.S.B.;.R : & > > > > > > > > > > > ",
"> > > > > > > > > > l y.).wXhXgXgX@X&. .%.:.N.Z.V.G.G.G.L.J.D.D.S.S.B.M.b.| R w * > > > > > > > > > > > ",
"> > > > > > > > 0 v j.<XsXiX>XqXaX0X1... .} | :.b.N.N.V.V.S.B.B.M.C.b.| | | ] q = % > > > > > > > > > > ",
"> > > > > > > z @.[.'.,X&Xx.k.:XaXpX#XR.&.-.} } | -.-.:.:.:.:.:.:.| | | | | ] t - % > > > > > > > > > > ",
"> > > > > > 9 #.9X,Xz.l.t.7.i.-XpXhXpXyX+XR.<.$.$.} { { | { { | | { { { { { [ r = % > > > > > > > > > > ",
"> > > > > > > y.#X>X%Xl.r.0.XXeXgXgXkXlXxXuX#XR.<.>.{ $.} { { { } { { { } [  ...8 > > > > > > > > > > > ",
"> > > > > > 2 x T.;X>X>X%X-XyXpXgXhXjXlXzXlXlXaX9X+XR.<.>.{ $.} | $.[ [ } >.R.(.x , > > > > > > > > > > ",
"> > > > > > > 9 +.(.;XpXgXpXpXpXxXjXjXlXlXlXpXsXaXhXyX0X+X}.}.{.n.R.n.2.1.XXeX0XT.z > > > > > > > > > > ",
"> > > > > > 2 @ Z T.|.eXaXxXxXxXkXjXlXlXlXjXpXsXtXsXsXaXiXwXwXwX0X;X0X0X0XyXiXiX-X@.9   > > > > > > > > ",
"> > > > % 5 $ G P C a.W.@XyXpXjXjXjXjXlXjXgXiX<X,X,X=X%X=XtXtXiXwXtXiXqXqX0X>X<XtX*X@.% > > > > > > > > ",
"> > > > > O G U H A C u.h.~.;XpXlXjXlXlXkXiXtX&X].x.t.0.|.:XtX:XqX:X:X-X.X*X&X<XtX<Xk.y > > > > > > > > ",
"> > > > , D Y U H S V v +.p.g.*XyXpXjXlXxXyX<X=Xl.t.9.q. XiX:X:X;X*X@X|.^..X'.z.z.k.w.d > > > > > > > > ",
"> > > > . D T J K @ o 2 0 h +.s.|.*X:XaXyX;X:X>X%Xx.j.!.-X;X-X@X.X X|.^.^./.x.l.t.7.+.+.9 1 > > > > > > ",
"> > > >   D Y L @ X >   1 3 9 u.s.j.j..X.X.X*X;X=X-X.X.X.X.X X X|.XX^.~.~.!.!.k.t.0.u.,...3 > > > > > > ",
"> > > > > O G D . % > > > > 4 d w.s.s.s.f.f.j.j.^.|.|..X X|.|.XX^.~.~.~.E.E.T.W.T.g.g.h.#.9 > > > > > > ",
"> > > > > . # o   > > > > > , s e.w.i.s.s.p.p.p.s.f.g.g.!.!.!.~.~.~.!.E.E.W.g.W.g.h.d.O.+.6 > > > > > > ",
"> > > > >       > > > > > , , ) 4.5.9.0.i.i.i.u.u.u.p.u.a.p.s.d.a.f.f.d.d.d.a.a.a.o.+.j < > > > > > > > ",
"> > > > > > >   > > > > > , s _ 4.5.5.r.9.0.0.w.w.u.u.o.q.o.o.q.o.o.=.X.X.X.X.Q / k C O   > > > > > > > ",
"> > > > > > > > > > > > > 1 s e.3.4.4.5.6.r.r.r.9.0.e.q.q.o.o.o.h h f f t r 8 y V N K m o   > > > > > > ",
"> > > > > > > > > > > > > 9 / ` _ 3.4.4.5.5.6.6.9.9.9.8.8.e.3./ y 2 6 3 > > > y B H J L $   > > > > > > ",
"> > > > > > > > > > > > = f ^ ( _ _ 3.3.4.4.5.5.8.7.9.8.5.5.5.k 6 > > > > > > X B H J I $   > > > > > > ",
"> > > > > > > > > > > > 6 W ~ ^ ( ` _ _ 3.3.4.4.8.4.4.e.4.4.4.d 2 > > > > > @.b o F J Y O , > > > > > > ",
"> > > > > > > > > > > % = u g g ^ ( ( ) _ _ 3.3.3.3.4.4.3.3._ s > > > > > > > > + D T G O < > > > > > > ",
"> > > > > > > > > > > > , & ; a a ~ ^ ( ( ) ) _ _ ) 3.+._ ) +.g 2 > > > > > > > c G Y M 5 > > > > > > > ",
"> > > > > > > > > > > > > > & * u a W ~ ^ ^ ) ( ) ) ) ` ^ ` ` d , > > > > > > > 5 M # 5 > > > > > > > > ",
"> > > > > > > > > > > > > >   , , 6 : p g ~ ~ ~ ^ ^ ^ ^ ^ ~ ~ w , > > > > > > > 5 5 .   > > > > > > > > ",
"> > > > > > > > > > > > > > > > > > > 4 7 7 p f W g g W W a s 1 > > > > > > > > , , > > > > > > > > > > ",
"> > > > > > > > > > > > > > > > > > > > > , , = = : 2 * : - & > > > > > > > > > > > > > > > > > > > > > ",
"> > > > > > > > > > > > > > > > > 0 #X3 > > > >   & > >   % > > > > > > > > > > > > > > > > > > > > > > ",
"> > > > > > > > > > > > > > > > > z zXc > > > > > > > > > > > > > > > > > > > > > > > > > > > > > > > > ",
"> > > > > > > > > > > > > > > > > > b   > > > > > > > > > > > > > > > > > > > > > > > > > > > > > > > > ",
"> > > > > > > > > > > > > > > > > > > > > > > > > > > > > > > > > > > > > > > > > > > > > > > > > > > > ",
"> > > > > > > > > > > > > > > > > > > > > > > > > > > > > > > > > > > > > > > > > > > > > > > > > > > > ",
"> > > > > > > > > > > > > > > > > > > > > > > > > > > > > > > > > > > > > > > > > > > > > > > > > > > > ",
"> > > > > > > > > > > > > > > > > > > > > > > > > > > > > > > > > > > > > > > > > > > > > > > > > > > > ",
"> > > > > > > > > > > > > > > > > > > > > > > > > > > > > > > > > > > > > > > > > > > > > > > > > > > > ",
"> > > > > > > > > > > > > > > > > > > > > > > > > > > > > > > > > > > > > > > > > > > > > > > > > > > > ",
"> > > > > > > > > > > > > > > > > > > > > > > > > > > > > > > > > > > > > > > > > > > > > > > > > > > > "
};
