/* XPM */
static char *result[] = {
/* columns rows colors chars-per-pixel */
"52 52 228 2 ",
"   c #1A1B3E",
".  c #1E213E",
"X  c #38383E",
"o  c #2F2539",
"O  c #7C3E3E",
"+  c #4A443C",
"@  c #65432A",
"#  c #796131",
"$  c #1D1640",
"%  c #241949",
"&  c #2D1C55",
"*  c #2D185B",
"=  c #341C5C",
"-  c #361E5C",
";  c #2A0C53",
":  c #1D2241",
">  c #222245",
",  c #26224A",
"<  c #2B244C",
"1  c #282B4A",
"2  c #2D2755",
"3  c #342658",
"4  c #353555",
"5  c #302440",
"6  c #3C0C69",
"7  c #361B62",
"8  c #3B1868",
"9  c #3E1773",
"0  c #3E0C74",
"q  c #382562",
"w  c #3C3262",
"e  c #3A237B",
"r  c #461978",
"t  c #531B7B",
"y  c #43116C",
"u  c #45286A",
"i  c #462872",
"p  c #4F346E",
"a  c #463759",
"s  c #3F435D",
"d  c #65607C",
"f  c #847836",
"g  c #CA791E",
"h  c #CF6121",
"j  c #DE7735",
"k  c #EB7C29",
"l  c #901B7E",
"z  c #9C5F58",
"x  c #A14B53",
"c  c #C3695C",
"v  c #938637",
"b  c #9F9032",
"n  c #AB8229",
"m  c #DF8A1B",
"M  c #F48C18",
"N  c #F38717",
"B  c #F5941A",
"V  c #F29916",
"C  c #ED8E1B",
"Z  c #F6A21C",
"A  c #DF973F",
"S  c #D9B029",
"D  c #E9BC27",
"F  c #F6B521",
"G  c #EEAA2D",
"H  c #F9CC26",
"J  c #FBD427",
"K  c #FBDA27",
"L  c #EACA2C",
"P  c #343B90",
"I  c #4C1A81",
"U  c #5A1D82",
"Y  c #521D81",
"T  c #5C2284",
"R  c #552889",
"E  c #5E358C",
"W  c #4D348C",
"Q  c #642B89",
"!  c #652789",
"~  c #6C348C",
"^  c #6D388D",
"/  c #733B8E",
"(  c #7A3D8F",
")  c #7B3D83",
"_  c #6F3492",
"`  c #763C92",
"'  c #7C3D90",
"]  c #2B4798",
"[  c #3A4A98",
"{  c #37529E",
"}  c #3B56A1",
"|  c #3B5CA4",
" . c #3657A1",
".. c #3D64A9",
"X. c #47559E",
"o. c #584A99",
"O. c #674798",
"+. c #7B4798",
"@. c #79549C",
"#. c #6B508C",
"$. c #4259A2",
"%. c #5756A1",
"&. c #7557A4",
"*. c #6855A2",
"=. c #436BAE",
"-. c #4779B9",
";. c #5C6EB0",
":. c #7964A8",
">. c #6777B4",
",. c #7071AD",
"<. c #6C6F83",
"1. c #8B3D8C",
"2. c #833D8A",
"3. c #913F89",
"4. c #833D90",
"5. c #8C3E91",
"6. c #933F91",
"7. c #993E91",
"8. c #862E88",
"9. c #B3378C",
"0. c #C63C8F",
"q. c #854388",
"w. c #93418D",
"e. c #874696",
"r. c #934191",
"t. c #9B4192",
"y. c #94439B",
"u. c #87579D",
"i. c #955C9B",
"p. c #975D82",
"a. c #A24192",
"s. c #B04F9A",
"d. c #855CA1",
"f. c #935CA1",
"g. c #BE5EA4",
"h. c #8866A7",
"j. c #966AA8",
"k. c #9673AD",
"l. c #8579B4",
"z. c #957CB4",
"x. c #8C73AE",
"c. c #A975AC",
"v. c #D14F97",
"b. c #CC70AB",
"n. c #E66EA7",
"m. c #7F8294",
"M. c #7A88BD",
"N. c #4D86C3",
"B. c #4D9DD3",
"V. c #5B9ED3",
"C. c #518FC9",
"Z. c #7190C5",
"A. c #4CA8DC",
"S. c #58A7D8",
"D. c #57BDDC",
"F. c #4DB4DF",
"G. c #6FAEDC",
"H. c #57AEE0",
"J. c #53B4E2",
"K. c #65B7E4",
"L. c #79BBE3",
"P. c #6EC4DE",
"I. c #69C2E4",
"U. c #76C5E9",
"Y. c #8B889D",
"T. c #9B85B9",
"R. c #928FAC",
"E. c #AA8CBD",
"W. c #A387BA",
"Q. c #AD90BF",
"!. c #BA84BA",
"~. c #A8AAB6",
"^. c #B7AEBC",
"/. c #CB88B9",
"(. c #E690BA",
"). c #9398C6",
"_. c #AD92C1",
"`. c #AF98C3",
"'. c #B598C4",
"]. c #A9A3C9",
"[. c #BBA4CA",
"{. c #B5B0D2",
"}. c #D999C5",
"|. c #EB9EC3",
" X c #C5A9CE",
".X c #C9ADD1",
"XX c #C9B6D5",
"oX c #D5B9D7",
"OX c #DAACCB",
"+X c #E7BAD6",
"@X c #EBB5D3",
"#X c #8ACCE7",
"$X c #98D4E6",
"%X c #91D0EA",
"&X c #A6D7EC",
"*X c #B6DCF2",
"=X c #A8D5EF",
"-X c #99E5F4",
";X c #BBE1EF",
":X c #86CFDF",
">X c #CBC4D7",
",X c #DBC3DD",
"<X c #D6CEDA",
"1X c #D2D3D9",
"2X c #E5C9DD",
"3X c #F2C8DE",
"4X c #DCCAE2",
"5X c #DFD0E3",
"6X c #E3CDE2",
"7X c #E9CDE1",
"8X c #EBDDEC",
"9X c #E9D7E7",
"0X c #F4DAE9",
"qX c #F0CCE1",
"wX c #C4E5EE",
"eX c #DBEEF5",
"rX c #C8E6F3",
"tX c #EDE1ED",
"yX c #F3E2ED",
"uX c #EBE4F1",
"iX c #F5EDF5",
"pX c #FAEDF4",
"aX c #F7E3F2",
"sX c #FAF2F5",
"dX c #FBF4F9",
"fX c #FEFEFE",
"gX c #F6F1F7",
"hX c #ECF6F8",
/* pixels */
": : : : : : : : : : : : : : : : : : : : : : : : : : : : : : : : : : : : : : : : : : : : : : : : : : : : ",
": : : : : : : : : : : : : : : : : : : : : : : : : : : : : : : : : : : : : : : : : : : : : : : : : : : : ",
": : : : : : : : : : : : : : : : : : : : : : : : : : : : : : : : : : : : : : : : : : : : : : : : : : : : ",
": : : : : : : : : : : : : : : : : : : : : : : : % $ : : : : : : : : : : : : : : : : : : : : : : : : : : ",
": : : : : : : : : : : : : : : : : : : : : : : = = = = % $ $ $ $ : : : : : : : : : : : : : : : : : : : : ",
": : : : : : : : : : : : : : : : : : : * 7 9 y r r r y * * 2 $ $ : : : : : : : : : : : : : : : : : : : : ",
": : : : : : : : : : : : : : : : : : 8 9 r I R R R R r 6 6 8 * % : : : : : : : : : : : : : : : : : : : : ",
": : : : : : : : : : : : : : : : : 8 9 I R E O.*.,.l.%.*.R y 6 7 2 : : : : : 1 Y.: : : : : : : : : : : : ",
": : : : : : : : : 1 m.: : : : q 8 I Y W *.R.$X-X:X$X:XD.V.Z.X.r 6 * $ : : : ~.fX~.: : : : : : : : : : : ",
". : : : : : : : : d fX1X: $ : 9 r R O.T.%X$XU.$XwXwX;XP.D.D.S.-.W 6 = : : : 4 >Xs : : : : : : : : : : : ",
": : : : : : : : : 1 ~.s : q 7 I R O.Z.-X%X$X&X&XrX;X$XP.D.F.F.A.N.W 6 * : : : : . . : : : : : : : : : : ",
": : : : : : : : : : : : : * 9 I ^ Z.%X&XrXeXrX$X$X#XU.I.J.F.F.A.A.N.W 7 * : : : : . : : : : : : : : : : ",
": : : : : : : : : : : : : e E W >.L.*XeXeXuX;X$X%XU.I.K.J.F.A.A.B.-.{ 9 7 : : : : : : : : : : : : : : : ",
": : : : : : : : : : : : : i R %.K.L.eXhX*XrX*X%X#XU.I.K.H.A.A.B.-.....W 6 % : : : : : : : : : : : : : : ",
": : : : : : : : : : : : 3 0 I >.K.G.*X*X*X*X%XU.U.K.K.A.A.A.C.-...} ..} e * : : : : : : : : : : : : : : ",
": : : : : : : : : : : : * 0 O.Z.C.V.#X=X=X#XK.K.K.J.A.B.A.N...| | | } } P ; : : : : : : : : : : : : : : ",
": : : : : : : : : . . . u T.T.;.=.-.V.G.V.V.S.V.V.B.C.N.......| | | } { ,.k.3 : : : : : : : : : : : : : ",
": : : . : : : : : > . 1 [.gX>X%.X.$.=.-.N.N.N.=...=.| | | | | |  . .] [ {.fXoX4 : : : : : : : : : : : : ",
": : : : : : : : : . 4 oXyXpX5X*.P P [ [ {  .{ { | | | | |  .{  .] P %.].tX9X.XoXd . : : : : : : : : : : ",
": : : : : : : : : 1 1XsX9X7XaXXX:.%.X.X.$.X.{ { |  .{ { ] { | >.).{.>X8X9XOX+X0XaXc., : : : : : : : : : ",
": : : : . . : . a +XaX3X}.oXaXpX9X>X{.].).M.M.,.,.>.>.M.).>X1X<X6X8XqX4X X@X@X@X/.g.#., . . : : : : : : ",
": : : : . . : 1 OX0X+X/.7.XXtXtXdXdXfXfXfXfXyXpXyXpX8X7X9X2X2X2X+X6XoX'.'.|.(.b.s.) o.#.1 > : : : : : : ",
": : : : . . o ^.(.(.b.s.! `.uXaXaXaXdXgXsX8X9XqX0X0X7X9X2X2X2X,XoXoX'.E._./.n.0.9.+.:.z.#.> : : : : : : ",
": : : : . . x.0X(.v.9.l e.>X8X8XuXpXgXdXsX8X3X@X3XOX/.s.oX2X,X,X X X_.E.W._.c.c.s.k.z.z.l.4 : : : : : : ",
": : : : : 1 4XXXoX|.b.'.,X8X8X8XiXgXdXgXdX6X3X|.|.b.a.Y 6X,XoX X'.Q.E.E.W.T.T.T.T.T.z.l.q : : : : : : : ",
": : : : : : x.[.XX4X9X8XiX8X8XuXgXgXiXiXiX6X2Xn.v.9.8.O.qX.X'._.E.E.E.W.W.T.T.z.R.z.:.E : : : : : : : : ",
": : : : : : : *.z.oXtXpXaXuXuXiXiXiXiXiXiXoX6X@Xb.g.!. X X'.'._.E.E.W.W.W.T.T.x.:.o.Y z # : : : : : : : ",
": : : : : : . 1 h.h.T.`..X4X8XgXdXgXdXiXiXoXXX4X5XXX X'._._._._._._.W.T.x.h.@.O.R t x C G n : : . : : : ",
": : : : : : . n A p.&.*.h.k.W.oX4X,X9X8X9X.XXX X[.`.'.`.'.E.W.z.k.j.h.d.O.E R 2 < x k j V F + : : : : : ",
": : : : : : + F V j c i.*.@.&.p p f.k.c.c.c.j.k.j.j.j.j.d.d.d.d.@.+.4 3 i 2 2 : : o h N B M v : : : : : ",
": : : : : : v B B N h 5 % 3 w 4 a u.j.j.j.j.h.h.h.d.d.u.&.u.u.@.@.+.2 , : : : : . . o m B N L : : : : : ",
": : : : :   L M B m o : . . : : > +.q.e.e.i.i.f.f.f.i.u.u.e.u.e.+.^ , : : : . . .     g B C D : : : : : ",
": : : : : : D B B g : : : : : : : 5.1.6.r.r.q.q.q.l #.l ) d 8.6.1.4.% % : : : : : : : @ J N F n : : : : ",
": : : : : n F N H @ : : : : : : : y.5.6.t.t.w.1.3.3.q.p.3.1.3.7.5.1.< . : : : : ^.: . . H M F b : : : : ",
": : : : : b F M H . : : : : : : % y.5.5.r.7.7.a.a.a.a.a.t.t.6.r.1.e.3 . : : : : fX: : . H B F X : : : : ",
": : : : . X F B H . : : : : : : < y.5.5.6.6.t.t.t.t.t.t.6.6.5.5.5.e.3 : : : <.fXfXfXR.. D Z J . : : : : ",
": : : : : : J Z D : : : : : : : < 5.4.4.5.r.6.5.r.r.6.6.6.5.1.4.4.4.u : : : : : fX: : : J J L : : : : : ",
": : : : : : L K J : : : : : : : < e.' 4.4.4.5.r.r.r.5.r.5.5.4.4.' ' ^ > : : : : ~.: : : K J f : : : : : ",
": : : : : : f K K : : : : : : : < 4.( 4.4.4.1.5.e.w.4.1.4.4.4.4.` / ` % : : : : :   > . J S : : : : : : ",
": : : : : : : S H : : : : : : : 3 +.( ` 4.' 4.4.4.4.4.4.4.( ( ( ` / ` < : : : : : : . . L X : : : : : : ",
": : : : . . . 4 D > : : : : : : i ` / ` ( ` ( 4.4.' 4.4.( ( ' ( _ ~ _ < : : : : : : : : v : : : : : : : ",
": : : : . . . : v . : : : : : : Q _ / / ` ( ( ` ' ' ' ' ( ( ` / ^ _ ! < : : : : : : : : . : : : : : : : ",
": : : : : : : : . : : : : : : > T Q ~ ^ / / / / / ( ( / ( / ( ~ ~ ! U % : : : : : : : : : : : : : : : : ",
": : : : : : : : : : : : : : . > t T ! ~ ~ ^ / / ^ / / / ^ ^ _ Q ! U u > : : : : : : : : : : : : : : : : ",
": : : : : : : : : : : : : : : : t t t ! Q ~ ~ ~ ^ / ^ ^ ~ Q Q T U t < : : : : : : : : : : : : : : : : : ",
": : : : : : : : : : : : : : : : - - q t T T ! ! Q Q Q ! ! ! i u 8 7 : : : : . : : : : : : : : : : : : : ",
": : : : : : : : : : : : : : : : : : > y t t Y U U ! T U Y t 2 > : : : : : : : : : : : : : : : : : : : : ",
": : : : : : : : : : : : : : : : : : : & & = 3 - - q - - = 3 , : : : : : : : : : : : : : : : : : : : : : ",
": : : : : : : : : : : : : : : : : : : : : : : : > > , : : : : : : : : : : : : : : : : : : : : : : : : : ",
": : : : : : : : : : : : : : : : : : : : : : : : : . : : : : : : : : : : : : : : : : : : : : : : : : : : ",
": : : : : : : : : : : : : : : : : : : : : : : : : 1 : : : : : : : : : : : : : : : : : : : : : : : : : : ",
": : : : : . : : : : : : : : : : : : : : : : : : : : : : : : : : : : : : : : : : : : : : : : : : : : : : "
};
