/* XPM */
static char *result[] = {
/* columns rows colors chars-per-pixel */
"52 52 60 1 ",
"  c #261F4B",
". c #291F4E",
"X c #2C1F52",
"o c #1E2242",
"O c #212146",
"+ c #25204A",
"@ c #29214E",
"# c #2D2253",
"$ c #312356",
"% c #35245A",
"& c #39255E",
"* c #36285C",
"= c #3A295F",
"- c #3D2661",
"; c #3D2A61",
": c #412664",
"> c #432B65",
", c #4A2E67",
"< c #462B69",
"1 c #4C2D6A",
"2 c #522E6D",
"3 c #4D306B",
"4 c #54316C",
"5 c #59326E",
"6 c #5E3A6E",
"7 c #562F70",
"8 c #5B3371",
"9 c #5F3970",
"0 c #62376F",
"q c #613B6F",
"w c #623672",
"e c #643972",
"r c #6F4779",
"t c #6E487A",
"y c #754B7C",
"u c #784D7E",
"i c #775280",
"p c #785180",
"a c #7B5C85",
"s c #7F5F88",
"d c #7D6186",
"f c #7F6288",
"g c #806187",
"h c #82638A",
"j c #8F819A",
"k c #93859E",
"l c #9786A0",
"z c #9886A1",
"x c #9C8AA4",
"c c #9796A6",
"v c #9897A7",
"b c #9898A7",
"n c #9C95A9",
"m c #9D9CAB",
"M c #A08CA7",
"N c #A293A9",
"B c #A29DAE",
"V c #A2A0AF",
"C c #A4A2B1",
"Z c #A8A6B4",
/* pixels */
"oooooooooOOOO+ XX%%->125uNBuew727:::::&XX%XX  OOOooO",
"oooooooooOoO+ .XX%%-:140unxue57222:<--&&XXXX  OOOOOo",
"ooooooooOoOOO  XX%%->14waVxue5222:::-&%XXX.. OOOoOoo",
"oooooooooooO+  XX%&->14waVMyw722<:::-&%XX..  OOOOooo",
"ooooooooooOO+o.XX%---12whZMrw572<:::-&&%XX   OOOOooo",
"oooooooooOOO+..XX%%-<129hZhrw7712<::&&XXXX  OOOOOOoo",
"ooooooooooOO++.#%%%-;189hZMrw721::::-%%XX..  OOOoooo",
"ooooooooooOO+.@@$%&-<<26hCMyw771:::::XXXXX  OOOOOooo",
"oooooooooooo++@#$$=-,,46hZzrw871<<---%%%X  OOOOooooo",
"oooooooooooo++@#$$=->,36sBzyw871<<---%XXX   OOOOoooo",
"oooooooooooo++@#$$=-,14wsmzyw87<<;--%%XX. +OOOoooooo",
"oooooooooooo++@#$*==>,46gmzyw771<---%%%XX   OOOOoooo",
"ooooooooooO ++##$*==,44rsmxyw741<<--%%#X   +OOoooooo",
"ooooooooooOO++@@$*=;>,46fVzpw771<;---$#X   OOoOooooo",
"oooooooooooO+@##$==;>,4ehmly9823<;--XXXX ++OOOOooooo",
"ooooooooooOO+@##$$=>>,49hVlye87<<;-%-%XX  OOOooooooo",
"ooooooooooo++o+*$**=>,66hCkyq54,<;;-%#@.+++OoOoooooo",
"oooooooo+o+++@#o$*==,,36uCcyq62,;;;-%##@+++OOooooooo",
"ooooooo+o++++*@*#**;>,,qhZcyw51,;;;$%##@++OOOooooooo",
"ooooooooooo+oo@#$**;;,66fCjyw44>;;;;$##@++OOOoOooooo",
"ooooooooo+o+@@##$**;>,,6dmkye53<;;;$*##@++OOoooooooo",
"oooooooO+oo+O@##$$==>,6qdmkye53>;;;$##@++OOOoOoooooo",
"oooooooooo++@@o*#**=>,6qdbkye53>;;**$@+@+OOOoooooooo",
"ooooooo+oo+ooo*@****>,,qdbkye533;;**$##++OOOOooooooo",
"oooooooooO+++#@*#**==,4qdbjyq4,>>;**##@+oooooooooooo",
"oooooooooOO++++@#*=>,,4qdcjyq63>>;**#@#+Oooooooooooo",
"ooooooooOOo@++##***=>,4rdbjtq53>>=*$##++OOoooooooooo",
"oooooooooOOO+##**#*=>,,6dbkyq5,3>=**$#++ Ooooooooooo",
"ooooooooOOOOO#O*#**=>,66dbkye53,>=*$$#.  OOOoooooooo",
"oooooooooOO@OO#O#**=;,,rdbkye53>>=**$#. O Oooooooooo",
"oooooooooOOO@#@*@**,>,36dbkye53,>;=$$#..O OOoooooooo",
"ooooooooOOOo@O@##**=>336dmkue53>;;=%$#.  OOOoooooooo",
"oooooooooo++#+*#$**;,,46uVkue43<>;;%###@++OOOooooooo",
"ooooooooooOoo#o#@**=,,,6hZku9831;;--%##.++OOoooooooo",
"ooooooooooo++#*#**=;>,46dCcye723;;-%%##.++OOOOoooooo",
"oooooooooooooo+#$$==>,4rhVky982<<;-*%###.++OOOoooooo",
"oooooooooo+o####$**>,,4qhVkuq041<<-%%##X.++OOOoooooo",
"ooooooooo+o+O#O#$**;>,4ehVkue521<;---#XX ++OOooooooo",
"ooooooooo+++o##*#*==>,46dVku0551<;;-%XX#. OOOOOooooo",
"oooooooooooo++O#**==,35edVku0521<<--%%XX. ++OOoooooo",
"ooooooooooO+++##$**=>,4egBzrw771::-&&&XX.. OOOOooooo",
"oooooooooOo+O#+##%=;,,40gnzyw7711::&$$&X.  OOOOOoooo",
"ooooooooooOO++###%&;,,20gmzyw821:::-&$$X.. OOOoOoooo",
"oooooooooOOO+++#$%&;,,26hZzyw821<<:-&&$$X  + OOoOooo",
"ooooooooo+OoO+###%&&>,29hCxyw7711:::&%XXX.  OOOOoooo",
"ooooooooooo++++#$%&->159hZxpw722<:::&%%XX    OOoOooo",
"ooooooooooOO++@#X&&=>,29sBhiw7712:::&&%XX.  OOOOOooo",
"oooooooooooO+++#$$&->,2wsCMpw772<:::&&%$X.    OOOoOo",
"oooooooooooo++.XX%&--<78aBxp8772<::::&%XXXX. OOOOoOo",
"oooooooooooo++ XX%%--77waBzpw7227<:::&&X$XX.  OoOOoo",
"oooooooooooo+++XX%%-<<79inxpe77722::--&XXX.. OOOOOoo",
"ooooooooooooO+@X$$%-<178pNBie8827:::--&&XXX.O  OOooO"
};
