/* XPM */
static char *d72240f087e843d2ed5a1244eaebc9b0ziJ59C4po0gioVqH[] = {
/* columns rows colors chars-per-pixel */
"52 52 56 1 ",
"  c #1D2241",
". c #1E2242",
"X c #232445",
"o c #2B264B",
"O c #362952",
"+ c #422D5B",
"@ c #4F3064",
"# c #5B346C",
"$ c #663774",
"% c #6E3A7A",
"& c #DBCDDD",
"* c #743B7E",
"= c #6F3A7A",
"- c #673874",
"; c #5C346D",
": c #4F3164",
"> c #362953",
", c #282C4A",
"< c #8B8D9D",
"1 c #232846",
"2 c #272C49",
"3 c #7F8294",
"4 c #AAACB7",
"5 c #FDFDFE",
"6 c #9D9FAC",
"7 c #66697E",
"8 c #FBFCFC",
"9 c #D2D3D9",
"0 c #303551",
"q c #C7C8D0",
"w c #3F435D",
"e c #2A2F4C",
"r c #ADAEBA",
"t c #393E59",
"y c #956D9D",
"u c #6E3F7A",
"i c #684A79",
"p c #9F77A6",
"a c #8A5A92",
"s c #503265",
"d c #6D457B",
"f c #212544",
"g c #B2B4BE",
"h c white",
"j c #202543",
"k c #6C6F83",
"l c #FCFCFD",
"z c #A1A3B0",
"x c #343453",
"c c #B2AABC",
"v c #3D3058",
"b c #474663",
"n c #E9E0EA",
"m c #635578",
"M c #635C79",
"N c #3B2E57",
/* pixels */
"                .XoO+@#$%&&*=-;:+>oX.               ",
"                .XoO+@#$%&&*=-;:+>oX.               ",
"                .XoO+@#$%&&*=-;:+>oX.               ",
"                .XoO+@#$%&&*=-;:+>oX.               ",
"                .XoO+@#$%&&*=-;:+>oX.               ",
"                .XoO+@#$%&&*=-;:+>oX.               ",
"                .XoO+@#$%&&*=-;:+>oX.               ",
"                .XoO+@#$%&&*=-;:+>oX. ,<1           ",
"         23     .XoO+@#$%&&*=-;:+>oX. 456           ",
"         789    .XoO+@#$%&&*=-;:+>oX. 0qw           ",
"         ert    .XoO+@#$%&&*=-;:+>oX.               ",
"                .XoO+@#$%&&*=-;:+>oX.               ",
"                .XoO+@#$%&&*=-;:+>oX.               ",
"                .XoO+@#$%&&*=-;:+>oX.               ",
"                .XoO+@#$%&&*=-;:+>oX.               ",
"                .XoO+@#$%&&*=-;:+>oX.               ",
"                .XoO+@#$%&&*=-;:+>oX.               ",
"                .XoO+@#$%&&*=-;:+>oX.               ",
"                .XoO+@#$%&&*=-;:+>oX.               ",
"                .XoO+@#$%&&*=-;:+>oX.               ",
"                .XoO+@#$%&&*=-;:+>oX.               ",
"                .XoO+@yu%&&*=-;:+>oX.               ",
"                .XoO+ipa%&&*=-;:+>oX.               ",
"                .XoO+sd$%&&*=-;:+>oX.               ",
"                .XoO+@#$%&&*=-;:+>oX.               ",
"                .XoO+@#$%&&*=-;:+>oX.               ",
"                .XoO+@#$%&&*=-;:+>oX.               ",
"                .XoO+@#$%&&*=-;:+>oX.               ",
"                .XoO+@#$%&&*=-;:+>oX.               ",
"                .XoO+@#$%&&*=-;:+>oX.               ",
"                .XoO+@#$%&&*=-;:+>oX.               ",
"                .XoO+@#$%&&*=-;:+>oX.               ",
"                .XoO+@#$%&&*=-;:+>oX.   f           ",
"                .XoO+@#$%&&*=-;:+>oX.   g           ",
"                .XoO+@#$%&&*=-;:+>oX.   h           ",
"                .XoO+@#$%&&*=-;:+>oX.jklhlzf        ",
"                .XoO+@#$%&&*=-;:+>oX.   h           ",
"                .XoO+@#$%&&*=-;:+>oX.   z           ",
"                .XoO+@#$%&&*=-;:+>oX.   j           ",
"                .XoO+@#$%&&*=-;:+>oX.               ",
"                .XoO+@#$%&&*=-;:+>oX.               ",
"                .XoO+@#$%&&*=-;:+>oX.               ",
"                .xcv+@#$%&&*=-;:+>oX.               ",
"                .bnm+@#$%&&*=-;:+>oX.               ",
"                .XMN+@#$%&&*=-;:+>oX.               ",
"                .XoO+@#$%&&*=-;:+>oX.               ",
"                .XoO+@#$%&&*=-;:+>oX.               ",
"                .XoO+@#$%&&*=-;:+>oX.               ",
"                .XoO+@#$%&&*=-;:+>oX.               ",
"                .XoO+@#$%&&*=-;:+>oX.               ",
"                .XoO+@#$%&&*=-;:+>oX.               ",
"                .XoO+@#$%&&*=-;:+>oX.               "
};
