/* XPM */
static char *result[] = {
/* columns rows colors chars-per-pixel */
"52 52 60 1 ",
"  c #261F4B",
". c #291F4E",
"X c #2C1F52",
"o c #1E2242",
"O c #212145",
"+ c #25204A",
"@ c #29214E",
"# c #2D2253",
"$ c #312356",
"% c #35245A",
"& c #39255E",
"* c #36285C",
"= c #3A295F",
"- c #3D2661",
"; c #3D2A61",
": c #412664",
"> c #432B65",
", c #4A2E67",
"< c #462B69",
"1 c #4C2D6A",
"2 c #522E6D",
"3 c #4D306B",
"4 c #54316C",
"5 c #59326E",
"6 c #5E3A6E",
"7 c #562F70",
"8 c #5B3371",
"9 c #5F3970",
"0 c #62376F",
"q c #613B6F",
"w c #623672",
"e c #643972",
"r c #6F4779",
"t c #6E487A",
"y c #754B7C",
"u c #784D7E",
"i c #775280",
"p c #785180",
"a c #7B5C85",
"s c #7F5F88",
"d c #7D6186",
"f c #7F6288",
"g c #806187",
"h c #82638A",
"j c #8F819A",
"k c #93859E",
"l c #9786A0",
"z c #9886A1",
"x c #9C8AA4",
"c c #9796A6",
"v c #9897A7",
"b c #9898A7",
"n c #9C95A9",
"m c #9D9CAB",
"M c #A08CA7",
"N c #A293A9",
"B c #A29DAE",
"V c #A2A0AF",
"C c #A4A2B1",
"Z c #A8A6B4",
/* pixels */
"oooooooooooooooooooooooooooooooooooooooooooooooooooo",
"oooooooooooooooooooooooooooooooooooooooooooooooooooo",
"oooooooooooooooooooooooooooooooooooooooooooooooooooo",
"oooooooooooooooooooooooooooooooooooooooooooooooooooo",
"oooooooooooooooooooooooooooooooooooooooooooooooooooo",
"oooooooooooooooooooooooooooooooooooooooooooooooooooo",
"oooooooooooooooooooooooooooooooooooooooooooooooooooo",
"oooooooooooooooooooooooooooooooooooooooOoooooooooooo",
"ooooooooooooooooOoOoOoOOoo+oooo+oOoOooOOoooooooooooo",
"oooooOOoOOOO+oo+OoOOOOOooooo+o+oOOOOOOoOoOoO oOooooo",
"oooooO oOOOO+o+o+o+OOO++ooo++Oo+OO+oOOOOOOoOoooOoooo",
"oooo+o+oOOOOo++++++o++o+oo+++o+++OO++O+OOOO O OOoooo",
"O  o  o O+++++++++++o#oo+O#O++++++++++++ ++OOO Ooo+o",
"     O    ++@++@#++##o#+##OO++@@@@@++@@@   +  O.+o++",
" ........@@@@@#@####@####@####@#@@#@#@@@@@.@X...@+@@",
".XXX.X##########+############################XX.###@",
"$X$XX$$$$#$#$$$#*###*#**#****o**$#$$##$$$$$$$$#$XX$X",
"$$%%%$%%%%*%***********##***#***$****=***$*#%%%$%%%$",
"&%&%&&&&*==*====;*********=*********====**=*&&&&&&%%",
"--&:&=-=;;;=;;;;;;**;;=**=;;=***>;;=;;;;==>;=--&---&",
":::1:;>;>,,>,>,,3;;3;;=>,=,=,=,=,>,>,>>,,,>,>;>>::::",
"11114,4,,,1,3,,,333333,>,,,,3,33,,,,,3,3,,,,,4,12112",
"224442244444444433333336636,,663,,444444554442222222",
"5w00e50660eee6ewt666t666qq6t666666rq6qewqq0666000005",
"uuaasgghhhhssshhfhhddddddfudduddshhfhhhdggghhhgagppp",
"NnVVBBZCZCnVmVmBVCCVmbbbbmbbmmmVmCCVVmVmmnBZCCBBBBnN",
"BMxxxlMxhnllxzlzkkkkkkkkcjjkjccckkzzzlzxzzzzMMzMMMMN",
"uuuyrryyprpppyyyuuuuyyyyttytrtttpypyyyyyyyyryyrryuyu",
"eew8wwww8www9e9eq0weeeeeqqqqq6qqee9ewe99wwwwwwwwwwee",
"w577757288887788655545554464664677788877788877777585",
"772277222377733743333333,3,,,,,,33337372777772772275",
"272222121111211113,<>,>,>,,,,,,,11311111111111127272",
"221<1:12:2:<<<<<,>:>;>;;>;>;;;;;;<<<<<<<<<<<<<<<2222",
"111:::::::::<::<>;=:;;;;;;;;*;;;;;;;;-;<<;<<<<<<:1:2",
"<:::::::::::--:-=&===**%**;;*****-;;*-------::<:::::",
":::::--:::&&&&&&&**%%%%%$*$**$*$**--&&&&---<::::::::",
":-&&&&:&&&%&&&%%%%$$$$$$$####*$*%$$$*$%%&&&-&-&&---:",
"&&&&&&&XX%%&X%XX$#$##$@#@#@#######$$#%$%X&X&%%&&%&&&",
"&&$&&&X&X%%XXXXX##@@@@@@@@@#+##@XXXX#X##X&&XX&X&%%%&",
"$$$$XXXXXXXXXXXX@@@@@@  o#++++o#@@@@X@XXXXXXXXXX$$$$",
"$$$XXX..XX X  X .. . O  O O O oo     .  XX..XXXXXXX$",
"XXX.... XX      O OOO OOOOOO OooOO      .X  ....XXX$",
"X@....       O OOOOOOOOOOOOOOOooO OO   O      ......",
"@@        OOOO OOOOOOOOOOOoOOoooOOOOOOOO   O        ",
"++++ o   O OOOOOOooOOooOooOoooooOOoOOOOOOOO      O  ",
"O++O o ooOoOoOooOoOooOoooooooooooooOoOoOOOOOOOOOO   ",
"OOOOo  oOoOOOOoOOooooooooooooooooooooOOOoOoOOOOOOOOO",
"OOOO oo oooooooooooOooooooooooooooooooooooOooOOOOOOO",
"OOOoOOooooooooooooooooooooooooooooooooooooooooooooOO",
"OOOooOOooooooooooooooooooooooooooooooooooooooooooOOO",
"oOoOOooooooooooooooooooooooooooooooooooooooooooooOoo",
"oooooooooooooooooooooooooooooooooooooooooooooooooooO"
};
