/* XPM */
static char *a788e46c7dcd42f796b06b5a62a024d0SgjMxSDybuCAbJga[] = {
/* columns rows colors chars-per-pixel */
"52 52 60 1 ",
"  c #1D2241",
". c #282C4A",
"X c #8B8D9D",
"o c #232846",
"O c #272C49",
"+ c #7F8294",
"@ c #AAACB7",
"# c #FDFDFE",
"$ c #9D9FAC",
"% c #66697E",
"& c #FBFCFC",
"* c #D2D3D9",
"= c #303551",
"- c #C7C8D0",
"; c #3F435D",
": c #2A2F4C",
"> c #ADAEBA",
", c #393E59",
"< c #1E2242",
"1 c #232445",
"2 c #2B264B",
"3 c #362952",
"4 c #422D5B",
"5 c #4F3064",
"6 c #A484AB",
"7 c #624373",
"8 c #5B346C",
"9 c #6D457B",
"0 c #9F77A6",
"q c #976E9E",
"w c #663774",
"e c #673875",
"r c #70427D",
"t c #6E3A7A",
"y c #DBCDDD",
"u c #743B7E",
"i c #6F3A7A",
"p c #673874",
"a c #5C346D",
"s c #4F3164",
"d c #452F5D",
"f c #362953",
"g c #A192AC",
"h c #E9E0EA",
"j c #262747",
"k c #6D6B83",
"l c #F3EEF4",
"z c #F5F1F6",
"x c #9E9CAD",
"c c #272748",
"v c #FDFCFD",
"b c #A1A3B0",
"n c #202543",
"m c #2F3350",
"M c #BDBFC8",
"N c #434761",
"B c white",
"V c #5B5F75",
"C c #5F6278",
"Z c #242947",
/* pixels */
"                                                    ",
"                                                    ",
"                                                    ",
"                                                    ",
"                                                    ",
"                                                    ",
"                                                    ",
"                                      .Xo           ",
"         O+                           @#$           ",
"         %&*                          =-;           ",
"         :>,                                        ",
"                                                    ",
"                                                    ",
"                                                    ",
"                                                    ",
"                                                    ",
"<<<<<<<<<<<<<<<<<<<<<<<<<<<<<<<<<<<<<<<<<<<<<<<<<<<<",
"1111111111111111111111111111111111111111111111111111",
"2222222222222222222222222222222222222222222222222222",
"3333333333333333333333333333333333333333333333333333",
"4444444444444444444444444444444444444444444444444444",
"5555555555555555555555675555555555555555555555555555",
"88888888888888888888890q8888888888888888888888888888",
"wwwwwwwwwwwwwwwwwwwwwerwwwwwwwwwwwwwwwwwwwwwwwwwwwww",
"tttttttttttttttttttttttttttttttttttttttttttttttttttt",
"yyyyyyyyyyyyyyyyyyyyyyyyyyyyyyyyyyyyyyyyyyyyyyyyyyyy",
"yyyyyyyyyyyyyyyyyyyyyyyyyyyyyyyyyyyyyyyyyyyyyyyyyyyy",
"uuuuuuuuuuuuuuuuuuuuuuuuuuuuuuuuuuuuuuuuuuuuuuuuuuuu",
"iiiiiiiiiiiiiiiiiiiiiiiiiiiiiiiiiiiiiiiiiiiiiiiiiiii",
"pppppppppppppppppppppppppppppppppppppppppppppppppppp",
"aaaaaaaaaaaaaaaaaaaaaaaaaaaaaaaaaaaaaaaaaaaaaaaaaaaa",
"ssssssssssssssssssssssssssssssssssssssssssssssssssss",
"4444444444444444444444444444444444444444d44444444444",
"ffffffffffffffffffffffffffffffffffffffffgfffffffffff",
"2222222222222222222222222222222222222222h22222222222",
"1111111111111111111111111111111111111jklzlxc11111111",
"<<<<<<<<<<<<<<<<<<<<<<<<<<<<<<<<<<<<<<<<v<<<<<<<<<<<",
"                                        b           ",
"                                        n           ",
"                                                    ",
"                                                    ",
"                                                    ",
"                 mMO                                ",
"                 NBV                                ",
"                  CZ                                ",
"                                                    ",
"                                                    ",
"                                                    ",
"                                                    ",
"                                                    ",
"                                                    ",
"                                                    "
};
