/* XPM */
static char *_12941f9003e4200936da8dc7f8399bbNJVTvlWGFh7puF4z[] = {
/* columns rows colors chars-per-pixel */
"50 50 101 2 ",
"   c #4800FF",
".  c #5614FF",
"X  c #966DFF",
"o  c #CFBCFF",
"O  c #E0D4FF",
"+  c #ECE5FF",
"@  c #F9F7FF",
"#  c #DFD3FF",
"$  c #966CFF",
"%  c #5411FF",
"&  c #4C06FF",
"*  c #8555FF",
"=  c #C8B3FF",
"-  c #FCFBFF",
";  c white",
":  c #FBF9FF",
">  c #C3ACFF",
",  c #7F4DFF",
"<  c #7944FF",
"1  c #D3C1FF",
"2  c #D2C0FF",
"3  c #7742FF",
"4  c #BEA4FF",
"5  c #BCA1FF",
"6  c #5613FF",
"7  c #D5C5FF",
"8  c #EDE6FF",
"9  c #DACBFF",
"0  c #B395FF",
"q  c #7B47FF",
"w  c #723AFF",
"e  c #8656FF",
"r  c #B496FF",
"t  c #DBCDFF",
"y  c #EEE8FF",
"u  c #D4C3FF",
"i  c #6528FF",
"p  c #E8DFFF",
"a  c #F4F0FF",
"s  c #BCA2FF",
"d  c #8A5CFF",
"f  c #5715FF",
"g  c #8E62FF",
"h  c #E7DDFF",
"j  c #662AFF",
"k  c #4902FF",
"l  c #CBB6FF",
"z  c #FEFEFF",
"x  c #E3D8FF",
"c  c #895AFF",
"v  c #520EFF",
"b  c #895BFF",
"n  c #E4D9FF",
"m  c #C9B4FF",
"M  c #AA88FF",
"N  c #D9CAFF",
"B  c #4F0AFF",
"V  c #7038FF",
"C  c #530FFF",
"Z  c #D5C4FF",
"A  c #D7C7FF",
"S  c #E9E0FF",
"D  c #9166FF",
"F  c #9267FF",
"G  c #8758FF",
"H  c #F6F3FF",
"J  c #8F63FF",
"K  c #510DFF",
"L  c #F6F2FF",
"P  c #7C48FF",
"I  c #BDA3FF",
"U  c #510CFF",
"Y  c #C1A8FF",
"T  c #FDFCFF",
"R  c #5918FF",
"E  c #8C5FFF",
"W  c #EEE7FF",
"Q  c #5A19FF",
"!  c #9368FF",
"~  c #D8C9FF",
"^  c #D8C8FF",
"/  c #B497FF",
"(  c #7640FF",
")  c #8150FF",
"_  c #FAF8FF",
"`  c #753FFF",
"'  c #5512FF",
"]  c #8E61FF",
"[  c #BEA5FF",
"{  c #CCB8FF",
"}  c #DDD0FF",
"|  c #5310FF",
" . c #8859FF",
".. c #E5DBFF",
"X. c #F4EFFF",
"o. c #C0A7FF",
"O. c #C2AAFF",
"+. c #E6DCFF",
"@. c #EFE9FF",
"#. c #F0EAFF",
"$. c #7D4AFF",
/* pixels */
"                                                                                                    ",
"                                                                                                    ",
"                                                                                                    ",
"                                                                                                    ",
"                                                                                                    ",
"                                                                                                    ",
"                                                                                                    ",
"                                      . X o O + @ @ + # o $ %                                       ",
"                                & * = - ; ; ; ; ; ; ; ; ; ; : > , &                                 ",
"                              < 1 ; ; ; ; ; ; ; ; ; ; ; ; ; ; ; ; 2 3                               ",
"                          & 4 ; ; ; ; ; ; ; ; ; ; ; ; ; ; ; ; ; ; ; ; 5 &                           ",
"                        6 7 ; ; ; ; - 8 9 0 * q w w q e r t y - ; ; ; ; u .                         ",
"                      i p ; ; ; ; a s d 6                 f g 4 a ; ; ; ; h j                       ",
"                    k l ; ; ; z x c v                         v b n z ; ; ; m k                     ",
"                    M ; ; ; ; N b B                             B d N ; ; ; ; M                     ",
"                  V ; ; ; ; 7 v                                     C Z ; ; ; ; w                   ",
"                  A ; ; ; S D                                         F S ; ; ; 2                   ",
"                G ; ; ; H J K                                         K J L ; ; ; P                 ",
"                2 ; ; - I U                                             v Y T ; ; 2                 ",
"              R z ; ; + G                                                 E W ; ; z Q               ",
"              ! ; ; ; ~ v                                                 v ^ ; ; ; !               ",
"              I ; ; ; /                                                     / ; ; ; I               ",
"              2 ; ; ; J                                                     J ; ; ; 2               ",
"              S ; ; ; ,                       ( p p (                       ) ; ; ; x               ",
"              _ ; ; ; w                       S ; ; p                       ` ; ; ; a               ",
"              a ; ; ; `                       a ; ; S                       ` ; ; ; a               ",
"              x ; ; ; )                       ( S S (                       ) ; ; ; x               ",
"              2 ; ; ; J                                                     J ; ; ; 2               ",
"              I ; ; ; /                                                     / ; ; ; I               ",
"              ! ; ; ; ^ v                                                 ' N ; ; ; !               ",
"              Q z ; ; 8 d                                                 ] y ; ; : R               ",
"                2 ; ; T [ K                                             v Y T ; ; {                 ",
"                ) ; ; ; L J K                                         K J H ; ; ; P                 ",
"                  7 ; ; ; S F                                         D S ; ; ; 2                   ",
"                  w ; ; ; ; } |                                     | } ; ; ; ; V                   ",
"                    M ; ; ; ; N d B                             B b N ; ; ; ; M                     ",
"                    k m ; ; ; z n  .U                         v c x z ; ; ; l k                     ",
"                      C ..; ; ; ; X.o.D '                 ' F O.a ; ; ; ; +.C                       ",
"                        . u ; ; ; ; T @.9 r e q w w q * r t #.T ; ; ; ; 7 6                         ",
"                          & 5 ; ; ; ; ; ; ; ; ; ; ; ; ; ; ; ; ; ; ; ; 4 &                           ",
"                              $.^ ; ; ; ; ; ; ; ; ; ; ; ; ; ; ; ; 1 <                               ",
"                                  < > ; ; ; ; ; ; ; ; ; ; ; ; > (                                   ",
"                                      . $ o # + @ @ + O o X %                                       ",
"                                                                                                    ",
"                                                                                                    ",
"                                                                                                    ",
"                                                                                                    ",
"                                                                                                    ",
"                                                                                                    ",
"                                                                                                    "
};
