/* XPM */
static char *_d6265aa68b44a95e5b46d7d947097bf4n1kXCuct24aBG0H[] = {
/* columns rows colors chars-per-pixel */
"50 50 2 1 ",
"  c #4800FF",
". c white",
/* pixels */
"                      ......                      ",
"                      ......                      ",
"                      ......                      ",
"                      ......                      ",
"                      ......                      ",
"                      ......                      ",
"                      ......                      ",
"                      ......                      ",
"                      ......                      ",
"                      ......                      ",
"                      ......                      ",
"                      ......                      ",
"                      ......                      ",
"                      ......                      ",
"                      ......                      ",
"                      ......                      ",
"                      ......                      ",
"                      ......                      ",
"                      ......                      ",
"                      ......                      ",
"                      ......                      ",
"                      ......                      ",
"                      ............................",
"                      ............................",
"                      ............................",
"                      ............................",
"                      ............................",
"                      ............................",
"                                                  ",
"                                                  ",
"                                                  ",
"                                                  ",
"                                                  ",
"                                                  ",
"                                                  ",
"                                                  ",
"                                                  ",
"                                                  ",
"                                                  ",
"                                                  ",
"                                                  ",
"                                                  ",
"                                                  ",
"                                                  ",
"                                                  ",
"                                                  ",
"                                                  ",
"                                                  ",
"                                                  ",
"                                                  "
};
