/* XPM */
static char *_c3edecd7baf4161fe4082eadb4ce297tR579bNX12GKvOIe[] = {
/* columns rows colors chars-per-pixel */
"50 50 2 1 ",
"  c #4800FF",
". c white",
/* pixels */
"                      ......                      ",
"                      ......                      ",
"                      ......                      ",
"                      ......                      ",
"                      ......                      ",
"                      ......                      ",
"                      ......                      ",
"                      ......                      ",
"                      ......                      ",
"                      ......                      ",
"                      ......                      ",
"                      ......                      ",
"                      ......                      ",
"                      ......                      ",
"                      ......                      ",
"                      ......                      ",
"                      ......                      ",
"                      ......                      ",
"                      ......                      ",
"                      ......                      ",
"                      ......                      ",
"                      ......                      ",
"............................                      ",
"............................                      ",
"............................                      ",
"............................                      ",
"............................                      ",
"............................                      ",
"                                                  ",
"                                                  ",
"                                                  ",
"                                                  ",
"                                                  ",
"                                                  ",
"                                                  ",
"                                                  ",
"                                                  ",
"                                                  ",
"                                                  ",
"                                                  ",
"                                                  ",
"                                                  ",
"                                                  ",
"                                                  ",
"                                                  ",
"                                                  ",
"                                                  ",
"                                                  ",
"                                                  ",
"                                                  "
};
