/* XPM */
static char *result[] = {
/* columns rows colors chars-per-pixel */
"52 52 232 2 ",
"   c #1F1343",
".  c #1D1C41",
"X  c #2A064E",
"o  c #250A4B",
"O  c #2C084B",
"+  c #260E46",
"@  c #30074C",
"#  c #221343",
"$  c #201A41",
"%  c #2A0454",
"&  c #250953",
"*  c #2B0B55",
"=  c #2F035B",
"-  c #290B57",
";  c #3C0655",
":  c #300B56",
">  c #34045C",
",  c #3C055D",
"<  c #330B5C",
"1  c #320752",
"2  c #2C105B",
"3  c #2A1054",
"4  c #33115F",
"5  c #1D2241",
"6  c #242947",
"7  c #252A48",
"8  c #2F3350",
"9  c #353A55",
"0  c #320165",
"q  c #3A0365",
"w  c #350A62",
"e  c #3D046C",
"r  c #38066A",
"t  c #351667",
"y  c #3E0572",
"u  c #3D0B7A",
"i  c #3A1473",
"p  c #44075C",
"a  c #430362",
"s  c #4B066C",
"d  c #430B6D",
"f  c #470766",
"g  c #57046D",
"h  c #530A6D",
"j  c #49136C",
"k  c #420572",
"l  c #440B72",
"z  c #4B0B75",
"x  c #45057B",
"c  c #4A047B",
"v  c #440B7B",
"b  c #4B0B7C",
"n  c #4D0574",
"m  c #540573",
"M  c #5A0771",
"N  c #530B74",
"B  c #5A0B74",
"V  c #53057C",
"C  c #540C7A",
"Z  c #5D0D7C",
"A  c #5E067A",
"S  c #431C75",
"D  c #4C147D",
"F  c #481379",
"G  c #54127C",
"H  c #5C127D",
"J  c #620C77",
"K  c #69067E",
"L  c #640D7C",
"P  c #6A0A7E",
"I  c #660478",
"U  c #62107B",
"Y  c #412D63",
"T  c #46257E",
"R  c #3F435D",
"E  c #5B5F75",
"W  c #434761",
"Q  c #5F6278",
"!  c #66697E",
"~  c #3E138A",
"^  c #3F1C82",
"/  c #450683",
"(  c #4B0684",
")  c #430B82",
"_  c #4C0D84",
"`  c #49068B",
"'  c #4B0F8F",
"]  c #540C84",
"[  c #540789",
"{  c #540B8E",
"}  c #5B0B8C",
"|  c #5A0785",
" . c #471384",
".. c #44148C",
"X. c #4A1288",
"o. c #4A1485",
"O. c #541583",
"+. c #5C1687",
"@. c #4A0791",
"#. c #4F099B",
"$. c #4C0D94",
"%. c #540E91",
"&. c #5A0C93",
"*. c #52059C",
"=. c #550B9C",
"-. c #59069A",
";. c #4B1293",
":. c #461A90",
">. c #4C1D95",
",. c #551294",
"<. c #5B129B",
"1. c #5B1495",
"2. c #6D0683",
"3. c #640B83",
"4. c #6B0A82",
"5. c #650B8A",
"6. c #6A078B",
"7. c #730386",
"8. c #710B84",
"9. c #75048A",
"0. c #7A058C",
"q. c #760A8C",
"w. c #7C088E",
"e. c #601582",
"r. c #691488",
"t. c #77158D",
"y. c #7A128E",
"u. c #731487",
"i. c #6B0694",
"p. c #6A059C",
"a. c #650A9B",
"s. c #650993",
"d. c #720592",
"f. c #7C0791",
"g. c #7E0B91",
"h. c #740B98",
"j. c #661192",
"k. c #63139C",
"l. c #6A169C",
"z. c #7E1493",
"x. c #771A91",
"c. c #70169E",
"v. c #79169A",
"b. c #482287",
"n. c #51228C",
"m. c #562F8E",
"M. c #4F259A",
"N. c #532B95",
"B. c #562698",
"V. c #563195",
"C. c #62248D",
"Z. c #672699",
"A. c #7A239F",
"S. c #4E0AA2",
"D. c #5307A1",
"F. c #5C0BA6",
"G. c #5605AC",
"H. c #5B05AC",
"J. c #550CAE",
"K. c #5B0CAA",
"L. c #550EA3",
"P. c #5D12A4",
"I. c #531AA1",
"U. c #5C1BA4",
"Y. c #5613AA",
"T. c #5B14AA",
"R. c #551AAD",
"E. c #5B1BAC",
"W. c #5711A4",
"Q. c #550CB2",
"!. c #5906B2",
"~. c #5513B3",
"^. c #5914B5",
"/. c #561AB2",
"(. c #5B1CB2",
"). c #5917BA",
"_. c #5B1CBB",
"`. c #5616BA",
"'. c #6306A6",
"]. c #620CA3",
"[. c #6F0FA5",
"{. c #6409A9",
"}. c #6405A6",
"|. c #730DA1",
" X c #6213A4",
".X c #6B14A1",
"XX c #6217A7",
"oX c #7312A5",
"OX c #7C1BA5",
"+X c #611CB2",
"@X c #5423AD",
"#X c #5A22AE",
"$X c #542CAC",
"%X c #572AA6",
"&X c #5633AD",
"*X c #4D22B2",
"=X c #5623B3",
"-X c #5B23B2",
";X c #542DB1",
":X c #5B2AB4",
">X c #5C25BA",
",X c #5532B4",
"<X c #5530BB",
"1X c #6B24A9",
"2X c #7622A5",
"3X c #6E39B7",
"4X c #820D94",
"5X c #820F9D",
"6X c #841196",
"7X c #85139A",
"8X c #89159C",
"9X c #861A9D",
"0X c #8B1A9E",
"qX c #811995",
"wX c #901B9F",
"eX c #8414A2",
"rX c #8A15A1",
"tX c #861BA3",
"yX c #8C1BA2",
"uX c #871DAA",
"iX c #901CA4",
"pX c #8C21A4",
"aX c #8A22A7",
"sX c #9527AA",
"dX c #9F2DB5",
"fX c #7F8294",
"gX c #8B8D9D",
"hX c #9D9FAC",
"jX c #A8AAB6",
"kX c #B3B3BF",
"lX c #CDCED5",
"zX c #FDFDFE",
/* pixels */
"5 5 5 5 5 5 5 5 5 5 5 5 5 5 5 5 5 5 5 5 5 5 5 5 5 5 5 5 5 5 5 5 5 5 5 5 5 5 5 5 5 5 5 5 5 5 5 5 5 5 5 5 ",
"5 5 5 5 5 5 5 5 5 5 5 5 5 5 5 5 5 5 5 5 5 5 5 5 5 5 5 5 5 5 5 5 5 5 5 5 5 5 5 5 5 5 5 5 5 5 5 5 5 5 5 5 ",
"5 5 5 5 5 5 5 5 5 5 5 5 5 5 5 5 5 5 5 5 5 5 5 5 5 5 5 5 5 5 5 5 5 5 5 5 5 5 5 5 5 5 5 5 5 5 5 5 5 5 5 5 ",
"5 5 5 5 5 5 5 5 5 5 5 5 5 5 5 5 5 5 5 5 5 5 5 5 5 5 5 5 5 5 5 5 5 5 5 5 5 5 5 5 5 5 5 5 5 5 5 5 5 5 5 5 ",
"5 5 5 5 5 5 5 5 5 5 5 5 5 5 5 5 5 5 5 5 5 5 5 5 5 5 5 5 5 5 5 5 5 5 5 5 5 5 5 5 5 5 5 5 5 5 5 5 5 5 5 5 ",
"5 5 5 5 5 5 5 5 5 5 5 5 5 5 5 5 5 5 5 5 5 5 5 5 5 5 5 5 5 5 5 5 5 5 5 5 5 5 5 5 5 5 5 5 5 5 5 5 5 5 5 5 ",
"5 5 5 5 5 5 5 5 5 5 5 5 5 5 5 5 5 5 5 5 5 5 5 5 5 5 5 5 5 5 5 5 5 5 5 5 5 5 5 5 5 5 5 5 5 5 5 5 5 5 5 5 ",
"5 5 5 5 5 5 5 5 5 5 5 5 5 5 5 5 5 5 5 5 5 5 5 5 5 5 .   #   # 5 5 5 5 5 5 5 7 gX6 5 5 5 5 5 5 5 5 5 5 5 ",
"5 5 5 5 5 5 5 5 5 7 gX. 5 5 5 5 5 5 . % = r u / $.>.S.D.S./.R.u + 5 5 5 5 5 jXzXhX5 5 5 5 5 5 5 5 5 5 5 ",
"5 5 5 5 5 5 5 5 5 ! zXlX5 5 5 5 5 5 , D.G.H.G.J._.Q.G.Q.`.Q.@.0 X . 5 5 5 5 8 lXR 5 5 5 5 5 5 5 5 5 5 5 ",
"5 5 5 5 5 5 5 5 5 7 jXR 5 5 5 6 , r.c.H.!.!.`.`.!.!.`.`.G.` 0 = ; p # 5 5 5 5 5 5 5 5 5 5 5 5 5 5 5 5 5 ",
"5 5 5 5 5 5 5 5 5 5 5 5 5 5 $ j Z.l.].H.!.).`.G.`.).`.G.` 0 > , p g J g 5 5 5 5 5 5 5 5 5 5 5 5 5 5 5 5 ",
"5 5 5 5 5 5 5 5 5 5 5 5 5 + +.].(.#.*.Y._.^.J.^.).J.G.` r a h P K 8.0.K f # 5 5 5 5 5 5 5 5 5 5 5 5 5 5 ",
"5 5 5 5 5 5 5 5 5 5 5 5 6 e.].J./.*.#._.^.H.^._.H.K./ a m r.z.6X6X4X4X0.2.m , 5 5 5 5 5 5 5 5 5 5 5 5 5 ",
"5 5 5 5 5 5 5 5 5 5 5 $ U ].H./.H.L.@XQ.Y._.~.H.=./ N x.pXyX9X8X8X4X4Xw.8.m f < 5 5 5 5 5 5 5 5 5 5 5 5 ",
"5 5 5 5 5 5 5 5 5 5 5 d h.].Y._.Y./.R.~._.~.K.=.x C pXsXsXiXyX8X6X4X4Xw.9.g a > & . 5 5 5 5 5 5 5 5 5 5 ",
"5 5 5 5 5 5 5 5 5 5 , t.uX{././.>X/./._.J.K.=.y e.sXdXsXoXoXuXtX8X6X4X4X0.K V ) ..i . 5 5 5 5 5 5 5 5 5 ",
"5 5 5 5 5 5 5 5 5 y ( v.iX{.=X=X/._._.G.K.=.y k A.2X XT.^.+XK.[.oX6X4X4X9.} ..~ ~ ) r 5 5 5 5 5 5 5 5 5 ",
"5 5 5 5 5 5 5 5   =.*.5.iXXX<X*X>XE.L.K.=.x v X.I.E.-XR.T.K.^.P.| t.4X2.| c ..:.:.^ u . 5 5 5 5 5 5 5 5 ",
"5 5 5 5 5 5 5 5 > G.*.[ aX1X<X=XT.K.K.W.;.>.@X@X-X=X-XT.{.T.E._ N P g.0.V k k x ~ ....- 5 5 5 5 5 5 5 5 ",
"5 5 5 5 5 5 5 5 r D.=.( v.2X-XY.T.T.E.@X;X:X-X_.T.R.E.T.Y.#XO.N J 4X4X4Xd.m a q q e y , 5 5 5 5 5 5 5 5 ",
"5 5 5 5 5 5 5 5 r k s m pXuX1X@X<X:X-X(.R.W.L.T.-X(.K.(.E.b B 8.7X6Xh.}.-.} n q > > r e   5 5 5 5 5 5 5 ",
"5 5 5 5 5 5 5 X { [ } t.wXaX1X-XE.E.T.T.K.F.E.#XE.(.(.U.b B 8.qXeX|.}.F.*.` ) b v l k k + 5 5 5 5 5 5 5 ",
"5 5 5 5 5 5 5 % =.'.&.j.yXaX.XW.P.P.].T.T.#X#X@X-X+X<.O.B 8.9XeX[.].K.L.$.....X.) b z l X 5 5 5 5 5 5 5 ",
"5 5 5 5 5 5 5 < { _ k f z.yXtX XT.U.-X$X$X#X-XE. X1.B J t.pXA.#XE.E.I.X.x b x D D z e l + 5 5 5 5 5 5 5 ",
"5 5 5 5 5 5 5 w ,.x s A 7XyXtXXX#X-X-X#X#XE.P.P.&.C L t.wXwXx.+.] _ z z z z F j N C s d * 5 5 5 5 5 5 5 ",
"5 5 5 5 5 5 5 > [ ,.] t.7X8XrXXX:X-X#XP. X Xk.+.B U 9XiXiX8X9X7Xw.L s p f j , h L H N o.4 5 5 5 5 5 5 5 ",
"5 5 5 5 5 5 5 < %.[ V 5.7X8X0XtXXX X XP. Xk.} B u.0XpXiXrXc.a.5.4.w.0.2.h h h P U Z C n.t 5 5 5 5 5 5 5 ",
"5 5 5 5 5 5 5 % 1.<.| 3.4X6X7X8Xc.l.l.j.j.| 4.z.wXwXyX8XrXh.n a g q.0.9.2.K P P U Z C n.S 5 5 5 5 5 5 5 ",
"5 5 5 5 5 5 5 + o.P.&.Z 4X4X6X6X8X9X8X8X8X0XyXyXwX8X8X7X7X6Xq.8.9.0.7.7.2.4.P L U H b V.t 5 5 5 5 5 5 5 ",
"5 5 5 5 5 5 5 5 l P.&.V q.4X4X5XeXeX8XyX0XrXrX5X7X7X7X6X4X4Xg.0.9.7.7.7.2.P P U H G D N.& 5 5 5 5 5 5 5 ",
"5 5 5 5 5 5 5 5 X 1.k.z 2.0.h.a.'.a.a.s.6.6X6X6X6X6X4X4Xg.w.0.0.0.7.7.2.P P U H U G n.T . 5 5 5 5 5 5 5 ",
"5 5 5 5 5 5 5 5 5 l d p I 9.d.6.s.| | m A w.g.6Xg.g.4Xg.0.0.9.7.7.7.7.K P U L e.Z.D V.3 5 5 5 5 5 5 5 5 ",
"5 5 5 5 5 5 5 5 5 . @ p I 9.9.9.q.q.0.q.t.w.g.f.g.g.w.0.0.9.7.7.7.2.4.P L U H Z.G T 3 5 5 5 5 5 5 5 5 5 ",
"5 5 5 5 5 5 5 5 5 5 5 , K 2.i.}.p.d.d.f.0.0.f.f.0.9.9.9.7.7.7.2.4.3.3.L U U Z.n.O . 5 5 5 5 5 5 5 5 5 5 ",
"5 5 5 5 5 5 5 5 5 5 5 5 B 3.s.}.H.H.}.p.p.i.d.7.9.9.7.9.7.7.2.P L 3.Z L e.Z.3Xu X zXhX5 5 5 5 5 5 5 5 5 ",
"5 5 5 5 5 5 5 5 5 5 5 5 X B 5.a.F.F.K.F.-.[ V 2.7.7.7.2.4.2.3.3.| +.+.+.%X3X$./ t 5 5 5 5 5 5 5 5 5 5 5 ",
"5 5 5 5 5 5 5 5 5 5 5 5 . ; Z 3.} &.&.] b q p L 2.K 2.4.4.5.&.,.>.%X%X$X&XM.~ b.Y 5 5 5 5 5 5 5 5 5 5 5 ",
"5 5 5 5 5 5 5 5 5 5 5 5 5 5 1 h H A C N h f a B P P P L 3.&.@X$X;X&X,X,X&Xn.N.2 5 5 5 5 5 5 5 5 5 5 5 5 ",
"5 5 5 5 5 5 5 5 5 5 5 5 5 5 5 # f B L L L J L J P L L 3.1.:X,X,X,X;X;X$XM.b.2 5 5 5 5 5 5 5 5 5 5 5 5 5 ",
"5 5 5 5 5 5 5 5 5 5 5 5 5 5 5 5 . 1 h Z J Z L U U U H H %X,X;X;X$X:X%XM.b.2 5 5 5 5 5 5 5 5 5 5 5 5 5 5 ",
"5 5 5 5 5 5 5 5 5 5 5 5 5 5 5 5 5 5 : F o.D c b G H C.Z.N.M.M.b.^ t & o . 5 5 5 5 5 5 5 5 5 5 5 5 5 5 5 ",
"5 5 5 5 5 5 5 5 5 5 5 5 5 5 5 5 5 8 kXo < S T S t : : 3 & & & o   . 5 5 5 5 5 5 5 5 5 5 5 5 5 5 5 5 5 5 ",
"5 5 5 5 5 5 5 5 5 5 5 5 5 5 5 5 5 W zXQ 5 5 5 5 5 6 5 5 5 5 5 5 5 5 5 5 5 5 5 5 5 5 5 5 5 5 5 5 5 5 5 5 ",
"5 5 5 5 5 5 5 5 5 5 5 5 5 5 5 5 5 5 Q 6 5 5 5 5 5 5 5 5 5 5 5 5 5 5 5 5 5 5 5 5 5 5 5 5 5 5 5 5 5 5 5 5 ",
"5 5 5 5 5 5 5 5 5 5 5 5 5 5 5 5 5 5 5 5 5 5 5 5 5 5 5 5 5 5 5 5 5 5 5 5 5 5 5 5 5 5 5 5 5 5 5 5 5 5 5 5 ",
"5 5 5 5 5 5 5 5 5 5 5 5 5 5 5 5 5 5 5 5 5 5 5 5 5 5 5 5 5 5 5 5 5 5 5 5 5 5 5 5 5 5 5 5 5 5 5 5 5 5 5 5 ",
"5 5 5 5 5 5 5 5 5 5 5 5 5 5 5 5 5 5 5 5 5 5 5 5 5 5 5 5 5 5 5 5 5 5 5 5 5 5 5 5 5 5 5 5 5 5 5 5 5 5 5 5 ",
"5 5 5 5 5 5 5 5 5 5 5 5 5 5 5 5 5 5 5 5 5 5 5 5 5 5 5 5 5 5 5 5 5 5 5 5 5 5 5 5 5 5 5 5 5 5 5 5 5 5 5 5 ",
"5 5 5 5 5 5 5 5 5 5 5 5 5 5 5 5 5 5 5 5 5 5 5 5 5 5 5 5 5 5 5 5 5 5 5 5 5 5 5 5 5 5 5 5 5 5 5 5 5 5 5 5 ",
"5 5 5 5 5 5 5 5 5 5 5 5 5 5 5 5 5 5 5 5 5 5 5 5 5 5 5 5 5 5 5 5 5 5 5 5 5 5 5 5 5 5 5 5 5 5 5 5 5 5 5 5 ",
"5 5 5 5 5 5 5 5 5 5 5 5 5 5 5 5 5 5 5 5 5 5 5 5 5 5 5 5 5 5 5 5 5 5 5 5 5 5 5 5 5 5 5 5 5 5 5 5 5 5 5 5 "
};
