/* XPM */
static char *result[] = {
/* columns rows colors chars-per-pixel */
"52 52 220 2 ",
"   c #1E0A4B",
".  c #1C0F45",
"X  c #1E1443",
"o  c #1E1B41",
"O  c #230E46",
"+  c #230A4A",
"@  c #28064C",
"#  c #32094C",
"$  c #241244",
"%  c #211942",
"&  c #230C53",
"*  c #2B0951",
"=  c #2C0E5D",
"-  c #2D0458",
";  c #33035D",
":  c #39035D",
">  c #380856",
",  c #2D105E",
"<  c #34125E",
"1  c #1D2241",
"2  c #222445",
"3  c #262B49",
"4  c #2E304F",
"5  c #353A55",
"6  c #340364",
"7  c #3C0463",
"8  c #350B65",
"9  c #3B046C",
"0  c #3B0B6A",
"q  c #37086A",
"w  c #2D1461",
"e  c #38186B",
"r  c #3C0473",
"t  c #3C0B73",
"y  c #3D087A",
"u  c #371773",
"i  c #3D1473",
"p  c #3B1C79",
"a  c #3E237B",
"s  c #42045F",
"d  c #460C5F",
"f  c #440464",
"g  c #44056A",
"h  c #45096D",
"j  c #4C0C6C",
"k  c #4A0669",
"l  c #540B6D",
"z  c #52076A",
"x  c #430575",
"c  c #4A0673",
"v  c #440B74",
"b  c #4C0A76",
"n  c #44057C",
"m  c #4A057C",
"M  c #440B7C",
"N  c #4B0B7B",
"B  c #520A74",
"V  c #5B0E74",
"C  c #54057B",
"Z  c #540A7B",
"A  c #5A0D7B",
"S  c #550770",
"D  c #45137E",
"F  c #4A137E",
"G  c #421C7D",
"H  c #471575",
"J  c #5D1077",
"K  c #5A117C",
"L  c #551477",
"P  c #541066",
"I  c #640D7D",
"U  c #6A0A7E",
"Y  c #610D76",
"T  c #61117C",
"R  c #69157F",
"E  c #472177",
"W  c #3F435D",
"Q  c #4F536B",
"!  c #5F6278",
"~  c #66697E",
"^  c #3F0880",
"/  c #3E1884",
"(  c #450481",
")  c #4A0481",
"_  c #430B83",
"`  c #4B0E82",
"'  c #440E89",
"]  c #4C0A8C",
"[  c #530A82",
"{  c #5B0B83",
"}  c #590684",
"|  c #441285",
" . c #4C1483",
".. c #451B83",
"X. c #4D1C86",
"o. c #45148B",
"O. c #4B138B",
"+. c #431A8B",
"@. c #4D1D8D",
"#. c #5C1A85",
"$. c #521B8D",
"%. c #5A1787",
"&. c #4B0B9B",
"*. c #4B1192",
"=. c #451A92",
"-. c #4E149C",
";. c #491B97",
":. c #52139D",
">. c #551B9A",
",. c #5A1A95",
"<. c #560996",
"1. c #6D0685",
"2. c #630B83",
"3. c #6B0A82",
"4. c #6B0689",
"5. c #62098B",
"6. c #650986",
"7. c #730485",
"8. c #75038A",
"9. c #79068C",
"0. c #7C088E",
"q. c #750E88",
"w. c #651582",
"e. c #601C87",
"r. c #6E1983",
"t. c #6B148C",
"y. c #611A8F",
"u. c #66148A",
"i. c #74198A",
"p. c #79198E",
"a. c #76158B",
"s. c #690693",
"d. c #7E0B91",
"f. c #750891",
"g. c #611391",
"h. c #681898",
"j. c #741491",
"k. c #7C1C92",
"l. c #7C1497",
"z. c #4B2488",
"x. c #59268C",
"c. c #4F2C92",
"v. c #542C9B",
"b. c #552995",
"n. c #5A349E",
"m. c #52349A",
"M. c #652A9D",
"N. c #632496",
"B. c #77239A",
"V. c #5C0FAA",
"C. c #570AA5",
"Z. c #4B19A4",
"A. c #5515A3",
"S. c #5514AD",
"D. c #5A13AC",
"F. c #551CAB",
"G. c #5C1BAD",
"H. c #571AA3",
"J. c #571DB2",
"K. c #6208A0",
"L. c #6117AF",
"P. c #7213AC",
"I. c #751EAC",
"U. c #7818A4",
"Y. c #7F19B5",
"T. c #5B23A7",
"R. c #5B24AB",
"E. c #592AAB",
"W. c #532AAA",
"Q. c #5635A4",
"!. c #5D34A3",
"~. c #5A3BA6",
"^. c #5B3CAC",
"/. c #5637A7",
"(. c #562CB0",
"). c #5A20B4",
"_. c #5533B3",
"`. c #5834B8",
"'. c #642DA0",
"]. c #7F22A5",
"[. c #623CA9",
"{. c #6836A7",
"}. c #655381",
"|. c #7543BC",
" X c #6D43B9",
".X c #820D94",
"XX c #851097",
"oX c #831B95",
"OX c #861299",
"+X c #8B159C",
"@X c #831C9A",
"#X c #8C199E",
"$X c #881197",
"%X c #842499",
"&X c #8D1AA1",
"*X c #841BA6",
"=X c #921DA4",
"-X c #8222A3",
";X c #8C21A1",
":X c #8E2AAD",
">X c #9421A6",
",X c #9422A9",
"<X c #9924AB",
"1X c #9529A9",
"2X c #9B2AAC",
"3X c #9529A6",
"4X c #9C2AB3",
"5X c #9927B7",
"6X c #902BB4",
"7X c #A12AAF",
"8X c #A32DB3",
"9X c #AC36BA",
"0X c #A933B7",
"qX c #A938C1",
"wX c #7F8294",
"eX c #8B8D9D",
"rX c #9E9EAE",
"tX c #A6A8B4",
"yX c #CDCED5",
"uX c #FDFDFE",
/* pixels */
"1 1 1 1 1 1 1 1 1 1 1 1 1 1 1 1 1 1 1 1 1 1 1 1 1 1 1 1 1 1 1 1 1 1 1 1 1 1 1 1 1 1 1 1 1 1 1 1 1 1 1 1 ",
"1 1 1 1 1 1 1 1 1 1 1 1 1 1 1 1 1 1 1 1 1 1 1 1 1 1 1 1 1 1 1 1 1 1 1 1 1 1 1 1 1 1 1 1 1 1 1 1 1 1 1 1 ",
"1 1 1 1 1 1 1 1 1 1 1 1 1 1 1 1 1 1 1 1 1 1 1 1 1 1 1 1 1 1 1 1 1 1 1 1 1 1 1 1 1 1 1 1 1 1 1 1 1 1 1 1 ",
"1 1 1 1 1 1 1 1 1 1 1 1 1 1 1 1 1 1 1 1 1 1 1 1 1 1 1 1 1 1 1 1 1 1 1 1 1 1 1 1 1 1 1 1 1 1 1 1 1 1 1 1 ",
"1 1 1 1 1 1 1 1 1 1 1 1 1 1 1 1 1 1 1 1 1 1 1 1 1 1 1 1 1 1 1 1 1 1 1 1 1 1 1 1 1 1 1 1 1 1 1 1 1 1 1 1 ",
"1 1 1 1 1 1 1 1 1 1 1 1 1 1 1 1 1 1 1 1 1 1 1 1 1 1 1 1 1 1 1 1 1 1 1 1 1 1 1 1 1 1 1 1 1 1 1 1 1 1 1 1 ",
"1 1 1 1 1 1 1 1 1 1 1 1 1 1 1 1 1 1 1 1 1 1 1 1 1 1 1 1 1 1 1 1 1 1 1 1 1 1 1 1 1 1 1 1 1 1 1 1 1 1 1 1 ",
"1 1 1 1 1 1 1 1 1 1 1 1 1 1 1 1 1 1 1 1 1 1 1 1 1 1 ; 9 q 6   1 1 1 1 1 1 1 3 eX3 1 1 1 1 1 1 1 1 1 1 1 ",
"1 1 1 1 1 1 1 1 1 3 wX1 1 1 1 1 1 1 1 1 1 1 1 % # > n ) n n 9 * 1 1 1 1 1 1 tXuXrX1 1 1 1 1 1 1 1 1 1 1 ",
"1 1 1 1 1 1 1 1 1 ~ uXyX1 1 1 X i ; O 1 % P R i.B.[ m x 9 7 g : o 1 1 1 1 1 4 yXW 1 1 1 1 1 1 1 1 1 1 1 ",
"1 1 1 1 1 1 1 1 1 4 tXW 1 1 - o.y 6 ; V oX#X&X&Xl.C g g b _ ( | / / u - 1 1 1 1 1 1 1 1 1 1 1 1 1 1 1 1 ",
"1 1 1 1 1 1 1 1 1 1 1 2 1 q &.&.6 : V p.;X>X=X=Xt.k A %.o.;.;.=.=./ ^ ^ 9 + 1 1 1 1 1 1 1 1 1 1 1 1 1 1 ",
"1 1 1 1 1 1 1 1 1 1 1 1 t Z.-.q : V k.=X,X<X<X;XI u.,.*.=.' _ ( ( ( ( ( m 9 - 1 1 1 1 1 1 1 1 1 1 1 1 1 ",
"1 1 1 1 1 1 1 1 1 1 1 - A.S.y ; S k.>X<X<X2X<X=Xl.U.*.' o.( ( ( ( ( ^ y r 9 : 1 1 1 1 1 1 1 1 1 1 1 1 1 ",
"1 1 1 1 1 1 1 1 1 1 - -.S.o.; l @X,X<X4X2X7X4X4XI.D.Z.=.' ' ' o.o.+./ / q 7 s % 1 1 1 1 1 1 1 1 1 1 1 1 ",
"1 1 1 1 1 1 1 1 1 1 | S.-.9 g p.<X=X<X7X4X8X8XY.J.S.J.F.Z.=.=.=.o.o.o.| | b c j $ 1 1 1 1 1 1 1 1 1 1 1 ",
"1 1 1 1 1 1 1 1 1 + -.F.r f i.,X<X4X8X8X8X8X*X<.C.S.V.D.S.:.' M r r x _ o._ ( m h 1 1 1 1 1 1 1 1 1 1 1 ",
"1 1 1 1 1 1 1 1 1 i F.-.; Z U.P.P.s.;X4X8X2Xj.{ m x M _ ( r 6 ; ; r _ o.+._ n m m > 1 1 1 1 1 1 1 1 1 1 ",
"1 1 1 1 1 1 1 1 * ;.A.r B h.G.G.A.c i.8X9XqXqXqX4X%Xw.B f : ; ; 7 M +.| | x n n m z 1 1 1 1 1 1 1 1 1 1 ",
"1 1 1 1 1 1 1 X i F.] 7 h.L.D.:.p j oX0XqXqX6X*X].-X].B.B.i.V g n F | | M x r n m A # 1 1 1 1 1 1 1 1 1 ",
"1 1 1 1 1 1 1 * ..H.M M L.R.V.*.7 r.4X9XqXY.C.} ) n ' O.h.3X;X{ m M +.+.y t r c m C d 1 1 1 1 1 1 1 1 1 ",
"1 1 1 1 1 1 1 < X.:.*.R.).G.@.8 V ,X0X5XP.C.&.] O.O._ o.h.<X>Xt.c x D ..z.z.6 h h c l 1 1 1 1 1 1 1 1 1 ",
"1 1 1 1 1 1 1 < ..H.R.).J.>.t f k.4X4XP.V.V.O.` ` n | %.l.2X,X%XK 7 7 x y e ; : : f V o 1 1 1 1 1 1 1 1 ",
"1 1 1 1 1 1 1 < z.R.F.F.H.D > R 1X:X].D.G.*.m M M  . .t.1X<X=X>Xl.S 7 x c.0 7 s k z Y # 1 1 1 1 1 1 1 1 ",
"1 1 1 1 1 1 1 < $.A.G.R.D : Y #X,X-Xg.[ N h j j H B k.1X<X<X=X#X#Xp.N b.Q.t v b B A Z f o 1 1 1 1 1 1 1 ",
"1 1 1 1 1 1 1 *  .G.T.,.: z oX=X,X,X;Xk.w.P k H L p.,X2X<X=X=X#XOXt.$.!.@.v v 9 H F F X.< 1 1 1 1 1 1 1 ",
"1 1 1 1 1 1 1 $ E '.>.h k a.+X=X*XU.U.>X1X3X#Xi.k.<X<X<X=X=X=X+Xl.} N.z.M  .x.8 v.^.G !.e 1 1 1 1 1 1 1 ",
"1 1 1 1 1 1 1 1 e ,.b f q.$X+X+X*X} f p.<X<X<X<X3X<X>X=X=X&X&Xl.u.%. .N b.[.v.u !.^.z.~., 1 1 1 1 1 1 1 ",
"1 1 1 1 1 1 1 1 1 ; S U .X.XOX$X&X+X@X=X=X=X=X<X=X=X=X=X=X+X+XXX[ N F v.^.~.E z.^.Q.Q.Q.& 1 1 1 1 1 1 1 ",
"1 1 1 1 1 1 1 1 1 - 6.f.0.d.XX$X$X&X&X&X&X=X=X=X=X&X=X#X+X$XXXj.Z N b.~.^.m.e c.^./.^.c.o 1 1 1 1 1 1 1 ",
"1 1 1 1 1 1 1 1 1 $ c 6.0.d..XXXXX$X+X+X+X&X+X+X+X#X#X+XXXXX.X2.Z X.~.^.^.c.- n.^.^.~.a 1 1 1 1 1 1 1 1 ",
"1 1 1 1 1 1 1 1 1 o f 4.8.8.d..X.XXXXX$X+X+X+X+X+X+XOXXX.XXX3.b X.^.^.^.^.z.0 [.'.v.w 1 1 1 1 1 1 1 1 1 ",
"1 1 1 1 1 1 1 1 1 1 [ s.f.8.9.0..X0..X.X.XXX.XXXXX.X.X.X.Xq.A F n.^.^.^.M.#.A #.#.x.+ 1 1 1 1 1 1 1 1 1 ",
"1 1 1 1 1 1 1 1 1 + &.s.s.8.8.8.0.0.0.d.d..X.X.X.X.X.X.X0.2.N v.^.[.!.y.2.U I Y e.E 1 1 1 1 1 1 1 1 1 1 ",
"1 1 1 1 1 1 1 1 1 O ` ] C 7.8.8.8.8.9.f.9.f.d..X0.9.8.9.9.2.y.'.M.y.6.2.U I K R M.+ 1 1 1 1 1 1 1 1 1 1 ",
"1 1 1 1 1 1 1 1 1 1 # > f A 4.s.s.4.8.8.4.8.8.8.8.8.8.7.1.} [ 6.1.3.U 3.I T #.{.E uXtX1 1 1 1 1 1 1 1 1 ",
"1 1 1 1 1 1 1 1 1 1 1 1 O H T.R.T.>.g.4.7.8.7.7.8.8.1.6.{ $.,.2.3.U T R I e.{.z.}.1 1 1 1 1 1 1 1 1 1 1 ",
"1 1 1 1 1 1 1 1 1 1 1 1 1 p _._._.(.E.,.5.7.7.7.7.7.1.g.M.{.N.2.I I T T e.{.[.. tX1 1 1 1 1 1 1 1 1 1 1 ",
"1 1 1 1 1 1 1 1 1 1 1 1 1 u W.W._.`._.W.>.6.1.1.7.1.1.6.{ 2.I I T T w.y.|.m.& 1 1 1 1 1 1 1 1 1 1 1 1 1 ",
"1 1 1 1 1 1 1 1 1 1 1 1 1 + p W.(.(.E.W.O.2.U 2.U 2.A C [ 2.I T T y.{. Xz.  o 1 1 1 1 1 1 1 1 1 1 1 1 1 ",
"1 1 1 1 1 1 1 1 1 1 1 1 1 1 . u v.W.R.>.N 2.I I C C m m m C { %.M.|.[.u 1 1 1 1 1 1 1 1 1 1 1 1 1 1 1 1 ",
"1 1 1 1 1 1 1 1 1 1 1 1 1 1 1 1   w u p H j L b N m @.@.' n ,.[.c., 1 1 1 1 1 1 1 1 1 1 1 1 1 1 1 1 1 1 ",
"1 1 1 1 1 1 1 1 1 1 1 1 1 1 1 1 1 3 rX2 o $ > H X.v.~./.!.b...= X 1 1 1 1 1 1 1 1 1 1 1 1 1 1 1 1 1 1 1 ",
"1 1 1 1 1 1 1 1 1 1 1 1 1 1 1 1 o Q uX! 1 1 1 , e a a p e = + 1 1 1 1 1 1 1 1 1 1 1 1 1 1 1 1 1 1 1 1 1 ",
"1 1 1 1 1 1 1 1 1 1 1 1 1 1 1 1 1 1 ! 3 1 1 1 1 1 1 1 1 1 1 1 1 1 1 1 1 1 1 1 1 1 1 1 1 1 1 1 1 1 1 1 1 ",
"1 1 1 1 1 1 1 1 1 1 1 1 1 1 1 1 1 1 1 1 1 1 1 1 1 1 1 1 1 1 1 1 1 1 1 1 1 1 1 1 1 1 1 1 1 1 1 1 1 1 1 1 ",
"1 1 1 1 1 1 1 1 1 1 1 1 1 1 1 1 1 1 1 1 1 1 1 1 1 1 1 1 1 1 1 1 1 1 1 1 1 1 1 1 1 1 1 1 1 1 1 1 1 1 1 1 ",
"1 1 1 1 1 1 1 1 1 1 1 1 1 1 1 1 1 1 1 1 1 1 1 1 1 1 1 1 1 1 1 1 1 1 1 1 1 1 1 1 1 1 1 1 1 1 1 1 1 1 1 1 ",
"1 1 1 1 1 1 1 1 1 1 1 1 1 1 1 1 1 1 1 1 1 1 1 1 1 1 1 1 1 1 1 1 1 1 1 1 1 1 1 1 1 1 1 1 1 1 1 1 1 1 1 1 ",
"1 1 1 1 1 1 1 1 1 1 1 1 1 1 1 1 1 1 1 1 1 1 1 1 1 1 1 1 1 1 1 1 1 1 1 1 1 1 1 1 1 1 1 1 1 1 1 1 1 1 1 1 ",
"1 1 1 1 1 1 1 1 1 1 1 1 1 1 1 1 1 1 1 1 1 1 1 1 1 1 1 1 1 1 1 1 1 1 1 1 1 1 1 1 1 1 1 1 1 1 1 1 1 1 1 1 ",
"1 1 1 1 1 1 1 1 1 1 1 1 1 1 1 1 1 1 1 1 1 1 1 1 1 1 1 1 1 1 1 1 1 1 1 1 1 1 1 1 1 1 1 1 1 1 1 1 1 1 1 1 "
};
